<svg width="24" height="24" viewBox="0 0 24 24" fill="none" xmlns="http://www.w3.org/2000/svg">
<g clip-path="url(#clip0_11_2029)">
<path fill-rule="evenodd" clip-rule="evenodd" d="M4.84326 3.99039C4.84326 2.89982 5.72679 2.01543 6.81737 2.01439L19.8654 2.00189C20.9574 2.00085 21.8433 2.88584 21.8433 3.97789V12.5029H4.84326V3.99039Z" fill="#63A2FF"/>
<path fill-rule="evenodd" clip-rule="evenodd" d="M3.484 12.5209L21.8433 12.5L20.4747 19.3242C20.2496 20.1742 19.4454 20.7703 18.5226 20.7712L4.46894 20.784C3.22989 20.7852 2.28335 19.7339 2.47683 18.5715L3.484 12.5209Z" fill="#63A2FF"/>
<path d="M3.5 5.4C3.5 4.35066 4.35066 3.5 5.4 3.5H18.6C19.6493 3.5 20.5 4.35066 20.5 5.4V12.5H3.5V5.4Z" fill="#EDEDED"/>
<path fill-rule="evenodd" clip-rule="evenodd" d="M3.59801 12.5029H20.4998L18.6821 18.374C18.4242 19.1314 17.6954 19.6429 16.874 19.6429H4.00075C2.73235 19.6429 1.81843 18.4612 2.17179 17.2781L3.59801 12.5029Z" fill="#CCCCCC"/>
<path fill-rule="evenodd" clip-rule="evenodd" d="M3.48263 12.5H20.5L17.667 17.397C17.3298 17.9798 16.695 18.3406 16.0067 18.3406H3.54508C2.12692 18.3406 1.20628 16.8891 1.84423 15.6591L3.48263 12.5Z" fill="url(#paint0_linear_11_2029)"/>
<path fill-rule="evenodd" clip-rule="evenodd" d="M5.85229 6.75824C5.85229 6.32815 6.2395 5.97949 6.71713 5.97949H13.0593C13.5369 5.97949 13.9241 6.32815 13.9241 6.75824C13.9241 7.18832 13.5369 7.53698 13.0593 7.53698H6.71713C6.2395 7.53698 5.85229 7.18832 5.85229 6.75824ZM5.85229 9.09446C5.85229 8.66438 6.2395 8.31572 6.71713 8.31572H9.31165C9.78929 8.31572 10.1765 8.66438 10.1765 9.09446C10.1765 9.52455 9.78929 9.87321 9.31165 9.87321H6.71713C6.2395 9.87321 5.85229 9.52455 5.85229 9.09446Z" fill="#C8CCD4"/>
<circle cx="17.5" cy="17.5" r="5.5" fill="#FFBF19"/>
<path d="M15.4338 15.5268C15.6957 15.4362 15.9789 15.5829 16.0663 15.8545L16.5456 17.3437L17.0249 15.8545C17.093 15.6429 17.284 15.5001 17.4991 15.5001C17.7143 15.5001 17.9053 15.6429 17.9734 15.8545L18.4527 17.3437L18.932 15.8545C19.0194 15.5829 19.3026 15.4362 19.5645 15.5268C19.8265 15.6175 19.968 15.9112 19.8805 16.1828L19.7293 16.6525H20C20.2761 16.6525 20.5 16.8847 20.5 17.171C20.5 17.4574 20.2761 17.6895 20 17.6895H19.3956L18.927 19.1456C18.8589 19.3573 18.6678 19.5 18.4527 19.5C18.2375 19.5 18.0465 19.3573 17.9784 19.1456L17.4991 17.6565L17.0199 19.1456C16.9518 19.3573 16.7607 19.5 16.5456 19.5C16.3304 19.5 16.1394 19.3573 16.0713 19.1456L15.6027 17.6895H15C14.7239 17.6895 14.5 17.4574 14.5 17.171C14.5 16.8847 14.7239 16.6525 15 16.6525H15.2689L15.1178 16.1828C15.0303 15.9112 15.1718 15.6175 15.4338 15.5268Z" fill="white"/>
</g>
<defs>
<linearGradient id="paint0_linear_11_2029" x1="5.53492" y1="12.5" x2="4.56626" y2="15.4203" gradientUnits="userSpaceOnUse">
<stop stop-color="#FFFCFC"/>
<stop offset="1" stop-color="#F0F0F0"/>
</linearGradient>
<clipPath id="clip0_11_2029">
<rect width="24" height="24" fill="white"/>
</clipPath>
</defs>
</svg>
