<svg width="24" height="24" viewBox="0 0 24 24" fill="none" xmlns="http://www.w3.org/2000/svg">
<g clip-path="url(#clip0_11_2003)">
<path d="M2 7C2 5.34315 3.34315 4 5 4H19C20.6569 4 22 5.34315 22 7V17C22 18.6569 20.6569 20 19 20H5C3.34315 20 2 18.6569 2 17V7Z" fill="#87AEF8"/>
<path d="M9.07283 10.0375C9.44391 9.91062 9.84513 10.116 9.96897 10.4963L10.6479 12.5811L11.3269 10.4963C11.4234 10.2 11.694 10.0002 11.9988 10.0002C12.3036 10.0002 12.5742 10.2 12.6707 10.4963L13.3497 12.5811L14.0286 10.4963C14.1525 10.116 14.5537 9.91062 14.9248 10.0375C15.2958 10.1644 15.4963 10.5756 15.3724 10.9559L15.1582 11.6136H15.5417C15.9329 11.6136 16.25 11.9386 16.25 12.3395C16.25 12.7404 15.9329 13.0654 15.5417 13.0654H14.6854L14.0216 15.1039C13.9251 15.4002 13.6544 15.6 13.3497 15.6C13.0449 15.6 12.7742 15.4002 12.6777 15.1039L11.9988 13.0191L11.3198 15.1039C11.2233 15.4002 10.9527 15.6 10.6479 15.6C10.3431 15.6 10.0725 15.4002 9.97602 15.1039L9.31214 13.0654H8.45834C8.06713 13.0654 7.75 12.7404 7.75 12.3395C7.75 11.9386 8.06713 11.6136 8.45834 11.6136H8.83934L8.62516 10.9559C8.50132 10.5756 8.70174 10.1644 9.07283 10.0375Z" fill="white"/>
<path d="M22 5C22 4.44772 21.5523 4 21 4L3 4C2.44772 4 2 4.44772 2 5L2 7L22 7L22 5Z" fill="#4F79FF"/>
<path d="M23 17.5C23 19.9853 20.9853 22 18.5 22C16.0147 22 14 19.9853 14 17.5C14 15.0147 16.0147 13 18.5 13C20.9853 13 23 15.0147 23 17.5Z" fill="#E55728"/>
<path d="M20.244 15.7561C20.036 15.5481 19.6989 15.5481 19.491 15.7561L18.5 16.747L17.509 15.7561C17.3011 15.5482 16.964 15.5482 16.756 15.7561C16.5481 15.9641 16.5481 16.3012 16.756 16.5091L17.747 17.5001L16.756 18.4911C16.548 18.699 16.548 19.0361 16.756 19.2441C16.9639 19.452 17.301 19.452 17.509 19.2441L18.5 18.2531L19.491 19.2441C19.699 19.4521 20.0361 19.4521 20.2441 19.2441C20.452 19.0362 20.452 18.6991 20.2441 18.4911L19.253 17.5001L20.244 16.5091C20.4519 16.3011 20.4519 15.964 20.244 15.7561Z" fill="white"/>
</g>
<defs>
<clipPath id="clip0_11_2003">
<rect width="24" height="24" fill="white"/>
</clipPath>
</defs>
</svg>
