<svg width="24" height="24" viewBox="0 0 24 24" fill="none" xmlns="http://www.w3.org/2000/svg">
<g clip-path="url(#clip0_11_2022)">
<path d="M2 7C2 5.34315 3.34315 4 5 4H19C20.6569 4 22 5.34315 22 7V17C22 18.6569 20.6569 20 19 20H5C3.34315 20 2 18.6569 2 17V7Z" fill="#87AEF8"/>
<path d="M18.4228 13.4478C18.5194 13.7299 18.312 14.0239 18.0166 14.0239C17.8305 14.0239 17.6656 13.903 17.6079 13.7244L17.3955 13.0669H15.904L15.6916 13.7244C15.6339 13.903 15.469 14.0239 15.283 14.0239C14.9876 14.0239 14.7802 13.7299 14.8767 13.4478L15.9214 10.3957C16.0287 10.082 16.3212 9.87158 16.6498 9.87158C16.9784 9.87158 17.2708 10.082 17.3782 10.3957L18.4228 13.4478ZM16.6327 10.8083L16.1208 12.3918H17.1767L16.6648 10.8083H16.6327Z" fill="white"/>
<path d="M10.5062 9.97684C10.8333 9.97684 11.123 10.1902 11.2229 10.5048L11.9729 12.8658L12.72 10.5064C12.8199 10.1909 13.1102 9.97684 13.4382 9.97684C13.8546 9.97684 14.1922 10.3178 14.1922 10.7384V13.6272C14.1922 13.9044 13.9697 14.1292 13.6952 14.1292C13.4208 14.1292 13.1983 13.9044 13.1983 13.6272V13.1595L13.2943 11.1746L12.4058 13.8158C12.3428 14.0032 12.1686 14.1292 11.9728 14.1292C11.777 14.1292 11.6029 14.0033 11.5398 13.8161L10.6486 11.1718L10.7446 13.1595V13.6287C10.7446 13.9051 10.5228 14.1292 10.2491 14.1292C9.97541 14.1292 9.75355 13.9051 9.75355 13.6287V10.7371C9.75355 10.3172 10.0905 9.97684 10.5062 9.97684Z" fill="white"/>
<path d="M9.02724 10.9747C9.12246 11.2124 8.92054 11.4412 8.66668 11.4412C8.45816 11.4412 8.29261 11.2776 8.18086 11.0998C8.02939 10.8588 7.76179 10.7209 7.43086 10.7209C6.80756 10.7209 6.39528 11.2024 6.39528 12.053C6.39528 12.9253 6.81342 13.3851 7.42696 13.3851C7.74859 13.3851 8.01416 13.258 8.17062 13.029C8.28787 12.8574 8.45397 12.699 8.66039 12.7C8.91766 12.7012 9.11917 12.9345 9.01119 13.1704C8.76384 13.7107 8.20986 14.1292 7.41328 14.1292C6.34252 14.1292 5.55313 13.3693 5.55313 12.053C5.55313 10.7347 6.3562 9.97684 7.41328 9.97684C8.16805 9.97684 8.77101 10.3351 9.02724 10.9747Z" fill="white"/>
<path fill-rule="evenodd" clip-rule="evenodd" d="M16.6498 9.9248C16.3442 9.9248 16.0718 10.1205 15.9717 10.4129L14.9271 13.4651C14.8421 13.7133 15.0249 13.9707 15.283 13.9707C15.4457 13.9707 15.5903 13.865 15.641 13.708L15.8653 13.0137H17.4342L17.6585 13.708C17.7092 13.865 17.8539 13.9707 18.0166 13.9707C18.2747 13.9707 18.4574 13.7133 18.3725 13.4651L17.3278 10.4129C17.2277 10.1205 16.9553 9.9248 16.6498 9.9248ZM15.871 10.3784C15.9857 10.0435 16.2982 9.81836 16.6498 9.81836C17.0014 9.81836 17.3139 10.0435 17.4285 10.3784L18.4732 13.4306C18.5813 13.7464 18.3492 14.0771 18.0166 14.0771C17.8071 14.0771 17.622 13.9411 17.5572 13.7407L17.3568 13.1201H15.9428L15.7423 13.7407C15.6776 13.9411 15.4924 14.0771 15.283 14.0771C14.9503 14.0771 14.7183 13.7464 14.8264 13.4306L15.871 10.3784ZM6.12567 10.557C5.80371 10.8996 5.60644 11.4047 5.60644 12.053C5.60644 12.7005 5.80043 13.2056 6.12064 13.5484C6.44065 13.8909 6.891 14.0759 7.41335 14.0759C8.18923 14.0759 8.72423 13.6695 8.96286 13.1482C9.00783 13.05 8.98881 12.9538 8.93096 12.8801C8.87224 12.8053 8.77306 12.7538 8.6602 12.7532C8.48208 12.7524 8.32997 12.8902 8.21463 13.059C8.04655 13.305 7.763 13.4384 7.42703 13.4384C7.10585 13.4384 6.83207 13.3174 6.63975 13.0797C6.4485 12.8433 6.34214 12.497 6.34214 12.053C6.34214 11.6198 6.44708 11.2737 6.63782 11.0348C6.82964 10.7945 7.10432 10.6676 7.43094 10.6676C7.77725 10.6676 8.06332 10.8126 8.22598 11.0714C8.33558 11.2458 8.48727 11.388 8.66674 11.388C8.77784 11.388 8.87649 11.3378 8.93655 11.2636C8.99589 11.1902 9.01768 11.0938 8.9779 10.9945C8.73117 10.3786 8.15043 10.0301 7.41335 10.0301C6.89794 10.0301 6.44748 10.2145 6.12567 10.557ZM6.0481 10.4841C6.39208 10.1181 6.87169 9.92362 7.41335 9.92362C8.1858 9.92362 8.81097 10.2915 9.0767 10.9549C9.13214 11.0933 9.10058 11.2301 9.0193 11.3305C8.93874 11.4301 8.8095 11.4944 8.66674 11.4944C8.42919 11.4944 8.24978 11.3093 8.13587 11.1281C7.9956 10.9049 7.74648 10.7741 7.43094 10.7741C7.13426 10.7741 6.89115 10.888 6.721 11.1012C6.54977 11.3157 6.44858 11.6356 6.44858 12.053C6.44858 12.4813 6.55129 12.8011 6.72249 13.0127C6.89262 13.223 7.13467 13.3319 7.42703 13.3319C7.73434 13.3319 7.98191 13.2109 8.12675 12.999C8.2459 12.8246 8.42599 12.6457 8.6607 12.6468C8.80512 12.6475 8.93533 12.7132 9.01469 12.8143C9.09491 12.9165 9.12265 13.0549 9.05964 13.1925C8.80358 13.7518 8.23063 14.1824 7.41335 14.1824C6.86495 14.1824 6.38524 13.9875 6.04287 13.621C5.7007 13.2548 5.5 12.7218 5.5 12.053C5.5 11.383 5.70426 10.85 6.0481 10.4841ZM10.5063 10.0301C10.1205 10.0301 9.80683 10.3461 9.80683 10.7371V13.6287C9.80683 13.8762 10.0054 14.0759 10.2491 14.0759C10.4929 14.0759 10.6914 13.8762 10.6914 13.6287V13.1608L10.5955 11.1743L10.6991 11.1548L11.5903 13.7991C11.6462 13.9649 11.8001 14.0759 11.9728 14.0759C12.1455 14.0759 12.2996 13.9648 12.3554 13.7989L13.2439 11.1577L13.3475 11.1772L13.2515 13.1608V13.6272C13.2515 13.8755 13.4507 14.0759 13.6952 14.0759C13.9398 14.0759 14.139 13.8755 14.139 13.6272V10.7384C14.139 10.3467 13.8247 10.0301 13.4382 10.0301C13.1337 10.0301 12.8637 10.2288 12.7708 10.5225L11.973 13.0418L11.1722 10.5209C11.0792 10.2282 10.8099 10.0301 10.5063 10.0301ZM9.70039 10.7371C9.70039 10.2883 10.0607 9.92362 10.5063 9.92362C10.8569 9.92362 11.1668 10.1523 11.2737 10.4887L11.9728 12.6897L12.6693 10.4903C12.7761 10.153 13.0868 9.92362 13.4382 9.92362C13.8845 9.92362 14.2454 10.2889 14.2454 10.7384V13.6272C14.2454 13.9333 13.9996 14.1824 13.6952 14.1824C13.3909 14.1824 13.1451 13.9333 13.1451 13.6272V13.1569L13.2226 11.5546L12.4563 13.8328C12.3861 14.0415 12.1918 14.1824 11.9728 14.1824C11.7539 14.1824 11.5597 14.0417 11.4894 13.8331L10.7203 11.5508L10.7979 13.1595L10.7979 13.6287C10.7979 13.934 10.5527 14.1824 10.2491 14.1824C9.94557 14.1824 9.70039 13.934 9.70039 13.6287V10.7371ZM16.594 10.7551H16.7036L17.2498 12.445H16.0477L16.594 10.7551ZM16.6488 10.9316L16.194 12.3385H17.1036L16.6488 10.9316Z" fill="white"/>
<path d="M22 5C22 4.44772 21.5523 4 21 4L3 4C2.44772 4 2 4.44772 2 5L2 7L22 7L22 5Z" fill="#4F79FF"/>
<path d="M23 17.5C23 19.9853 20.9853 22 18.5 22C16.0147 22 14 19.9853 14 17.5C14 15.0147 16.0147 13 18.5 13C20.9853 13 23 15.0147 23 17.5Z" fill="#4D74E8"/>
<path d="M18.4977 14.8501C18.1387 14.8501 17.8477 15.1411 17.8477 15.5001C17.8477 15.8591 18.1387 16.1501 18.4977 16.1501H18.5022C18.8611 16.1501 19.1522 15.8591 19.1522 15.5001C19.1522 15.1411 18.8611 14.8501 18.5022 14.8501H18.4977Z" fill="white"/>
<path d="M18.4977 17.0501C18.1387 17.0501 17.8477 17.3411 17.8477 17.7001V19.5001C17.8477 19.8591 18.1387 20.1501 18.4977 20.1501C18.8566 20.1501 19.1477 19.8591 19.1477 19.5001V17.7001C19.1477 17.3411 18.8566 17.0501 18.4977 17.0501Z" fill="white"/>
</g>
<defs>
<clipPath id="clip0_11_2022">
<rect width="24" height="24" fill="white"/>
</clipPath>
</defs>
</svg>
