<svg width="24" height="24" viewBox="0 0 24 24" fill="none" xmlns="http://www.w3.org/2000/svg">
<g clip-path="url(#clip0_11_1886)">
<path d="M4 4H21L22.6739 15.7172C22.846 16.922 21.9111 18 20.694 18H7.73459C6.73929 18 5.89545 17.2681 5.75469 16.2828L4 4Z" fill="#105CBE"/>
<path d="M3.00002 4H21L19.2453 16.2828C19.1046 17.2681 18.2607 18 17.2654 18H3.30604C2.08894 18 1.15402 16.922 1.32614 15.7172L3.00002 4Z" fill="#77B2FF"/>
<path d="M20.5714 7H2.57141L2.99998 4H21L20.5714 7Z" fill="#4998FF"/>
<path d="M4 14.75C4 14.3358 4.44772 14 5 14H8C8.55228 14 9 14.3358 9 14.75C9 15.1642 8.55228 15.5 8 15.5H5C4.44772 15.5 4 15.1642 4 14.75Z" fill="white"/>
<path d="M18 21C20.7614 21 23 18.7614 23 16C23 13.2386 20.7614 11 18 11C15.2386 11 13 13.2386 13 16C13 18.7614 15.2386 21 18 21Z" fill="#2B6ADE"/>
<path d="M18.75 13.4994C18.75 13.1147 18.4142 12.8027 18 12.8027C17.5858 12.8027 17.25 13.1147 17.25 13.4994L17.25 15.9828C17.25 16.3676 17.5858 16.6795 18 16.6795C18.4142 16.6795 18.75 16.3676 18.75 15.9828L18.75 13.4994Z" fill="white"/>
<path d="M18 18.9994C18.5523 18.9994 19 18.5835 19 18.0705C19 17.5575 18.5523 17.1416 18 17.1416C17.4477 17.1416 17 17.5575 17 18.0705C17 18.5835 17.4477 18.9994 18 18.9994Z" fill="white"/>
<path d="M18.75 13.4994C18.75 13.1147 18.4142 12.8027 18 12.8027C17.5858 12.8027 17.25 13.1147 17.25 13.4994L17.25 15.9828C17.25 16.3676 17.5858 16.6795 18 16.6795C18.4142 16.6795 18.75 16.3676 18.75 15.9828L18.75 13.4994Z" fill="white"/>
<path d="M18 18.9994C18.5523 18.9994 19 18.5835 19 18.0705C19 17.5575 18.5523 17.1416 18 17.1416C17.4477 17.1416 17 17.5575 17 18.0705C17 18.5835 17.4477 18.9994 18 18.9994Z" fill="white"/>
</g>
<defs>
<clipPath id="clip0_11_1886">
<rect width="24" height="24" fill="white"/>
</clipPath>
</defs>
</svg>
