<svg width="24" height="24" viewBox="0 0 24 24" fill="none" xmlns="http://www.w3.org/2000/svg">
<g clip-path="url(#clip0_11_1924)">
<path d="M4 5H21L22.6739 16.7172C22.846 17.922 21.9111 19 20.694 19H7.73459C6.73929 19 5.89545 18.2681 5.75469 17.2828L4 5Z" fill="#105CBE"/>
<path d="M2.99904 5H20.999L19.2444 17.2828C19.1036 18.2681 18.2598 19 17.2645 19H3.30506C2.08796 19 1.15304 17.922 1.32516 16.7172L2.99904 5Z" fill="#77B2FF"/>
<path d="M20.5723 8H2.57227L3.00084 5H21.0008L20.5723 8Z" fill="#4998FF"/>
<path d="M4 15.75C4 15.3358 4.44772 15 5 15H8C8.55228 15 9 15.3358 9 15.75C9 16.1642 8.55228 16.5 8 16.5H5C4.44772 16.5 4 16.1642 4 15.75Z" fill="white"/>
<ellipse cx="18.002" cy="16" rx="5" ry="5" fill="#2684FE"/>
<path d="M15.9338 14.0268C16.1957 13.9362 16.4789 14.0829 16.5663 14.3545L17.0456 15.8437L17.5249 14.3545C17.593 14.1429 17.784 14.0001 17.9991 14.0001C18.2143 14.0001 18.4053 14.1429 18.4734 14.3545L18.9527 15.8437L19.432 14.3545C19.5194 14.0829 19.8026 13.9362 20.0645 14.0268C20.3265 14.1175 20.468 14.4112 20.3805 14.6828L20.2293 15.1525H20.5C20.7761 15.1525 21 15.3847 21 15.671C21 15.9574 20.7761 16.1895 20.5 16.1895H19.8956L19.427 17.6456C19.3589 17.8573 19.1678 18 18.9527 18C18.7375 18 18.5465 17.8573 18.4784 17.6456L17.9991 16.1565L17.5199 17.6456C17.4518 17.8573 17.2607 18 17.0456 18C16.8304 18 16.6394 17.8573 16.5713 17.6456L16.1027 16.1895H15.5C15.2239 16.1895 15 15.9574 15 15.671C15 15.3847 15.2239 15.1525 15.5 15.1525H15.7689L15.6178 14.6828C15.5303 14.4112 15.6718 14.1175 15.9338 14.0268Z" fill="white"/>
</g>
<defs>
<clipPath id="clip0_11_1924">
<rect width="24" height="24" fill="white"/>
</clipPath>
</defs>
</svg>
