<svg width="24" height="24" viewBox="0 0 24 24" fill="none" xmlns="http://www.w3.org/2000/svg">
<path d="M5.31816 12.1446C4.08887 12.1446 3.09233 13.0185 3.09233 14.0965C3.09233 15.1746 4.08887 16.0485 5.31816 16.0485H7.54399V12.1446H5.31816Z" fill="#FFCDB3"/>
<path d="M18.6819 12.1446C19.9112 12.1446 20.9077 13.0185 20.9077 14.0965C20.9077 15.1746 19.9112 16.0485 18.6819 16.0485H16.4561V12.1446H18.6819Z" fill="#FFCDB3"/>
<path d="M5.56779 12.1383C5.56779 9.98226 7.48763 8.23441 9.85587 8.23441H16.288C17.4721 8.23441 18.432 9.10833 18.432 10.1864V15.0663C18.432 18.3004 15.5523 20.9222 11.9999 20.9222C8.44755 20.9222 5.56779 18.3004 5.56779 15.0663V12.1383Z" fill="#FFD8C4"/>
<path d="M5.56779 12.1383C5.56779 9.98226 7.48763 8.23441 9.85587 8.23441H16.288C17.4721 8.23441 18.432 9.10833 18.432 10.1864V15.0663C18.432 18.3004 15.5523 20.9222 11.9999 20.9222C8.44755 20.9222 5.56779 18.3004 5.56779 15.0663V12.1383Z" fill="#FFD8C4"/>
<path d="M4.88359 12.1429C4.88359 9.98681 5.90352 7.09775 8.52351 7.09775L16.7434 8.23896C18.0534 8.23896 19.1153 9.11288 19.1153 10.1909V15.0709C19.1153 18.305 15.9294 20.9268 11.9995 20.9268C8.06947 20.9268 4.88359 18.305 4.88359 15.0709V12.1429Z" fill="#FFD8C4"/>
<path d="M10.0865 14.7599C10.5715 14.7599 10.814 14.3283 10.814 13.796C10.814 13.2636 10.5715 12.8321 10.0865 12.8321C9.60154 12.8321 9.35905 13.2636 9.35905 13.796C9.35905 14.3283 9.60154 14.7599 10.0865 14.7599Z" fill="url(#paint0_linear_11_1943)"/>
<path d="M14.2098 14.7599C14.6948 14.7599 14.9373 14.3283 14.9373 13.796C14.9373 13.2636 14.6948 12.8321 14.2098 12.8321C13.7248 12.8321 13.4824 13.2636 13.4824 13.796C13.4824 14.3283 13.7248 14.7599 14.2098 14.7599Z" fill="url(#paint1_linear_11_1943)"/>
<path d="M10.9282 15.8705C10.9282 15.7722 11.0076 15.6914 11.1068 15.6914L13.1895 15.6914C13.2876 15.6914 13.3681 15.771 13.3681 15.8705C13.3681 16.6242 12.9012 17.0924 12.1493 17.0924C11.3975 17.0924 10.9305 16.6242 10.9305 15.8705L10.9282 15.8705Z" fill="#E57370"/>
<path d="M18.8571 13.2286C18.2036 12.1428 17.0579 8.05913 15.8812 8.05913L19.3876 7.27773C19.6247 7.94005 19.7845 8.75902 19.8285 9.25597C20.024 11.4619 19.4902 12.5793 19.0021 13.2338C18.9644 13.2844 18.8897 13.2827 18.8571 13.2286Z" fill="#423531"/>
<path d="M5.28938 7.00309C4.55961 3.32026 9.81191 2.7105 12.5358 3.18751C15.1426 3.644 17.0838 4.27863 19.6388 3.79911C19.8179 3.7655 19.9876 3.90053 19.982 4.08269C19.8738 7.60356 18.0746 8.68536 16.8343 9.02218C14.3481 9.69729 8.60966 9.77338 7.07901 8.64375C6.20015 11.7095 5.17773 14.1467 4.86587 14.5821C4.37072 14.2128 4.27875 13.3746 3.91841 12.4927C2.7283 9.58026 3.30586 7.0031 5.28938 7.00309Z" fill="#423531"/>
<path d="M20.2075 5.72869C19.5721 6.36853 17.8731 6.22761 17.1863 6.40196C15.9159 7.68159 17.7215 9.23205 18.6742 9.11923C20.3366 9.2391 20.8428 5.08884 20.2075 5.72869Z" fill="#423531"/>
<defs>
<linearGradient id="paint0_linear_11_1943" x1="13.9673" y1="13.4747" x2="14.707" y2="14.5912" gradientUnits="userSpaceOnUse">
<stop stop-color="#3E3535"/>
<stop offset="1" stop-color="#2F2828"/>
</linearGradient>
<linearGradient id="paint1_linear_11_1943" x1="13.9673" y1="13.4747" x2="14.707" y2="14.5912" gradientUnits="userSpaceOnUse">
<stop stop-color="#3E3535"/>
<stop offset="1" stop-color="#2F2828"/>
</linearGradient>
</defs>
</svg>
