<svg width="24" height="24" viewBox="0 0 24 24" fill="none" xmlns="http://www.w3.org/2000/svg">
<g clip-path="url(#clip0_11_1997)">
<path d="M2.36426 3C3.26756 3.0002 3.9998 3.73244 4 4.63574V5.8623C4 5.9108 3.99011 5.95682 3.97461 6H4V17.7275C4 19.5347 5.46526 21 7.27246 21H17.5459C18.9012 20.9999 20 19.9012 20 18.5459V5.4541C20 4.09882 18.9012 3.00014 17.5459 3H2.36426Z" fill="#ACA5F8"/>
<path d="M17.267 14.5067L14.4529 14.9942C14.1816 15.0412 13.9499 14.7947 14.0094 14.5225L14.6033 11.8081L20.1094 6.22986C20.4119 5.92338 20.9024 5.92338 21.2049 6.22987L22.7731 7.81858C23.0756 8.12507 23.0756 8.62198 22.7731 8.92847L17.267 14.5067Z" fill="#6B5FF0"/>
<path d="M10.8184 16.4961C10.3666 16.4961 10 16.8627 10 17.3145V18.4062H9.99512C9.99627 18.4374 10 18.4686 10 18.5C10 19.8189 8.97848 20.8961 7.68359 20.9902V20.999H8.50195V20.9951H19.5459C21.3447 20.668 21.9314 18.6795 22 17.7246V17.3154H21.999C21.9991 17.309 22 17.3024 22 17.2959C21.9999 16.8542 21.6419 16.4962 21.2002 16.4961H10.8184Z" fill="#887EF9"/>
<path d="M2.5 3C1.73516 3 1.10605 3.57269 1.01367 4.3125C1.00611 4.34357 1 4.37578 1 4.40918V6.09082C1.00007 6.31666 1.18333 6.5 1.40918 6.5H4V4.40918C4 4.37588 3.99482 4.34349 3.9873 4.3125C3.89498 3.57268 3.26482 3.00007 2.5 3Z" fill="#887EF9"/>
<path d="M6 7.9C6 7.40294 6.40294 7 6.9 7H13C13.4971 7 13.9 7.40294 13.9 7.9C13.9 8.39706 13.4971 8.8 13 8.8H6.9C6.40294 8.8 6 8.39706 6 7.9Z" fill="white"/>
<path d="M6 11.5C6 11.0029 6.40294 10.6 6.9 10.6H10.85C11.3471 10.6 11.75 11.0029 11.75 11.5C11.75 11.9971 11.3471 12.4 10.85 12.4H6.9C6.40294 12.4 6 11.9971 6 11.5Z" fill="white"/>
</g>
<defs>
<clipPath id="clip0_11_1997">
<rect width="24" height="24" fill="white"/>
</clipPath>
</defs>
</svg>
