<svg width="24" height="24" viewBox="0 0 24 24" fill="none" xmlns="http://www.w3.org/2000/svg">
<g clip-path="url(#clip0_11_1869)">
<path d="M15.043 6.23429C15.1504 5.99414 15.271 5.75861 15.3918 5.52267C15.7268 4.86851 16.0633 4.21114 16.1251 3.44306V2.87151C16.1251 2.39019 15.7294 2 15.2413 2L6.75878 2C6.27067 2 5.87499 2.39019 5.87499 2.87151V3.45593C5.93817 4.22285 6.27122 4.87882 6.6027 5.53169C6.72286 5.76835 6.84281 6.00461 6.94963 6.24559C6.44088 6.43664 5.95062 6.66778 5.48632 6.93722C4.34658 7.59871 3.35895 8.48431 2.59382 9.544C1.54263 10.9975 1.04995 12.7143 1.00454 14.479H1L1 17.5185C1 19.442 2.62561 21 4.63265 21H17.3674C19.3744 21 21 19.442 21 17.5185V14.479H20.9954C20.9519 12.7151 20.4615 11.0013 19.4107 9.54617C18.6456 8.48649 17.667 7.60088 16.5341 6.9394C16.0628 6.66461 15.5644 6.42767 15.043 6.23429Z" fill="#BAB2F9"/>
<path d="M8.24501 11.0335C8.59427 10.9202 8.97189 11.1036 9.08845 11.4431L9.72746 13.3046L10.3665 11.4431C10.4573 11.1786 10.712 11.0002 10.9989 11.0002C11.2857 11.0002 11.5404 11.1786 11.6312 11.4431L12.2703 13.3046L12.9093 11.4431C13.0258 11.1036 13.4035 10.9202 13.7527 11.0335C14.102 11.1468 14.2906 11.5139 14.174 11.8535L13.9725 12.4407H14.3333C14.7015 12.4407 15 12.7309 15 13.0888C15 13.4468 14.7015 13.7369 14.3333 13.7369H13.5275L12.9026 15.5571C12.8118 15.8216 12.5571 16 12.2703 16C11.9834 16 11.7287 15.8216 11.6379 15.5571L10.9989 13.6956L10.3598 15.5571C10.269 15.8216 10.0143 16 9.72746 16C9.4406 16 9.1859 15.8216 9.09508 15.5571L8.47025 13.7369H7.66667C7.29848 13.7369 7 13.4468 7 13.0888C7 12.7309 7.29848 12.4407 7.66667 12.4407H8.02526L7.82368 11.8535C7.70712 11.5139 7.89576 11.1468 8.24501 11.0335Z" fill="white"/>
<path d="M6.40039 6.28906C6.40039 5.73678 6.84811 5.28906 7.40039 5.28906H14.5999C15.1521 5.28906 15.5999 5.73678 15.5999 6.28906V6.28906C15.5999 6.84135 15.1521 7.28906 14.5999 7.28906H7.40039C6.84811 7.28906 6.40039 6.84135 6.40039 6.28906V6.28906Z" fill="#685ADF"/>
<path fill-rule="evenodd" clip-rule="evenodd" d="M16.2574 15.0684V14.5227C16.2574 14.0268 16.4528 13.4125 16.8854 12.9121C17.3358 12.3913 18.0406 12 19.0002 12C19.9599 12 20.6647 12.3913 21.115 12.9121C21.5477 13.4125 21.7431 14.0268 21.7431 14.5227V15.0684H21.842C22.4708 15.0684 22.9825 15.5593 22.9996 16.1711L23 16.2026V20.1917C23 21.1904 22.1734 22 21.1538 22H16.8462C15.8266 22 15 21.1904 15 20.1917V16.1711C15.017 15.5593 15.5292 15.0684 16.158 15.0684H16.2574ZM17.5481 14.5227C17.5481 14.2846 17.6524 13.9358 17.8939 13.6564C18.1178 13.3975 18.4617 13.1925 19.0002 13.1925C19.5388 13.1925 19.8827 13.3975 20.1066 13.6564C20.3481 13.9358 20.4523 14.2846 20.4523 14.5227V15.0684H17.5481V14.5227Z" fill="#685ADF"/>
<path d="M19.4184 18.9216C19.7617 18.7622 20 18.4125 20 18.0069C20 17.4508 19.5523 17 19 17C18.4477 17 18 17.4508 18 18.0069C18 18.4119 18.2375 18.761 18.5799 18.9208V19.6492C18.5799 19.8429 18.7676 20 18.9991 20C19.2307 20 19.4184 19.8429 19.4184 19.6492V18.9216Z" fill="white"/>
</g>
<defs>
<clipPath id="clip0_11_1869">
<rect width="24" height="24" fill="white"/>
</clipPath>
</defs>
</svg>
