<svg width="24" height="24" viewBox="0 0 24 24" fill="none" xmlns="http://www.w3.org/2000/svg">
<g clip-path="url(#clip0_11_2031)">
<path d="M3.60547 8.89746H5.71032V19.4217H3.60547V8.89746Z" fill="#C6D4EF"/>
<path d="M7.81517 8.89746H9.92002V19.4217H7.81517V8.89746Z" fill="#C6D4EF"/>
<path d="M12.0249 8.89746H14.1297V19.4217H12.0249V8.89746Z" fill="#C6D4EF"/>
<path d="M16.2346 8.89746H18.3394V19.4217H16.2346V8.89746Z" fill="#C6D4EF"/>
<path d="M2.02734 7.78191C2.02734 7.43776 2.02734 7.26569 2.07552 7.11199C2.12575 6.95176 2.21358 6.80587 2.3317 6.68651C2.445 6.57201 2.59707 6.4915 2.90122 6.33048L9.39722 2.89142C9.97361 2.58628 10.2618 2.43371 10.5656 2.37378C10.8346 2.32072 11.1113 2.32072 11.3803 2.37378C11.6841 2.43371 11.9723 2.58628 12.5487 2.89142L19.0447 6.33048C19.3488 6.4915 19.5009 6.57201 19.6142 6.68651C19.7323 6.80587 19.8202 6.95176 19.8704 7.11199C19.9186 7.26569 19.9186 7.43776 19.9186 7.78191C19.9186 8.33211 19.9186 8.60721 19.8182 8.82021C19.714 9.04153 19.5359 9.21961 19.3146 9.32386C19.1016 9.42419 18.8265 9.42419 18.2763 9.42419H3.66962C3.11942 9.42419 2.84432 9.42419 2.63132 9.32386C2.41 9.21961 2.23191 9.04153 2.12767 8.82021C2.02734 8.60721 2.02734 8.33211 2.02734 7.78191Z" fill="#87AEF8"/>
<path d="M2.02734 19.4214C2.02734 18.931 2.02734 18.6859 2.10745 18.4925C2.21427 18.2346 2.41915 18.0297 2.67702 17.9229C2.87043 17.8428 3.11561 17.8428 3.60598 17.8428H18.3399C18.8303 17.8428 19.0755 17.8428 19.2689 17.9229C19.5268 18.0297 19.7316 18.2346 19.8385 18.4925C19.9186 18.6859 19.9186 18.931 19.9186 19.4214C19.9186 19.9118 19.9186 20.157 19.8385 20.3504C19.7316 20.6082 19.5268 20.8131 19.2689 20.9199C19.0755 21 18.8303 21 18.3399 21H3.60598C3.11561 21 2.87043 21 2.67702 20.9199C2.41915 20.8131 2.21427 20.6082 2.10745 20.3504C2.02734 20.157 2.02734 19.9118 2.02734 19.4214Z" fill="#87AEF8"/>
<circle cx="17.4727" cy="17.167" r="4.5" fill="#475E75"/>
<path d="M19.4909 15.31C19.2359 15.2414 18.9614 15.3738 18.8833 15.6184L18.4124 17.0915L17.8906 15.6067C17.8224 15.4125 17.626 15.2877 17.4127 15.2921C17.1993 15.2965 17.0089 15.4294 16.9501 15.6266L16.5361 17.0163L16.0597 15.6112C15.9773 15.368 15.7006 15.2397 15.4468 15.3121C15.1911 15.3851 15.039 15.6394 15.1226 15.8857L15.3114 16.4428H14.9639C14.6984 16.4428 14.4727 16.6417 14.4727 16.8993C14.4727 17.157 14.6984 17.3558 14.9639 17.3558H15.5911C15.601 17.3558 15.6109 17.3555 15.6207 17.355L16.0756 18.7228C16.142 18.9186 16.3384 19.0453 16.5526 19.0419C16.7669 19.0385 16.9586 18.9055 17.0177 18.7074L17.4623 17.3295L17.9453 18.7273C18.013 18.92 18.2071 19.0445 18.4188 19.042C18.6305 19.0394 18.8211 18.9101 18.8833 18.7156L19.3529 17.3558L19.3542 17.3558H19.9814C20.2469 17.3558 20.4727 17.157 20.4727 16.8993C20.4727 16.6417 20.2469 16.4428 19.9814 16.4428H19.6448L19.8251 15.8785C19.9043 15.6309 19.7478 15.3791 19.4909 15.31Z" fill="white"/>
</g>
<defs>
<clipPath id="clip0_11_2031">
<rect width="24" height="24" fill="white"/>
</clipPath>
</defs>
</svg>
