<svg width="24" height="24" viewBox="0 0 24 24" fill="none" xmlns="http://www.w3.org/2000/svg">
<g clip-path="url(#clip0_11_2026)">
<path d="M1.99997 7.00049C1.99997 5.34363 3.34312 4.00049 4.99997 4.00049H19C20.6568 4.00049 22 5.34363 22 7.00049V17.0005C22 18.6573 20.6568 20.0005 19 20.0005H4.99997C3.34311 20.0005 1.99997 18.6573 1.99997 17.0005V7.00049Z" fill="#87AEF8"/>
<path d="M9.07286 10.038C9.44394 9.9111 9.84516 10.1165 9.969 10.4968L10.648 12.5816L11.3269 10.4968C11.4234 10.2005 11.694 10.0007 11.9988 10.0007C12.3036 10.0007 12.5742 10.2005 12.6707 10.4968L13.3497 12.5816L14.0286 10.4968C14.1525 10.1165 14.5537 9.9111 14.9248 10.038C15.2959 10.1649 15.4963 10.5761 15.3725 10.9564L15.1583 11.6141H15.5417C15.9329 11.6141 16.25 11.939 16.25 12.34C16.25 12.7409 15.9329 13.0659 15.5417 13.0659H14.6855L14.0216 15.1044C13.9251 15.4007 13.6545 15.6005 13.3497 15.6005C13.0449 15.6005 12.7743 15.4007 12.6778 15.1044L11.9988 13.0196L11.3199 15.1044C11.2234 15.4007 10.9528 15.6005 10.648 15.6005C10.3432 15.6005 10.0725 15.4007 9.97605 15.1044L9.31217 13.0659H8.45837C8.06716 13.0659 7.75003 12.7409 7.75003 12.34C7.75003 11.939 8.06716 11.6141 8.45837 11.6141H8.83937L8.62519 10.9564C8.50135 10.5761 8.70177 10.1649 9.07286 10.038Z" fill="white"/>
<path d="M22 5.00049C22 4.4482 21.5523 4.00049 21 4.00049L3.00003 4.00049C2.44775 4.00049 2.00003 4.44821 2.00003 5.00049L2.00003 7.00049L22 7.00049L22 5.00049Z" fill="#4F79FF"/>
<ellipse cx="18.5" cy="17.5005" rx="4.5" ry="4.5" fill="#0057E4"/>
<path fill-rule="evenodd" clip-rule="evenodd" d="M20.7266 15.8979C20.9978 16.1615 20.9978 16.5889 20.7266 16.8525L18.4123 19.1025C18.1412 19.3661 17.7016 19.3661 17.4305 19.1025L16.2733 17.9775C16.0022 17.7139 16.0022 17.2865 16.2733 17.0229C16.5445 16.7593 16.9841 16.7593 17.2552 17.0229L17.9214 17.6706L19.7448 15.8979C20.0159 15.6343 20.4555 15.6343 20.7266 15.8979Z" fill="white"/>
</g>
<defs>
<clipPath id="clip0_11_2026">
<rect width="24" height="24" fill="white"/>
</clipPath>
</defs>
</svg>
