<svg width="24" height="24" viewBox="0 0 24 24" fill="none" xmlns="http://www.w3.org/2000/svg">
<g clip-path="url(#clip0_11_1908)">
<path d="M8.24567 11.7713L2 16.5183L2 19C2 20.6569 3.34315 22 5 22H19C20.6569 22 22 20.6569 22 19V9.27303C21.6758 9.19083 21.4889 9.08103 21.1667 9.36904L20.8117 9.68642L14.5087 15.3217L8.24567 11.7713Z" fill="#77B2FF"/>
<path d="M2.00012 14.4014V11.87L7.84768 7.28194C8.15816 7.03834 8.58286 7.00011 8.93185 7.18436L13.8633 9.78792C14.2283 9.98061 14.6741 9.92929 14.9858 9.65871L18.8805 6.27729L18.1551 5.57051C17.8339 5.25745 18.0555 4.7124 18.5041 4.7124H21.3745C21.6506 4.7124 21.8745 4.93626 21.8745 5.2124V8.00937C21.8745 8.45171 21.3424 8.67618 21.0256 8.36748L20.3293 7.68906L14.9606 12.5298C14.6454 12.814 14.1851 12.8683 13.8124 12.6652L8.70648 9.88258C8.35485 9.69095 7.92282 9.72757 7.60846 9.97564L2.00012 14.4014Z" fill="#F66041"/>
</g>
<defs>
<clipPath id="clip0_11_1908">
<rect width="24" height="24" fill="white"/>
</clipPath>
</defs>
</svg>
