<svg width="24" height="24" viewBox="0 0 24 24" fill="none" xmlns="http://www.w3.org/2000/svg">
<g clip-path="url(#clip0_11_1941)">
<path d="M15.3294 16.1211C18.9586 16.1211 21.9007 13.179 21.9007 9.54982C21.9007 5.92059 18.9586 2.97852 15.3294 2.97852C11.7001 2.97852 8.75806 5.92059 8.75806 9.54982C8.75806 13.179 11.7001 16.1211 15.3294 16.1211Z" fill="#FFB21E"/>
<path fill-rule="evenodd" clip-rule="evenodd" d="M11.877 9.30469C14.5522 9.30469 16.7596 11.3274 17.0817 13.9412C17.095 13.941 17.1084 13.941 17.1217 13.941C19.0803 13.941 20.668 15.5261 20.668 17.4815C20.668 19.4369 19.0803 21.0221 17.1217 21.0221C17.1151 21.0221 17.1084 21.022 17.1018 21.022C17.096 21.022 17.0902 21.0219 17.0845 21.0219H6.42743C6.42258 21.0219 6.41772 21.0219 6.41286 21.0219C6.40801 21.0219 6.40315 21.0219 6.3983 21.0219H6.12866V21.0127C3.87954 20.8666 2.10059 18.999 2.10059 16.7166C2.10059 14.3388 4.03126 12.4112 6.41286 12.4112C6.63892 12.4112 6.86091 12.4286 7.07758 12.4621C7.89167 10.6024 9.7343 9.30469 11.877 9.30469Z" fill="url(#paint0_linear_11_1941)"/>
</g>
<defs>
<linearGradient id="paint0_linear_11_1941" x1="9.81687" y1="20.1211" x2="8.96112" y2="10.3318" gradientUnits="userSpaceOnUse">
<stop stop-color="#D1D2D3"/>
<stop offset="0.737582" stop-color="#EBEBEB"/>
<stop offset="0.982845" stop-color="#F2F2F2"/>
</linearGradient>
<clipPath id="clip0_11_1941">
<rect width="24" height="24" fill="white"/>
</clipPath>
</defs>
</svg>
