<svg width="24" height="24" viewBox="0 0 24 24" fill="none" xmlns="http://www.w3.org/2000/svg">
<g clip-path="url(#clip0_11_1874)">
<path d="M4.75122 19.5446H8.17979V21.2589C8.17979 21.7323 7.79604 22.116 7.32265 22.116H5.60836C5.13498 22.116 4.75122 21.7323 4.75122 21.2589V19.5446Z" fill="#595D62"/>
<path d="M15.825 19.5446H19.2535V21.2589C19.2535 21.7323 18.8698 22.116 18.3964 22.116H16.6821C16.2087 22.116 15.825 21.7323 15.825 21.2589V19.5446Z" fill="#595D62"/>
<path d="M1.55249 7.81605C1.55249 7.57337 1.74922 7.37665 1.99189 7.37665H2.87069C3.11337 7.37665 3.31009 7.57337 3.31009 7.81605V10.4525C3.31009 10.6951 3.11337 10.8919 2.87069 10.8919H1.99189C1.74922 10.8919 1.55249 10.6951 1.55249 10.4525V7.81605Z" fill="#595D62"/>
<path d="M2.55337 7.37665H3.74972V8.585H2.55337V7.37665Z" fill="#595D62"/>
<path d="M22.447 7.81605C22.447 7.57337 22.2503 7.37665 22.0076 7.37665H21.1288C20.8861 7.37665 20.6894 7.57337 20.6894 7.81605V10.4525C20.6894 10.6951 20.8861 10.8919 21.1288 10.8919H22.0076C22.2503 10.8919 22.447 10.6951 22.447 10.4525V7.81605Z" fill="#595D62"/>
<path d="M21.4461 7.37665H20.2498V8.585H21.4461V7.37665Z" fill="#595D62"/>
<rect x="3.74976" y="3.53192" width="16.5" height="16.5" rx="2.197" fill="#51A3FE"/>
<rect x="6.49585" y="1.88397" width="10.985" height="3.5" rx="1.46967" fill="#51A3FE"/>
<rect x="5.2478" y="15.0621" width="4" height="2.197" rx="1.0985" fill="#FFDA53"/>
<rect x="14.7502" y="15.0621" width="4" height="2.197" rx="1.0985" fill="#FFDA53"/>
<rect x="3.74976" y="6.39227" width="16.5" height="7" fill="#2D55B0"/>
</g>
<defs>
<clipPath id="clip0_11_1874">
<rect width="24" height="24" fill="white"/>
</clipPath>
</defs>
</svg>
