<svg width="24" height="24" viewBox="0 0 24 24" fill="none" xmlns="http://www.w3.org/2000/svg">
<g clip-path="url(#clip0_11_1919)">
<path fill-rule="evenodd" clip-rule="evenodd" d="M6 6.5V5.5C6 3.84315 7.34315 2.5 9 2.5H15C16.6569 2.5 18 3.84315 18 5.5V6.5H19C20.6569 6.5 22 7.84315 22 9.5V18.5C22 20.1569 20.6569 21.5 19 21.5H5C3.34315 21.5 2 20.1569 2 18.5V9.5C2 7.84315 3.34315 6.5 5 6.5H6ZM9 4.5H15C15.5523 4.5 16 4.94771 16 5.5V6.5H8V5.5C8 4.94772 8.44772 4.5 9 4.5Z" fill="#5A5B62"/>
<path d="M5 6.5C3.34315 6.5 2 7.84315 2 9.5V13.0625H22V9.5C22 7.84315 20.6569 6.5 19 6.5H5Z" fill="#878A92"/>
<path d="M9.22656 12.6309C9.22656 12.0786 9.67428 11.6309 10.2266 11.6309H13.7734C14.3257 11.6309 14.7734 12.0786 14.7734 12.6309V13.2309C14.7734 13.7832 14.3257 14.2309 13.7734 14.2309H10.2266C9.67428 14.2309 9.22656 13.7832 9.22656 13.2309V12.6309Z" fill="#F6BB53"/>
</g>
<defs>
<clipPath id="clip0_11_1919">
<rect width="24" height="24" fill="white"/>
</clipPath>
</defs>
</svg>
