<svg width="24" height="24" viewBox="0 0 24 24" fill="none" xmlns="http://www.w3.org/2000/svg">
<g clip-path="url(#clip0_11_1922)">
<path fill-rule="evenodd" clip-rule="evenodd" d="M15.8122 4.3798C15.1702 3.83413 14.4974 3.26239 13.8127 2.63962C13.5472 2.39865 13.2324 2.2186 12.8901 2.11208C12.5478 2.00556 12.1863 1.97514 11.831 2.02296C11.4867 2.06856 11.1565 2.18922 10.8639 2.37641C10.5713 2.56361 10.3234 2.81277 10.1377 3.10629C9.14467 4.76615 8.44235 6.58337 8.06101 8.47962C7.91181 8.26358 7.77921 8.03654 7.66434 7.80046C7.54639 7.55194 7.36876 7.33649 7.1473 7.17331C6.92584 7.01014 6.66744 6.90432 6.39513 6.86529C6.12283 6.82626 5.84511 6.85523 5.58673 6.94963C5.32835 7.04403 5.09735 7.20091 4.91434 7.40629C3.5171 8.83495 2.74256 10.7589 2.76018 12.7571C2.74085 14.7983 3.4047 16.7873 4.6461 18.4078C5.88751 20.0282 7.63515 21.1869 9.61101 21.6996C10.3675 21.89 11.3845 21.995 12.1646 21.9995C14.5576 21.9224 16.9848 20.9002 18.6492 19.1791C20.3135 17.4579 21.2425 15.1564 21.2393 12.7621C21.2352 8.99022 18.7459 6.87393 15.8623 4.42233L15.8122 4.3798ZM12.7028 12.4004C14.2603 14.2529 15.1195 15.9612 15.1195 17.2112C15.1186 18.0389 14.7894 18.8324 14.2042 19.4176C13.6189 20.0028 12.8254 20.332 11.9978 20.3329C11.3438 20.3055 10.7165 20.0663 10.2103 19.6512C9.85249 19.4093 9.54999 19.0944 9.32276 18.7271C9.09552 18.3598 8.9487 17.9485 8.89197 17.5204C8.7478 16.1662 9.58113 14.3996 11.2861 12.4021C11.374 12.2993 11.4832 12.217 11.6061 12.1607C11.729 12.1044 11.8626 12.0756 11.9978 12.0762C12.132 12.0747 12.2648 12.103 12.3867 12.1591C12.5086 12.2151 12.6166 12.2976 12.7028 12.4004Z" fill="#EC7853"/>
</g>
<defs>
<clipPath id="clip0_11_1922">
<rect width="24" height="24" fill="white"/>
</clipPath>
</defs>
</svg>
