<svg width="24" height="24" viewBox="0 0 24 24" fill="none" xmlns="http://www.w3.org/2000/svg">
<g clip-path="url(#clip0_11_1883)">
<path d="M3.99805 3.90476C3.99805 2.85279 4.95317 2 6.13138 2H17.8647C19.0429 2 19.998 2.85279 19.998 3.90476V20.0952C19.998 21.1472 19.0429 22 17.8647 22H6.13138C4.95317 22 3.99805 21.1472 3.99805 20.0952V3.90476Z" fill="#3491F4"/>
<path d="M13 4.5C13 4.22386 13.2239 4 13.5 4H15.5C15.7761 4 16 4.22386 16 4.5V7.5C16 7.77614 15.7761 8 15.5 8H13.5C13.2239 8 13 7.77614 13 7.5V4.5Z" fill="#FFD028"/>
<path d="M8 4.5C8 4.22386 8.22386 4 8.5 4H9C9.27614 4 9.5 4.22386 9.5 4.5V6.5C9.5 6.77614 9.27614 7 9 7H8.5C8.22386 7 8 6.77614 8 6.5V4.5Z" fill="#9FB5CD"/>
<path d="M8 8.5C8 8.22386 8.22386 8 8.5 8H9C9.27614 8 9.5 8.22386 9.5 8.5V10.5C9.5 10.7761 9.27614 11 9 11H8.5C8.22386 11 8 10.7761 8 10.5V8.5Z" fill="#9FB5CD"/>
<path d="M8 12.5C8 12.2239 8.22386 12 8.5 12H9C9.27614 12 9.5 12.2239 9.5 12.5V14.5C9.5 14.7761 9.27614 15 9 15H8.5C8.22386 15 8 14.7761 8 14.5V12.5Z" fill="#9FB5CD"/>
<path d="M8 16.5C8 16.2239 8.22386 16 8.5 16H9C9.27614 16 9.5 16.2239 9.5 16.5V18.5C9.5 18.7761 9.27614 19 9 19H8.5C8.22386 19 8 18.7761 8 18.5V16.5Z" fill="#9FB5CD"/>
</g>
<defs>
<clipPath id="clip0_11_1883">
<rect width="24" height="24" fill="white"/>
</clipPath>
</defs>
</svg>
