<svg width="24" height="24" viewBox="0 0 24 24" fill="none" xmlns="http://www.w3.org/2000/svg">
<g clip-path="url(#clip0_11_2028)">
<path fill-rule="evenodd" clip-rule="evenodd" d="M7.44922 5.70011C7.44916 4.2089 8.65801 3 10.1492 3H12.8486C14.3397 3 15.5485 4.20876 15.5486 5.69988L15.5491 16.4999C15.5491 17.9911 14.3403 19.2 12.8491 19.2H10.1497C8.65856 19.2 7.44974 17.9912 7.44968 16.5001L7.44922 5.70011ZM10.1492 4.8C9.65215 4.8 9.2492 5.20297 9.24922 5.70004L9.24968 16.5C9.2497 16.9971 9.65264 17.4 10.1497 17.4H12.8491C13.3461 17.4 13.7491 16.997 13.7491 16.5L13.7486 5.69996C13.7486 5.20292 13.3456 4.8 12.8486 4.8H10.1492Z" fill="#5A5B62"/>
<path d="M2.5 18.3V9.30005C2.5 7.80888 3.70883 6.60004 5.2 6.60004H17.8C19.2912 6.60004 20.5 7.80887 20.5 9.30004V18.3C20.5 19.7912 19.2912 21 17.8 21L5.19998 21C3.70882 21 2.5 19.7911 2.5 18.3Z" fill="#5A5B62"/>
<path d="M2.5 12V9.30004C2.5 7.80888 3.70883 6.60004 5.2 6.60004H17.8C19.2912 6.60004 20.5 7.80887 20.5 9.30004V12C20.5 13.4912 19.2912 14.7 17.8 14.7H5.2C3.70883 14.7 2.5 13.4912 2.5 12Z" fill="#878A92"/>
<path fill-rule="evenodd" clip-rule="evenodd" d="M11.4998 12C11.9969 12 12.3998 12.4029 12.3998 12.9V14.7C12.3998 15.1971 11.9969 15.6 11.4998 15.6C11.0028 15.6 10.5998 15.1971 10.5998 14.7V12.9C10.5998 12.4029 11.0028 12 11.4998 12Z" fill="white"/>
<path d="M14.6543 17.509C14.6543 17.2279 14.8559 17 15.1046 17H21.0482C21.2969 17 21.4985 17.2279 21.4985 17.509V18.9913C21.4985 19.2724 21.2969 19.5002 21.0482 19.5002H15.1046C14.8559 19.5002 14.6543 19.2724 14.6543 18.9913V17.509Z" fill="#FFD873"/>
<path d="M20.5059 17H21.0491C21.2978 17 21.4994 17.2279 21.4994 17.509V18.9913C21.4994 19.2724 21.2978 19.5002 21.0491 19.5002H20.5059V17Z" fill="#F6C344"/>
<path d="M14.5 20.0088C14.5 19.7277 14.7016 19.4999 14.9503 19.4999H20.8939C21.1426 19.4999 21.3442 19.7277 21.3442 20.0088V21.4911C21.3442 21.7722 21.1426 22.0001 20.8939 22.0001H14.9503C14.7016 22.0001 14.5 21.7722 14.5 21.4911V20.0088Z" fill="#FFD873"/>
<path d="M20.4619 19.4993H21.0052C21.2539 19.4993 21.4555 19.7272 21.4555 20.0083V21.4906C21.4555 21.7717 21.2539 21.9996 21.0052 21.9996H20.4619V19.4993Z" fill="#F6C344"/>
</g>
<defs>
<clipPath id="clip0_11_2028">
<rect width="24" height="24" fill="white"/>
</clipPath>
</defs>
</svg>
