<svg width="24" height="24" viewBox="0 0 24 24" fill="none" xmlns="http://www.w3.org/2000/svg">
<g clip-path="url(#clip0_11_1891)">
<path d="M2.5 3.90476C2.5 2.85279 3.39543 2 4.5 2H15.5C16.6046 2 17.5 2.85279 17.5 3.90476V20.0952C17.5 21.1472 16.6046 22 15.5 22H4.5C3.39543 22 2.5 21.1472 2.5 20.0952V3.90476Z" fill="#90A6C6"/>
<path d="M7 4.25C7 4.66421 7.33579 5 7.75 5H12.25C12.6642 5 13 4.66421 13 4.25V4.25C13 3.83579 12.6642 3.5 12.25 3.5H7.75C7.33579 3.5 7 3.83579 7 4.25V4.25Z" fill="#728EB8"/>
<path fill-rule="evenodd" clip-rule="evenodd" d="M11.9936 9.51691C11.995 10.6321 11.1006 11.5373 9.99603 11.5386C8.89146 11.54 7.99496 10.637 7.99364 9.52172C7.99233 8.40649 8.88669 7.50133 9.99126 7.5C11.0958 7.49867 11.9923 8.40167 11.9936 9.51691ZM14 15.3732C13.9989 14.4759 12.8853 12.4579 9.99656 12.4614C7.10782 12.4648 5.99881 14.3731 6 15.3828C6.00106 16.2801 8.33443 16.502 10.0013 16.5C11.6682 16.498 14.0011 16.2705 14 15.3732Z" fill="white"/>
<ellipse cx="17" cy="18" rx="5" ry="5" fill="#405E81"/>
<path fill-rule="evenodd" clip-rule="evenodd" d="M19.6741 16.2197C19.9753 16.5126 19.9753 16.9874 19.6741 17.2803L17.1026 19.7803C16.8014 20.0732 16.3129 20.0732 16.0117 19.7803L14.7259 18.5303C14.4247 18.2374 14.4247 17.7626 14.7259 17.4697C15.0272 17.1768 15.5156 17.1768 15.8169 17.4697L16.5571 18.1893L18.5831 16.2197C18.8844 15.9268 19.3728 15.9268 19.6741 16.2197Z" fill="white"/>
</g>
<defs>
<clipPath id="clip0_11_1891">
<rect width="24" height="24" fill="white"/>
</clipPath>
</defs>
</svg>
