<svg width="24" height="24" viewBox="0 0 24 24" fill="none" xmlns="http://www.w3.org/2000/svg">
<g clip-path="url(#clip0_11_1949)">
<path d="M3 5.15789C3 3.41384 4.34315 2 6 2L16 2C17.6569 2 19 3.41384 19 5.15789V17.8421C19 19.5862 17.6569 21 16 21L6 21C4.34315 21 3 19.5862 3 17.8421V5.15789Z" fill="#9FB7DA"/>
<path d="M5.00245 5.83222C5.00297 5.37203 5.37179 4.99943 5.82623 5L13.1787 5.0039C13.6332 5.00447 14.0011 5.37799 14.0006 5.83818C14.0001 6.29837 13.6313 6.67096 13.1768 6.67039L5.82434 6.6665C5.3699 6.66593 5.00193 6.29241 5.00245 5.83222Z" fill="#6E89B0"/>
<path d="M5.00061 9.16182C5.00113 8.70163 5.36995 8.32904 5.82439 8.32961L9.08226 8.33351C9.5367 8.33407 9.90467 8.70759 9.90415 9.16778C9.90362 9.62797 9.53481 10.0006 9.08037 10L5.8225 9.9961C5.36806 9.99553 5.00009 9.62201 5.00061 9.16182Z" fill="#6E89B0"/>
<path fill-rule="evenodd" clip-rule="evenodd" d="M16.5288 21.9482C16.5972 21.9829 16.6737 22.0005 16.7502 22C16.8266 21.9994 16.9025 21.9811 16.9715 21.9458L19.2285 20.8015C19.8534 20.4779 20.3427 20.1161 20.7245 19.6948C21.5546 18.7771 22.0078 17.6057 21.9998 16.3978L21.9736 12.4136C21.9712 11.9547 21.6609 11.5452 21.202 11.3964L17.1318 10.0597C16.885 9.97855 16.6145 9.98031 16.372 10.0639L12.2591 11.4482C11.8027 11.6029 11.498 12.0153 11.5005 12.4748L11.5266 16.4561C11.5347 17.6657 12.0035 18.8318 12.8473 19.7402C13.2328 20.1556 13.7265 20.5121 14.3582 20.8303L16.5288 21.9482Z" fill="#1D45C4"/>
<path d="M17.563 16.7477C18.0487 16.4699 18.3755 15.9508 18.3755 15.3564C18.3755 14.4692 17.6477 13.75 16.75 13.75C15.8523 13.75 15.1245 14.4692 15.1245 15.3564C15.1245 15.951 15.4515 16.4702 15.9375 16.7479V17.5802C15.9375 17.9499 16.3014 18.2495 16.7502 18.2495C17.1991 18.2495 17.563 17.9499 17.563 17.5802V16.7477Z" fill="white"/>
</g>
<defs>
<clipPath id="clip0_11_1949">
<rect width="24" height="24" fill="white"/>
</clipPath>
</defs>
</svg>
