<svg width="24" height="24" viewBox="0 0 24 24" fill="none" xmlns="http://www.w3.org/2000/svg">
<g clip-path="url(#clip0_11_1993)">
<path fill-rule="evenodd" clip-rule="evenodd" d="M2 17.4996C2 17.0989 2.25227 16.774 2.56345 16.774H19.4668C19.778 16.774 20.0303 17.0989 20.0303 17.4996C20.0303 17.9003 19.778 18.2252 19.4668 18.2252H2.56345C2.25227 18.2252 2 17.9003 2 17.4996Z" fill="#008CFF"/>
<path d="M3.85572 13.9723C3.32233 12.8134 2.60755 11.2604 2.08241 10.1201C1.87743 9.67494 2.06803 9.14642 2.50798 8.9389L3.52615 8.45862C3.77692 8.34034 4.06811 8.34838 4.31212 8.48035L5.64724 9.20239C5.91836 9.34902 6.24191 9.35796 6.52054 9.22653L7.7511 8.64607C8.03041 8.51432 8.12074 8.15702 7.93824 7.9058L5.97678 5.2057C5.6483 4.75351 5.81089 4.11037 6.31365 3.87322L7.98904 3.08294C8.26889 2.95093 8.59669 2.97713 8.85258 3.15196L12.9306 5.93825C13.0728 6.03537 13.2549 6.04993 13.4104 5.97659L15.5204 4.9813C17.15 4.21259 19.0872 4.92581 19.8471 6.57431C20.2271 7.39857 19.8745 8.37834 19.0597 8.7627L6.19213 14.8323C5.3117 15.2476 4.26573 14.8632 3.85572 13.9723Z" fill="#82CFFF"/>
<ellipse cx="17.5" cy="17.4996" rx="4.5" ry="4.5" fill="#008CFF"/>
<path fill-rule="evenodd" clip-rule="evenodd" d="M19.7908 15.7193C20.0697 16.0122 20.0697 16.4871 19.7908 16.7799L17.4098 19.2799C17.1309 19.5728 16.6786 19.5728 16.3997 19.2799L15.2092 18.0299C14.9303 17.7371 14.9303 17.2622 15.2092 16.9693C15.4882 16.6764 15.9404 16.6764 16.2194 16.9693L16.9048 17.689L18.7806 15.7193C19.0596 15.4264 19.5118 15.4264 19.7908 15.7193Z" fill="white"/>
</g>
<defs>
<clipPath id="clip0_11_1993">
<rect width="24" height="24" fill="white"/>
</clipPath>
</defs>
</svg>
