<svg width="24" height="24" viewBox="0 0 24 24" fill="none" xmlns="http://www.w3.org/2000/svg">
<g clip-path="url(#clip0_11_1999)">
<path d="M3.42159 5.12526L4.71734 3.82951C5.82335 2.7235 7.61654 2.7235 8.72255 3.82951L10.5832 5.69019C11.4976 6.60461 11.4976 8.08717 10.5832 9.00158L9.6625 9.92231C9.2561 10.3287 9.2561 10.9876 9.6625 11.394L12.606 14.3375C13.0124 14.7439 13.6713 14.7439 14.0777 14.3375L14.9984 13.4168C15.9128 12.5024 17.3954 12.5024 18.3098 13.4168L20.1705 15.2775C21.2765 16.3835 21.2765 18.1767 20.1705 19.2827L18.8747 20.5784C17.3425 22.1106 14.9803 22.4415 13.0861 21.3891C8.68476 18.944 5.05604 15.3152 2.61086 10.9139C1.55854 9.01974 1.88939 6.65746 3.42159 5.12526Z" fill="#B097FF"/>
<path fill-rule="evenodd" clip-rule="evenodd" d="M20.1388 3C20.6144 3 21 3.38557 21 3.86119L21 7.10896C21 7.58458 20.6144 7.97015 20.1388 7.97015C19.6632 7.97015 19.2776 7.58458 19.2776 7.10896V5.9403L15.4701 9.74776C15.1338 10.0841 14.5886 10.0841 14.2522 9.74776C13.9159 9.41145 13.9159 8.86617 14.2522 8.52985L18.0597 4.72239L16.891 4.72239C16.4154 4.72239 16.0299 4.33682 16.0299 3.86119C16.0299 3.38557 16.4154 3 16.891 3L20.1388 3Z" fill="#6929C4"/>
</g>
<defs>
<clipPath id="clip0_11_1999">
<rect width="24" height="24" fill="white"/>
</clipPath>
</defs>
</svg>
