<svg width="24" height="24" viewBox="0 0 24 24" fill="none" xmlns="http://www.w3.org/2000/svg">
<g clip-path="url(#clip0_11_1912)">
<path fill-rule="evenodd" clip-rule="evenodd" d="M11.6312 21.9134C11.7451 21.9712 11.8727 22.0006 12.0001 21.9997C12.1275 21.9987 12.2539 21.9683 12.369 21.9094L16.1307 20.0025C17.1721 19.4631 17.9876 18.8602 18.624 18.1581C20.0074 16.6285 20.7629 14.6763 20.7494 12.6633L20.7058 6.02345C20.7017 5.25866 20.1846 4.57623 19.4199 4.32817L12.6361 2.10053C12.2248 1.96522 11.7739 1.96816 11.3698 2.1074L4.51491 4.41445C3.75428 4.67232 3.2465 5.35965 3.25064 6.12543L3.29417 12.7604C3.30764 14.7763 4.089 16.7197 5.49524 18.2336C6.13774 18.9259 6.96055 19.52 8.01342 20.0504L11.6312 21.9134Z" fill="#3491F4"/>
<path fill-rule="evenodd" clip-rule="evenodd" d="M12.0757 13.3506C11.4816 13.3506 10.9999 13.84 10.9999 14.4438C10.9999 15.0475 11.4816 15.537 12.0757 15.537C12.6699 15.537 13.1516 15.0475 13.1516 14.4438C13.1516 13.84 12.6699 13.3506 12.0757 13.3506ZM12.0757 15.0055C11.7704 15.0055 11.5225 14.7541 11.5225 14.4433C11.5225 14.1325 11.7699 13.8811 12.0757 13.8811C12.3816 13.8811 12.629 14.1325 12.629 14.4433C12.629 14.7541 12.3816 15.0055 12.0757 15.0055Z" fill="white"/>
<path d="M8.15637 13.4414L8.77978 15.4368H9.25318L9.58242 14.3609L9.90386 15.4368H10.3617L10.9982 13.4414H10.4367L10.0977 14.59L9.75824 13.4414H9.38371L9.04473 14.5994L8.71306 13.4414H8.15637Z" fill="white"/>
<path d="M13.3436 15.4368V13.4414H13.7659L14.6435 14.5415V13.4414H15.1564V15.4368H14.7409L13.856 14.3337V15.4368H13.3436Z" fill="white"/>
<path d="M11.8945 11.8688H10.3162C9.20903 11.8688 8.31189 10.9666 8.31189 9.85431C8.31189 8.74204 9.20903 7.83984 10.3162 7.83984H11.8945V11.8688Z" fill="url(#paint0_linear_11_1912)" fill-opacity="0.7"/>
<path d="M13.2009 12.3516C14.5746 12.3516 15.6882 11.2323 15.6882 9.85156C15.6882 8.47085 14.5746 7.35156 13.2009 7.35156C11.8271 7.35156 10.7135 8.47085 10.7135 9.85156C10.7135 11.2323 11.8271 12.3516 13.2009 12.3516Z" fill="white"/>
</g>
<defs>
<linearGradient id="paint0_linear_11_1912" x1="8.31189" y1="9.85431" x2="11.8945" y2="9.85431" gradientUnits="userSpaceOnUse">
<stop stop-color="white"/>
<stop offset="1" stop-color="white" stop-opacity="0"/>
</linearGradient>
<clipPath id="clip0_11_1912">
<rect width="24" height="24" fill="white"/>
</clipPath>
</defs>
</svg>
