<svg width="24" height="24" viewBox="0 0 24 24" fill="none" xmlns="http://www.w3.org/2000/svg">
<g clip-path="url(#clip0_11_1995)">
<path d="M4 4C4 2.89543 4.89543 2 6 2H18C19.1046 2 20 2.89543 20 4V22H4V4Z" fill="#08BDBA"/>
<path d="M9 4.25C9 4.66421 9.33579 5 9.75 5H14.25C14.6642 5 15 4.66421 15 4.25V4.25C15 3.83579 14.6642 3.5 14.25 3.5H9.75C9.33579 3.5 9 3.83579 9 4.25V4.25Z" fill="#009D9A"/>
<path fill-rule="evenodd" clip-rule="evenodd" d="M6.5 9.44265C6.5 8.64589 7.14589 8 7.94265 8H8.39347C8.69225 8 8.93447 8.24221 8.93447 8.54099C8.93447 8.83977 8.69225 9.08198 8.39347 9.08198H7.94265C7.74346 9.08198 7.58198 9.24346 7.58198 9.44265V9.89347C7.58198 10.1923 7.33977 10.4345 7.04099 10.4345C6.74221 10.4345 6.5 10.1923 6.5 9.89347V9.44265Z" fill="#9EF0F0"/>
<path fill-rule="evenodd" clip-rule="evenodd" d="M17.5 9.44265L17.5 9.89347C17.5 10.1923 17.2578 10.4345 16.959 10.4345C16.6602 10.4345 16.418 10.1923 16.418 9.89347L16.418 9.44265C16.418 9.24346 16.2565 9.08198 16.0574 9.08198L15.6065 9.08198C15.3077 9.08198 15.0655 8.83977 15.0655 8.54099C15.0655 8.24221 15.3077 8 15.6065 8L16.0574 8C16.8541 8 17.5 8.64589 17.5 9.44265Z" fill="#9EF0F0"/>
<path fill-rule="evenodd" clip-rule="evenodd" d="M16.0574 19L15.6065 19C15.3077 19 15.0655 18.7578 15.0655 18.459C15.0655 18.1602 15.3077 17.918 15.6065 17.918L16.0574 17.918C16.2565 17.918 16.418 17.7565 16.418 17.5574L16.418 17.1065C16.418 16.8077 16.6602 16.5655 16.959 16.5655C17.2578 16.5655 17.5 16.8077 17.5 17.1065L17.5 17.5574C17.5 18.3541 16.8541 19 16.0574 19Z" fill="#9EF0F0"/>
<path fill-rule="evenodd" clip-rule="evenodd" d="M6.5 17.5575L6.5 17.1067C6.5 16.8079 6.74221 16.5657 7.04099 16.5657C7.33977 16.5657 7.58198 16.8079 7.58198 17.1067L7.58198 17.5575C7.58198 17.7567 7.74346 17.9182 7.94265 17.9182L8.39347 17.9182C8.69225 17.9182 8.93447 18.1604 8.93447 18.4591C8.93447 18.7579 8.69225 19.0001 8.39347 19.0001L7.94265 19.0001C7.14589 19.0001 6.5 18.3542 6.5 17.5575Z" fill="#9EF0F0"/>
<path d="M11.9999 17.9007C13.1669 17.9007 14.286 17.4371 15.1112 16.6119C15.9364 15.7868 16.4 14.6676 16.4 13.5006C16.4 12.3337 15.9364 11.2145 15.1112 10.3893C14.286 9.56416 13.1669 9.10059 11.9999 9.10059C10.8329 9.10059 9.71377 9.56416 8.8886 10.3893C8.06343 11.2145 7.59985 12.3337 7.59985 13.5006C7.59985 14.6676 8.06343 15.7868 8.8886 16.6119C9.71377 17.4371 10.8329 17.9007 11.9999 17.9007Z" fill="white"/>
<path fill-rule="evenodd" clip-rule="evenodd" d="M10.5714 11.8735C10.887 11.8735 11.1429 12.1294 11.1429 12.445V12.5402C11.1429 12.8558 10.887 13.1116 10.5714 13.1116C10.2558 13.1116 10 12.8558 10 12.5402V12.445C10 12.1294 10.2558 11.8735 10.5714 11.8735ZM13.4286 11.8735C13.7442 11.8735 14 12.1294 14 12.445V12.5402C14 12.8558 13.7442 13.1116 13.4286 13.1116C13.113 13.1116 12.8571 12.8558 12.8571 12.5402V12.445C12.8571 12.1294 13.113 11.8735 13.4286 11.8735ZM13.7402 15.3582C13.9027 15.186 13.8949 14.9148 13.7228 14.7523C13.5507 14.5898 13.2794 14.5977 13.1169 14.7698C12.515 15.4074 11.4909 15.4069 10.8815 14.7681C10.7181 14.5969 10.4469 14.5905 10.2756 14.7539C10.1043 14.9173 10.098 15.1885 10.2613 15.3598C11.2055 16.3495 12.7971 16.3572 13.7402 15.3582Z" fill="#08BDBA"/>
</g>
<defs>
<clipPath id="clip0_11_1995">
<rect width="24" height="24" fill="white"/>
</clipPath>
</defs>
</svg>
