<svg width="24" height="24" viewBox="0 0 24 24" fill="none" xmlns="http://www.w3.org/2000/svg">
<g clip-path="url(#clip0_11_1901)">
<path fill-rule="evenodd" clip-rule="evenodd" d="M11.6311 21.9133C11.745 21.9711 11.8726 22.0005 12 21.9996C12.1274 21.9986 12.2538 21.9682 12.3689 21.9093L16.1306 20.0023C17.172 19.463 17.9876 18.8601 18.6239 18.158C20.0074 16.6284 20.7628 14.6763 20.7493 12.6633L20.7058 6.02342C20.7017 5.25864 20.1845 4.57622 19.4198 4.32816L12.636 2.10053C12.2247 1.96522 11.7738 1.96816 11.3697 2.1074L4.51479 4.41444C3.75416 4.67231 3.24638 5.35963 3.25051 6.1254L3.29404 12.7604C3.30752 14.7762 4.08888 16.7196 5.49513 18.2335C6.13763 18.9258 6.96045 19.5199 8.01331 20.0503L11.6311 21.9133Z" fill="#63A2FF"/>
<path d="M14.0996 10.3715C14.0996 11.5313 13.1594 12.4715 11.9995 12.4715C10.8397 12.4715 9.89954 11.5313 9.89954 10.3715C9.89954 9.21169 10.8397 8.27148 11.9995 8.27148C13.1594 8.27148 14.0996 9.21169 14.0996 10.3715Z" fill="white"/>
<path fill-rule="evenodd" clip-rule="evenodd" d="M11.9995 11.1427C12.4635 11.1427 12.8396 11.5187 12.8396 11.9827V14.8889C12.8396 15.3528 12.4635 15.7289 11.9995 15.7289C11.5356 15.7289 11.1595 15.3528 11.1595 14.8889V11.9827C11.1595 11.5187 11.5356 11.1427 11.9995 11.1427Z" fill="white"/>
</g>
<defs>
<clipPath id="clip0_11_1901">
<rect width="24" height="24" fill="white"/>
</clipPath>
</defs>
</svg>
