<svg width="24" height="24" viewBox="0 0 24 24" fill="none" xmlns="http://www.w3.org/2000/svg">
<g clip-path="url(#clip0_11_2013)">
<path d="M2.7887 5.15789C2.7887 3.41384 4.13184 2 5.7887 2L15.7887 2C17.4456 2 18.7887 3.41384 18.7887 5.15789V17.8421C18.7887 19.5862 17.4456 21 15.7887 21L5.7887 21C4.13184 21 2.7887 19.5862 2.7887 17.8421V5.15789Z" fill="#9FB7DA"/>
<path d="M5.00245 5.83222C5.00297 5.37203 5.37179 4.99943 5.82623 5L13.1787 5.0039C13.6332 5.00447 14.0011 5.37799 14.0006 5.83818C14.0001 6.29837 13.6313 6.67096 13.1768 6.67039L5.82434 6.6665C5.3699 6.66593 5.00193 6.29241 5.00245 5.83222Z" fill="#6E89B0"/>
<path d="M5.00061 9.16182C5.00113 8.70163 5.36995 8.32904 5.82439 8.32961L9.08226 8.33351C9.5367 8.33407 9.90467 8.70759 9.90415 9.16778C9.90362 9.62797 9.53481 10.0006 9.08037 10L5.8225 9.9961C5.36806 9.99553 5.00009 9.62201 5.00061 9.16182Z" fill="#6E89B0"/>
<path d="M20.9734 16.6977V16.6925C20.9728 16.3584 21.0838 16.0341 21.316 15.7939L21.8647 15.2262C22.014 15.0717 22.0429 14.8369 21.9355 14.6507L21.2405 13.4469C21.133 13.2608 20.9152 13.1683 20.7067 13.2204L19.987 13.4002C19.6469 13.4852 19.287 13.434 18.9841 13.2575L18.9752 13.2523C18.6773 13.0788 18.4581 12.7969 18.3632 12.4655L18.1581 11.749C18.099 11.5423 17.91 11.3999 17.6951 11.3999H16.305C16.0901 11.3999 15.9012 11.5423 15.842 11.749L15.6231 12.5139C15.5364 12.8168 15.3365 13.0756 15.0623 13.2308C15.0342 13.2468 15.0062 13.2631 14.9784 13.2797C14.7042 13.444 14.3761 13.4909 14.066 13.4134L13.2933 13.2204C13.0848 13.1683 12.867 13.2607 12.7595 13.4469L12.0645 14.6507C11.9571 14.8368 11.986 15.0716 12.1354 15.2262L12.684 15.7937C12.9162 16.0339 13.0273 16.3583 13.0267 16.6924V16.7029C13.0273 17.037 12.9162 17.3613 12.684 17.6015L12.1353 18.1691C11.986 18.3236 11.9571 18.5585 12.0645 18.7446L12.7595 19.9484C12.867 20.1346 13.0848 20.227 13.2933 20.1749L14.0658 19.9818C14.376 19.9043 14.704 19.9512 14.9782 20.1155C15.0061 20.1322 15.0341 20.1485 15.0624 20.1645C15.3366 20.3198 15.5364 20.5786 15.6231 20.8816L15.842 21.6463C15.9012 21.853 16.0901 21.9954 16.305 21.9954H17.6951C17.91 21.9954 18.099 21.853 18.1581 21.6463L18.3769 20.8816C18.4636 20.5786 18.6635 20.3198 18.9377 20.1645C18.9659 20.1485 18.9939 20.1322 19.0217 20.1156C19.2959 19.9513 19.624 19.9044 19.9341 19.9819L20.7067 20.1749C20.9152 20.227 21.133 20.1346 21.2405 19.9485L21.9355 18.7447C22.0429 18.5585 22.014 18.3237 21.8647 18.1691L21.316 17.6015C21.0838 17.3613 20.9728 17.0369 20.9734 16.7029L20.9734 16.6977Z" fill="#406398"/>
<path d="M16.9997 18.7184C15.8856 18.7184 14.979 17.8118 14.979 16.6977C14.979 15.5833 15.8856 14.6768 16.9997 14.6768C18.114 14.6768 19.0206 15.5833 19.0206 16.6977C19.0206 17.8118 18.114 18.7184 16.9997 18.7184ZM16.9997 15.5101C16.3451 15.5101 15.8123 16.0429 15.8123 16.6977C15.8123 17.3523 16.3451 17.885 16.9997 17.885C17.6545 17.885 18.1873 17.3523 18.1873 16.6977C18.1873 16.0429 17.6545 15.5101 16.9997 15.5101Z" fill="white"/>
</g>
<defs>
<clipPath id="clip0_11_2013">
<rect width="24" height="24" fill="white"/>
</clipPath>
</defs>
</svg>
