<svg width="24" height="24" viewBox="0 0 24 24" fill="none" xmlns="http://www.w3.org/2000/svg">
<g clip-path="url(#clip0_11_1988)">
<path d="M2 3.90476C2 2.85279 2.83574 2 3.86667 2H14.1333C15.1643 2 16 2.85279 16 3.90476V20.0952C16 21.1472 15.1643 22 14.1333 22H3.86667C2.83574 22 2 21.1472 2 20.0952V3.90476Z" fill="#A6C8FF"/>
<path d="M6 4.25C6 4.66421 6.33579 5 6.75 5H11.25C11.6642 5 12 4.66421 12 4.25V4.25C12 3.83579 11.6642 3.5 11.25 3.5H6.75C6.33579 3.5 6 3.83579 6 4.25V4.25Z" fill="#7FA8EB"/>
<path fill-rule="evenodd" clip-rule="evenodd" d="M16.2681 22.4461C16.3397 22.4822 16.4199 22.5005 16.5 22.5C16.5801 22.4994 16.6596 22.4804 16.7319 22.4436L19.0965 21.2516C19.7512 20.9145 20.2638 20.5376 20.6638 20.0988C21.5335 19.1428 22.0084 17.9226 21.9999 16.6644L21.9725 12.5142C21.9699 12.0362 21.6448 11.6096 21.1641 11.4546L16.8998 10.0622C16.6412 9.97765 16.3578 9.97949 16.1038 10.0665L11.7947 11.5085C11.3166 11.6697 10.9974 12.0993 11 12.5779L11.0274 16.7251C11.0358 17.9851 11.527 19.1998 12.411 20.146C12.8149 20.5787 13.3321 20.9501 13.9939 21.2816L16.2681 22.4461Z" fill="#0F62FE"/>
<path fill-rule="evenodd" clip-rule="evenodd" d="M19.0199 13.8823C19.3267 14.2044 19.3267 14.7268 19.0199 15.049L16.4008 17.799C16.094 18.1212 15.5965 18.1212 15.2897 17.799L13.9801 16.424C13.6733 16.1018 13.6733 15.5794 13.9801 15.2573C14.287 14.9351 14.7845 14.9351 15.0913 15.2573L15.8452 16.0489L17.9087 13.8823C18.2155 13.5601 18.713 13.5601 19.0199 13.8823Z" fill="white"/>
</g>
<defs>
<clipPath id="clip0_11_1988">
<rect width="24" height="24" fill="white"/>
</clipPath>
</defs>
</svg>
