<svg width="24" height="24" viewBox="0 0 24 24" fill="none" xmlns="http://www.w3.org/2000/svg">
<g clip-path="url(#clip0_11_1961)">
<path fill-rule="evenodd" clip-rule="evenodd" d="M10.6205 21.9147C10.7377 21.9725 10.8689 22.0019 11 22.001C11.1311 22 11.2611 21.9696 11.3795 21.9107L15.2489 20.0035C16.3201 19.4642 17.159 18.8612 17.8136 18.159C19.2366 16.6294 20.0137 14.6771 19.9998 12.664L19.955 6.02369C19.9508 5.25886 19.4188 4.57639 18.6322 4.32831L11.6542 2.10053C11.2311 1.96522 10.7674 1.96816 10.3517 2.1074L3.3005 4.4146C2.51809 4.67249 1.99577 5.35985 2.00003 6.12568L2.0448 12.7611C2.05866 14.7771 2.8624 16.7206 4.3089 18.2346C4.9698 18.9269 5.81617 19.5211 6.89918 20.0515L10.6205 21.9147Z" fill="#87AEF8"/>
<path d="M22 15.5C22 18.5376 19.5376 21 16.5 21C13.4624 21 11 18.5376 11 15.5C11 12.4624 13.4624 10 16.5 10C19.5376 10 22 12.4624 22 15.5Z" fill="#4D74FB"/>
<path fill-rule="evenodd" clip-rule="evenodd" d="M18.6437 14.75H17.1982L17.6031 12.6817C17.6694 12.3431 17.2126 12.1433 16.9791 12.4088L14.0821 15.7034C13.8906 15.9211 14.0555 16.2498 14.3563 16.2498H15.8018L15.3969 18.3181C15.3306 18.6567 15.7874 18.8565 16.0209 18.591L18.9179 15.2964C19.1094 15.0787 18.9445 14.75 18.6437 14.75Z" fill="white"/>
</g>
<defs>
<clipPath id="clip0_11_1961">
<rect width="24" height="24" fill="white"/>
</clipPath>
</defs>
</svg>
