<svg width="24" height="24" viewBox="0 0 24 24" fill="none" xmlns="http://www.w3.org/2000/svg">
<g clip-path="url(#clip0_11_2027)">
<path d="M16.1122 2.99976C16.097 3.1357 16.0888 3.27381 16.0888 3.41382C16.0888 5.44662 17.7367 7.09448 19.7695 7.09448C20.2001 7.09445 20.613 7.01946 20.997 6.88354C20.9981 6.92216 20.9999 6.96087 20.9999 6.99976V16.9998C20.9999 19.2089 19.2091 20.9998 16.9999 20.9998H6.99994C4.7908 20.9998 2.99994 19.2089 2.99994 16.9998V6.99976C2.99994 4.79062 4.7908 2.99976 6.99994 2.99976H16.1122Z" fill="#748FAD"/>
<ellipse cx="19.7674" cy="3.41471" rx="2.04484" ry="2.04484" fill="#748FAD"/>
<path d="M9.42181 8.87573C10.9362 8.87573 12.0351 9.72496 12.1718 11.2185H10.5478C10.4942 10.6515 10.111 10.2713 9.46674 10.2712C8.6204 10.2712 8.14548 10.9129 8.14545 11.9998C8.14545 13.1431 8.63241 13.7283 9.45502 13.7283C10.0726 13.7282 10.4587 13.3956 10.5478 12.8611L12.1718 12.8699C12.0798 13.9152 11.171 15.1238 9.42181 15.1238C7.753 15.1236 6.49994 14.0161 6.49994 11.9998C6.49999 9.97462 7.78569 8.87588 9.42181 8.87573ZM14.4853 11.3386H14.5331C14.7381 10.7625 15.2311 10.4207 15.9081 10.4207C16.8733 10.4207 17.5029 11.1249 17.4999 12.1316V15.0417H15.9111V12.4617C15.914 11.9955 15.6677 11.7127 15.2372 11.7126C14.8185 11.7126 14.5449 11.9953 14.5419 12.4675V15.0417H12.9531V8.95972H14.4853V11.3386Z" fill="white"/>
</g>
<defs>
<clipPath id="clip0_11_2027">
<rect width="24" height="24" fill="white"/>
</clipPath>
</defs>
</svg>
