<svg width="24" height="24" viewBox="0 0 24 24" fill="none" xmlns="http://www.w3.org/2000/svg">
<g clip-path="url(#clip0_11_1968)">
<path d="M2.5 18C2.5 17.4477 2.94772 17 3.5 17H6.1C6.65229 17 7.1 17.4477 7.1 18V21C7.1 21.5523 6.65228 22 6.1 22H3.5C2.94771 22 2.5 21.5523 2.5 21V18Z" fill="#80BBFB"/>
<path d="M7.63318 15C7.63318 14.4477 8.08089 14 8.63318 14H11.2332C11.7855 14 12.2332 14.4477 12.2332 15V21C12.2332 21.5523 11.7855 22 11.2332 22H8.63318C8.08089 22 7.63318 21.5523 7.63318 21V15Z" fill="#54A3F7"/>
<path d="M12.7666 13C12.7666 12.4477 13.2143 12 13.7666 12H16.3666C16.9189 12 17.3666 12.4477 17.3666 13V21C17.3666 21.5523 16.9189 22 16.3666 22H13.7666C13.2143 22 12.7666 21.5523 12.7666 21V13Z" fill="#2589F3"/>
<path d="M17.9 9.5C17.9 8.94772 18.3477 8.5 18.9 8.5H21.5C22.0523 8.5 22.5 8.94772 22.5 9.5V21C22.5 21.5523 22.0523 22 21.5 22H18.9C18.3477 22 17.9 21.5523 17.9 21V9.5Z" fill="#1D7ADD"/>
<path fill-rule="evenodd" clip-rule="evenodd" d="M18.0611 5.60087L14.9483 8.71373C14.5732 9.0888 14.0645 9.29952 13.534 9.29952H9.73987C9.20944 9.29952 8.70073 9.51023 8.32566 9.8853L4.30534 13.9056C3.91482 14.2961 3.28165 14.2961 2.89113 13.9056L2.20711 13.2216C1.81658 12.8311 1.81658 12.1979 2.20711 11.8074L7.09654 6.91795C7.47161 6.54287 7.98032 6.33216 8.51075 6.33216H12.3049C12.8354 6.33216 13.3441 6.12145 13.7191 5.74637L15.9629 3.50263L18.0611 5.60087Z" fill="#FFC01F"/>
<path d="M18.8087 2.0083C19.2104 1.94135 19.5586 2.28958 19.4917 2.69126L18.8517 6.531C18.8109 6.77581 18.6944 7.00167 18.5186 7.17682L18.3673 7.32755C18.2513 7.44305 18.0638 7.44286 17.948 7.32714L14.1712 3.55032C14.0552 3.43427 14.0553 3.24607 14.1716 3.13026L14.3239 2.97853C14.4987 2.8045 14.7232 2.68922 14.9665 2.64868L18.8087 2.0083Z" fill="#FFC01F"/>
</g>
<defs>
<clipPath id="clip0_11_1968">
<rect width="24" height="24" fill="white"/>
</clipPath>
</defs>
</svg>
