<svg width="24" height="24" viewBox="0 0 24 24" fill="none" xmlns="http://www.w3.org/2000/svg">
<g clip-path="url(#clip0_11_1954)">
<path d="M19.7781 16.571C18.7543 19.4969 15.6592 21.3693 12.0001 21.3693C8.12394 21.3693 4.88078 19.2682 4.0621 16.0395C3.974 16.0548 3.87335 16.0626 3.75852 16.0626C2.51118 16.0626 1.5 15.3628 1.5 13.7288C1.5 12.3171 2.51118 11.395 3.75852 11.395C3.95353 11.395 4.10764 11.423 4.22887 11.4747C5.11992 8.06183 7.65285 5.35693 12.0001 5.35693C16.3355 5.35693 18.8664 8.04713 19.764 11.4469C19.8863 11.386 20.0426 11.353 20.2415 11.353C21.4888 11.353 22.5 12.3981 22.5 13.998C22.5 15.8498 21.4888 16.643 20.2415 16.643C20.0502 16.643 19.8982 16.6184 19.7781 16.571Z" fill="#FCCFBE"/>
<path d="M9.76869 15.3319C10.2937 15.3319 10.5562 14.8618 10.5562 14.2819C10.5562 13.702 10.2937 13.2319 9.76869 13.2319C9.2437 13.2319 8.9812 13.702 8.9812 14.2819C8.9812 14.8618 9.2437 15.3319 9.76869 15.3319Z" fill="url(#paint0_linear_11_1954)"/>
<path d="M14.2313 15.3319C14.7563 15.3319 15.0188 14.8618 15.0188 14.2819C15.0188 13.702 14.7563 13.2319 14.2313 13.2319C13.7063 13.2319 13.4438 13.702 13.4438 14.2819C13.4438 14.8618 13.7063 15.3319 14.2313 15.3319Z" fill="url(#paint1_linear_11_1954)"/>
<path d="M12.3136 15.7256C12.8659 15.7256 13.3442 16.2351 12.967 16.6386C12.7368 16.8849 12.4032 17.0381 12.0011 17.0381C11.5991 17.0381 11.2655 16.8849 11.0353 16.6386C10.6581 16.2351 11.1364 15.7256 11.6887 15.7256C11.897 15.7256 12.1053 15.7256 12.3136 15.7256Z" fill="#F97361"/>
<path d="M13.9939 9.95187C13.9892 10.3746 14.1461 10.8462 14.2891 11.1864C14.3728 11.3856 14.2045 11.5701 13.9939 11.5273C13.3383 11.3939 12.886 11.1923 12.4536 10.6751C12.1597 10.3236 12.0375 10.8708 12.1103 11.2198C12.1697 11.504 12.348 11.8134 12.4318 12.1196C12.4864 12.3188 12.304 12.4983 12.1103 12.4298C11.7124 12.2889 10.9638 11.9016 10.4723 11.5718C9.75119 11.0879 9.15717 10.6083 8.77675 9.6893C8.25821 8.43666 8.96904 7.19758 9.01485 6.63487C9.02553 6.50371 9.13525 6.40723 9.26599 6.40723H14.6211C14.8136 6.40723 14.9425 6.61025 14.8656 6.78789C14.5724 7.46557 14.0054 8.90795 13.9939 9.95187Z" fill="#794732"/>
<path fill-rule="evenodd" clip-rule="evenodd" d="M11.8109 6.58887L11.8691 6.58887C12.2585 6.58885 12.8282 6.67508 13.3582 6.9816C13.926 7.30996 14.4307 7.88771 14.5641 8.76793C14.6468 9.31398 14.2712 9.82372 13.7252 9.90646C13.1791 9.98919 12.6694 9.6136 12.5867 9.06755C12.5686 8.94828 12.5328 8.88039 12.5027 8.83881C12.4705 8.79423 12.4243 8.75186 12.357 8.71292C12.2317 8.64048 12.0717 8.6028 11.9433 8.59211C11.9205 8.59866 11.8926 8.60815 11.8615 8.62121C11.7902 8.65105 11.7162 8.69342 11.6512 8.74713C11.537 8.84157 11.4382 8.9763 11.4237 9.2226C11.3913 9.77393 10.918 10.1946 10.3667 10.1621C9.81536 10.1297 9.39471 9.65648 9.42714 9.10515C9.47828 8.23583 9.89076 7.60767 10.3767 7.20582C10.8329 6.82863 11.3608 6.64148 11.7531 6.59563L11.8109 6.58887Z" fill="#6A3E2C"/>
<path fill-rule="evenodd" clip-rule="evenodd" d="M10.243 9.25046C10.2397 9.29325 10.238 9.33648 10.238 9.38009L10.243 10.2847C10.7996 10.2556 11.3777 10.2551 11.9839 10.2551C12.5901 10.2551 13.1732 10.2556 13.7298 10.2847V9.38009C13.7298 9.33648 13.7281 9.29325 13.7248 9.25046C13.1698 9.22155 12.5883 9.20508 11.9839 9.20508C11.3795 9.20508 10.7981 9.22155 10.243 9.25046Z" fill="#2656D8"/>
<path d="M12.742 3.26698C17.3782 3.64901 20.0279 7.59494 20.1375 11.4135C20.1375 11.4135 17.5807 10.5101 13.7063 10.2877V9.18182C13.7063 8.23949 12.9424 7.47559 12.0001 7.47559C11.0578 7.47559 10.2939 8.23949 10.2939 9.18182V10.2877C6.41943 10.5101 3.86267 11.4135 3.86267 11.4135C3.96801 7.74395 6.41906 3.95677 10.7245 3.32777C10.7769 2.93436 11.1137 2.63086 11.5215 2.63086H11.9556C12.342 2.63086 12.6648 2.90353 12.742 3.26698Z" fill="#2656D8"/>
</g>
<defs>
<linearGradient id="paint0_linear_11_1954" x1="13.9688" y1="13.9319" x2="14.7765" y2="15.1435" gradientUnits="userSpaceOnUse">
<stop stop-color="#3E3535"/>
<stop offset="1" stop-color="#2F2828"/>
</linearGradient>
<linearGradient id="paint1_linear_11_1954" x1="13.9688" y1="13.9319" x2="14.7765" y2="15.1435" gradientUnits="userSpaceOnUse">
<stop stop-color="#3E3535"/>
<stop offset="1" stop-color="#2F2828"/>
</linearGradient>
<clipPath id="clip0_11_1954">
<rect width="24" height="24" fill="white"/>
</clipPath>
</defs>
</svg>
