<svg width="24" height="24" viewBox="0 0 24 24" fill="none" xmlns="http://www.w3.org/2000/svg">
<g clip-path="url(#clip0_11_1871)">
<path d="M20.0421 11.0259C20.0421 11.0259 16.8093 10.1499 12.1155 10.1499C7.42168 10.1499 4.19139 11.0259 4.19139 11.0259C4.04786 15.124 7.65846 17.4787 12.1155 17.4787C16.5725 17.4787 20.1856 15.124 20.0421 11.0259Z" fill="#2AAA56"/>
<path d="M19.3938 14.4616C19.4106 14.1979 19.4292 13.9046 19.4292 13.5868C19.4292 13.3311 19.4122 13.0776 19.3961 12.8368C19.3367 11.9481 19.289 11.2339 20.1481 11.2339C21.2399 11.2339 22.125 12.1635 22.125 13.5868C22.125 15.2341 21.2399 15.9396 20.1481 15.9396C19.3001 15.9396 19.3357 15.3789 19.3938 14.4616Z" fill="#FBC9B6"/>
<path d="M4.60616 14.0819C4.58942 13.8492 4.57082 13.5904 4.57082 13.31C4.57082 13.0844 4.58777 12.8607 4.60386 12.6482C4.66326 11.8641 4.71101 11.2339 3.85194 11.2339C2.76011 11.2339 1.875 12.0542 1.875 13.31C1.875 14.7635 2.76011 15.386 3.85194 15.386C4.69992 15.386 4.66434 14.8912 4.60616 14.0819Z" fill="#FBC9B6"/>
<path d="M20.0527 14.4974C20.0527 18.6291 16.4992 21.4535 12.1158 21.4535C7.73242 21.4535 4.17896 18.6291 4.17896 14.4974C4.17896 9.84076 6.7083 5.44141 12.1158 5.44141C17.5234 5.44141 20.0527 9.84076 20.0527 14.4974Z" fill="#FCCFBE"/>
<path d="M9.93996 15.1362C10.452 15.1362 10.708 14.6703 10.708 14.0955C10.708 13.5207 10.452 13.0547 9.93996 13.0547C9.4279 13.0547 9.17188 13.5207 9.17188 14.0955C9.17188 14.6703 9.4279 15.1362 9.93996 15.1362Z" fill="url(#paint0_linear_11_1871)"/>
<path d="M14.2935 15.1362C14.8055 15.1362 15.0616 14.6703 15.0616 14.0955C15.0616 13.5207 14.8055 13.0547 14.2935 13.0547C13.7814 13.0547 13.5254 13.5207 13.5254 14.0955C13.5254 14.6703 13.7814 15.1362 14.2935 15.1362Z" fill="url(#paint1_linear_11_1871)"/>
<g filter="url(#filter0_f_11_1871)">
<rect x="9.39185" y="13.5869" width="0.39174" height="0.52232" rx="0.19587" fill="white"/>
</g>
<g filter="url(#filter1_f_11_1871)">
<rect x="13.8022" y="13.5869" width="0.39174" height="0.52232" rx="0.19587" fill="white"/>
</g>
<path d="M14 16.2289C14.2314 16.2067 14.4381 16.3891 14.3997 16.6182C14.1832 17.9086 13.0149 18.5003 12.1171 18.5003C11.2192 18.5003 10.0509 17.9086 9.83447 16.6182C9.79602 16.3891 10.0028 16.2067 10.2341 16.2289C10.6761 16.2712 11.3966 16.3272 12.1171 16.3272C12.8375 16.3272 13.558 16.2712 14 16.2289Z" fill="#FFA380"/>
<path d="M12.1164 18.5003C11.4805 18.5001 10.7091 18.203 10.2363 17.5713C10.616 17.2849 11.2429 16.9551 12.1173 16.9551C12.9916 16.9551 13.6186 17.2849 13.9982 17.5713C13.5255 18.203 12.7541 18.5001 12.1181 18.5003H12.1164Z" fill="#F97146"/>
<path d="M14.0612 9.80358C14.0566 10.2226 14.2097 10.6901 14.3491 11.0272C14.4308 11.2247 14.2667 11.4076 14.0612 11.3651C13.4218 11.233 12.9807 11.0332 12.5589 10.5204C12.2723 10.1721 12.153 10.7145 12.2241 11.0603C12.282 11.3421 12.4559 11.6488 12.5377 11.9523C12.5909 12.1498 12.413 12.3277 12.2241 12.2597C11.8359 12.1201 11.1058 11.7362 10.6264 11.4093C9.9231 10.9296 9.34371 10.4542 8.97267 9.54331C8.46691 8.30166 9.16022 7.07346 9.2049 6.51568C9.21532 6.38567 9.32233 6.29004 9.44985 6.29004H14.673C14.8607 6.29004 14.9865 6.49128 14.9115 6.66736C14.6255 7.33909 14.0725 8.76882 14.0612 9.80358Z" fill="#794732"/>
<path fill-rule="evenodd" clip-rule="evenodd" d="M11.9302 6.46094L11.9894 6.46094C12.3748 6.46092 12.9374 6.54762 13.4603 6.85494C14.0213 7.18468 14.513 7.76083 14.6427 8.63069C14.7241 9.17693 14.3473 9.68578 13.8011 9.76722C13.2549 9.84866 12.746 9.47186 12.6646 8.92562C12.6468 8.80623 12.6115 8.73899 12.583 8.69884C12.5525 8.65599 12.5094 8.61594 12.4469 8.57919C12.3319 8.51162 12.1849 8.47568 12.0659 8.46466C12.0478 8.4702 12.0244 8.47833 11.9968 8.49007C11.93 8.51848 11.8602 8.55904 11.7987 8.61071C11.6915 8.70082 11.5939 8.83293 11.5796 9.07991C11.5477 9.63127 11.0749 10.0524 10.5235 10.0205C9.97215 9.98854 9.55106 9.5157 9.58297 8.96434C9.63268 8.1055 10.0338 7.48141 10.512 7.07957C10.9604 6.70276 11.4812 6.51428 11.8715 6.46792L11.9302 6.46094Z" fill="#6A3E2C"/>
<path fill-rule="evenodd" clip-rule="evenodd" d="M20.0526 11.2524C20.0526 11.2524 17.5587 10.3569 13.7795 10.1365V10.1324C13.2436 10.1048 12.6825 10.1043 12.0996 10.1043C11.5263 10.1043 10.9787 10.1047 10.4512 10.131V10.1365C6.67242 10.357 4.17883 11.2524 4.17883 11.2524C4.29133 7.26982 7.14663 3.14746 12.1157 3.14746C17.0848 3.14746 19.9401 7.26982 20.0526 11.2524ZM10.4512 9.10588C10.9776 9.07883 11.5281 9.06348 12.0996 9.06348C12.6825 9.06348 13.2436 9.07945 13.7795 9.10751V9.01331C13.7795 8.0942 13.0344 7.34912 12.1153 7.34912C11.1962 7.34912 10.4512 8.0942 10.4512 9.01331V9.10588Z" fill="#2AAA56"/>
<path d="M10.8652 3.34388C10.8652 2.90371 11.2221 2.54688 11.6622 2.54688H12.0601C12.5003 2.54688 12.8571 2.90371 12.8571 3.34388C12.8571 3.78405 12.5003 4.14088 12.0601 4.14088H11.6622C11.2221 4.14088 10.8652 3.78405 10.8652 3.34388Z" fill="#8BC727"/>
</g>
<defs>
<filter id="filter0_f_11_1871" x="9.08232" y="13.2774" width="1.01079" height="1.14136" filterUnits="userSpaceOnUse" color-interpolation-filters="sRGB">
<feFlood flood-opacity="0" result="BackgroundImageFix"/>
<feBlend mode="normal" in="SourceGraphic" in2="BackgroundImageFix" result="shape"/>
<feGaussianBlur stdDeviation="0.154762" result="effect1_foregroundBlur_11_1871"/>
</filter>
<filter id="filter1_f_11_1871" x="13.4927" y="13.2774" width="1.01079" height="1.14136" filterUnits="userSpaceOnUse" color-interpolation-filters="sRGB">
<feFlood flood-opacity="0" result="BackgroundImageFix"/>
<feBlend mode="normal" in="SourceGraphic" in2="BackgroundImageFix" result="shape"/>
<feGaussianBlur stdDeviation="0.154762" result="effect1_foregroundBlur_11_1871"/>
</filter>
<linearGradient id="paint0_linear_11_1871" x1="14.0374" y1="13.7485" x2="14.8429" y2="14.9374" gradientUnits="userSpaceOnUse">
<stop stop-color="#3E3535"/>
<stop offset="1" stop-color="#2F2828"/>
</linearGradient>
<linearGradient id="paint1_linear_11_1871" x1="14.0374" y1="13.7485" x2="14.8429" y2="14.9374" gradientUnits="userSpaceOnUse">
<stop stop-color="#3E3535"/>
<stop offset="1" stop-color="#2F2828"/>
</linearGradient>
<clipPath id="clip0_11_1871">
<rect width="24" height="24" fill="white"/>
</clipPath>
</defs>
</svg>
