<svg width="24" height="24" viewBox="0 0 24 24" fill="none" xmlns="http://www.w3.org/2000/svg">
<g clip-path="url(#clip0_11_1931)">
<path d="M4.09169 21.9735L19.4487 18.7877C19.4487 18.7877 15.3358 14.6898 12.9139 12.2331C10.492 9.77651 6.64882 5.48291 6.64882 5.48291L2.06231 19.7609C1.7259 21.0137 2.80667 22.192 4.09169 21.9735Z" fill="#FF5E2A"/>
<path d="M6.91841 4.97179C5.76859 6.0607 7.74654 9.98341 11.3363 13.7334C14.9261 17.4834 18.7682 19.6406 19.9181 18.5517C21.0679 17.4628 19.0899 13.5401 15.5002 9.79011C11.9104 6.04011 8.06824 3.88287 6.91841 4.97179Z" fill="#FFD200"/>
<path fill-rule="evenodd" clip-rule="evenodd" d="M16.3043 13.1608C15.292 13.1608 14.7457 13.4548 14.1618 13.9628C13.7804 14.2947 13.2101 14.2945 12.8593 13.9306C12.5085 13.5666 12.5145 12.9816 12.8973 12.6514C13.8603 11.8208 14.783 11.3301 16.3043 11.3301C18.3351 11.3301 20.1618 12.2035 21.4292 13.5926C21.7699 13.966 21.6636 14.5414 21.2487 14.8302C20.8338 15.1191 20.2683 15.0095 19.9105 14.6524C18.9863 13.7297 17.7117 13.1608 16.3043 13.1608Z" fill="#03C75A"/>
<rect x="16.6504" y="3.91602" width="4.4387" height="4.42456" rx="0.5" transform="rotate(10.0268 16.6504 3.91602)" fill="#A66DFF"/>
<circle cx="11.2182" cy="6.48076" r="2.2" fill="#FF5353"/>
</g>
<defs>
<clipPath id="clip0_11_1931">
<rect width="24" height="24" fill="white"/>
</clipPath>
</defs>
</svg>
