<svg width="24" height="24" viewBox="0 0 24 24" fill="none" xmlns="http://www.w3.org/2000/svg">
<g clip-path="url(#clip0_11_1936)">
<path d="M13.6327 3.83691C13.6327 3.28463 13.185 2.83691 12.6327 2.83691H8.72013C7.97675 2.83691 7.49326 3.61923 7.82571 4.28413L8.45836 5.54943C8.62775 5.88822 8.97401 6.10222 9.35278 6.10222H12.6327C13.185 6.10222 13.6327 5.6545 13.6327 5.10222V3.83691Z" fill="#ACA5F8"/>
<path d="M11.0001 3C11.0001 2.44772 11.4478 2 12.0001 2H15.6343C16.3448 2 16.8286 2.72011 16.5601 3.3779L15.4899 6H11.0001V3Z" fill="#8C80EC"/>
<path fill-rule="evenodd" clip-rule="evenodd" d="M11.3437 6.49006C7.61026 6.49006 4.44121 9.24009 3.89802 12.9512L2.92682 19.5866C2.3947 19.718 2 20.2006 2 20.7758C2 21.452 2.54565 22.0003 3.21874 22.0003H20.2812C20.9543 22.0003 21.4999 21.452 21.4999 20.7758C21.4999 20.2006 21.1052 19.718 20.5731 19.5866L19.7201 13.7589C19.109 9.58383 15.5438 6.49006 11.3437 6.49006Z" fill="#887EF9"/>
<path d="M7.5 6.67383C7.5 6.12154 7.86631 5.67383 8.31818 5.67383H15.6818C16.1337 5.67383 16.5 6.12154 16.5 6.67383V6.67383C16.5 7.22611 16.1337 7.67383 15.6818 7.67383H8.31818C7.86631 7.67383 7.5 7.22611 7.5 6.67383V6.67383Z" fill="#6B5ECA"/>
<path d="M13.7506 15.999C14.3028 15.9992 14.7506 16.4468 14.7506 16.999C14.7506 17.5512 14.3028 17.9989 13.7506 17.999C13.1983 17.999 12.7506 17.5513 12.7506 16.999C12.7506 16.4467 13.1983 15.999 13.7506 15.999ZM12.5778 12.8271C12.9488 12.4562 13.5505 12.4562 13.9215 12.8271C14.2925 13.1982 14.2925 13.7999 13.9215 14.1709L10.9215 17.1709C10.5505 17.5416 9.94868 17.5418 9.57776 17.1709C9.20689 16.8 9.20704 16.1982 9.57776 15.8271L12.5778 12.8271ZM9.74963 11.999C10.3019 11.999 10.7496 12.4468 10.7496 12.999C10.7496 13.5513 10.3019 13.999 9.74963 13.999C9.19737 13.999 8.74964 13.5513 8.74963 12.999C8.74963 12.4467 9.19736 11.999 9.74963 11.999Z" fill="white"/>
<path d="M15.1516 18.1098C15.1516 17.8663 15.349 17.6689 15.5925 17.6689H21.412C21.6555 17.6689 21.8529 17.8663 21.8529 18.1098V19.3938C21.8529 19.6373 21.6555 19.8347 21.412 19.8347H15.5925C15.349 19.8347 15.1516 19.6373 15.1516 19.3938V18.1098Z" fill="#FFD873"/>
<path d="M20.8807 17.6689H21.4127C21.6562 17.6689 21.8536 17.8663 21.8536 18.1098V19.3938C21.8536 19.6373 21.6562 19.8347 21.4127 19.8347H20.8807V17.6689Z" fill="#F6C444"/>
<path d="M15 20.2749C15 20.0314 15.1974 19.834 15.4409 19.834H21.2604C21.5039 19.834 21.7013 20.0314 21.7013 20.2749V21.5589C21.7013 21.8024 21.5039 21.9998 21.2604 21.9998H15.4409C15.1974 21.9998 15 21.8024 15 21.5589V20.2749Z" fill="#FFD873"/>
<path d="M20.8369 19.834H21.3689C21.6124 19.834 21.8097 20.0314 21.8097 20.2749V21.5589C21.8097 21.8024 21.6124 21.9998 21.3689 21.9998H20.8369V19.834Z" fill="#F6C444"/>
<path fill-rule="evenodd" clip-rule="evenodd" d="M15.3413 14.4642C15.3888 14.2275 15.6179 14.0729 15.8552 14.1177L21.5668 15.1941C21.808 15.2396 21.9657 15.4733 21.9174 15.714L21.6646 16.9754C21.6171 17.2122 21.3879 17.3667 21.1506 17.322L15.439 16.2455C15.1978 16.2001 15.0402 15.9663 15.0884 15.7256L15.3413 14.4642Z" fill="#FFD873"/>
<path fill-rule="evenodd" clip-rule="evenodd" d="M21.0454 15.1259L21.5522 15.2039C21.7997 15.242 21.9659 15.4784 21.9179 15.7242L21.6714 16.9861C21.6261 17.2183 21.4055 17.3734 21.1717 17.3374L20.6299 17.254L21.0454 15.1259Z" fill="#F6C444"/>
</g>
<defs>
<clipPath id="clip0_11_1936">
<rect width="24" height="24" fill="white"/>
</clipPath>
</defs>
</svg>
