<svg width="24" height="24" viewBox="0 0 24 24" fill="none" xmlns="http://www.w3.org/2000/svg">
<g clip-path="url(#clip0_11_1910)">
<rect x="2.09961" y="2" width="20" height="4" rx="2" fill="#129375"/>
<path d="M3.99976 5C3.99976 4.44772 4.44747 4 4.99976 4H18.9998C19.552 4 19.9998 4.44772 19.9998 5V21.1451C19.9998 21.5275 19.5879 21.7683 19.2546 21.5809L18.2449 21.0129C18.0927 20.9273 17.9068 20.9273 17.7546 21.0129L16.2449 21.8621C16.0927 21.9477 15.9068 21.9477 15.7546 21.8621L14.2449 21.0129C14.0927 20.9273 13.9068 20.9273 13.7546 21.0129L12.2449 21.8621C12.0927 21.9477 11.9068 21.9477 11.7546 21.8621L10.2449 21.0129C10.0927 20.9273 9.90683 20.9273 9.75463 21.0129L8.24489 21.8621C8.09268 21.9477 7.90683 21.9477 7.75462 21.8621L6.24489 21.0129C6.09268 20.9273 5.90683 20.9273 5.75462 21.0129L4.74489 21.5809C4.41158 21.7683 3.99976 21.5275 3.99976 21.1451V5Z" fill="#17AC89"/>
<path d="M9.24477 7.03619C9.59402 6.91381 9.97164 7.11187 10.0882 7.47857L10.7272 9.48894L11.3662 7.47857C11.4571 7.19287 11.7118 7.00019 11.9986 7.00019C12.2855 7.00019 12.5402 7.19287 12.631 7.47857L13.27 9.48894L13.909 7.47857C14.0256 7.11187 14.4032 6.91381 14.7525 7.03619C15.1017 7.15857 15.2904 7.55506 15.1738 7.92176L14.9722 8.55593H15.3331C15.7013 8.55593 15.9998 8.86932 15.9998 9.25591C15.9998 9.6425 15.7013 9.95589 15.3331 9.95589H14.5272L13.9024 11.9216C13.8116 12.2073 13.5569 12.4 13.27 12.4C12.9832 12.4 12.7284 12.2073 12.6376 11.9216L11.9986 9.91125L11.3596 11.9216C11.2688 12.2073 11.0141 12.4 10.7272 12.4C10.4404 12.4 10.1857 12.2073 10.0948 11.9216L9.47001 9.95589H8.66643C8.29823 9.95589 7.99976 9.6425 7.99976 9.25591C7.99976 8.86932 8.29823 8.55593 8.66643 8.55593H9.02502L8.82344 7.92176C8.70688 7.55506 8.89551 7.15857 9.24477 7.03619Z" fill="white"/>
<g opacity="0.3">
<path d="M7.82056 14.885C7.82117 14.3956 8.25276 13.9994 8.78454 14L15.2152 14.0041C15.747 14.0048 16.1776 14.402 16.177 14.8914C16.1764 15.3808 15.7448 15.777 15.213 15.7764L8.78233 15.7723C8.25055 15.7717 7.81995 15.3744 7.82056 14.885Z" fill="#07644E"/>
<path d="M7.82266 18.1128C7.82327 17.6234 8.25486 17.2271 8.78664 17.2277L15.2174 17.2277C15.7492 17.2284 16.1798 17.6256 16.1792 18.115C16.1786 18.6044 15.747 19.0006 15.2152 19H8.78443C8.25265 18.9994 7.82204 18.6022 7.82266 18.1128Z" fill="#07644E"/>
</g>
</g>
<defs>
<clipPath id="clip0_11_1910">
<rect width="24" height="24" fill="white"/>
</clipPath>
</defs>
</svg>
