<svg width="24" height="24" viewBox="0 0 24 24" fill="none" xmlns="http://www.w3.org/2000/svg">
<g clip-path="url(#clip0_11_1989)">
<path d="M2 4.50032C2 3.11961 3.11928 2.00031 4.5 2.00031H15.5C16.8807 2.00031 18 3.1196 18 4.50032V18.4995C18 19.8802 16.8807 20.9995 15.5 20.9995H4.5C3.11928 20.9995 2 19.8802 2 18.4995V4.50032Z" fill="#C6D0DB"/>
<path d="M4 7.00007C4 6.44779 4.44771 6.00007 5 6.00007H11C11.5523 6.00007 12 6.44779 12 7.00007C12 7.55236 11.5523 8.00007 11 8.00007H5C4.44771 8.00007 4 7.55236 4 7.00007Z" fill="#93A5B9"/>
<path d="M4 11.0001C4 10.4478 4.44771 10.0001 5 10.0001H8.5C9.05228 10.0001 9.5 10.4478 9.5 11.0001C9.5 11.5524 9.05228 12.0001 8.5 12.0001H5C4.44771 12.0001 4 11.5524 4 11.0001Z" fill="#93A5B9"/>
<path d="M15.6265 11.3847L14.5622 11.1008C12.4567 10.5393 10.5227 12.416 11.105 14.4556L13.1009 21.4467C13.291 22.1125 14.2279 22.2011 14.5473 21.5835L15.7393 19.2788C16.0532 18.672 16.9468 18.672 17.2607 19.2788L18.4527 21.5835C18.7721 22.2011 19.709 22.1125 19.8991 21.4467L21.895 14.4556C22.4773 12.416 20.5433 10.5393 18.4378 11.1008L17.3734 11.3847C16.8018 11.5371 16.1982 11.5371 15.6265 11.3847Z" fill="#1E65F6"/>
</g>
<defs>
<clipPath id="clip0_11_1989">
<rect width="24" height="24" fill="white"/>
</clipPath>
</defs>
</svg>
