<svg width="24" height="24" viewBox="0 0 24 24" fill="none" xmlns="http://www.w3.org/2000/svg">
<g clip-path="url(#clip0_11_1996)">
<path d="M4.82318 14.9891C10.3999 14.9891 14.9207 10.4737 14.9207 4.9037C14.9207 3.93104 14.7828 2.99046 14.5256 2.10059C18.7798 3.28751 21.9006 7.18734 21.9006 11.8152C21.9006 17.3852 17.3797 21.9006 11.803 21.9006C7.20005 21.9006 3.31651 18.8245 2.10059 14.6183C2.96674 14.8599 3.87978 14.9891 4.82318 14.9891Z" fill="#87AEF8"/>
<path d="M7.68485 5.33533C7.76694 5.11348 8.08072 5.11348 8.16281 5.33533L8.82293 7.11929C8.84874 7.18904 8.90373 7.24403 8.97348 7.26984L10.7574 7.92997C10.9793 8.01206 10.9793 8.32583 10.7574 8.40792L8.97348 9.06805C8.90373 9.09386 8.84874 9.14885 8.82293 9.2186L8.16281 11.0026C8.08072 11.2244 7.76694 11.2244 7.68485 11.0026L7.02472 9.2186C6.99891 9.14885 6.94392 9.09386 6.87418 9.06805L5.09021 8.40792C4.86837 8.32583 4.86837 8.01206 5.09021 7.92997L6.87417 7.26984C6.94392 7.24403 6.99891 7.18904 7.02472 7.11929L7.68485 5.33533Z" fill="#FFD600"/>
</g>
<defs>
<clipPath id="clip0_11_1996">
<rect width="24" height="24" fill="white"/>
</clipPath>
</defs>
</svg>
