<svg width="24" height="24" viewBox="0 0 24 24" fill="none" xmlns="http://www.w3.org/2000/svg">
<g clip-path="url(#clip0_11_1956)">
<path d="M10.7104 6C8.06236 6 5.90955 8.13385 5.85619 10.7862C3.15484 10.9018 1 13.143 1 15.8908C1 18.3056 2.70187 20.4667 4.93884 21L19.2388 20.9997C19.2534 20.9997 19.268 21 19.2827 21C19.2974 21 19.312 20.9997 19.3266 20.9997C19.3266 20.9997 19.3789 20.9997 19.5547 20.9997C19.61 20.9997 19.6945 20.9773 19.6945 20.9773C21.5117 20.6406 23 19.1846 23 17.2582C23 15.7596 22.125 14.467 20.8613 13.8695C20.8613 13.8695 21.0275 13.1461 21.0275 12.7595C21.0275 10.6931 19.3633 9.01771 17.3104 9.01771C16.6052 9.01771 15.9459 9.2152 15.384 9.55863C14.8091 7.50515 12.9343 6 10.7104 6Z" fill="#5BA6FF"/>
<path d="M23 8C23 10.7614 20.7614 13 18 13C15.2386 13 13 10.7614 13 8C13 5.23858 15.2386 3 18 3C20.7614 3 23 5.23858 23 8Z" fill="#E55728"/>
<path d="M16.2099 6.22573C15.9313 6.50435 15.9294 6.95607 16.208 7.23467L16.9832 8.00983L16.2296 8.7634C15.951 9.04203 15.9491 9.49375 16.2277 9.77234C16.5062 10.0509 16.958 10.049 17.2366 9.77042L17.9902 9.01684L18.7653 9.792C19.0439 10.0706 19.4956 10.0687 19.7743 9.79007C20.0529 9.51145 20.0548 9.05973 19.7762 8.78113L19.001 8.00597L19.7901 7.21694C20.0687 6.93831 20.0706 6.48659 19.792 6.208C19.5134 5.9294 19.0617 5.9313 18.7831 6.20993L17.994 6.99896L17.2189 6.2238C16.9403 5.9452 16.4886 5.9471 16.2099 6.22573Z" fill="white"/>
</g>
<defs>
<clipPath id="clip0_11_1956">
<rect width="24" height="24" fill="white"/>
</clipPath>
</defs>
</svg>
