<svg width="24" height="24" viewBox="0 0 24 24" fill="none" xmlns="http://www.w3.org/2000/svg">
<g clip-path="url(#clip0_11_1962)">
<path d="M11.9991 2C9.79409 2.00243 7.68004 2.8794 6.12075 4.43852C4.56147 5.99765 3.68429 8.11162 3.68164 10.3167C3.68164 12.4583 5.33997 15.81 8.61081 20.2783C9.00019 20.8118 9.51002 21.2457 10.0988 21.5449C10.6876 21.8441 11.3387 22 11.9991 22C12.6596 22 13.3107 21.8441 13.8995 21.5449C14.4883 21.2457 14.9981 20.8118 15.3875 20.2783C18.6583 15.81 20.3166 12.4583 20.3166 10.3167C20.314 8.11162 19.4368 5.99765 17.8775 4.43852C16.3182 2.8794 14.2042 2.00243 11.9991 2ZM11.9991 13.6317C11.3399 13.6317 10.6954 13.4362 10.1472 13.0699C9.59908 12.7036 9.17183 12.183 8.91954 11.5739C8.66725 10.9649 8.60124 10.2946 8.72986 9.64803C8.85847 9.00143 9.17594 8.40749 9.64212 7.94131C10.1083 7.47514 10.7022 7.15767 11.3488 7.02905C11.9954 6.90043 12.6657 6.96644 13.2748 7.21874C13.8838 7.47103 14.4044 7.89827 14.7707 8.44643C15.137 8.9946 15.3325 9.63906 15.3325 10.2983C15.3325 11.1824 14.9813 12.0302 14.3562 12.6554C13.731 13.2805 12.8832 13.6317 11.9991 13.6317Z" fill="#03B3DA"/>
</g>
<defs>
<clipPath id="clip0_11_1962">
<rect width="24" height="24" fill="white"/>
</clipPath>
</defs>
</svg>
