<svg width="24" height="24" viewBox="0 0 24 24" fill="none" xmlns="http://www.w3.org/2000/svg">
<g clip-path="url(#clip0_11_1992)">
<path d="M2 5.15789C2 3.41384 3.42215 2 5.17647 2H16.8235C18.5778 2 20 3.41384 20 5.15789V18.8421C20 20.5862 18.5778 22 16.8235 22H5.17647C3.42215 22 2 20.5862 2 18.8421V5.15789Z" fill="#90A6C6"/>
<path fill-rule="evenodd" clip-rule="evenodd" d="M5 7C5 6.44772 5.44772 6 6 6H12C12.5523 6 13 6.44772 13 7C13 7.55228 12.5523 8 12 8H6C5.44772 8 5 7.55228 5 7ZM5 11C5 10.4477 5.44772 10 6 10H9C9.55229 10 10 10.4477 10 11C10 11.5523 9.55229 12 9 12H6C5.44772 12 5 11.5523 5 11Z" fill="white"/>
<ellipse cx="17.002" cy="17.5" rx="5" ry="5" fill="#EE444A"/>
<path fill-rule="evenodd" clip-rule="evenodd" d="M17.0062 14.3037C16.5938 14.3037 16.2594 14.638 16.2594 15.0504V18.0337C16.2594 18.446 16.5938 18.7803 17.0062 18.7803C17.4185 18.7803 17.7529 18.446 17.7529 18.0337V15.0504C17.7529 14.638 17.4185 14.3037 17.0062 14.3037ZM17.0084 19.1663C16.5961 19.1607 16.2572 19.4904 16.2517 19.9028L16.2512 19.9386C16.2456 20.3509 16.5753 20.6897 16.9877 20.6953C17.4 20.7009 17.7389 20.3712 17.7445 19.9588L17.745 19.923C17.7505 19.5107 17.4208 19.1719 17.0084 19.1663Z" fill="white"/>
</g>
<defs>
<clipPath id="clip0_11_1992">
<rect width="24" height="24" fill="white"/>
</clipPath>
</defs>
</svg>
