<svg width="24" height="24" viewBox="0 0 24 24" fill="none" xmlns="http://www.w3.org/2000/svg">
<g clip-path="url(#clip0_11_2011)">
<path d="M3 5C3 3.89543 3.89543 3 5 3H17C18.1046 3 19 3.89543 19 5V20C19 21.1046 18.1046 22 17 22H5C3.89543 22 3 21.1046 3 20V5Z" fill="#ACB1B6"/>
<path fill-rule="evenodd" clip-rule="evenodd" d="M7 9C6.44772 9 6 9.44772 6 10C6 10.5523 6.44772 11 7 11H15C15.5523 11 16 10.5523 16 10C16 9.44772 15.5523 9 15 9H7ZM8 13C7.44772 13 7 13.4477 7 14C7 14.5523 7.44772 15 8 15H14C14.5523 15 15 14.5523 15 14C15 13.4477 14.5523 13 14 13H8Z" fill="white"/>
<path opacity="0.7" d="M19.3435 17.0005C19.3435 19.0077 17.7092 20.6349 15.6932 20.6349C13.6772 20.6349 12.043 19.0077 12.043 17.0005C12.043 14.9933 13.6772 13.3661 15.6932 13.3661C17.7092 13.3661 19.3435 14.9933 19.3435 17.0005Z" fill="white"/>
<path fill-rule="evenodd" clip-rule="evenodd" d="M18.822 16.6728C18.822 18.3933 17.4212 19.788 15.6932 19.788C13.9652 19.788 12.5644 18.3933 12.5644 16.6728C12.5644 14.9523 13.9652 13.5576 15.6932 13.5576C17.4212 13.5576 18.822 14.9523 18.822 16.6728ZM18.2556 20.5883C17.5188 21.0672 16.6387 21.3456 15.6932 21.3456C13.1012 21.3456 11 19.2535 11 16.6728C11 14.0921 13.1012 12 15.6932 12C18.2852 12 20.3864 14.0921 20.3864 16.6728C20.3864 17.601 20.1146 18.466 19.6458 19.1932L20.7327 20.3457C21.1139 20.7499 21.0836 21.3879 20.666 21.7545C20.2664 22.1053 19.6593 22.0768 19.2946 21.6902L18.2556 20.5883Z" fill="#405E81"/>
<path d="M6.5 3C6.5 2.44772 6.94772 2 7.5 2H14.5C15.0523 2 15.5 2.44772 15.5 3V4C15.5 4.55228 15.0523 5 14.5 5H7.5C6.94772 5 6.5 4.55228 6.5 4V3Z" fill="#737373"/>
</g>
<defs>
<clipPath id="clip0_11_2011">
<rect width="24" height="24" fill="white"/>
</clipPath>
</defs>
</svg>
