<svg width="24" height="24" viewBox="0 0 24 24" fill="none" xmlns="http://www.w3.org/2000/svg">
<g clip-path="url(#clip0_11_1982)">
<path d="M12 4.27842C12.9087 2.39795 17.149 0.448936 19.8749 3.89647C21.3608 5.77574 21.3892 9.22447 19.8748 11.4184C17.8073 15.2077 12.9 18 12 18C11.1 18 6.19272 15.2077 4.12515 11.4184C2.61075 9.22447 2.63922 5.77574 4.12513 3.89647C6.85105 0.448936 11.0913 2.39795 12 4.27842Z" fill="#F66041"/>
<path d="M5.11211 15.1458H1.5V21.0966H5.11211V15.1458Z" fill="#FFC466"/>
<path d="M14.6839 17.6168L20.2616 15.1878C20.8769 14.9265 21.5891 15.0809 22.0506 15.5857C22.8368 16.4409 22.552 17.8544 21.5036 18.3117L14.137 21.5365C13.1969 21.9463 12.1657 22.0888 11.1516 21.9463L4.95855 21.0673H4.76485L4.49707 15.2412C4.94146 14.8433 6.07523 14 7.51099 14C9.12903 14 9.79562 14.4335 10.297 14.7483H14.0857C14.8776 14.7483 15.5271 15.4194 15.5271 16.2508C15.5271 17.0764 14.8833 17.7534 14.0857 17.7534H10.183" fill="#FFC466"/>
<path d="M14.1592 18.6142H10.1311C9.81778 18.6142 9.5614 18.3469 9.5614 18.0203C9.5614 17.6936 9.81778 17.4264 10.1311 17.4264H14.1592C14.4725 17.4264 14.7289 17.6936 14.7289 18.0203C14.7289 18.3469 14.4725 18.6142 14.1592 18.6142Z" fill="#FFA02E"/>
</g>
<defs>
<clipPath id="clip0_11_1982">
<rect width="24" height="24" fill="white"/>
</clipPath>
</defs>
</svg>
