<svg width="24" height="24" viewBox="0 0 24 24" fill="none" xmlns="http://www.w3.org/2000/svg">
<g clip-path="url(#clip0_11_1991)">
<path d="M11.9554 4.28556C11.3966 3.77151 10.6026 3.77151 10.0438 4.28556L3.34961 10.4438V19.2407C3.34961 20.2123 4.03461 21 4.87961 21H17.1196C17.9646 21 18.6496 20.2123 18.6496 19.2407V10.4438L11.9554 4.28556Z" fill="#BAC7D9"/>
<path d="M7.99971 11.5444C7.99971 11.299 8.19869 11.1 8.44415 11.1H9.55527C9.80073 11.1 9.99971 11.299 9.99971 11.5444V12.6555C9.99971 12.901 9.80073 13.1 9.55527 13.1H8.44415C8.19869 13.1 7.99971 12.901 7.99971 12.6555V11.5444Z" fill="white"/>
<path d="M7.99971 14.5444C7.99971 14.299 8.19869 14.1 8.44415 14.1H9.55527C9.80073 14.1 9.99971 14.299 9.99971 14.5444V15.6555C9.99971 15.901 9.80073 16.1 9.55527 16.1H8.44415C8.19869 16.1 7.99971 15.901 7.99971 15.6555V14.5444Z" fill="white"/>
<path d="M11.9997 11.5444C11.9997 11.299 12.1987 11.1 12.4442 11.1H13.5553C13.8007 11.1 13.9997 11.299 13.9997 11.5444V12.6555C13.9997 12.901 13.8007 13.1 13.5553 13.1H12.4442C12.1987 13.1 11.9997 12.901 11.9997 12.6555V11.5444Z" fill="white"/>
<path d="M11.9997 14.5444C11.9997 14.299 12.1987 14.1 12.4442 14.1H13.5553C13.8007 14.1 13.9997 14.299 13.9997 14.5444V15.6555C13.9997 15.901 13.8007 16.1 13.5553 16.1H12.4442C12.1987 16.1 11.9997 15.901 11.9997 15.6555V14.5444Z" fill="white"/>
<path fill-rule="evenodd" clip-rule="evenodd" d="M11.5107 4.90437C11.2119 4.65364 10.7873 4.65364 10.4885 4.90437L3.32893 10.9119C2.97608 11.208 2.46121 11.148 2.17893 10.7779C1.89665 10.4078 1.95386 9.86777 2.30671 9.5717L9.46627 3.56415C10.3627 2.81195 11.6365 2.81195 12.533 3.56415L19.6925 9.5717C20.0454 9.86777 20.1026 10.4078 19.8203 10.7779C19.538 11.148 19.0231 11.208 18.6703 10.9119L11.5107 4.90437Z" fill="#475E75"/>
<path d="M17.5 15.1392C17.9544 14.199 20.0745 13.2245 21.4374 14.9482C22.1804 15.8879 22.1946 17.6122 21.4374 18.7092C20.4036 20.6039 17.95 22 17.5 22C17.05 22 14.5964 20.6039 13.5626 18.7092C12.8054 17.6122 12.8196 15.8879 13.5626 14.9482C14.9255 13.2245 17.0456 14.199 17.5 15.1392Z" fill="#F66041"/>
</g>
<defs>
<clipPath id="clip0_11_1991">
<rect width="24" height="24" fill="white"/>
</clipPath>
</defs>
</svg>
