<svg width="24" height="24" viewBox="0 0 24 24" fill="none" xmlns="http://www.w3.org/2000/svg">
<g clip-path="url(#clip0_11_1994)">
<path d="M16.043 6.23429C16.1504 5.99414 16.271 5.75861 16.3918 5.52267C16.7268 4.86851 17.0633 4.21114 17.1251 3.44306V2.87151C17.1251 2.39019 16.7294 2 16.2413 2L7.75878 2C7.27067 2 6.87499 2.39019 6.87499 2.87151V3.45593C6.93817 4.22285 7.27122 4.87882 7.6027 5.53169C7.72286 5.76835 7.84281 6.00461 7.94963 6.24559C7.44088 6.43664 6.95062 6.66778 6.48632 6.93722C5.34658 7.59871 4.35895 8.48431 3.59382 9.544C2.54263 10.9975 2.04995 12.7143 2.00454 14.479H2L2 17.5185C2 19.442 3.62561 21 5.63265 21H18.3674C20.3744 21 22 19.442 22 17.5185V14.479H21.9954C21.9519 12.7151 21.4615 11.0013 20.4107 9.54617C19.6456 8.48649 18.667 7.60088 17.5341 6.9394C17.0628 6.66461 16.5644 6.42767 16.043 6.23429Z" fill="#BAB2F9"/>
<path d="M7.40039 6.28906C7.40039 5.73678 7.84811 5.28906 8.40039 5.28906H15.5999C16.1521 5.28906 16.5999 5.73678 16.5999 6.28906V6.28906C16.5999 6.84135 16.1521 7.28906 15.5999 7.28906H8.40039C7.84811 7.28906 7.40039 6.84135 7.40039 6.28906V6.28906Z" fill="#685ADF"/>
<path d="M13.543 16.9414C12.2353 15.5812 13.4857 13.377 15.297 13.8494C15.6857 13.9508 16.0787 13.7245 16.1851 13.3382C16.6808 11.5375 19.2201 11.56 19.747 13.3697C19.8601 13.758 20.2571 13.9913 20.6441 13.8968C22.4475 13.4563 23.7363 15.6831 22.4519 17.0203C22.1764 17.3072 22.1803 17.7667 22.4609 18.0586C23.7686 19.4188 22.5182 21.623 20.7069 21.1506C20.3182 21.0492 19.9252 21.2755 19.8188 21.6618C19.3231 23.4625 16.7838 23.44 16.2569 21.6303C16.1438 21.242 15.7468 21.0087 15.3599 21.1032C13.5564 21.5437 12.2676 19.3169 13.552 17.9797C13.8276 17.6928 13.8236 17.2333 13.543 16.9414Z" fill="#685ADF"/>
<circle cx="18.002" cy="17.5" r="2" fill="white"/>
</g>
<defs>
<clipPath id="clip0_11_1994">
<rect width="24" height="24" fill="white"/>
</clipPath>
</defs>
</svg>
