<svg width="24" height="24" viewBox="0 0 24 24" fill="none" xmlns="http://www.w3.org/2000/svg">
<g clip-path="url(#clip0_11_1926)">
<path d="M3.5 15H20.5V19.6667C20.5 20.9553 19.3583 22 17.95 22H6.05C4.64167 22 3.5 20.9553 3.5 19.6667V15Z" fill="#74A7F8"/>
<path d="M4.80881 10.1556C4.83768 10.0487 4.87307 9.94311 4.92866 9.84741C5.23149 9.3261 5.78804 9 6.39532 9L17.5428 9C18.2543 9 18.8906 9.4468 19.1373 10.1197L20.5 15H3.5L4.80881 10.1556Z" fill="#4185EF"/>
<path opacity="0.3" d="M7.50009 11.5822C7.50009 11.0299 7.91982 10.5822 8.43759 10.5822H15.5626C16.0804 10.5822 16.5001 11.0299 16.5001 11.5822C16.5001 12.1345 16.0804 12.5822 15.5626 12.5822H8.43759C7.91982 12.5822 7.50009 12.1345 7.50009 11.5822Z" fill="#131B29"/>
<path d="M12 3.42401C12.5553 2.24872 15.1466 1.03058 16.8124 3.18529C17.7205 4.35983 17.7379 6.51529 16.8124 7.88647C15.5489 10.2548 12.55 12 12 12C11.45 12 8.45111 10.2548 7.18759 7.88647C6.26213 6.51529 6.27952 4.35983 7.18758 3.18529C8.85342 1.03059 11.4447 2.24872 12 3.42401Z" fill="#E75757"/>
<path d="M10.2462 5.18828C10.4686 5.11133 10.709 5.23587 10.7832 5.46643L11.19 6.73047L11.5968 5.46643C11.6546 5.28679 11.8167 5.16565 11.9994 5.16565C12.182 5.16565 12.3441 5.28679 12.402 5.46643L12.8088 6.73048L13.2156 5.46643C13.2898 5.23587 13.5302 5.11133 13.7525 5.18828C13.9749 5.26523 14.095 5.51453 14.0208 5.74509L13.8924 6.14384H14.1222C14.3566 6.14384 14.5466 6.34089 14.5466 6.58396C14.5466 6.82703 14.3566 7.02407 14.1222 7.02407H13.6091L13.2114 8.26005C13.1535 8.43969 12.9914 8.56084 12.8088 8.56084C12.6261 8.56084 12.464 8.43969 12.4062 8.26005L11.9994 6.99601L11.5926 8.26005C11.5347 8.43969 11.3726 8.56084 11.19 8.56084C11.0073 8.56084 10.8452 8.43969 10.7874 8.26005L10.3896 7.02407H9.87803C9.64363 7.02407 9.45361 6.82703 9.45361 6.58396C9.45361 6.34089 9.64363 6.14384 9.87803 6.14384H10.1063L9.97799 5.74509C9.90378 5.51453 10.0239 5.26523 10.2462 5.18828Z" fill="white"/>
</g>
<defs>
<clipPath id="clip0_11_1926">
<rect width="24" height="24" fill="white"/>
</clipPath>
</defs>
</svg>
