<svg width="24" height="24" viewBox="0 0 24 24" fill="none" xmlns="http://www.w3.org/2000/svg">
<g clip-path="url(#clip0_11_1950)">
<path d="M11.9465 5.23779L15.5599 3.71624C15.9703 3.54352 15.9703 2.9651 15.5599 2.79238L11.8677 1.23779C11.9161 1.28741 11.9465 1.35469 11.9465 1.42938V5.23779Z" fill="#F66041"/>
<path d="M11.977 5.17902V1.4385C11.977 1.36831 11.9449 1.30509 11.8939 1.25846C11.8406 1.20981 11.7667 1.17902 11.6841 1.17902C11.5221 1.17902 11.3911 1.29507 11.3911 1.4385V5.17902C11.5761 5.09172 11.792 5.09172 11.977 5.17902Z" fill="#CF4F35"/>
<path d="M4.62673 8.35143H7.6875L10.9273 5.29105C11.2897 4.92029 11.8713 4.9014 12.256 5.24789L15.7015 8.35143H18.7414C19.8143 8.35143 20.6841 9.24121 20.6841 10.3388V12.3346C20.6841 11.2379 19.8143 10.3488 18.7414 10.3488H15.7015L12.256 7.2477C11.8713 6.90148 11.2897 6.92036 10.9273 7.29082L7.6875 10.3488H4.62673C3.55384 10.3488 2.68408 11.2379 2.68408 12.3346V10.3388C2.68408 9.24121 3.55384 8.35143 4.62673 8.35143Z" fill="#685ADF"/>
<path fill-rule="evenodd" clip-rule="evenodd" d="M7.6875 10.3488H4.62673C3.55384 10.3488 2.68408 11.2379 2.68408 12.3346V21.0142C2.68408 22.1109 3.55384 23 4.62673 23H10.1841V20.6636C10.1841 20.1113 10.6318 19.6636 11.1841 19.6636H12.1841C12.7364 19.6636 13.1841 20.1113 13.1841 20.6636V23H18.7414C19.8143 23 20.6841 22.1109 20.6841 21.0142V12.3346C20.6841 11.2379 19.8143 10.3488 18.7414 10.3488H15.7015L12.256 7.2477C11.8713 6.90148 11.2897 6.92036 10.9273 7.29082L7.6875 10.3488ZM13.6841 12.4214C13.6841 13.526 12.7887 14.4214 11.6841 14.4214C10.5795 14.4214 9.68408 13.526 9.68408 12.4214C9.68408 11.3168 10.5795 10.4214 11.6841 10.4214C12.7887 10.4214 13.6841 11.3168 13.6841 12.4214Z" fill="#685ADF"/>
<path fill-rule="evenodd" clip-rule="evenodd" d="M15.6992 10.3477H20.6841V21C20.6841 22.1046 19.7887 23 18.6841 23H15.6992V10.3477ZM7.68408 10.3589H2.68408V21.0089C2.68408 22.1135 3.57951 23.0089 4.68408 23.0089H7.68408V10.3589Z" fill="#BAB2F9"/>
</g>
<defs>
<clipPath id="clip0_11_1950">
<rect width="24" height="24" fill="white"/>
</clipPath>
</defs>
</svg>
