<svg width="24" height="24" viewBox="0 0 24 24" fill="none" xmlns="http://www.w3.org/2000/svg">
<g clip-path="url(#clip0_11_1978)">
<path d="M11 10.2C11 8.70883 12.2088 7.5 13.7 7.5H17.3C18.7912 7.5 20 8.70883 20 10.2V19.2C20 20.1941 19.1941 21 18.2 21H12.8C11.8059 21 11 20.1941 11 19.2V10.2Z" fill="#BBC2CA"/>
<path d="M2 5.7C2 4.20883 3.20883 3 4.7 3H12.8C14.2912 3 15.5 4.20883 15.5 5.7V21H3.8C2.80589 21 2 20.1941 2 19.2V5.7Z" fill="#ACB1B6"/>
<path d="M6.10352 16.7639C6.10352 16.1791 6.57757 15.7051 7.16234 15.7051H10.3388C10.9236 15.7051 11.3976 16.1791 11.3976 16.7639V20.9992H6.10352V16.7639Z" fill="#969DA5"/>
<path d="M5.71289 7.3875C5.71289 7.13897 5.91436 6.9375 6.16289 6.9375H7.28789C7.53642 6.9375 7.73789 7.13897 7.73789 7.3875V8.5125C7.73789 8.76103 7.53642 8.9625 7.28789 8.9625H6.16289C5.91436 8.9625 5.71289 8.76103 5.71289 8.5125V7.3875Z" fill="white"/>
<path d="M5.71289 11.4383C5.71289 11.1898 5.91436 10.9883 6.16289 10.9883H7.28789C7.53642 10.9883 7.73789 11.1898 7.73789 11.4383V12.5633C7.73789 12.8118 7.53642 13.0133 7.28789 13.0133H6.16289C5.91436 13.0133 5.71289 12.8118 5.71289 12.5633V11.4383Z" fill="white"/>
<path d="M9.76172 7.3875C9.76172 7.13897 9.96319 6.9375 10.2117 6.9375H11.3367C11.5852 6.9375 11.7867 7.13897 11.7867 7.3875V8.5125C11.7867 8.76103 11.5852 8.9625 11.3367 8.9625H10.2117C9.96319 8.9625 9.76172 8.76103 9.76172 8.5125V7.3875Z" fill="white"/>
<path d="M9.76172 11.4383C9.76172 11.1898 9.96319 10.9883 10.2117 10.9883H11.3367C11.5852 10.9883 11.7867 11.1898 11.7867 11.4383V12.5633C11.7867 12.8118 11.5852 13.0133 11.3367 13.0133H10.2117C9.96319 13.0133 9.76172 12.8118 9.76172 12.5633V11.4383Z" fill="white"/>
<path d="M22 17C22 19.7614 19.7614 22 17 22C14.2386 22 12 19.7614 12 17C12 14.2386 14.2386 12 17 12C19.7614 12 22 14.2386 22 17Z" fill="#E75757"/>
<path d="M17.0006 15.3826C16.4905 14.8725 15.6634 14.8725 15.1533 15.3826C14.6432 15.8927 14.6432 16.7198 15.1533 17.2299C15.1857 17.2623 15.2195 17.2927 15.2543 17.3211C15.2625 17.3357 15.2729 17.3495 15.2853 17.3619L16.8687 18.9453C16.9416 19.0182 17.0597 19.0182 17.1326 18.9453L18.716 17.3619C18.7286 17.3494 18.7389 17.3355 18.7471 17.3208C18.7819 17.2925 18.8155 17.2622 18.8479 17.2299C19.358 16.7198 19.358 15.8927 18.8479 15.3826C18.3378 14.8725 17.5107 14.8725 17.0006 15.3826Z" fill="white"/>
</g>
<defs>
<clipPath id="clip0_11_1978">
<rect width="24" height="24" fill="white"/>
</clipPath>
</defs>
</svg>
