<svg width="24" height="24" viewBox="0 0 24 24" fill="none" xmlns="http://www.w3.org/2000/svg">
<g clip-path="url(#clip0_11_1946)">
<path d="M6.99998 3C6.99998 2.44772 7.4477 2 7.99998 2H14C14.5523 2 15 2.44772 15 3V4.23489C15 4.78717 14.5523 5.23489 14 5.23489H7.99998C7.4477 5.23489 6.99998 4.78717 6.99998 4.23489V3Z" fill="#6A7C91"/>
<path d="M8 5.23535H14V6.23535H8V5.23535Z" fill="#A2AFBC"/>
<path d="M4 10C4 7.79086 5.79086 6 8 6H14C16.2091 6 18 7.79086 18 10V18C18 19.6569 16.6569 21 15 21H7C5.34315 21 4 19.6569 4 18V10Z" fill="#CBD0D5"/>
<path d="M4 10H11C12.1046 10 13 10.8954 13 12V16C13 17.1046 12.1046 18 11 18H4V10Z" fill="#6A7C91"/>
<path d="M10.1838 13.2961H9.00518V12.0517C9.00518 11.8851 8.86127 11.75 8.68375 11.75H7.82661C7.64909 11.75 7.50518 11.8851 7.50518 12.0517V13.2961H6.32661C6.14909 13.2961 6.00518 13.4311 6.00518 13.5977V14.4023C6.00518 14.5689 6.14909 14.7039 6.32661 14.7039H7.50518V15.9483C7.50518 16.1149 7.64909 16.25 7.82661 16.25H8.68375C8.86127 16.25 9.00518 16.1149 9.00518 15.9483V14.7039H10.1838C10.3613 14.7039 10.5052 14.5689 10.5052 14.4023V13.5977C10.5052 13.4311 10.3613 13.2961 10.1838 13.2961Z" fill="white"/>
<path d="M12.25 22C10.4551 22 9 20.545 9 18.7502C9 16.9554 10.4551 15.5004 12.25 15.5004L18.75 15.5004C20.5449 15.5004 22 16.9554 22 18.7502C22 20.545 20.5449 22 18.75 22L12.25 22Z" fill="#FFB828"/>
<path d="M15.4997 21.9996L15.4997 15.5L18.75 15.5004C20.5449 15.5004 22 16.9554 22 18.7502C22 20.545 20.5449 22 18.75 22L15.4997 21.9996Z" fill="#FF7A00"/>
</g>
<defs>
<clipPath id="clip0_11_1946">
<rect width="24" height="24" fill="white"/>
</clipPath>
</defs>
</svg>
