<svg width="24" height="24" viewBox="0 0 24 24" fill="none" xmlns="http://www.w3.org/2000/svg">
<g clip-path="url(#clip0_11_1952)">
<path d="M17.25 2H6.75C5.7835 2 5 2.80589 5 3.8V8.2C5 9.19411 5.7835 10 6.75 10H12H17.25C18.2165 10 19 9.19326 19 8.19914V3.80086C19 2.80674 18.2165 2 17.25 2Z" fill="#BEE4ED"/>
<path d="M18.2856 4H5.71416C4.76739 4 3.99988 4.81548 3.99988 5.82143V19.1786C3.99988 20.1845 4.76739 21 5.71416 21H11.9999H18.2856C19.2324 21 19.9999 20.184 19.9999 19.1781V5.82195C19.9999 4.816 19.2324 4 18.2856 4Z" fill="#57CAE4"/>
<path opacity="0.4" fill-rule="evenodd" clip-rule="evenodd" d="M18 8.35254C18 7.93833 17.7053 7.60254 17.3417 7.60254L13.6583 7.60254C13.2947 7.60254 13 7.93833 13 8.35254C13 8.76675 13.2947 9.10254 13.6583 9.10254L17.3417 9.10254C17.7053 9.10254 18 8.76675 18 8.35254Z" fill="white"/>
<path opacity="0.4" fill-rule="evenodd" clip-rule="evenodd" d="M16.5 11.2402C16.5 10.826 16.1642 10.4902 15.75 10.4902H13.7501C13.3359 10.4902 13.0001 10.826 13.0001 11.2402C13.0001 11.6544 13.3359 11.9902 13.7501 11.9902H15.75C16.1642 11.9902 16.5 11.6544 16.5 11.2402Z" fill="white"/>
<path d="M21.5 20.7374V17.2626C21.5 16.5655 20.92 16 20.2045 16H16.0772C15.6836 16 15.3114 16.1743 15.0656 16.4738L14.692 16.9288C14.4461 17.2283 14.0739 17.4026 13.6804 17.4026H10.3196C9.92606 17.4026 9.55386 17.2283 9.30802 16.9288L8.93441 16.4738C8.68857 16.1743 8.31637 16 7.92283 16H3.79545C3.07999 16 2.5 16.5652 2.5 17.2623V20.7377C2.5 21.4348 3.07999 22 3.79545 22H20.2045C20.92 22 21.5 21.4345 21.5 20.7374Z" fill="#01A3C7"/>
<path fill-rule="evenodd" clip-rule="evenodd" d="M8.68194 13.691C8.7184 13.7104 8.75922 13.7203 8.8 13.72C8.84078 13.7197 8.88123 13.7094 8.91806 13.6897L10.1219 13.0489C10.4551 12.8676 10.7161 12.665 10.9198 12.4291C11.3625 11.9152 11.6043 11.2592 11.5999 10.5828L11.586 8.35163C11.5847 8.09465 11.4192 7.86534 11.1745 7.78199L9.00354 7.03345C8.87191 6.98799 8.72763 6.98897 8.5983 7.03576L6.4046 7.81098C6.16118 7.89763 5.99868 8.12858 6.00001 8.3859L6.01394 10.6154C6.01825 11.2928 6.2683 11.9458 6.71832 12.4545C6.92394 12.6871 7.18725 12.8868 7.52419 13.065L8.68194 13.691Z" fill="white"/>
<path d="M10.3821 9.08266C10.174 8.89432 9.85416 8.91289 9.6687 9.12339L8.51761 10.4299L7.8699 9.90471C7.65184 9.7279 7.33349 9.76421 7.15972 9.98436C6.98688 10.2033 7.02145 10.5227 7.23831 10.6985L8.38684 11.6298C8.52535 11.7421 8.72662 11.7247 8.84426 11.5911L10.4223 9.80003C10.6068 9.59069 10.5891 9.26995 10.3821 9.08266Z" fill="#57CAE4"/>
</g>
<defs>
<clipPath id="clip0_11_1952">
<rect width="24" height="24" fill="white"/>
</clipPath>
</defs>
</svg>
