<svg width="24" height="24" viewBox="0 0 24 24" fill="none" xmlns="http://www.w3.org/2000/svg">
<g clip-path="url(#clip0_11_1947)">
<path fill-rule="evenodd" clip-rule="evenodd" d="M12.375 8.12375C10.6487 8.12375 9.24934 9.52314 9.24934 11.2494V11.2666C9.24935 12.1602 9.24936 13.1079 9.00035 14.2384C8.74914 15.3788 8.25191 16.6775 7.28813 18.3159C7.1133 18.6132 6.73062 18.7124 6.43339 18.5375C6.13617 18.3627 6.03696 17.98 6.21179 17.6828C7.12301 16.1337 7.56328 14.9574 7.78083 13.9698C7.99897 12.9794 8.00059 12.1507 8.00059 11.2494C8.00059 8.83347 9.95906 6.875 12.375 6.875C14.7909 6.875 16.7493 8.83347 16.7493 11.2494C16.7493 11.8762 16.6881 12.8193 16.4985 13.9754C16.4427 14.3157 16.1217 14.5463 15.7814 14.4905C15.4411 14.4347 15.2104 14.1137 15.2662 13.7734C15.4458 12.678 15.5006 11.8027 15.5006 11.2494C15.5006 9.52314 14.1012 8.12375 12.375 8.12375Z" fill="#2589F4"/>
<path fill-rule="evenodd" clip-rule="evenodd" d="M15.4632 15.899C15.7947 15.9938 15.9867 16.3393 15.892 16.6709C15.5501 17.8676 15.0799 19.1712 14.4387 20.5178C14.2904 20.8292 13.9179 20.9614 13.6065 20.8131C13.2952 20.6648 13.163 20.2923 13.3112 19.9809C13.92 18.7026 14.3665 17.4645 14.6913 16.3278C14.786 15.9963 15.1316 15.8043 15.4632 15.899Z" fill="#2589F4"/>
<path fill-rule="evenodd" clip-rule="evenodd" d="M12.3257 10.252C12.6695 10.2248 12.9702 10.4814 12.9974 10.8251L12.3751 10.8744C12.9974 10.8251 12.9974 10.8251 12.9974 10.8251L12.9976 10.8277L12.998 10.8325L12.9991 10.8486C13.0001 10.8623 13.0013 10.8816 13.0028 10.9064C13.0058 10.956 13.0095 11.0273 13.0129 11.118C13.0198 11.2994 13.0255 11.5586 13.0211 11.8768C13.0125 12.512 12.964 13.3884 12.8033 14.352C12.407 16.7299 11.4137 18.5044 10.2695 20.2207C10.0782 20.5077 9.69055 20.5852 9.40363 20.3939C9.11671 20.2026 9.03918 19.815 9.23046 19.5281C10.3362 17.8694 11.2179 16.2688 11.5716 14.1467C11.7192 13.2609 11.7645 12.4498 11.7725 11.8598C11.7765 11.5655 11.7712 11.3278 11.7651 11.1653C11.762 11.084 11.7587 11.0217 11.7563 10.9807C11.7551 10.9601 11.7541 10.9449 11.7534 10.9353L11.7527 10.9252L11.7525 10.9237M12.3257 10.252C11.982 10.2792 11.7254 10.58 11.7525 10.9237Z" fill="#2589F4"/>
<path fill-rule="evenodd" clip-rule="evenodd" d="M12.375 4.37375C8.57767 4.37375 5.49935 7.45207 5.49935 11.2494C5.49935 13.5725 4.98625 15.1256 4.66708 15.6842C4.49599 15.9836 4.11459 16.0876 3.81519 15.9165C3.51579 15.7454 3.41178 15.364 3.58286 15.0646C3.76369 14.7482 4.2506 13.4263 4.2506 11.2494C4.2506 6.76241 7.888 3.125 12.375 3.125C16.8619 3.125 20.4993 6.76241 20.4993 11.2494C20.4993 13.7448 19.7264 16.7298 19.348 17.9913C19.2489 18.3216 18.9008 18.509 18.5706 18.4099C18.2403 18.3108 18.0528 17.9628 18.1519 17.6325C18.5235 16.3939 19.2506 13.5539 19.2506 11.2494C19.2506 7.45207 16.1723 4.37375 12.375 4.37375Z" fill="#788A9B"/>
</g>
<defs>
<clipPath id="clip0_11_1947">
<rect width="24" height="24" fill="white"/>
</clipPath>
</defs>
</svg>
