<svg width="24" height="24" viewBox="0 0 24 24" fill="none" xmlns="http://www.w3.org/2000/svg">
<g clip-path="url(#clip0_11_1960)">
<path fill-rule="evenodd" clip-rule="evenodd" d="M6.98948 3C6.98948 2.44772 7.4372 2 7.98948 2H15.9895C16.5418 2 16.9895 2.44772 16.9895 3C16.9895 3.55228 16.5418 4 15.9895 4V8.74114L20.9167 17.6204C20.9208 17.6278 20.9248 17.6353 20.9288 17.6429C20.9315 17.648 20.9341 17.6532 20.9367 17.6584C21.934 19.6531 20.4836 22 18.2534 22H5.72555C3.4954 22 2.04492 19.6531 3.04227 17.6584C3.04867 17.6456 3.05535 17.6329 3.0623 17.6204L7.98948 8.74114V4C7.4372 4 6.98948 3.55228 6.98948 3ZM17.3748 15.3595C17.3104 15.4068 17.2433 15.4573 17.1704 15.5122C17.0552 15.5989 16.9255 15.6965 16.7687 15.8101C16.0229 16.3498 14.9746 17 13.4981 17C12.7615 17 12.1719 16.8376 11.6704 16.5692C11.209 16.3222 10.8559 15.9999 10.5953 15.762C10.5868 15.7542 10.5783 15.7465 10.5699 15.7388C10.2846 15.4786 10.0974 15.3141 9.87338 15.1942C9.67423 15.0876 9.41074 15 8.98948 15C8.08724 15 7.16383 15.2417 6.41428 15.7017L4.82324 18.5689C4.50649 19.2303 4.98816 20 5.72555 20H18.2534C18.9908 20 19.4725 19.2303 19.1557 18.5689L17.3748 15.3595Z" fill="#778697" fill-opacity="0.24"/>
<path fill-rule="evenodd" clip-rule="evenodd" d="M17.3761 15.3595C17.3117 15.4068 17.2446 15.4573 17.1717 15.5122C17.0566 15.5989 16.9268 15.6965 16.77 15.8101C16.0243 16.3498 14.976 17 13.4994 17C12.7628 17 12.1732 16.8376 11.6718 16.5692C11.2103 16.3222 10.8572 15.9999 10.5966 15.762C10.5881 15.7542 10.5796 15.7465 10.5713 15.7388C10.2859 15.4786 10.0987 15.3141 9.87471 15.1942C9.67556 15.0876 9.41207 15 8.99081 15C8.08857 15 7.16516 15.2417 6.41561 15.7017L4.82456 18.5689C4.50781 19.2303 4.98949 20 5.72688 20H18.2547C18.9921 20 19.4738 19.2303 19.157 18.5689L17.3761 15.3595Z" fill="#0871F3"/>
<rect x="6.75" y="1.92188" width="10.5" height="2.0625" rx="1.03125" fill="#778697" fill-opacity="0.24"/>
</g>
<defs>
<clipPath id="clip0_11_1960">
<rect width="24" height="24" fill="white"/>
</clipPath>
</defs>
</svg>
