<svg width="24" height="24" viewBox="0 0 24 24" fill="none" xmlns="http://www.w3.org/2000/svg">
<g clip-path="url(#clip0_11_1974)">
<path d="M11.0002 12.7517C11.0002 12.3344 11.3359 11.9962 11.7502 11.9962V11.9962C12.1644 11.9962 12.5002 12.3344 12.5002 12.7517V21.2408C12.5002 21.658 12.1644 21.9962 11.7502 21.9962V21.9962C11.3359 21.9962 11.0002 21.658 11.0002 21.2408V12.7517Z" fill="#3ED658"/>
<path d="M17.96 3.05098C16.9543 2.47034 15.6684 2.81492 15.0877 3.82062L13.524 6.52908C12.9433 7.53478 13.2879 8.82076 14.2936 9.4014C15.2993 9.98204 16.5853 9.63746 17.1659 8.63176L18.7297 5.9233C19.3103 4.9176 18.9657 3.63162 17.96 3.05098Z" fill="#F0448E"/>
<path d="M17.96 3.05098C16.9543 2.47034 15.6684 2.81492 15.0877 3.82062L13.524 6.52908C12.9433 7.53478 13.2879 8.82076 14.2936 9.4014C15.2993 9.98204 16.5853 9.63746 17.1659 8.63176L18.7297 5.9233C19.3103 4.9176 18.9657 3.63162 17.96 3.05098Z" fill="black" fill-opacity="0.14"/>
<path d="M6.71825 3.04849C5.72339 3.62287 5.38252 4.895 5.95691 5.88986L7.54329 8.63756C8.11768 9.63243 9.3898 9.97329 10.3847 9.39891C11.3795 8.82452 11.7204 7.55239 11.146 6.55753L9.55963 3.80983C8.98525 2.81497 7.71312 2.4741 6.71825 3.04849Z" fill="#F0448E"/>
<path d="M6.71825 3.04849C5.72339 3.62287 5.38252 4.895 5.95691 5.88986L7.54329 8.63756C8.11768 9.63243 9.3898 9.97329 10.3847 9.39891C11.3795 8.82452 11.7204 7.55239 11.146 6.55753L9.55963 3.80983C8.98525 2.81497 7.71312 2.4741 6.71825 3.04849Z" fill="black" fill-opacity="0.14"/>
<path d="M8.71176 5.66593C8.71176 3.64102 10.3533 1.99951 12.3782 1.99951C14.4031 1.99951 16.0446 3.64102 16.0446 5.66593V7.49914C16.0446 9.52405 14.4031 11.1656 12.3782 11.1656C10.3533 11.1656 8.71176 9.52405 8.71176 7.49914V5.66593Z" fill="#F0448E"/>
<path d="M8.71176 5.66593C8.71176 3.64102 10.3533 1.99951 12.3782 1.99951C14.4031 1.99951 16.0446 3.64102 16.0446 5.66593V7.49914C16.0446 9.52405 14.4031 11.1656 12.3782 11.1656C10.3533 11.1656 8.71176 9.52405 8.71176 7.49914V5.66593Z" fill="white" fill-opacity="0.55"/>
<path d="M3.88338 5.2678C4.9735 4.67161 6.32487 4.85529 7.21631 5.72081L12.0211 10.3858L16.638 5.79466C17.5259 4.91178 18.8811 4.70072 19.9954 5.27181C21.6757 6.133 22.093 8.34747 20.8415 9.76121L18.377 12.5451C17.1098 13.9765 15.1057 14.5048 13.2976 13.8841L12.7234 13.6869C12.4542 13.5945 12.2083 13.4448 12.0026 13.2481C11.9945 13.2403 11.9863 13.2324 11.9783 13.2245C11.9752 13.2273 11.9721 13.23 11.969 13.2328C11.7906 13.3899 11.5847 13.5126 11.3617 13.5949L10.8623 13.779C9.01264 14.4609 6.93404 13.938 5.62731 12.4619L3.1215 9.63136C1.91588 8.26949 2.2876 6.14054 3.88338 5.2678Z" fill="#F0448E"/>
<path d="M8.71176 8.49601C8.71176 6.4711 10.3533 4.82959 12.3782 4.82959V4.82959C14.4031 4.82959 16.0446 6.4711 16.0446 8.49601V10.3292C16.0446 12.3541 14.4031 13.9956 12.3782 13.9956V13.9956C10.3533 13.9956 8.71176 12.3541 8.71176 10.3292V8.49601Z" fill="#F0448E"/>
<path d="M8.71176 8.49601C8.71176 6.4711 10.3533 4.82959 12.3782 4.82959V4.82959C14.4031 4.82959 16.0446 6.4711 16.0446 8.49601V10.3292C16.0446 12.3541 14.4031 13.9956 12.3782 13.9956V13.9956C10.3533 13.9956 8.71176 12.3541 8.71176 10.3292V8.49601Z" fill="white" fill-opacity="0.17"/>
<path d="M15.0313 15.944C13.2755 17.0043 12.714 18.5885 12.1325 19.5118C12.0533 19.6377 12.1395 19.8304 12.2871 19.8483C13.2033 19.9598 15.6791 20.1817 17.5762 18.9995C17.9882 18.7428 19.1597 17.7924 20.3094 15.3861C20.3192 15.3657 20.3274 15.3429 20.3223 15.3209C20.3133 15.283 20.2824 15.2535 20.2414 15.2452C20.0167 15.1999 19.4408 15.1049 18.9905 15.079C17.9921 15.0215 16.8994 14.8158 15.0313 15.944Z" fill="#39CC51"/>
</g>
<defs>
<clipPath id="clip0_11_1974">
<rect width="24" height="24" fill="white"/>
</clipPath>
</defs>
</svg>
