<svg width="24" height="24" viewBox="0 0 24 24" fill="none" xmlns="http://www.w3.org/2000/svg">
<g clip-path="url(#clip0_11_2000)">
<path d="M2.00195 6C2.00195 4.34315 3.3451 3 5.00195 3H8.00195C8.94622 3 9.83539 3.44458 10.402 4.2L11.002 5H19.002C20.6588 5 22.0019 6.34315 22.0019 8V18C22.0019 19.6569 20.6588 21 19.0019 21H5.00195C3.3451 21 2.00195 19.6569 2.00195 18V6Z" fill="#3866BF"/>
<path d="M4 8C4 7.44772 4.44772 7 5 7H19C19.5523 7 20 7.44772 20 8V14C20 14.5523 19.5523 15 19 15H5C4.44772 15 4 14.5523 4 14V8Z" fill="white"/>
<path d="M2.00195 12C2.00195 10.3431 3.3451 9 5.00195 9H19.002C20.6588 9 22.0019 10.3431 22.0019 12V18C22.0019 19.6569 20.6588 21 19.0019 21H5.00195C3.3451 21 2.00195 19.6569 2.00195 18V12Z" fill="#87AEF8"/>
<path d="M9 18.5C9 18.2239 9.22386 18 9.5 18H14.5C14.7761 18 15 18.2239 15 18.5C15 18.7761 14.7761 19 14.5 19H9.5C9.22386 19 9 18.7761 9 18.5Z" fill="white"/>
</g>
<defs>
<clipPath id="clip0_11_2000">
<rect width="24" height="24" fill="white"/>
</clipPath>
</defs>
</svg>
