<svg width="24" height="24" viewBox="0 0 24 24" fill="none" xmlns="http://www.w3.org/2000/svg">
<g clip-path="url(#clip0_11_1987)">
<path d="M19.5 2C15.0817 2 11.5 5.58172 11.5 10V11C15.9183 11 19.5 7.41828 19.5 3V2Z" fill="#5ED77F"/>
<path d="M11.5 10H12.5V13.5C12.5 13.7761 12.2761 14 12 14C11.7239 14 11.5 13.7761 11.5 13.5V10Z" fill="#35B670"/>
<path d="M4.5 2C8.91828 2 12.5 5.58172 12.5 10V11C8.08172 11 4.5 7.41828 4.5 3V2Z" fill="#35B670"/>
<path fill-rule="evenodd" clip-rule="evenodd" d="M14.7054 17.6075C15.1918 17.365 15.5271 16.8466 15.5271 16.2508C15.5271 15.4194 14.8776 14.7483 14.0857 14.7483H10.297C10.2898 14.7438 10.2826 14.7393 10.2753 14.7347C9.77634 14.4212 9.10586 14 7.51099 14C6.18159 14 5.11109 14.723 4.60702 15.146H1.5V21.0968H5.11211V21.0938H5.11328L11.1516 21.9463C12.1657 22.0888 13.1969 21.9463 14.137 21.5365L21.5036 18.3117C22.552 17.8544 22.8368 16.4409 22.0506 15.5857C21.5891 15.0809 20.8769 14.9265 20.2616 15.1878L14.7054 17.6075Z" fill="#FFD084"/>
<path d="M14.7111 17.6279H10.8136C10.5104 17.6279 10.2623 17.4029 10.2623 17.1279C10.2623 16.8529 10.5104 16.6279 10.8136 16.6279H14.7111C15.0143 16.6279 15.2623 16.8529 15.2623 17.1279C15.2623 17.4029 15.0143 17.6279 14.7111 17.6279Z" fill="#FCB13B"/>
</g>
<defs>
<clipPath id="clip0_11_1987">
<rect width="24" height="24" fill="white"/>
</clipPath>
</defs>
</svg>
