<svg width="24" height="24" viewBox="0 0 24 24" fill="none" xmlns="http://www.w3.org/2000/svg">
<g clip-path="url(#clip0_11_1932)">
<path d="M8 2L3.2799 4.31402C3.10859 4.398 3 4.57217 3 4.76297V21.5C3 21.7761 3.22386 22 3.5 22H8V2Z" fill="#DDB347"/>
<path d="M19.6099 4.61539L7.99998 2V22H12V20C12 18.8954 12.8954 18 14 18C15.1046 18 16 18.8954 16 20V22H19.5C19.7761 22 20 21.7761 20 21.5V5.10317C20 4.86937 19.838 4.66678 19.6099 4.61539Z" fill="#FFC93D"/>
<path fill-rule="evenodd" clip-rule="evenodd" d="M10.6337 7.26953C10.5232 7.26953 10.4337 7.35907 10.4337 7.46953V9.06953C10.4337 9.17999 10.5232 9.26953 10.6337 9.26953H12.2337C12.3441 9.26953 12.4337 9.17999 12.4337 9.06953V7.46953C12.4337 7.35907 12.3441 7.26953 12.2337 7.26953H10.6337ZM10.6336 10.2695C10.5232 10.2695 10.4336 10.3591 10.4336 10.4695V12.0695C10.4336 12.18 10.5232 12.2695 10.6336 12.2695H12.2336C12.3441 12.2695 12.4336 12.18 12.4336 12.0695V10.4695C12.4336 10.3591 12.3441 10.2695 12.2336 10.2695H10.6336ZM13.3981 7.46953C13.3981 7.35907 13.4877 7.26953 13.5981 7.26953H15.1981C15.3086 7.26953 15.3981 7.35907 15.3981 7.46953V9.06953C15.3981 9.17999 15.3086 9.26953 15.1981 9.26953H13.5981C13.4877 9.26953 13.3981 9.17999 13.3981 9.06953V7.46953ZM13.5981 10.2695C13.4876 10.2695 13.3981 10.3591 13.3981 10.4695V12.0695C13.3981 12.18 13.4876 12.2695 13.5981 12.2695H15.1981C15.3085 12.2695 15.3981 12.18 15.3981 12.0695V10.4695C15.3981 10.3591 15.3085 10.2695 15.1981 10.2695H13.5981ZM16.362 7.46953C16.362 7.35907 16.4516 7.26953 16.562 7.26953H18.162C18.2725 7.26953 18.362 7.35907 18.362 7.46953V9.06953C18.362 9.17999 18.2725 9.26953 18.162 9.26953H16.562C16.4516 9.26953 16.362 9.17999 16.362 9.06953V7.46953ZM16.562 10.2695C16.4515 10.2695 16.362 10.3591 16.362 10.4695V12.0695C16.362 12.18 16.4515 12.2695 16.562 12.2695H18.162C18.2724 12.2695 18.362 12.18 18.362 12.0695V10.4695C18.362 10.3591 18.2724 10.2695 18.162 10.2695H16.562Z" fill="white"/>
</g>
<defs>
<clipPath id="clip0_11_1932">
<rect width="24" height="24" fill="white"/>
</clipPath>
</defs>
</svg>
