<svg width="24" height="24" viewBox="0 0 24 24" fill="none" xmlns="http://www.w3.org/2000/svg">
<g clip-path="url(#clip0_11_1925)">
<path fill-rule="evenodd" clip-rule="evenodd" d="M13.969 1.2002C14.3096 1.2002 14.5857 1.47697 14.5857 1.81838V2.92057C14.5857 3.80698 13.8688 4.52556 12.9846 4.52556C12.7815 4.52556 12.6169 4.69062 12.6169 4.89421L12.617 6.76386C12.6171 7.10527 12.341 7.38206 12.0004 7.38209C11.6598 7.38212 11.3837 7.10537 11.3837 6.76396L11.3835 4.89431C11.3835 4.00785 12.1003 3.28919 12.9846 3.28919C13.1877 3.28919 13.3523 3.12415 13.3523 2.92057V1.81838C13.3523 1.47697 13.6284 1.2002 13.969 1.2002Z" fill="#D9D9D9"/>
<path d="M7.37495 5.87891C6.86409 5.87891 6.44995 6.29406 6.44995 6.80618V7.42436H9.53328V6.80618C9.53328 6.29406 9.11915 5.87891 8.60828 5.87891H7.37495Z" fill="#566980"/>
<path d="M15.3918 5.87891C14.8809 5.87891 14.4668 6.29406 14.4668 6.80618V7.42436H17.5501V6.80618C17.5501 6.29406 17.136 5.87891 16.6251 5.87891H15.3918Z" fill="#566980"/>
<path d="M21.3042 10.9992C21.0207 9.2589 19.526 7.98145 17.7732 7.98145H8.46668C5.44754 7.98145 3.00005 10.4439 3.00005 13.4814V16.1407C3.00005 17.9885 4.39628 19.5335 6.22458 19.7087H16.9845L17.7008 21.1354C18.2133 22.1561 19.253 22.7997 20.3896 22.7997C21.8761 22.7997 23.0082 21.4588 22.7677 19.9829L21.3042 10.9992Z" fill="#3D4E65"/>
<path d="M2.75551 10.7623C3.13623 8.44501 5.12744 6.7453 7.46147 6.7453H16.4818C19.1489 6.7453 21.3109 8.92106 21.3109 11.605C21.3109 14.5544 18.935 16.9453 16.0042 16.9453H8.10468L6.25311 21.055C5.77445 22.1175 4.72244 22.7999 3.56325 22.7999C2.10447 22.7999 0.994219 21.4827 1.23217 20.0344L2.75551 10.7623Z" fill="#51637A"/>
<path d="M10.2116 15.21C10.0072 15.21 9.84155 15.4037 9.84155 15.6427C9.84155 15.8817 10.0072 16.0754 10.2116 16.0754H11.3216C11.5259 16.0754 11.6916 15.8817 11.6916 15.6427C11.6916 15.4037 11.5259 15.21 11.3216 15.21H10.2116Z" fill="#3D4E65"/>
<path d="M12.6783 15.21C12.474 15.21 12.3083 15.4037 12.3083 15.6427C12.3083 15.8817 12.474 16.0754 12.6783 16.0754H13.7883C13.9927 16.0754 14.1583 15.8817 14.1583 15.6427C14.1583 15.4037 13.9927 15.21 13.7883 15.21H12.6783Z" fill="#3D4E65"/>
<path d="M7.91966 9.12109C7.60438 9.12109 7.3488 9.37668 7.3488 9.69195V10.7702H6.27081C5.95553 10.7702 5.69995 11.0258 5.69995 11.3411C5.69995 11.6564 5.95553 11.912 6.27081 11.912H7.3488V12.9902C7.3488 13.3055 7.60438 13.5611 7.91966 13.5611C8.23494 13.5611 8.49052 13.3055 8.49052 12.9902V11.912H9.56909C9.88437 11.912 10.14 11.6564 10.14 11.3411C10.14 11.0258 9.88437 10.7702 9.56909 10.7702H8.49052V9.69195C8.49052 9.37668 8.23494 9.12109 7.91966 9.12109Z" fill="#D2DFEF"/>
<path d="M16.7857 9.78C16.7857 10.2108 16.4364 10.56 16.0056 10.56C15.5747 10.56 15.2255 10.2108 15.2255 9.78C15.2255 9.34922 15.5747 9 16.0056 9C16.4364 9 16.7857 9.34922 16.7857 9.78Z" fill="#FFCC59"/>
<path d="M16.7857 12.9C16.7857 13.3308 16.4364 13.68 16.0056 13.68C15.5747 13.68 15.2255 13.3308 15.2255 12.9C15.2255 12.4692 15.5747 12.12 16.0056 12.12C16.4364 12.12 16.7857 12.4692 16.7857 12.9Z" fill="#6BA4FF"/>
<path d="M18.3453 11.3399C18.3453 11.7706 17.996 12.1199 17.5652 12.1199C17.1344 12.1199 16.7851 11.7706 16.7851 11.3399C16.7851 10.9091 17.1344 10.5599 17.5652 10.5599C17.996 10.5599 18.3453 10.9091 18.3453 11.3399Z" fill="#52CC86"/>
<path d="M15.2255 11.3399C15.2255 11.7706 14.8762 12.1199 14.4454 12.1199C14.0145 12.1199 13.6653 11.7706 13.6653 11.3399C13.6653 10.9091 14.0145 10.5599 14.4454 10.5599C14.8762 10.5599 15.2255 10.9091 15.2255 11.3399Z" fill="#EA4D53"/>
</g>
<defs>
<clipPath id="clip0_11_1925">
<rect width="24" height="24" fill="white"/>
</clipPath>
</defs>
</svg>
