<svg width="24" height="24" viewBox="0 0 24 24" fill="none" xmlns="http://www.w3.org/2000/svg">
<g clip-path="url(#clip0_11_1861)">
<path d="M10.9888 1.82431C11.5485 1.23438 12.4762 1.23435 13.0361 1.82419C15.4681 4.38639 16.9762 7.94582 16.9762 11.8821C16.9762 15.8183 15.4681 19.3778 13.0361 21.94C12.4762 22.5298 11.5486 22.5298 10.9888 21.9398C8.55743 19.3776 7.05056 15.8179 7.05052 11.8821C7.05052 7.94622 8.55745 4.38658 10.9888 1.82431Z" fill="url(#paint0_linear_11_1861)"/>
<path d="M1.95559 10.8577C1.36566 11.4175 1.36563 12.3451 1.95547 12.905C4.51767 15.337 8.0771 16.8451 12.0133 16.8451C15.9496 16.8451 19.5091 15.337 22.0712 12.905C22.6611 12.3451 22.661 11.4175 22.0711 10.8577C19.5089 8.42634 15.9492 6.91947 12.0133 6.91943C8.0775 6.91943 4.51786 8.42636 1.95559 10.8577Z" fill="url(#paint1_linear_11_1861)"/>
<path d="M12.0127 6.91968C13.5228 6.91969 14.9775 7.14184 16.3414 7.55283C16.7527 8.91714 16.9759 10.3722 16.9759 11.8827C16.9759 13.3927 16.7518 14.8466 16.3408 16.2105C14.977 16.6214 13.5228 16.8449 12.0129 16.845C10.5025 16.8449 9.04826 16.621 7.68413 16.2099C7.27327 14.8461 7.05064 13.3917 7.05063 11.8819C7.05067 10.3717 7.27269 8.91719 7.68379 7.55319C9.04789 7.14203 10.5024 6.91971 12.0127 6.91968Z" fill="url(#paint2_linear_11_1861)"/>
</g>
<defs>
<linearGradient id="paint0_linear_11_1861" x1="14.7206" y1="2.98605" x2="8.14513" y2="21.5522" gradientUnits="userSpaceOnUse">
<stop stop-color="#66BFFF"/>
<stop offset="1" stop-color="#7D1DFC"/>
</linearGradient>
<linearGradient id="paint1_linear_11_1861" x1="4.27719" y1="16.9107" x2="19.3622" y2="7.62767" gradientUnits="userSpaceOnUse">
<stop stop-color="#3C5CFB"/>
<stop offset="1" stop-color="#CE7CFE"/>
</linearGradient>
<linearGradient id="paint2_linear_11_1861" x1="7.9293" y1="16.0475" x2="16.0973" y2="7.7169" gradientUnits="userSpaceOnUse">
<stop stop-color="#2912F8"/>
<stop offset="1" stop-color="#876DFE"/>
</linearGradient>
<clipPath id="clip0_11_1861">
<rect width="24" height="24" fill="white"/>
</clipPath>
</defs>
</svg>
