<svg width="24" height="24" viewBox="0 0 24 24" fill="none" xmlns="http://www.w3.org/2000/svg">
<g clip-path="url(#clip0_11_1958)">
<path d="M3.51007 8.64479C3.36755 8.46618 3.16862 8.34968 2.95103 8.31742C2.83096 8.30411 2.7096 8.31789 2.59482 8.35787C2.48005 8.39786 2.37441 8.46315 2.28476 8.54953C2.1951 8.63591 2.12343 8.74144 2.07438 8.85929C2.02532 8.97714 1.99998 9.10469 2 9.23367V14.9158C1.99999 15.1093 2.03568 15.301 2.10502 15.4799C2.17437 15.6587 2.27601 15.8212 2.40414 15.958L4.75862 18.4736V21.3125H9.24137V17.7519C9.24129 17.361 9.09592 16.9863 8.83723 16.71L4.97793 12.5866C4.89492 12.4974 4.79559 12.4275 4.68613 12.3811C4.57668 12.3348 4.45945 12.3131 4.34179 12.3173C4.22412 12.3216 4.10854 12.3517 4.00227 12.4059C3.89599 12.46 3.80131 12.537 3.72414 12.632V9.28636C3.72876 9.0517 3.65258 8.8234 3.51007 8.64479Z" fill="#FBB791"/>
<path d="M20.4899 8.64479C20.6324 8.46618 20.8314 8.34968 21.049 8.31742C21.169 8.30411 21.2904 8.31789 21.4052 8.35787C21.5199 8.39786 21.6256 8.46315 21.7152 8.54953C21.8049 8.63591 21.8766 8.74144 21.9256 8.85929C21.9747 8.97714 22 9.10469 22 9.23367V14.9158C22 15.1093 21.9643 15.301 21.895 15.4799C21.8256 15.6587 21.724 15.8212 21.5959 15.958L19.2414 18.4736V21.3125H14.7586V17.7519C14.7587 17.361 14.9041 16.9863 15.1628 16.71L19.0221 12.5866C19.1051 12.4974 19.2044 12.4275 19.3139 12.3811C19.4233 12.3348 19.5405 12.3131 19.6582 12.3173C19.7759 12.3216 19.8915 12.3517 19.9977 12.4059C20.104 12.46 20.1987 12.537 20.2759 12.632V9.28636C20.2712 9.0517 20.3474 8.8234 20.4899 8.64479Z" fill="#FBB791"/>
<path d="M20.1163 21.662V20.338C20.1163 20.1513 19.9206 20 19.6791 20H14.2708C14.0293 20 13.8336 20.1513 13.8336 20.338V21.662C13.8336 21.8487 14.0293 22 14.2708 22H19.6791C19.9206 22 20.1163 21.8487 20.1163 21.662Z" fill="#B6B1A5"/>
<path d="M10.2827 21.662V20.338C10.2827 20.1513 10.087 20 9.8455 20H4.4372C4.19574 20 4 20.1513 4 20.338V21.662C4 21.8487 4.19574 22 4.4372 22H9.8455C10.087 22 10.2827 21.8487 10.2827 21.662Z" fill="#B6B1A5"/>
<path d="M12 3.79426C12.7068 2.31338 16.0047 0.778537 18.1249 3.49347C19.2806 4.97339 19.3027 7.68927 18.1249 9.41695C16.5168 12.4011 12.7 14.6 12 14.6C11.3 14.6 7.48322 12.4011 5.87512 9.41695C4.69725 7.68927 4.71939 4.97339 5.8751 3.49347C7.99526 0.778537 11.2932 2.31338 12 3.79426Z" fill="#F66041"/>
</g>
<defs>
<clipPath id="clip0_11_1958">
<rect width="24" height="24" fill="white"/>
</clipPath>
</defs>
</svg>
