<svg width="24" height="24" viewBox="0 0 24 24" fill="none" xmlns="http://www.w3.org/2000/svg">
<g clip-path="url(#clip0_11_1875)">
<path d="M1.99995 5C1.99995 3.89543 2.89538 3 3.99995 3H18C19.1045 3 20 3.89543 20 5V19C20 20.1046 19.1045 21 18 21H3.99995C2.89538 21 1.99995 20.1046 1.99995 19V5Z" fill="#B3CDFF"/>
<path d="M15.3279 8.32787C15.6989 7.95687 16.3007 7.95687 16.6717 8.32787C17.0427 8.69887 17.0427 9.30062 16.6717 9.67162L12.6717 13.6716C12.3007 14.0426 11.6989 14.0426 11.3279 13.6716L9.45587 11.7995L6.12579 14.7146C5.73103 15.06 5.1305 15.0203 4.78497 14.6257C4.43955 14.231 4.47924 13.6304 4.87383 13.2849L8.87383 9.7849L8.94708 9.72728C9.32083 9.45929 9.84014 9.49632 10.1717 9.82787L11.9998 11.656L15.3279 8.32787Z" fill="#4D74E8"/>
<path d="M23.002 18.0002C23.002 20.7616 20.7634 23.0002 18.002 23.0002C15.2405 23.0002 13.002 20.7616 13.002 18.0002C13.002 15.2388 15.2405 13.0002 18.002 13.0002C20.7634 13.0002 23.002 15.2388 23.002 18.0002Z" fill="#4D74E8"/>
<path d="M15.9983 17.5029L20.4981 17.4993C20.6312 17.4993 20.7589 17.5522 20.853 17.6464C20.9471 17.7405 21 17.8682 21 18.0014C21 18.1345 20.9471 18.2622 20.853 18.3564C20.7589 18.4505 20.6312 18.5034 20.4981 18.5034L15.9983 18.4999C15.8728 18.4901 15.7556 18.4334 15.67 18.341C15.5845 18.2486 15.537 18.1273 15.537 18.0014C15.537 17.8754 15.5845 17.7542 15.67 17.6617C15.7556 17.5693 15.8728 17.5126 15.9983 17.5029Z" fill="white"/>
<path d="M16.9986 16.0002C17.0979 15.9998 17.1951 16.029 17.2777 16.084C17.3604 16.139 17.4248 16.2174 17.4627 16.3092C17.5006 16.401 17.5103 16.502 17.4906 16.5993C17.4709 16.6967 17.4227 16.7859 17.3521 16.8557L16.2068 18.0012L17.3521 19.1467C17.3985 19.1931 17.4353 19.2482 17.4605 19.3089C17.4856 19.3695 17.4985 19.4345 17.4985 19.5002C17.4985 19.5659 17.4856 19.6309 17.4605 19.6915C17.4353 19.7522 17.3985 19.8073 17.3521 19.8537C17.3057 19.9002 17.2506 19.937 17.1899 19.9621C17.1293 19.9873 17.0643 20.0002 16.9986 20.0002C16.933 20.0002 16.868 19.9873 16.8073 19.9621C16.7467 19.937 16.6916 19.9002 16.6451 19.8537L15.1464 18.3547C15.0527 18.261 15 18.1338 15 18.0012C15 17.8686 15.0527 17.7414 15.1464 17.6477L16.6451 16.1487C16.6914 16.1019 16.7464 16.0647 16.8071 16.0392C16.8677 16.0137 16.9328 16.0005 16.9986 16.0002Z" fill="white"/>
<path d="M15.9983 17.5029L20.4981 17.4994C20.6312 17.4994 20.7589 17.5523 20.853 17.6464C20.9471 17.7406 21 17.8683 21 18.0014C21 18.1346 20.9471 18.2623 20.853 18.3564C20.7589 18.4506 20.6312 18.5035 20.4981 18.5035L15.9983 18.4999C15.8728 18.4902 15.7556 18.4335 15.67 18.3411C15.5845 18.2486 15.537 18.1274 15.537 18.0014C15.537 17.8755 15.5845 17.7542 15.67 17.6618C15.7556 17.5694 15.8728 17.5127 15.9983 17.5029Z" fill="white"/>
<path d="M16.9986 16.0002C17.0979 15.9998 17.1951 16.029 17.2777 16.0841C17.3604 16.1391 17.4248 16.2175 17.4627 16.3093C17.5006 16.4011 17.5103 16.5021 17.4906 16.5994C17.4709 16.6967 17.4227 16.786 17.3521 16.8558L16.2068 18.0013L17.3521 19.1467C17.3985 19.1932 17.4353 19.2483 17.4605 19.3089C17.4856 19.3696 17.4985 19.4346 17.4985 19.5003C17.4985 19.5659 17.4856 19.6309 17.4605 19.6916C17.4353 19.7523 17.3985 19.8074 17.3521 19.8538C17.3057 19.9002 17.2506 19.9371 17.1899 19.9622C17.1293 19.9873 17.0643 20.0002 16.9986 20.0002C16.933 20.0002 16.868 19.9873 16.8073 19.9622C16.7467 19.9371 16.6916 19.9002 16.6451 19.8538L15.1464 18.3548C15.0527 18.261 15 18.1339 15 18.0013C15 17.8687 15.0527 17.7415 15.1464 17.6477L16.6451 16.1487C16.6914 16.1019 16.7464 16.0647 16.8071 16.0393C16.8677 16.0138 16.9328 16.0005 16.9986 16.0002Z" fill="white"/>
</g>
<defs>
<clipPath id="clip0_11_1875">
<rect width="24" height="24" fill="white"/>
</clipPath>
</defs>
</svg>
