<svg width="24" height="24" viewBox="0 0 24 24" fill="none" xmlns="http://www.w3.org/2000/svg">
<g clip-path="url(#clip0_11_1904)">
<path d="M6 10C6 6.68629 8.68629 4 12 4C15.3137 4 18 6.68629 18 10V16C18 16.2536 18.0944 16.4852 18.25 16.6615V17C18.25 18.2426 17.2426 19.25 16 19.25H13C12.5858 19.25 12.25 19.5858 12.25 20C12.25 20.4142 12.5858 20.75 13 20.75H16C18.0711 20.75 19.75 19.0711 19.75 17V16.6615C19.9056 16.4852 20 16.2536 20 16V10C20 5.58172 16.4183 2 12 2C7.58172 2 4 5.58172 4 10V16C4 16.5523 4.44772 17 5 17C5.55228 17 6 16.5523 6 16V10Z" fill="#6D747B"/>
<path d="M5.5 11C3.567 11 2 12.567 2 14.5C2 16.433 3.567 18 5.5 18H6C7.10457 18 8 17.1046 8 16V13C8 11.8954 7.10457 11 6 11H5.5Z" fill="#4BCBE4"/>
<path d="M18.5 11C20.433 11 22 12.567 22 14.5C22 16.433 20.433 18 18.5 18H18C16.8954 18 16 17.1046 16 16V13C16 11.8954 16.8954 11 18 11H18.5Z" fill="#4BCBE4"/>
<path d="M6 10.9998H7C7.55228 10.9998 8 11.4475 8 11.9998V16.9998C8 17.5521 7.55228 17.9998 7 17.9998H6V10.9998Z" fill="#2CB8D3"/>
<path d="M18 10.9998H17C16.4477 10.9998 16 11.4475 16 11.9998V16.9998C16 17.5521 16.4477 17.9998 17 17.9998H18V10.9998Z" fill="#2CB8D3"/>
<circle cx="13" cy="20" r="2" fill="#BFC5CB"/>
</g>
<defs>
<clipPath id="clip0_11_1904">
<rect width="24" height="24" fill="white"/>
</clipPath>
</defs>
</svg>
