<svg width="24" height="24" viewBox="0 0 24 24" fill="none" xmlns="http://www.w3.org/2000/svg">
<g clip-path="url(#clip0_11_1885)">
<path fill-rule="evenodd" clip-rule="evenodd" d="M18.3979 8.23132C18.7774 8.52165 18.9984 8.96121 18.9984 9.42597L18.9984 19.4705C18.9984 20.3155 18.282 21.0004 17.3984 21.0004L4.59838 21.0004C3.71473 21.0004 2.99838 20.3155 2.99838 19.4705L2.99838 9.42596C2.99838 8.9612 3.21932 8.52165 3.59886 8.23132L9.99879 3.33568C10.5831 2.88868 11.4135 2.88868 11.9978 3.33567L18.3979 8.23132ZM11.9994 10.4999C11.9994 10.2238 12.2232 9.99994 12.4994 9.99994L13.4994 9.99994C13.7755 9.99994 13.9994 10.2238 13.9994 10.4999L13.9994 11.4999C13.9994 11.7761 13.7755 11.9999 13.4994 11.9999L12.4994 11.9999C12.2232 11.9999 11.9994 11.7761 11.9994 11.4999L11.9994 10.4999ZM7.99936 10.4999C7.99936 10.2238 8.22322 9.99994 8.49936 9.99994L9.49936 9.99994C9.7755 9.99994 9.99936 10.2238 9.99936 10.4999L9.99936 11.4999C9.99936 11.7761 9.7755 11.9999 9.49936 11.9999L8.49936 11.9999C8.22322 11.9999 7.99936 11.7761 7.99936 11.4999L7.99936 10.4999ZM7.99936 14.4999C7.99936 14.2238 8.22322 13.9999 8.49936 13.9999L9.49936 13.9999C9.7755 13.9999 9.99936 14.2238 9.99936 14.4999L9.99936 15.4999C9.99936 15.7761 9.7755 15.9999 9.49936 15.9999L8.49936 15.9999C8.22322 15.9999 7.99936 15.7761 7.99936 15.4999L7.99936 14.4999ZM11.9994 14.4999C11.9994 14.2238 12.2232 13.9999 12.4994 13.9999L13.4994 13.9999C13.7755 13.9999 13.9994 14.2238 13.9994 14.4999L13.9994 15.4999C13.9994 15.7761 13.7755 15.9999 13.4994 15.9999L12.4994 15.9999C12.2232 15.9999 11.9994 15.7761 11.9994 15.4999L11.9994 14.4999Z" fill="#7BBDD1"/>
<path d="M18.4117 9.78464L11.1821 4.00614L3.57227 9.79888C3.14252 10.126 2.5287 10.0431 2.20127 9.61377C1.87384 9.18441 1.95679 8.57114 2.38654 8.244L10.1179 2.35876C10.7606 1.86952 11.6541 1.88008 12.285 2.38439L19.6339 8.25824C20.0558 8.59544 20.1242 9.2105 19.7867 9.632C19.4492 10.0535 18.8336 10.1218 18.4117 9.78464Z" fill="#559DB2"/>
<path d="M14.001 13.5022C14.001 13.2249 14.2249 13.0001 14.501 13.0001L21.5007 13.0004C21.7768 13.0004 22.0006 13.2252 22.0006 13.5025L22.0003 22.608C22.0003 22.8 21.7943 22.9209 21.6277 22.8268L21.1229 22.5416C21.0468 22.4986 20.9539 22.4986 20.8778 22.5416L20.1229 22.9679C20.0468 23.0109 19.9539 23.0109 19.8778 22.9679L19.123 22.5415C19.0469 22.4985 18.954 22.4985 18.8779 22.5415L18.123 22.9678C18.0469 23.0108 17.954 23.0108 17.8779 22.9678L17.1231 22.5414C17.047 22.4984 16.9541 22.4984 16.878 22.5414L16.1231 22.9677C16.047 23.0107 15.9541 23.0107 15.878 22.9677L15.1232 22.5413C15.0471 22.4984 14.9542 22.4984 14.878 22.5413L14.3732 22.8265C14.2065 22.9206 14.0006 22.7997 14.0007 22.6077L14.001 13.5022Z" fill="#17AC89"/>
<rect x="15.0006" y="20.0001" width="6" height="0.999999" rx="0.499999" fill="#129677"/>
<path d="M15.9345 15.027C16.1965 14.9363 16.4797 15.083 16.5671 15.3547L17.0463 16.8438L17.5256 15.3547C17.5937 15.1431 17.7847 15.0004 17.9999 15.0004C18.215 15.0004 18.406 15.1431 18.4741 15.3547L18.9533 16.8438L19.4326 15.3548C19.52 15.0832 19.8033 14.9365 20.0652 15.0271C20.3271 15.1178 20.4686 15.4115 20.3812 15.6831L20.23 16.1528L20.5006 16.1528C20.7767 16.1528 21.0006 16.385 21.0006 16.6713C21.0006 16.9576 20.7767 17.1898 20.5006 17.1898L19.8962 17.1897L19.4275 18.6457C19.3594 18.8573 19.1684 19 18.9532 19C18.7381 19 18.5471 18.8573 18.479 18.6457L17.9998 17.1566L17.5205 18.6456C17.4523 18.8573 17.2613 19 17.0462 19C16.831 19 16.64 18.8572 16.5719 18.6456L16.1034 17.1896L15.5007 17.1896C15.2246 17.1895 15.0007 16.9574 15.0007 16.6711C15.0007 16.3847 15.2246 16.1526 15.5007 16.1526L15.7697 16.1526L15.6185 15.6829C15.5311 15.4113 15.6726 15.1176 15.9345 15.027Z" fill="white"/>
</g>
<defs>
<clipPath id="clip0_11_1885">
<rect width="24" height="24" fill="white"/>
</clipPath>
</defs>
</svg>
