<svg width="24" height="24" viewBox="0 0 24 24" fill="none" xmlns="http://www.w3.org/2000/svg">
<g clip-path="url(#clip0_11_1972)">
<circle cx="8.99988" cy="15.0002" r="7" fill="#EEBCFF"/>
<circle opacity="0.9" cx="13.4999" cy="10.5002" r="8.5" fill="#B348E5"/>
<path fill-rule="evenodd" clip-rule="evenodd" d="M11.763 8.28972C11.763 7.8537 12.1165 7.50024 12.5525 7.50024H15.7104C16.1464 7.50024 16.4999 7.8537 16.4999 8.28972V11.4476C16.4999 11.8836 16.1464 12.2371 15.7104 12.2371C15.2744 12.2371 14.9209 11.8836 14.9209 11.4476V10.1957L11.8476 13.269C11.5393 13.5773 11.0394 13.5773 10.7311 13.269C10.4228 12.9607 10.4228 12.4608 10.7311 12.1525L13.8044 9.07919H12.5525C12.1165 9.07919 11.763 8.72573 11.763 8.28972Z" fill="white"/>
</g>
<defs>
<clipPath id="clip0_11_1972">
<rect width="24" height="24" fill="white"/>
</clipPath>
</defs>
</svg>
