<svg width="24" height="24" viewBox="0 0 24 24" fill="none" xmlns="http://www.w3.org/2000/svg">
<g clip-path="url(#clip0_11_1975)">
<path d="M4.53745 5V7.53191C3.17655 8.25532 1.47434 10.0638 2.15467 13.6809C2.5729 15.9044 3.90965 18.3872 5.4917 20.1716C6.70673 21.5421 8.56716 22 10.3987 22H11.601C13.4326 22 15.293 21.5421 16.508 20.1716C18.0901 18.3872 19.4268 15.9044 19.845 13.6809C20.5254 10.0638 18.8232 8.25532 17.4623 7.53191V5H4.53745Z" fill="#FFBA08"/>
<path d="M2.99988 3.5C2.99988 2.67157 3.67145 2 4.49987 2H17.4998C18.3283 2 18.9998 2.67157 18.9998 3.5V3.5C18.9998 4.32843 18.3283 5 17.4998 5H4.49987C3.67145 5 2.99988 4.32843 2.99988 3.5V3.5Z" fill="#C29729"/>
<path d="M6.99988 2H12.9999V7.47619C12.9999 8.02848 12.5521 8.47619 11.9999 8.47619Lnan nanLnan nanL11.9999 8.47619C11.4476 8.47619 10.9999 8.02007 10.9999 7.46779Lnan nanLnan nanL10.9999 7.46779C10.9999 6.97687 10.6019 6.57143 10.111 6.57143H9.99987C9.44759 6.57143 8.99987 7.01914 8.99987 7.57143V9C8.99987 9.55228 8.55216 10 7.99988 10Lnan nanLnan nanL7.99988 10C7.44759 10 6.99988 9.55228 6.99988 9V2Z" fill="#FFEBB8"/>
<path d="M16.2282 11.2044C16.7033 10.9319 17.2967 10.9319 17.7717 11.2044L21.2717 13.2129C21.7235 13.4722 22 13.9391 22 14.4431V18.5569C22 19.0609 21.7235 19.5278 21.2717 19.7871L17.7717 21.7956C17.2967 22.0681 16.7033 22.0681 16.2282 21.7956L12.7283 19.7871C12.2764 19.5278 12 19.0609 12 18.5569V14.4431C12 13.9391 12.2764 13.4722 12.7283 13.2129L16.2282 11.2044Z" fill="#C58E00"/>
<path fill-rule="evenodd" clip-rule="evenodd" d="M15.4999 14.3998C15.4999 14.0684 15.7686 13.7998 16.0999 13.7998H17.2999C18.4294 13.7998 19.0999 14.7186 19.0999 15.5998C19.0999 15.9889 19.0038 16.4423 18.6984 16.8089C18.3769 17.1946 17.8942 17.3997 17.2999 17.3997H16.7001L16.6999 18.5997C16.6999 18.9311 16.4313 19.1997 16.0999 19.1997C15.7686 19.1997 15.4999 18.9311 15.4999 18.5997V14.3998ZM16.7001 16.1998H17.2999C17.6056 16.1998 17.723 16.1049 17.7765 16.0406C17.8461 15.9572 17.8999 15.8106 17.8999 15.5998C17.8999 15.2809 17.6705 14.9998 17.2999 14.9998H16.6999L16.7001 16.1998Z" fill="white"/>
</g>
<defs>
<clipPath id="clip0_11_1975">
<rect width="24" height="24" fill="white"/>
</clipPath>
</defs>
</svg>
