<svg width="24" height="24" viewBox="0 0 24 24" fill="none" xmlns="http://www.w3.org/2000/svg">
<g clip-path="url(#clip0_11_1930)">
<rect x="3" y="4" width="18" height="18" rx="2.5" fill="#C6D0DB"/>
<path d="M8.79979 10.7852C8.91025 10.7852 8.99998 10.875 8.99998 10.9854V12.584C8.99998 12.6944 8.91025 12.7842 8.79979 12.7842H7.20018C7.08972 12.7842 6.99998 12.6944 6.99998 12.584V10.9854C6.99998 10.875 7.08972 10.7852 7.20018 10.7852H8.79979ZM12.7998 10.7852C12.9102 10.7852 13 10.875 13 10.9854V12.584C13 12.6944 12.9102 12.7842 12.7998 12.7842H11.2002C11.0897 12.7842 11 12.6944 11 12.584V10.9854C11 10.875 11.0897 10.7852 11.2002 10.7852H12.7998ZM16.7998 10.7852C16.9102 10.7852 17 10.875 17 10.9854V12.584C17 12.6944 16.9102 12.7842 16.7998 12.7842H15.2002C15.0897 12.7842 15 12.6944 15 12.584V10.9854C15 10.875 15.0897 10.7852 15.2002 10.7852H16.7998Z" fill="#93A5B9"/>
<path d="M8.79979 14.2839C8.91025 14.2839 8.99998 14.3737 8.99998 14.4841V16.0828C8.99998 16.1931 8.91025 16.283 8.79979 16.283H7.20018C7.08972 16.283 6.99998 16.1931 6.99998 16.0828V14.4841C6.99998 14.3737 7.08972 14.2839 7.20018 14.2839H8.79979ZM12.7998 14.2839C12.9102 14.2839 13 14.3737 13 14.4841V16.0828C13 16.1931 12.9102 16.283 12.7998 16.283H11.2002C11.0897 16.283 11 16.1931 11 16.0828V14.4841C11 14.3737 11.0897 14.2839 11.2002 14.2839H12.7998ZM16.7998 14.2839C16.9102 14.2839 17 14.3737 17 14.4841V16.0828C17 16.1931 16.9102 16.283 16.7998 16.283H15.2002C15.0897 16.283 15 16.1931 15 16.0828V14.4841C15 14.3737 15.0897 14.2839 15.2002 14.2839H16.7998Z" fill="#93A5B9"/>
<path d="M11.0906 18.5H12.9094C13.3733 18.5 13.75 18.8767 13.75 19.3406V22H10.25V19.3406C10.25 18.8767 10.6267 18.5 11.0906 18.5Z" fill="#6D747B"/>
<path d="M14.8304 1.00003H9.1696C8.52364 1.00003 7.99999 1.52368 7.99999 2.16963V7.83042C7.99999 8.47637 8.52364 9.00003 9.1696 9.00003H14.8304C15.4763 9.00003 16 8.47637 16 7.83042V2.16963C16 1.52368 15.4763 1.00003 14.8304 1.00003Z" fill="#17AC89"/>
<path d="M13.9286 4.29606H12.75V3.05169C12.75 2.88507 12.6061 2.75 12.4286 2.75H11.5714C11.3939 2.75 11.25 2.88507 11.25 3.05169V4.29606H10.0714C9.89391 4.29606 9.75 4.43113 9.75 4.59775V5.40225C9.75 5.56887 9.89391 5.70394 10.0714 5.70394H11.25V6.94831C11.25 7.11493 11.3939 7.25 11.5714 7.25H12.4286C12.6061 7.25 12.75 7.11493 12.75 6.94831V5.70394H13.9286C14.1061 5.70394 14.25 5.56887 14.25 5.40225V4.59775C14.25 4.43113 14.1061 4.29606 13.9286 4.29606Z" fill="white"/>
</g>
<defs>
<clipPath id="clip0_11_1930">
<rect width="24" height="24" fill="white"/>
</clipPath>
</defs>
</svg>
