<svg width="24" height="24" viewBox="0 0 24 24" fill="none" xmlns="http://www.w3.org/2000/svg">
<g clip-path="url(#clip0_11_1963)">
<path d="M5.8646 16.8634C5.98895 16.6641 6.20729 16.543 6.44223 16.543H18.0689C18.3269 16.543 18.5628 16.6889 18.678 16.9198L20.7217 21.0149C20.9476 21.4676 20.6184 21.9998 20.1126 21.9998H3.88759C3.35311 21.9998 3.02707 21.4121 3.30995 20.9586L5.8646 16.8634Z" fill="#6ED9A2"/>
<path d="M18.0689 16.543H6.44223C6.20779 16.543 5.98987 16.6636 5.86539 16.8622L12.1019 19.253L18.5246 16.718C18.4016 16.6072 18.2401 16.543 18.0689 16.543Z" fill="#4CC285"/>
<path fill-rule="evenodd" clip-rule="evenodd" d="M17.2874 12.9613C18.2384 11.8049 18.8083 10.3305 18.8083 8.72456C18.8083 5.01069 15.7603 2 12.0002 2C8.24023 2 5.19214 5.01069 5.19214 8.72456C5.19214 10.0993 5.60979 11.3777 6.3266 12.4427L6.32533 12.4427L6.33469 12.4547C6.506 12.708 6.69427 12.9492 6.89788 13.1767L11.1409 18.6165C11.6294 19.2428 12.5795 19.234 13.0564 18.5987L17.2874 12.9613Z" fill="#4C7DE3"/>
<path d="M15.0154 8.75872C15.0154 10.4239 13.6655 11.7738 12.0003 11.7738C10.3351 11.7738 8.98523 10.4239 8.98523 8.75872C8.98523 7.09354 10.3351 5.74365 12.0003 5.74365C13.6655 5.74365 15.0154 7.09354 15.0154 8.75872Z" fill="white"/>
</g>
<defs>
<clipPath id="clip0_11_1963">
<rect width="24" height="24" fill="white"/>
</clipPath>
</defs>
</svg>
