<svg width="24" height="24" viewBox="0 0 24 24" fill="none" xmlns="http://www.w3.org/2000/svg">
<g clip-path="url(#clip0_11_2002)">
<path d="M12 10C12 8.34315 13.3431 7 15 7H19C20.6569 7 22 8.34315 22 10V20C22 21.1046 21.1046 22 20 22H14C12.8954 22 12 21.1046 12 20V10Z" fill="#57CAE4"/>
<path d="M2 5C2 3.34315 3.34315 2 5 2H14C15.6569 2 17 3.34315 17 5V22H4C2.89543 22 2 21.1046 2 20V5Z" fill="#01A3C7"/>
<path d="M6.55884 17.2941C6.55884 16.6444 7.08556 16.1177 7.73531 16.1177H11.2647C11.9145 16.1177 12.4412 16.6444 12.4412 17.2941V22H6.55884V17.2941Z" fill="#0E93B0"/>
<path d="M6.625 6.375C6.34886 6.375 6.125 6.59886 6.125 6.875V8.125C6.125 8.40114 6.34886 8.625 6.625 8.625H7.875C8.15114 8.625 8.375 8.40114 8.375 8.125V6.875C8.375 6.59886 8.15114 6.375 7.875 6.375H6.625Z" fill="white"/>
<path d="M6.625 10.875C6.34886 10.875 6.125 11.0989 6.125 11.375V12.625C6.125 12.9011 6.34886 13.125 6.625 13.125H7.875C8.15114 13.125 8.375 12.9011 8.375 12.625V11.375C8.375 11.0989 8.15114 10.875 7.875 10.875H6.625Z" fill="white"/>
<path d="M10.625 6.875C10.625 6.59886 10.8489 6.375 11.125 6.375H12.375C12.6511 6.375 12.875 6.59886 12.875 6.875V8.125C12.875 8.40114 12.6511 8.625 12.375 8.625H11.125C10.8489 8.625 10.625 8.40114 10.625 8.125V6.875Z" fill="white"/>
<path d="M11.125 10.875C10.8489 10.875 10.625 11.0989 10.625 11.375V12.625C10.625 12.9011 10.8489 13.125 11.125 13.125H12.375C12.6511 13.125 12.875 12.9011 12.875 12.625V11.375C12.875 11.0989 12.6511 10.875 12.375 10.875H11.125Z" fill="white"/>
</g>
<defs>
<clipPath id="clip0_11_2002">
<rect width="24" height="24" fill="white"/>
</clipPath>
</defs>
</svg>
