<svg width="24" height="24" viewBox="0 0 24 24" fill="none" xmlns="http://www.w3.org/2000/svg">
<g clip-path="url(#clip0_11_1888)">
<g clip-path="url(#clip1_11_1888)">
<path d="M13.062 3.4057C12.4411 2.8646 11.5589 2.8646 10.938 3.4057L3.5 9.88805V19.1479C3.5 20.1707 4.26112 20.9999 5.2 20.9999H18.8C19.7389 20.9999 20.5 20.1707 20.5 19.1479V9.88805L13.062 3.4057Z" fill="#C1D2EC"/>
<path fill-rule="evenodd" clip-rule="evenodd" d="M12.5679 4.11589C12.2359 3.8373 11.7641 3.8373 11.4321 4.11589L3.47702 10.7909C3.08497 11.1199 2.51289 11.0532 2.19924 10.642C1.8856 10.2308 1.94916 9.63078 2.34122 9.3018L10.2963 2.62675C11.2923 1.79098 12.7077 1.79097 13.7037 2.62675L21.6588 9.3018C22.0508 9.63078 22.1144 10.2308 21.8008 10.642C21.4871 11.0532 20.915 11.1199 20.523 10.7909L12.5679 4.11589Z" fill="#1772F6"/>
<rect x="8.67383" y="11" width="2.38047" height="2.38047" rx="0.4" fill="white"/>
<rect x="8.67383" y="14.6198" width="2.38047" height="2.38047" rx="0.4" fill="white"/>
<rect x="12.9448" y="11" width="2.38047" height="2.38047" rx="0.4" fill="white"/>
<rect x="12.9448" y="14.6198" width="2.38047" height="2.38047" rx="0.4" fill="white"/>
<path d="M22 17C22 19.7614 19.7614 22 17 22C14.2386 22 12 19.7614 12 17C12 14.2386 14.2386 12 17 12C19.7614 12 22 14.2386 22 17Z" fill="#1772F6"/>
<path fill-rule="evenodd" clip-rule="evenodd" d="M19.2868 15.2384C19.5587 15.5403 19.5675 16.0399 19.3065 16.3543L17.427 18.6189C17.0032 19.1296 16.3059 19.1606 15.8493 18.6891L14.721 17.5239C14.44 17.2336 14.4155 16.7347 14.6665 16.4096C14.9175 16.0844 15.3488 16.0562 15.6299 16.3465L16.5945 17.3428L18.3221 15.2612C18.5831 14.9468 19.015 14.9366 19.2868 15.2384Z" fill="white"/>
</g>
</g>
<defs>
<clipPath id="clip0_11_1888">
<rect width="24" height="24" fill="white"/>
</clipPath>
<clipPath id="clip1_11_1888">
<rect width="24" height="24" fill="white"/>
</clipPath>
</defs>
</svg>
