<svg width="24" height="24" viewBox="0 0 24 24" fill="none" xmlns="http://www.w3.org/2000/svg">
<g clip-path="url(#clip0_11_1986)">
<path d="M1.99976 8.47477C1.99976 7.83044 2.44747 7.30811 2.99976 7.30811H20.9998C21.552 7.30811 21.9998 7.83044 21.9998 8.47477V9.64144C21.9998 10.2858 21.552 10.8081 20.9998 10.8081H2.99976C2.44747 10.8081 1.99976 10.2858 1.99976 9.64144V8.47477Z" fill="#9477E7"/>
<path d="M2.99976 10.8081L20.9998 10.8081L19.6367 18.7189C19.3784 20.2179 18.1355 21.3081 16.6847 21.3081L7.31486 21.3081C5.86401 21.3081 4.62106 20.2179 4.36278 18.7189L2.99976 10.8081Z" fill="#B097FF"/>
<path d="M8.39917 12.8081C8.84093 12.8081 9.19887 13.1662 9.19897 13.6079L9.19897 18.0083C9.19887 18.45 8.84093 18.8081 8.39917 18.8081C7.9575 18.808 7.59947 18.45 7.59937 18.0083L7.59937 13.6079C7.59947 13.1662 7.9575 12.8082 8.39917 12.8081ZM11.9988 12.8081C12.4405 12.8081 12.7995 13.1662 12.7996 13.6079L12.7996 18.0083C12.7995 18.45 12.4405 18.8081 11.9988 18.8081C11.5572 18.8079 11.1991 18.4499 11.199 18.0083L11.199 13.6079C11.1991 13.1663 11.5572 12.8083 11.9988 12.8081ZM15.5994 12.8081C16.0411 12.8081 16.3991 13.1662 16.3992 13.6079L16.3992 18.0083C16.3991 18.45 16.0411 18.8081 15.5994 18.8081C15.1576 18.8081 14.7997 18.45 14.7996 18.0083L14.7996 13.6079C14.7997 13.1662 15.1576 12.8081 15.5994 12.8081Z" fill="#F6F3FF"/>
<path d="M13.5065 4.07875C14.039 3.44414 14.9852 3.36137 15.6198 3.89387V3.89387C16.2544 4.42637 16.3372 5.37251 15.8047 6.00712L12.5907 9.83734C12.0582 10.472 11.1121 10.5547 10.4775 10.0222V10.0222C9.84286 9.48972 9.76008 8.54359 10.2926 7.90898L13.5065 4.07875Z" fill="#8061D8"/>
<ellipse cx="11.4596" cy="8.85252" rx="0.75" ry="0.750002" transform="rotate(40 11.4596 8.85252)" fill="white"/>
</g>
<defs>
<clipPath id="clip0_11_1986">
<rect width="24" height="24" fill="white"/>
</clipPath>
</defs>
</svg>
