<svg width="24" height="24" viewBox="0 0 24 24" fill="none" xmlns="http://www.w3.org/2000/svg">
<g clip-path="url(#clip0_11_1877)">
<path d="M15.2344 5.56571C15.3204 5.36348 15.4168 5.16515 15.5135 4.96646C15.7814 4.41559 16.0507 3.86201 16.1001 3.21521V2.7339C16.1001 2.32858 15.7835 2 15.393 2L8.60702 2C8.21654 2 7.89999 2.32858 7.89999 2.7339V3.22605C7.95054 3.87188 8.21697 4.42427 8.48216 4.97405C8.57828 5.17335 8.67425 5.3723 8.7597 5.57524C8.35271 5.73612 7.96049 5.93077 7.58906 6.15766C6.67726 6.7147 5.88716 7.46047 5.27506 8.35284C4.4341 9.57686 4.03996 11.0226 4.00363 12.5087H4L4 15.0682C4 16.688 5.30049 18 6.90612 18H17.0939C18.6995 18 20 16.688 20 15.0682V12.5087H19.9963C19.9615 11.0232 19.5692 9.58002 18.7286 8.35467C18.1165 7.46231 17.3336 6.71653 16.4273 6.15949C16.0502 5.9281 15.6515 5.72857 15.2344 5.56571Z" fill="#4497FF"/>
<path d="M9.58939 8.53351C9.89498 8.42019 10.2254 8.60358 10.3274 8.94312L10.8865 10.8046L11.4457 8.94312C11.5251 8.67858 11.748 8.50018 11.999 8.50018C12.25 8.50018 12.4729 8.67858 12.5523 8.94312L13.1115 10.8046L13.6706 8.94312C13.7726 8.60358 14.103 8.42019 14.4086 8.53351C14.7142 8.64683 14.8793 9.01394 14.7773 9.35348L14.6009 9.94068H14.9167C15.2388 9.94068 15.5 10.2309 15.5 10.5888C15.5 10.9468 15.2388 11.2369 14.9167 11.2369H14.2115L13.6648 13.0571C13.5854 13.3216 13.3625 13.5 13.1115 13.5C12.8605 13.5 12.6376 13.3216 12.5581 13.0571L11.999 11.1956L11.4399 13.0571C11.3604 13.3216 11.1375 13.5 10.8865 13.5C10.6355 13.5 10.4127 13.3216 10.3332 13.0571L9.78647 11.2369H9.08334C8.76117 11.2369 8.5 10.9468 8.5 10.5888C8.5 10.2309 8.76117 9.94068 9.08334 9.94068H9.3971L9.22072 9.35348C9.11873 9.01394 9.28379 8.64683 9.58939 8.53351Z" fill="white"/>
<path fill-rule="evenodd" clip-rule="evenodd" d="M14.7054 17.6075C15.1918 17.365 15.5271 16.8466 15.5271 16.2508C15.5271 15.4194 14.8776 14.7483 14.0857 14.7483H10.297C10.2898 14.7438 10.2826 14.7393 10.2753 14.7347C9.77634 14.4212 9.10586 14 7.51099 14C6.18159 14 5.11109 14.723 4.60702 15.146H1.5V21.0968H5.11211V21.0938H5.11328L11.1516 21.9463C12.1657 22.0888 13.1969 21.9463 14.137 21.5365L21.5036 18.3117C22.552 17.8544 22.8368 16.4409 22.0506 15.5857C21.5891 15.0809 20.8769 14.9265 20.2616 15.1878L14.7054 17.6075Z" fill="#FFD38C"/>
<path d="M14.7105 17.6284H10.813C10.5098 17.6284 10.2617 17.4034 10.2617 17.1284C10.2617 16.8534 10.5098 16.6284 10.813 16.6284H14.7105C15.0136 16.6284 15.2617 16.8534 15.2617 17.1284C15.2617 17.4034 15.0136 17.6284 14.7105 17.6284Z" fill="#F5C06D"/>
</g>
<defs>
<clipPath id="clip0_11_1877">
<rect width="24" height="24" fill="white"/>
</clipPath>
</defs>
</svg>
