<svg width="24" height="24" viewBox="0 0 24 24" fill="none" xmlns="http://www.w3.org/2000/svg">
<g clip-path="url(#clip0_11_2006)">
<path d="M18 10H20C21.1046 10 22 10.8954 22 12V20C22 21.1046 21.1046 22 20 22V22C18.8954 22 18 21.1046 18 20V10Z" fill="#5F82FB"/>
<path fill-rule="evenodd" clip-rule="evenodd" d="M4 2C2.89543 2 2 2.89543 2 4V20C2 21.1046 2.89543 22 4 22H16C16.001 22 16.002 22 16.0031 22H20C18.8945 22 18 21.1045 18 20V4C18 2.89543 17.1046 2 16 2H4Z" fill="#91AAFF"/>
<path fill-rule="evenodd" clip-rule="evenodd" d="M5 11.1348C5 10.7206 5.33579 10.3848 5.75 10.3848L12.75 10.3848C13.1642 10.3848 13.5 10.7206 13.5 11.1348C13.5 11.549 13.1642 11.8848 12.75 11.8848L5.75 11.8848C5.33579 11.8848 5 11.549 5 11.1348Z" fill="#627FE7"/>
<path fill-rule="evenodd" clip-rule="evenodd" d="M5 14.6348C5 14.2206 5.33579 13.8848 5.75 13.8848H9.75C10.1642 13.8848 10.5 14.2206 10.5 14.6348C10.5 15.049 10.1642 15.3848 9.75 15.3848H5.75C5.33579 15.3848 5 15.049 5 14.6348Z" fill="#627FE7"/>
<path d="M5 5.3998C5 5.06843 5.26336 4.7998 5.58824 4.7998H14.4118C14.7366 4.7998 15 5.06843 15 5.3998V7.1998C15 7.53118 14.7366 7.7998 14.4118 7.7998H5.58824C5.26336 7.7998 5 7.53118 5 7.1998V5.3998Z" fill="white"/>
</g>
<defs>
<clipPath id="clip0_11_2006">
<rect width="24" height="24" fill="white"/>
</clipPath>
</defs>
</svg>
