<svg width="24" height="24" viewBox="0 0 24 24" fill="none" xmlns="http://www.w3.org/2000/svg">
<g clip-path="url(#clip0_11_1929)">
<path fill-rule="evenodd" clip-rule="evenodd" d="M15.7927 21.0086C18.324 21.0086 20.3761 18.9566 20.3761 16.4253C20.3761 13.894 18.324 11.842 15.7927 11.842C13.2614 11.842 11.2094 13.894 11.2094 16.4253C11.2094 18.9566 13.2614 21.0086 15.7927 21.0086ZM15.7927 22.6753C19.2445 22.6753 22.0427 19.8771 22.0427 16.4253C22.0427 12.9735 19.2445 10.1753 15.7927 10.1753C12.3409 10.1753 9.54272 12.9735 9.54272 16.4253C9.54272 19.8771 12.3409 22.6753 15.7927 22.6753Z" fill="#FFDB61"/>
<path fill-rule="evenodd" clip-rule="evenodd" d="M15.7927 21.0086C18.324 21.0086 20.3761 18.9566 20.3761 16.4253C20.3761 13.894 18.324 11.842 15.7927 11.842C13.2614 11.842 11.2094 13.894 11.2094 16.4253C11.2094 18.9566 13.2614 21.0086 15.7927 21.0086ZM15.7927 22.6753C19.2445 22.6753 22.0427 19.8771 22.0427 16.4253C22.0427 12.9735 19.2445 10.1753 15.7927 10.1753C12.3409 10.1753 9.54272 12.9735 9.54272 16.4253C9.54272 19.8771 12.3409 22.6753 15.7927 22.6753Z" fill="url(#paint0_linear_11_1929)"/>
<path d="M15.0214 6.49263C15.0676 6.41976 15.1329 6.35716 15.2151 6.312L17.1565 5.24523C17.3349 5.14721 17.5538 5.1332 17.7522 5.20679L18.6634 5.55658L17.267 7.35462L15.0214 6.49263Z" fill="#2BB8FF"/>
<path d="M21.3123 6.57239C21.5042 6.65177 21.6534 6.80658 21.7193 6.99552L22.4482 9.08737C22.4791 9.176 22.4857 9.26628 22.4712 9.35138L20.2646 8.50435L20.4037 6.22363L21.3123 6.57239Z" fill="#7ED4FF"/>
<path d="M17.3283 11.4683C17.1807 11.3993 17.0552 11.2825 16.9814 11.1291L14.9963 7.00353C14.9125 6.82947 14.928 6.63768 15.0234 6.48926L17.2684 7.35103L17.3283 11.4683Z" fill="#1995FF"/>
<path d="M17.4502 11.5129C17.5999 11.5534 17.7624 11.5478 17.9122 11.4864L22.1479 9.74874C22.3265 9.67547 22.4433 9.52271 22.4719 9.34871L20.2635 8.50098L17.4502 11.5129Z" fill="#A3E0FF"/>
<path d="M20.4408 6.23858L20.2671 8.50601L17.2512 7.34831L18.6299 5.54346L20.4408 6.23858Z" fill="#3EBFFF"/>
<path d="M17.3063 11.4579L17.2681 7.35449L20.2707 8.50711L17.537 11.5313C17.4567 11.5195 17.3786 11.4946 17.3063 11.4579Z" fill="#6DCEFF"/>
<path d="M16.9812 11.1292C17.1449 11.4694 17.5629 11.6299 17.9121 11.4866L19.6325 10.7808L16.175 9.45361L16.9812 11.1292Z" fill="#FFB900"/>
<path fill-rule="evenodd" clip-rule="evenodd" d="M8.20702 18.1546C10.7383 18.1546 12.7903 16.1026 12.7903 13.5713C12.7903 11.04 10.7383 8.98796 8.20702 8.98796C5.67571 8.98796 3.62368 11.04 3.62368 13.5713C3.62368 16.1026 5.67571 18.1546 8.20702 18.1546ZM8.20702 19.8213C11.6588 19.8213 14.457 17.0231 14.457 13.5713C14.457 10.1195 11.6588 7.32129 8.20702 7.32129C4.75524 7.32129 1.95702 10.1195 1.95702 13.5713C1.95702 17.0231 4.75524 19.8213 8.20702 19.8213Z" fill="#FFC93E"/>
<path d="M4.93892 2.5166L4.00192 2.75022C3.79352 2.80218 3.61881 2.94045 3.52769 3.12552L2.54923 5.11294C2.50786 5.19695 2.49026 5.28554 2.49419 5.37159L4.82631 4.79012L4.93892 2.5166Z" fill="#2BB8FF"/>
<path d="M10.2366 3.4406C10.1997 3.36293 10.1426 3.29311 10.0668 3.23844L8.26983 1.94301C8.10249 1.82238 7.88332 1.78232 7.67491 1.83428L6.74998 2.06489L7.94381 4.01227L10.2366 3.4406Z" fill="#7ED4FF"/>
<path d="M7.23806 8.12478C7.07757 8.15301 6.90769 8.1293 6.75922 8.04596L2.76682 5.80508C2.59824 5.71046 2.50089 5.54429 2.49402 5.36784L4.82713 4.78613L7.23806 8.12478Z" fill="#1995FF"/>
<path d="M7.36227 8.09189C7.50859 8.03938 7.63898 7.94146 7.72671 7.8048L10.1998 3.9519C10.3042 3.78912 10.3121 3.59657 10.2352 3.4375L7.93938 4.0099L7.36227 8.09189Z" fill="#A3E0FF"/>
<path d="M7.94485 4.01251L6.78659 2.05552L4.90452 2.52477L4.81034 4.79403L7.94485 4.01251Z" fill="#3EBFFF"/>
<path d="M7.21352 8.12935L4.82811 4.78933L7.94888 4.01123L7.44404 8.05757C7.37163 8.09374 7.29354 8.11798 7.21352 8.12935Z" fill="#6DCEFF"/>
<path d="M6.75912 8.04646C7.0883 8.23123 7.52276 8.1229 7.72666 7.80523L8.73118 6.24023L5.13747 7.13625L6.75912 8.04646Z" fill="#FFC42B"/>
</g>
<defs>
<linearGradient id="paint0_linear_11_1929" x1="14.8432" y1="17.3093" x2="9.14283" y2="14.1344" gradientUnits="userSpaceOnUse">
<stop stop-color="#FFC93E"/>
<stop offset="1" stop-color="#FF8614" stop-opacity="0.43"/>
</linearGradient>
<clipPath id="clip0_11_1929">
<rect width="24" height="24" fill="white"/>
</clipPath>
</defs>
</svg>
