<svg width="24" height="24" viewBox="0 0 24 24" fill="none" xmlns="http://www.w3.org/2000/svg">
<path d="M1.51245 12.8069C1.49384 12.4973 1.4961 12.1858 1.51921 11.8762C1.62069 10.5019 2.13093 8.75585 3.30644 8.07461C4.07714 7.62839 5.01755 7.5651 5.85366 7.76376C6.73148 7.97246 7.57436 8.38734 8.47924 8.44061C8.52378 8.44312 8.56889 8.445 8.61343 8.44563C9.83235 8.46693 10.9487 7.72052 11.9268 6.91206C12.6423 6.32045 13.3437 5.69624 14.1324 5.22558C14.4983 5.00749 14.9138 4.77059 15.3181 4.66656C15.7764 4.54936 16.2478 4.49421 16.718 4.50048C18.1613 4.52179 19.6897 5.08332 20.7192 6.24023C21.5807 7.20787 22.1011 8.4989 22.3395 9.82251C22.5831 11.1724 22.5521 12.5976 22.2279 13.9275C22.1276 14.3392 21.9979 14.7428 21.835 15.1289C21.2227 16.5828 20.1221 17.9898 18.7978 18.666C16.6075 19.7847 14.2553 20.2378 11.8417 20.2497C10.2868 20.2573 8.72055 20.1081 7.22706 19.6262C5.44773 19.0515 3.7586 17.8858 2.65864 16.2068C2.12247 15.3883 1.73796 14.447 1.58179 13.4468C1.54853 13.235 1.52598 13.0212 1.51301 12.8063L1.51245 12.8069ZM15.7601 6.27407C15.6174 6.21892 15.4562 6.20827 15.3079 6.23898C14.8879 6.32609 14.5265 6.66577 14.1499 6.87258C13.5697 7.19095 13.0635 7.71551 12.5572 8.15671C11.416 9.14942 10.1453 9.95537 8.65797 9.98671C8.20975 9.99611 7.76097 9.93657 7.32798 9.8081C6.89498 9.67962 6.48398 9.48346 6.04873 9.35937C5.99122 9.34308 5.93372 9.32804 5.87564 9.3155C5.74823 9.28793 5.54357 9.29106 5.44209 9.26411C5.43081 9.26098 5.43814 9.23528 5.41221 9.23152C5.29212 9.21397 4.87886 9.2146 4.75821 9.23152C4.73114 9.23528 4.74467 9.2616 4.71761 9.26536C4.57441 9.28542 4.49773 9.27038 4.34946 9.31299C4.098 9.38507 3.95649 9.67335 3.74169 9.83943C3.00199 10.4116 2.52953 11.1461 2.49683 12.1213C2.47146 12.8752 2.5549 13.6887 2.99861 14.2346C3.08656 14.343 3.17282 14.3906 3.25908 14.4802C3.27261 14.494 3.28614 14.5454 3.31602 14.5698C3.47501 14.7002 3.60581 14.7234 3.78002 14.7597C4.04332 14.8149 4.18596 14.8011 4.40865 14.6977C4.81064 14.5109 5.18105 14.2057 5.5571 13.9626C5.95627 13.705 6.37009 13.4762 6.79576 13.2782C7.77168 12.8238 8.58806 12.2642 9.64743 12.2416C9.76582 12.2391 10.1199 12.4641 10.2383 12.4735C10.815 12.5192 11.4606 12.7793 11.8744 13.2425C11.8857 13.255 12.0808 13.3973 12.0937 13.401C12.1681 13.4217 12.3345 13.3979 12.4055 13.3622C12.4359 13.3158 12.5059 13.2512 12.5312 13.2105C12.6355 13.0451 12.7325 12.7699 12.834 12.5738C13.0082 12.2372 13.232 11.9308 13.444 11.6137C13.669 11.2765 13.9317 10.9732 14.1736 10.6504C14.2102 10.6015 14.2536 10.5489 14.3106 10.5457C14.5964 10.102 14.9713 9.7354 15.2527 9.28855C15.3874 9.07359 15.4996 8.84233 15.6118 8.6117C15.8666 8.08527 16.4203 7.18155 16.1034 6.57176C16.0279 6.42636 15.9038 6.32797 15.7612 6.27282L15.7601 6.27407ZM17.8484 6.22707C17.6764 6.20639 17.4966 6.23208 17.3849 6.39377C17.2209 6.63067 17.2006 7.01108 17.1543 7.29373C16.9463 8.5716 16.4282 9.78491 15.6693 10.772C15.5735 10.8967 15.4697 11.0264 15.4444 11.1881C15.4184 11.3523 15.4804 11.5228 15.5785 11.6487C15.6766 11.7747 15.8074 11.8643 15.9394 11.9433C15.98 11.9677 16.0239 11.9922 16.0696 11.984C16.1265 11.974 16.1649 11.917 16.2089 11.8762C16.3239 11.7691 16.5082 11.7672 16.6244 11.8731C16.5855 12.0755 16.5466 12.2773 16.5077 12.4798C17.0743 12.5048 17.6183 12.2466 18.1212 11.9558C18.6241 11.665 19.118 11.3323 19.67 11.1869C19.9508 11.1129 20.2411 11.0897 20.5298 11.0966C20.753 11.1016 20.9972 11.1185 21.177 10.9713C21.3072 10.8647 21.3788 10.6861 21.398 10.5069C21.4172 10.3276 21.3884 10.1471 21.3518 9.97167C21.1629 9.07108 20.7429 8.23129 20.1532 7.57888C19.564 6.92585 18.8074 6.46209 17.9961 6.25527C17.9487 6.24336 17.8991 6.23334 17.8484 6.22707ZM20.7705 12.6709C19.7957 12.4152 18.9309 13.2249 18.106 13.6279C17.9978 13.6805 17.8952 13.9137 17.7897 13.9663C17.6578 14.0321 17.527 13.8742 17.399 13.9168C16.8933 14.086 16.3712 14.0578 15.8835 13.9168C15.7527 13.8792 15.6327 13.856 15.5109 13.7984C15.1506 13.6285 14.8005 13.3177 14.4188 13.2268C13.2033 12.9379 13.4598 15.1301 12.5775 15.4673C12.4692 15.5087 12.3553 15.5419 12.2414 15.5312C11.9488 15.5049 11.6748 15.1508 11.4668 14.9515C11.2311 14.7265 10.956 14.5254 10.6594 14.4188C10.3719 14.316 10.103 14.1186 9.80021 14.0735C9.5217 14.0315 9.20485 14.1011 8.92746 14.1518C8.25937 14.2747 7.64652 14.5348 7.02917 14.8337C6.87751 14.907 6.77433 14.934 6.63789 15.0712C6.54881 15.1608 6.49131 15.2856 6.41632 15.3651C6.32161 15.4648 6.19306 15.995 6.18291 16.1535C6.15303 16.6236 6.20885 17.1149 6.44 17.4878C6.69766 17.904 7.06187 17.9672 7.44637 18.0901C7.61213 18.1434 7.73955 18.186 7.90981 18.2374C7.94759 18.2486 7.98931 18.2706 7.99438 18.2718C8.05358 18.2875 8.15675 18.2568 8.21595 18.2725C8.45275 18.3358 8.63203 18.3727 8.86995 18.4147C8.90716 18.4216 8.93366 18.4536 8.97087 18.4598C9.02612 18.4699 9.1028 18.4486 9.15185 18.4611C9.16313 18.4642 9.1558 18.4899 9.18173 18.4937C9.23529 18.5012 9.31479 18.4799 9.3644 18.4931C9.70888 18.5827 10.0708 18.5889 10.43 18.6347C10.7485 18.6754 11.1387 18.6153 11.4651 18.6823C12.6203 18.6297 13.78 18.6322 14.8682 18.3809C15.3857 18.3401 15.8757 18.1885 16.3611 18.0519C16.7518 17.9422 17.103 17.8093 17.4605 17.6721C17.6488 17.6 17.8343 17.4834 18.0209 17.3913C18.2661 17.2703 18.4714 17.1626 18.7076 17.0109C19.14 16.7333 19.6435 16.3428 19.9868 15.9148C20.0015 15.8966 20.0641 15.807 20.0703 15.8032C20.0838 15.7944 20.1064 15.8045 20.1199 15.7957C20.1374 15.7844 20.2907 15.5826 20.3155 15.5481C20.6155 15.1345 20.9289 14.5886 21.0947 14.0979C21.1731 13.8654 21.2807 13.4342 21.199 13.1948C21.1905 13.1704 21.1595 13.1735 21.1578 13.1591C21.1556 13.1403 21.1759 13.114 21.1708 13.0864C21.1685 13.0745 21.1398 13.0288 21.1302 13.0081C21.0998 12.941 21.0366 12.8245 20.9712 12.7712C20.8929 12.7073 20.8652 12.716 20.7863 12.6966C20.7767 12.6941 20.7761 12.6715 20.7728 12.6703L20.7705 12.6709Z" fill="#FFC9B8"/>
<path d="M20.8152 12.5373C20.8603 12.5598 20.9054 12.5862 20.9494 12.6169C21.3846 12.9215 21.2482 13.6428 21.0943 14.0984C20.5372 15.7442 19.1356 16.8879 17.7217 17.5453C15.6542 18.5073 13.0743 18.7599 10.8496 18.6609C10.0569 18.6258 9.267 18.5205 8.48897 18.3475C7.85526 18.2065 6.9842 18.1821 6.52133 17.6024C6.07029 17.0371 6.02801 15.9209 6.45875 15.318C6.94812 14.6324 8.04582 14.3491 8.77255 14.1774C9.31154 14.0495 9.8883 13.9768 10.4346 14.0909C11.1191 14.2338 11.3993 14.7489 11.9557 15.1181C12.1446 15.2434 12.3729 15.313 12.5872 15.256C13.4695 15.0191 13.1803 13.5005 14.0401 13.2173C14.5605 13.0455 15.2094 13.6146 15.6971 13.775C16.3601 13.9931 17.0722 14.0464 17.7386 13.8139C18.5809 13.5206 19.8596 12.066 20.8146 12.5385L20.8152 12.5373Z" fill="#D94537"/>
<path d="M15.7659 6.26835C15.9001 6.31222 16.16 6.41939 16.2293 6.58923C16.4915 7.23036 16.0168 7.97301 15.7507 8.54206C15.4756 9.13054 15.1192 9.67328 14.7297 10.1734C14.3311 10.6848 13.8597 11.0389 13.478 11.5659C13.2266 11.9131 13.0349 12.3055 12.8308 12.6878C12.678 12.9742 12.4784 13.5169 12.0973 13.3865C11.9039 13.3201 11.7782 13.1315 11.6226 13.0011C11.467 12.8708 11.2883 12.7648 11.1056 12.6834C10.72 12.5117 10.3005 12.449 9.88723 12.4484C8.30466 12.4446 6.8247 13.196 5.46709 14.0289C4.94389 14.3498 4.41392 14.8932 3.78191 14.7609C3.6077 14.7246 3.4769 14.7014 3.31791 14.571C3.28803 14.5466 3.27449 14.4952 3.26096 14.4814C3.1747 14.3918 3.08844 14.3442 3.00049 14.2357C2.55735 13.6892 2.47334 12.8764 2.49871 12.1225C2.55848 10.3539 3.55921 8.96384 5.19365 9.1318C5.85723 9.20011 6.62174 9.56611 7.26334 9.7654C9.16558 10.3564 10.7944 9.61499 12.3177 8.34778C12.8455 7.90908 13.3636 7.42464 13.9229 7.02229C14.2003 6.82237 14.4827 6.50212 14.7928 6.35296C15.0753 6.21759 15.4547 6.1662 15.767 6.26835H15.7659Z" fill="#D94537"/>
<path d="M17.7582 6.1438C18.0637 6.12563 18.4905 6.31364 18.7476 6.45026C19.1023 6.6389 19.4321 6.88646 19.7377 7.16033C19.9299 7.33267 20.1148 7.51693 20.2817 7.71935C20.6268 8.138 20.9222 8.61743 21.1156 9.1445C21.2317 9.46098 21.4426 9.9705 21.464 10.3133C21.4809 10.5803 21.3535 10.8623 21.1223 11.0296C20.9876 11.1268 20.819 11.0948 20.6679 11.0917C20.4881 11.0879 20.3082 11.108 20.1284 11.1086C20.0004 11.1086 19.993 11.1205 19.8707 11.1512C19.2116 11.3167 18.6648 11.657 18.0615 11.9923C17.6437 12.2242 17.2023 12.426 16.7371 12.4673C16.1215 12.5218 15.0948 12.0462 15.3908 11.1901C15.556 10.7132 16.0285 10.2926 16.2731 9.84892C16.6486 9.16831 16.9401 8.4125 17.098 7.63224C17.1386 7.43044 17.1577 7.22425 17.1916 7.0212C17.2457 6.69844 17.2288 6.33808 17.5394 6.21525C17.6099 6.18767 17.6826 6.14882 17.7582 6.14443V6.1438Z" fill="#D94537"/>
</svg>
