<svg width="24" height="24" viewBox="0 0 24 24" fill="none" xmlns="http://www.w3.org/2000/svg">
<g clip-path="url(#clip0_11_1953)">
<path d="M2.00024 3.90476C2.00024 2.85279 2.83598 2 3.86691 2H14.1336C15.1645 2 16.0002 2.85279 16.0002 3.90476V20.0952C16.0002 21.1472 15.1645 22 14.1336 22H3.86691C2.83598 22 2.00024 21.1472 2.00024 20.0952V3.90476Z" fill="#B3CDFF"/>
<path d="M6.18323 4.25C6.18323 4.66421 6.51901 5 6.93323 5H11.4332C11.8474 5 12.1832 4.66421 12.1832 4.25V4.25C12.1832 3.83579 11.8474 3.5 11.4332 3.5H6.93323C6.51901 3.5 6.18323 3.83579 6.18323 4.25V4.25Z" fill="white"/>
<path d="M8.00049 11.3333C8.00049 9.49238 9.49287 8 11.3338 8H18.6672C20.5081 8 22.0005 9.49238 22.0005 11.3333V12.6667C22.0005 14.5076 20.5081 16 18.6672 16H8.00049V11.3333Z" fill="#4D74E8"/>
<path d="M10.6123 13.1418L10.6223 12.6006L10.0496 12.9224C9.87866 13.0185 9.65624 12.9677 9.5528 12.809C9.44936 12.6503 9.50407 12.4438 9.675 12.3478L10.2477 12.026L9.72558 11.7827C9.52806 11.6906 9.45729 11.4616 9.57223 11.2864C9.67694 11.1267 9.89803 11.0712 10.0751 11.1602L10.631 11.4394L10.6223 10.8503C10.6196 10.6652 10.7745 10.5109 10.9737 10.5006C11.1896 10.4893 11.3704 10.6508 11.3667 10.8516L11.3565 11.403L11.9292 11.0812C12.1001 10.9851 12.3225 11.0359 12.426 11.1946C12.5294 11.3533 12.4747 11.5598 12.3038 11.6559L11.7311 11.9777L12.2608 12.2245C12.4548 12.3149 12.5252 12.5392 12.4139 12.7122C12.3118 12.8708 12.0936 12.9273 11.9178 12.8404L11.3665 12.5679L11.3708 13.1454C11.3722 13.332 11.2165 13.4872 11.016 13.4993C10.7947 13.5125 10.6085 13.3476 10.6123 13.1418Z" fill="white"/>
<path d="M14.5827 13.1418L14.5927 12.6006L14.02 12.9224C13.8491 13.0185 13.6267 12.9677 13.5232 12.809C13.4198 12.6503 13.4745 12.4438 13.6454 12.3478L14.2182 12.026L13.696 11.7827C13.4985 11.6906 13.4277 11.4616 13.5426 11.2864C13.6474 11.1267 13.8685 11.0712 14.0455 11.1602L14.6014 11.4394L14.5928 10.8503C14.59 10.6652 14.745 10.5109 14.9441 10.5006C15.1601 10.4893 15.3409 10.6508 15.3371 10.8516L15.3269 11.403L15.8996 11.0812C16.0706 10.9851 16.293 11.0359 16.3964 11.1946C16.4999 11.3533 16.4451 11.5598 16.2742 11.6559L15.7015 11.9777L16.2312 12.2245C16.4252 12.3149 16.4956 12.5392 16.3843 12.7122C16.2822 12.8708 16.064 12.9273 15.8883 12.8404L15.337 12.5679L15.3412 13.1454C15.3426 13.332 15.187 13.4872 14.9864 13.4993C14.7652 13.5125 14.5789 13.3476 14.5827 13.1418Z" fill="white"/>
<path d="M18.6345 13.1418L18.6445 12.6006L18.0718 12.9224C17.9008 13.0185 17.6784 12.9677 17.575 12.809C17.4715 12.6503 17.5263 12.4438 17.6972 12.3478L18.2699 12.026L17.7478 11.7827C17.5502 11.6906 17.4795 11.4616 17.5944 11.2864C17.6991 11.1267 17.9202 11.0712 18.0973 11.1602L18.6532 11.4394L18.6445 10.8503C18.6418 10.6652 18.7967 10.5109 18.9958 10.5006C19.2118 10.4893 19.3926 10.6508 19.3889 10.8516L19.3787 11.403L19.9514 11.0812C20.1223 10.9851 20.3447 11.0359 20.4482 11.1946C20.5516 11.3533 20.4969 11.5598 20.326 11.6559L19.7532 11.9777L20.283 12.2245C20.477 12.3149 20.5474 12.5392 20.4361 12.7122C20.334 12.8708 20.1158 12.9273 19.94 12.8404L19.3887 12.5679L19.393 13.1454C19.3944 13.332 19.2387 13.4872 19.0382 13.4993C18.8169 13.5125 18.6306 13.3476 18.6345 13.1418Z" fill="white"/>
</g>
<defs>
<clipPath id="clip0_11_1953">
<rect width="24" height="24" fill="white"/>
</clipPath>
</defs>
</svg>
