<svg width="24" height="24" viewBox="0 0 24 24" fill="none" xmlns="http://www.w3.org/2000/svg">
<g clip-path="url(#clip0_11_1957)">
<path d="M2 7C2 5.34315 3.37759 4 5.07692 4H18.9231C20.6224 4 22 5.34315 22 7V16C22 17.6569 20.6224 19 18.9231 19H5.07692C3.37759 19 2 17.6569 2 16V7Z" fill="#9790E3"/>
<path d="M5.00001 19H19C20.1088 19 21.0771 18.3985 21.5963 17.504L13.5874 12.0673C12.5307 11.35 11.1278 11.35 10.0711 12.0673L2.31229 17.3342C2.80336 18.3216 3.82245 19 5.00001 19Z" fill="#C1BCFC"/>
<path d="M19 4H5C3.49336 4 2.24612 5.11064 2.03235 6.55786H2.07613L10.2436 12.1022C11.3002 12.8195 12.7032 12.8195 13.7598 12.1022L21.9272 6.55786H21.9676C21.7539 5.11064 20.5066 4 19 4Z" fill="#C1BCFC"/>
<path d="M10.1598 11.8632L2 6.48323L8.96203 12.0349L10.1598 12.9902C11.2675 13.8121 12.7319 13.8121 13.8402 12.9902L15.038 12.0349L22 6.48323L13.8402 11.8632C12.7325 12.5936 11.2681 12.5936 10.1598 11.8632Z" fill="#7C73CF"/>
</g>
<defs>
<clipPath id="clip0_11_1957">
<rect width="24" height="24" fill="white"/>
</clipPath>
</defs>
</svg>
