<svg width="24" height="24" viewBox="0 0 24 24" fill="none" xmlns="http://www.w3.org/2000/svg">
<g clip-path="url(#clip0_11_1939)">
<path fill-rule="evenodd" clip-rule="evenodd" d="M22.811 16.6699C22.811 17.7745 21.9156 18.6699 20.811 18.6699L4.81104 18.6699C3.70647 18.6699 2.81104 17.7745 2.81104 16.6699L2.81104 7.66992C2.81104 6.56535 3.70647 5.66992 4.81104 5.66992L20.811 5.66992C21.9156 5.66992 22.811 6.56535 22.811 7.66992L22.811 16.6699Z" fill="#2A7E47"/>
<path d="M21.7014 5.88693C21.8707 5.97076 22.0264 6.07825 22.1643 6.20513L22.1643 18.1581C22.0264 18.285 21.8707 18.3925 21.7014 18.4763L21.7014 5.88693Z" fill="#369657"/>
<path fill-rule="evenodd" clip-rule="evenodd" d="M21.2153 16.6836C21.2153 17.7882 20.3199 18.6836 19.2153 18.6836L3.21533 18.6836C2.11076 18.6836 1.21533 17.7882 1.21533 16.6836L1.21533 7.68359C1.21533 6.57902 2.11076 5.68359 3.21533 5.68359L19.2153 5.68359C20.3199 5.68359 21.2153 6.57902 21.2153 7.68359L21.2153 16.6836Z" fill="#56AC73"/>
<path fill-rule="evenodd" clip-rule="evenodd" d="M19.9955 15.288C18.7386 15.288 17.7197 16.3015 17.7197 17.5517C17.7197 17.596 17.721 17.64 17.7235 17.6836L4.8184 17.6836C4.82091 17.64 4.82219 17.5961 4.82219 17.5519C4.82219 16.3017 3.80325 15.2882 2.54632 15.2882C2.43373 15.2882 2.32305 15.2963 2.21484 15.3121L2.21484 9.22677C2.32305 9.24248 2.43373 9.25061 2.54632 9.25061C3.80325 9.25061 4.82219 8.23711 4.82219 6.9869C4.82219 6.88405 4.81529 6.78281 4.80193 6.68359L17.74 6.68359C17.7266 6.78308 17.7197 6.88461 17.7197 6.98776C17.7197 8.23797 18.7386 9.25146 19.9955 9.25146C20.0695 9.25146 20.1427 9.24795 20.2148 9.24109L20.2148 15.2984C20.1427 15.2915 20.0695 15.288 19.9955 15.288Z" fill="#8CE19E"/>
<path opacity="0.8" d="M7.21509 12.1836C7.21509 9.97445 9.00595 8.18359 11.2151 8.18359C13.4242 8.18359 15.2151 9.97445 15.2151 12.1836C15.2151 14.3927 13.4242 16.1836 11.2151 16.1836C9.00595 16.1836 7.21509 14.3927 7.21509 12.1836Z" fill="#56AC73"/>
<path d="M15.8552 14.1176C15.6179 14.0729 15.3888 14.2274 15.3413 14.4642L15.0884 15.7256C15.0402 15.9663 15.1978 16.2001 15.439 16.2455L21.1506 17.322C21.388 17.3667 21.6171 17.2122 21.6646 16.9754L21.9175 15.714C21.9657 15.4733 21.8081 15.2395 21.5668 15.1941L15.8552 14.1176Z" fill="#FFD873"/>
<path d="M15.1516 18.1098C15.1516 17.8663 15.349 17.6689 15.5925 17.6689H21.412C21.6555 17.6689 21.8529 17.8663 21.8529 18.1098V19.3938C21.8529 19.6373 21.6555 19.8347 21.412 19.8347H21.2863C21.5177 19.8481 21.7013 20.0401 21.7013 20.2749V21.5589C21.7013 21.8024 21.5039 21.9998 21.2604 21.9998H15.4409C15.1974 21.9998 15 21.8024 15 21.5589V20.2749C15 20.0314 15.1974 19.834 15.4409 19.834H15.5666C15.3352 19.8206 15.1516 19.6286 15.1516 19.3938V18.1098Z" fill="#FFD873"/>
<path d="M21.5506 15.2069L21.0438 15.1289L20.6283 17.2569L21.1701 17.3403C21.404 17.3763 21.6245 17.2213 21.6699 16.9891L21.9163 15.7271C21.9643 15.4813 21.7981 15.2449 21.5506 15.2069Z" fill="#F8C951"/>
<path d="M20.8809 17.6689H21.4128C21.6563 17.6689 21.8537 17.8663 21.8537 18.1098V19.3938C21.8537 19.6373 21.6563 19.8347 21.4128 19.8347H21.3948C21.6262 19.8481 21.8098 20.0401 21.8098 20.2749V21.5589C21.8098 21.8024 21.6124 21.9998 21.3689 21.9998H20.8369V19.834H20.8809V17.6689Z" fill="#F8C951"/>
</g>
<defs>
<clipPath id="clip0_11_1939">
<rect width="24" height="24" fill="white"/>
</clipPath>
</defs>
</svg>
