<svg width="24" height="24" viewBox="0 0 24 24" fill="none" xmlns="http://www.w3.org/2000/svg">
<g clip-path="url(#clip0_11_1895)">
<path d="M12 5.25C8.27827 5.25 5.25 8.27794 5.25 12C5.25 15.7221 8.27827 18.75 12 18.75C15.7217 18.75 18.75 15.7221 18.75 12C18.75 8.27794 15.7217 5.25 12 5.25Z" fill="#FFCA28"/>
<path d="M12.033 8.52911C12.3097 8.52911 12.5339 8.75341 12.5339 9.03009V9.22814C12.5339 9.26205 12.5304 9.29514 12.524 9.32716C12.9914 9.40792 13.4036 9.58171 13.6695 9.84044C13.8918 10.0509 14.0111 10.2849 14.0111 10.5072C14.0111 10.7693 13.8048 10.9519 13.5547 10.952C13.3403 10.952 13.1772 10.8766 12.9787 10.7059C12.6412 10.3843 12.3556 10.257 11.9586 10.257C11.4901 10.257 11.1923 10.523 11.1922 10.8565C11.1922 11.1542 11.4227 11.3449 11.9269 11.4442L12.6769 11.5988C13.6774 11.7934 14.1699 12.2902 14.1699 13.1041C14.1698 13.9958 13.5455 14.626 12.5339 14.801V14.9733C12.5339 15.2499 12.3096 15.4742 12.033 15.4742C11.7563 15.4742 11.5321 15.2499 11.532 14.9733V14.8227C10.9722 14.7593 10.4823 14.5789 10.172 14.2912C9.9497 14.0887 9.82281 13.858 9.82281 13.6197C9.82293 13.3102 10.049 13.1358 10.3308 13.1358C10.5055 13.1358 10.6483 13.1913 10.8746 13.3818C11.2279 13.7034 11.6173 13.8699 12.0183 13.8699C12.578 13.8699 12.8796 13.6199 12.8797 13.2389C12.8797 12.9411 12.6533 12.7666 12.0816 12.6436L11.3351 12.4807C10.3744 12.2822 9.89026 11.7659 9.8902 10.9561C9.8902 10.0719 10.5323 9.44318 11.539 9.31017C11.5346 9.28346 11.532 9.25609 11.532 9.22814V9.03009C11.532 8.75341 11.7563 8.52913 12.033 8.52911Z" fill="#FF8F00"/>
<path fill-rule="evenodd" clip-rule="evenodd" d="M20.309 5.09928L17.5066 5.50381C17.4185 5.51651 17.3363 5.48019 17.2864 5.4065C17.2365 5.33281 17.2333 5.243 17.2778 5.16594L17.602 4.60437C17.2982 4.37469 16.977 4.16122 16.6386 3.96589C12.2015 1.40412 6.52775 2.92437 3.96598 7.36151C2.65808 9.62675 2.41461 12.2142 3.07958 14.5454C3.13737 14.748 3.05272 14.9573 2.87019 15.0627L1.92331 15.6094C1.79989 15.6806 1.66414 15.6909 1.53139 15.639C1.39864 15.5871 1.30583 15.4877 1.26336 15.3516C0.360545 12.4572 0.623373 9.20876 2.25889 6.37592C5.36497 0.99603 12.2442 -0.847235 17.6241 2.25884C17.9614 2.45356 18.2848 2.66319 18.5939 2.88631L19.0293 2.13219C19.0737 2.05512 19.1532 2.01298 19.2419 2.01941C19.3307 2.02578 19.4033 2.0788 19.4363 2.16144L20.4872 4.79065C20.5138 4.8574 20.5089 4.92598 20.473 4.98823C20.4371 5.05048 20.3801 5.08901 20.309 5.09928ZM22.7367 8.64833C22.6943 8.5123 22.6015 8.41278 22.4688 8.36094C22.336 8.30905 22.2003 8.31936 22.0769 8.39061L21.13 8.93731C20.9474 9.04269 20.8627 9.25194 20.9206 9.45458C21.5857 11.7857 21.342 14.3733 20.0342 16.6385C17.4725 21.0756 11.7987 22.5959 7.36161 20.0341C7.02326 19.8388 6.70198 19.6253 6.39823 19.3956L6.72003 18.8382C6.76451 18.7612 6.76128 18.6713 6.7114 18.5977C6.66153 18.524 6.57931 18.4877 6.49119 18.5004L3.68876 18.9049C3.61761 18.9152 3.5607 18.9537 3.52475 19.016C3.48879 19.0782 3.48387 19.1468 3.51054 19.2136L4.56144 21.8428C4.59444 21.9254 4.66705 21.9785 4.75578 21.9848C4.84456 21.9912 4.92397 21.9491 4.96845 21.872L5.40626 21.1137C5.71536 21.3368 6.03875 21.5464 6.37601 21.7411C11.7559 24.8472 18.6351 23.0039 21.7412 17.624C23.3767 14.7912 23.6396 11.5428 22.7367 8.64833Z" fill="#BAD7FF"/>
</g>
<defs>
<clipPath id="clip0_11_1895">
<rect width="24" height="24" fill="white"/>
</clipPath>
</defs>
</svg>
