<svg width="24" height="24" viewBox="0 0 24 24" fill="none" xmlns="http://www.w3.org/2000/svg">
<g clip-path="url(#clip0_11_1967)">
<path d="M13.062 3.40582C12.4411 2.86472 11.5589 2.86473 10.938 3.40582L3.5 8.88817V20.148C3.5 21.1708 4.26112 22 5.2 22H18.8C19.7389 22 20.5 21.1708 20.5 20.148V8.88817L13.062 3.40582Z" fill="#87AEF8"/>
<path fill-rule="evenodd" clip-rule="evenodd" d="M12.5679 4.11597C12.2359 3.83738 11.7641 3.83738 11.4321 4.11597L2.47702 10.791C2.08497 11.12 1.51289 11.0533 1.19924 10.6421C0.885599 10.2309 0.949164 9.63086 1.34122 9.30188L10.2963 2.62683C11.2923 1.79106 12.7077 1.79106 13.7037 2.62683L22.6588 9.30188C23.0508 9.63086 23.1144 10.2309 22.8008 10.6421C22.4871 11.0533 21.915 11.12 21.523 10.791L12.5679 4.11597Z" fill="#1772F6"/>
<path d="M8.20859 11C7.98768 11 7.80859 11.1791 7.80859 11.4V13.6C7.80859 13.8209 7.98768 14 8.20859 14H10.4086C10.6295 14 10.8086 13.8209 10.8086 13.6V11.4C10.8086 11.1791 10.6295 11 10.4086 11H8.20859Z" fill="white"/>
<path d="M8.20859 15.5615C7.98768 15.5615 7.80859 15.7406 7.80859 15.9615V18.1615C7.80859 18.3824 7.98768 18.5615 8.20859 18.5615H10.4086C10.6295 18.5615 10.8086 18.3824 10.8086 18.1615V15.9615C10.8086 15.7406 10.6295 15.5615 10.4086 15.5615H8.20859Z" fill="white"/>
<path d="M13.1914 11.4C13.1914 11.1791 13.3705 11 13.5914 11H15.7914C16.0123 11 16.1914 11.1791 16.1914 11.4V13.6C16.1914 13.8209 16.0123 14 15.7914 14H13.5914C13.3705 14 13.1914 13.8209 13.1914 13.6V11.4Z" fill="white"/>
<path d="M13.5914 15.5615C13.3705 15.5615 13.1914 15.7406 13.1914 15.9615V18.1615C13.1914 18.3824 13.3705 18.5615 13.5914 18.5615H15.7914C16.0123 18.5615 16.1914 18.3824 16.1914 18.1615V15.9615C16.1914 15.7406 16.0123 15.5615 15.7914 15.5615H13.5914Z" fill="white"/>
</g>
<defs>
<clipPath id="clip0_11_1967">
<rect width="24" height="24" fill="white"/>
</clipPath>
</defs>
</svg>
