<svg width="24" height="24" viewBox="0 0 24 24" fill="none" xmlns="http://www.w3.org/2000/svg">
<g clip-path="url(#clip0_11_1887)">
<path d="M20.5455 12.2686C20.9022 10.4851 22.3077 8.42955 23 7.73725C21.049 7.2967 16.6183 6.64221 14.5037 9.05894C12.389 11.4757 13.182 13.7791 14.3148 14.7231C14.8813 15.1951 15.8253 15.6672 17.147 15.4784C19.0254 15.21 20.1679 14.1568 20.5455 12.2686Z" fill="#007E7D"/>
<path d="M13.519 18.8535C13.8432 18.4428 16.2036 10.5225 4.15552 5.14233C14.3799 8.78183 15.4647 15.5396 15.4647 15.5396C16.028 18.1124 15.0544 20.7844 13.7743 20.4553C12.8788 20.225 13.1947 19.2641 13.519 18.8535Z" fill="#17AC89"/>
<path d="M5.16722 11.9224C4.56163 8.89437 2.17537 5.40444 1 4.22907C4.31241 3.48111 11.8348 2.36991 15.425 6.47302C19.0152 10.5761 17.6689 14.4869 15.7456 16.0895C14.7839 16.8909 13.1811 17.6925 10.9372 17.3719C7.74807 16.9163 5.80833 15.128 5.16722 11.9224Z" fill="#17AC89"/>
<path d="M13.519 18.8535C13.8432 18.4428 16.2036 10.5225 4.15552 5.14233C14.3799 8.78183 15.4647 15.5396 15.4647 15.5396C16.028 18.1124 15.0544 20.7844 13.7743 20.4553C12.8788 20.225 13.1947 19.2641 13.519 18.8535Z" fill="#007E7D"/>
</g>
<defs>
<clipPath id="clip0_11_1887">
<rect width="24" height="24" fill="white"/>
</clipPath>
</defs>
</svg>
