<svg width="24" height="24" viewBox="0 0 24 24" fill="none" xmlns="http://www.w3.org/2000/svg">
<g clip-path="url(#clip0_11_1889)">
<path d="M2 5.65975C2 4.55518 2.89543 3.65975 4 3.65975H16C17.1046 3.65975 18 4.55518 18 5.65975V19.6597C18 20.7643 17.1046 21.6597 16 21.6597H4C2.89543 21.6597 2 20.7643 2 19.6597V5.65975Z" fill="#49B2C9"/>
<path d="M3.49982 6.65955C3.49982 5.83112 4.17139 5.15955 4.99982 5.15955H14.9998C15.8282 5.15955 16.4998 5.83112 16.4998 6.65955V18.6595C16.4998 19.488 15.8282 20.1595 14.9998 20.1595H4.99982C4.17139 20.1595 3.49982 19.488 3.49982 18.6595V6.65955Z" fill="#8AD6E7"/>
<path d="M11.768 9.27674C11.768 8.86252 11.4322 8.52674 11.018 8.52674H5.97672C5.5625 8.52674 5.22672 8.86252 5.22672 9.27674C5.22672 9.69095 5.5625 10.0267 5.97672 10.0267H11.018C11.4322 10.0267 11.768 9.69095 11.768 9.27674Z" fill="white"/>
<path d="M9.2265 11.9095C9.2265 11.4953 8.89072 11.1595 8.4765 11.1595H5.9765C5.56229 11.1595 5.2265 11.4953 5.2265 11.9095C5.2265 12.3238 5.56229 12.6595 5.9765 12.6595H8.4765C8.89072 12.6595 9.2265 12.3238 9.2265 11.9095Z" fill="white"/>
<path fill-rule="evenodd" clip-rule="evenodd" d="M11.7122 2.81724C11.8267 3.03952 12.0307 3.21055 12.2694 3.21055H13.1433C13.7044 3.21055 14.1719 3.66692 14.2185 4.26023C14.2709 4.92764 13.7745 5.50005 13.1433 5.50005H6.85686C6.22563 5.50005 5.72921 4.92764 5.78163 4.26023C5.82823 3.66692 6.29571 3.21055 6.85686 3.21055H7.73181C7.97054 3.21055 8.17455 3.03952 8.28901 2.81724C8.6307 2.15373 9.30629 1.70005 10.0006 1.70005C10.6949 1.70005 11.3705 2.15373 11.7122 2.81724Z" fill="#475E75"/>
<path d="M22 16.9998C22 19.7612 19.7614 21.9998 17 21.9998C14.2386 21.9998 12 19.7612 12 16.9998C12 14.2383 14.2386 11.9998 17 11.9998C19.7614 11.9998 22 14.2383 22 16.9998Z" fill="#01A3C7"/>
<path fill-rule="evenodd" clip-rule="evenodd" d="M19.5199 15.0414C19.8267 15.3636 19.8267 15.8859 19.5199 16.2081L16.9008 18.9581C16.594 19.2803 16.0965 19.2803 15.7897 18.9581L14.4801 17.5831C14.1733 17.2609 14.1733 16.7386 14.4801 16.4164C14.787 16.0942 15.2845 16.0942 15.5913 16.4164L16.3452 17.208L18.4087 15.0414C18.7155 14.7192 19.213 14.7192 19.5199 15.0414Z" fill="white"/>
</g>
<defs>
<clipPath id="clip0_11_1889">
<rect width="24" height="24" fill="white"/>
</clipPath>
</defs>
</svg>
