<svg width="24" height="24" viewBox="0 0 24 24" fill="none" xmlns="http://www.w3.org/2000/svg">
<g clip-path="url(#clip0_11_1923)">
<path d="M9 19H15Lnan nanL15 19C15 20.6568 13.6569 22 12 22Lnan nanLnan nanL12 22C10.3431 22 nan nan nan nanL9 19Z" fill="#F9AC18"/>
<path d="M10.926 3.27203C10.926 2.56951 11.5018 2 12.212 2C12.9222 2 13.4979 2.56951 13.4979 3.27203V3.51917C14.6647 3.74499 15.7379 4.22954 16.6538 4.90997C16.0095 5.54475 15.6101 6.42738 15.6101 7.4033C15.6101 9.33628 17.1771 10.9033 19.1101 10.9033C19.3303 10.9033 19.5458 10.8829 19.7548 10.844C19.7566 10.9125 19.7575 10.9812 19.7575 11.05V16.2852C20.4743 16.4857 20.9995 17.1376 20.9995 17.9108C20.9995 18.8436 20.235 19.5999 19.2919 19.5999H4.70709C3.76402 19.5999 2.99951 18.8436 2.99951 17.9108C2.99951 17.1373 3.52502 16.4853 4.2421 16.285V11.05C4.2421 7.1723 7.14976 3.96633 10.926 3.44912V3.27203Z" fill="#FFC01F"/>
<ellipse cx="18.8996" cy="7.40321" rx="2.1" ry="2.09999" fill="#FF7A00"/>
</g>
<defs>
<clipPath id="clip0_11_1923">
<rect width="24" height="24" fill="white"/>
</clipPath>
</defs>
</svg>
