<svg width="24" height="24" viewBox="0 0 24 24" fill="none" xmlns="http://www.w3.org/2000/svg">
<g clip-path="url(#clip0_11_2001)">
<path d="M3 4C3 2.89543 3.89543 2 5 2H15.5093L21 7.50619V20C21 21.1046 20.1046 22 19 22H5C3.89543 22 3 21.1046 3 20V4Z" fill="#A5ABB3"/>
<path fill-rule="evenodd" clip-rule="evenodd" d="M5 7C5 6.44772 5.44772 6 6 6H12C12.5523 6 13 6.44772 13 7C13 7.55228 12.5523 8 12 8H6C5.44772 8 5 7.55228 5 7ZM5 11C5 10.4477 5.44772 10 6 10H9C9.55228 10 10 10.4477 10 11C10 11.5523 9.55228 12 9 12H6C5.44772 12 5 11.5523 5 11Z" fill="white"/>
<path d="M23 18C23 20.7614 20.7614 23 18 23C15.2386 23 13 20.7614 13 18C13 15.2386 15.2386 13 18 13C20.7614 13 23 15.2386 23 18Z" fill="#E55728"/>
<path d="M16.2099 16.2257C15.9313 16.5044 15.9294 16.9561 16.208 17.2347L16.9832 18.0098L16.2296 18.7634C15.951 19.042 15.9491 19.4938 16.2277 19.7723C16.5062 20.0509 16.958 20.049 17.2366 19.7704L17.9902 19.0168L18.7653 19.792C19.0439 20.0706 19.4956 20.0687 19.7743 19.7901C20.0529 19.5114 20.0548 19.0597 19.7762 18.7811L19.001 18.006L19.7901 17.2169C20.0687 16.9383 20.0706 16.4866 19.792 16.208C19.5134 15.9294 19.0617 15.9313 18.7831 16.2099L17.994 16.999L17.2189 16.2238C16.9403 15.9452 16.4886 15.9471 16.2099 16.2257Z" fill="white"/>
<path d="M21 7.5H16.5C15.9477 7.5 15.5 7.05228 15.5 6.5V2L21 7.5Z" fill="#707E8D"/>
</g>
<defs>
<clipPath id="clip0_11_2001">
<rect width="24" height="24" fill="white"/>
</clipPath>
</defs>
</svg>
