<svg width="24" height="24" viewBox="0 0 24 24" fill="none" xmlns="http://www.w3.org/2000/svg">
<g clip-path="url(#clip0_11_1862)">
<path d="M4.38869 3.02117C4.38869 2.35843 4.92595 1.82117 5.58869 1.82117H20.4002C21.0629 1.82117 21.6002 2.35843 21.6002 3.02117V19.7789C21.6002 21.1044 20.5256 22.1789 19.2002 22.1789H6.78869C5.4632 22.1789 4.38869 21.1044 4.38869 19.7789V3.02117Z" fill="#A6C8FF"/>
<path d="M2.39986 19.5903V17.4004H9.78349H17.3905V20.2569C17.3905 21.3186 18.0278 22.1793 19.0896 22.1793L4.98902 22.1794C3.55906 22.1794 2.39986 21.0202 2.39986 19.5903Z" fill="#4D74FB"/>
<path d="M7.9035 11.3329C7.48929 11.3329 7.1535 11.6687 7.1535 12.0829C7.1535 12.4972 7.48929 12.8329 7.9035 12.8329H16.4104C16.8246 12.8329 17.1604 12.4972 17.1604 12.0829C17.1604 11.6687 16.8246 11.3329 16.4104 11.3329L7.9035 11.3329Z" fill="#6A9FF5"/>
<path d="M7.9035 13.9316C7.48929 13.9316 7.1535 14.2674 7.1535 14.6816C7.1535 15.0958 7.48929 15.4316 7.9035 15.4316L12.7838 15.4316C13.198 15.4316 13.5338 15.0958 13.5338 14.6816C13.5338 14.2674 13.198 13.9316 12.7838 13.9316H7.9035Z" fill="#6A9FF5"/>
<path d="M10.7706 5.03056C11.0525 4.93299 11.3573 5.09089 11.4514 5.38324L11.9672 6.98597L12.483 5.38324C12.5563 5.15547 12.7619 5.00186 12.9935 5.00186C13.2251 5.00186 13.4306 5.15547 13.504 5.38324L14.0198 6.98597L14.5356 5.38324C14.6297 5.09089 14.9345 4.93299 15.2164 5.03056C15.4983 5.12813 15.6506 5.44422 15.5565 5.73657L15.3938 6.24215H15.6851C15.9823 6.24215 16.2232 6.49199 16.2232 6.80019C16.2232 7.10839 15.9823 7.35824 15.6851 7.35824H15.0346L14.5302 8.92538C14.4569 9.15316 14.2513 9.30676 14.0198 9.30676C13.7882 9.30676 13.5826 9.15316 13.5093 8.92538L12.9935 7.32265L12.4777 8.92538C12.4044 9.15316 12.1988 9.30676 11.9672 9.30676C11.7357 9.30676 11.5301 9.15316 11.4568 8.92538L10.9524 7.35824H10.3038C10.0066 7.35824 9.76562 7.10839 9.76562 6.80019C9.76562 6.49199 10.0066 6.24215 10.3038 6.24215H10.5932L10.4305 5.73657C10.3364 5.44422 10.4887 5.12813 10.7706 5.03056Z" fill="white"/>
</g>
<defs>
<clipPath id="clip0_11_1862">
<rect width="24" height="24" fill="white"/>
</clipPath>
</defs>
</svg>
