<svg width="24" height="24" viewBox="0 0 24 24" fill="none" xmlns="http://www.w3.org/2000/svg">
<g clip-path="url(#clip0_11_2008)">
<path d="M11.9999 4.5C10.5165 4.5 9.06644 4.93987 7.83307 5.76398C6.5997 6.58809 5.63841 7.75943 5.07075 9.12987C4.5031 10.5003 4.35457 12.0083 4.64396 13.4632C4.93335 14.918 5.64766 16.2544 6.69655 17.3033C7.74544 18.3522 9.08182 19.0665 10.5367 19.3559C11.9915 19.6453 13.4995 19.4968 14.87 18.9291C16.2404 18.3614 17.4118 17.4001 18.2359 16.1668C19.06 14.9334 19.4998 13.4834 19.4998 12C19.4976 10.0116 18.7067 8.1052 17.3007 6.69916C15.8946 5.29312 13.9883 4.50223 11.9999 4.5Z" fill="#4F79FF"/>
<path d="M3.34233 5.89321C3.34233 6.26393 3.04181 6.56445 2.67109 6.56445C2.30037 6.56445 1.99985 6.26393 1.99985 5.89321V3.34249C1.99985 2.60105 2.6009 2 3.34233 2H5.89306C6.26377 2 6.5643 2.30053 6.5643 2.67124C6.5643 3.04196 6.26377 3.34249 5.89306 3.34249H4.01358C3.64286 3.34249 3.34233 3.64301 3.34233 4.01373V5.89321Z" fill="#87AEF8"/>
<path d="M3.34233 18.1068C3.34233 17.7361 3.04181 17.4355 2.67109 17.4355C2.30037 17.4355 1.99985 17.7361 1.99985 18.1068V20.6575C1.99985 21.3989 2.6009 22 3.34233 22H5.89306C6.26377 22 6.5643 21.6995 6.5643 21.3288C6.5643 20.958 6.26377 20.6575 5.89306 20.6575H4.01358C3.64286 20.6575 3.34233 20.357 3.34233 19.9863V18.1068Z" fill="#87AEF8"/>
<path d="M21.3286 6.56445C20.9579 6.56445 20.6574 6.26393 20.6574 5.89321V4.01373C20.6574 3.64301 20.3568 3.34249 19.9861 3.34249H18.1066C17.7359 3.34249 17.4354 3.04196 17.4354 2.67124C17.4354 2.30053 17.7359 2 18.1066 2H20.6574C21.3988 2 21.9998 2.60105 21.9998 3.34249V5.89321C21.9998 6.26393 21.6993 6.56445 21.3286 6.56445Z" fill="#87AEF8"/>
<path d="M20.6574 18.1068C20.6574 17.7361 20.9579 17.4355 21.3286 17.4355C21.6993 17.4355 21.9998 17.7361 21.9998 18.1068V20.6575C21.9998 21.3989 21.3988 22 20.6574 22H18.1066C17.7359 22 17.4354 21.6995 17.4354 21.3288C17.4354 20.958 17.7359 20.6575 18.1066 20.6575H19.9861C20.3568 20.6575 20.6574 20.357 20.6574 19.9863V18.1068Z" fill="#87AEF8"/>
<path fill-rule="evenodd" clip-rule="evenodd" d="M9.02338 9.52051H7.5V13.423H8.30728V12.152H9.00629C9.90094 12.152 10.4157 11.6147 10.4157 10.8391C10.4157 10.0674 9.90854 9.52051 9.02338 9.52051ZM8.87522 11.4984H8.30728V10.1855H8.87332C9.35389 10.1855 9.58563 10.4466 9.58563 10.8391C9.58563 11.2297 9.35389 11.4984 8.87522 11.4984Z" fill="white"/>
<path fill-rule="evenodd" clip-rule="evenodd" d="M12.0611 10.458C12.6974 10.458 13.2977 10.7457 13.2977 11.4508V13.423H12.5436V13.0171H12.5208C12.3802 13.2877 12.101 13.4782 11.6679 13.4782C11.1114 13.4782 10.6973 13.1829 10.6973 12.6055C10.6973 11.95 11.2215 11.7385 11.7819 11.7023C11.9889 11.689 12.384 11.6718 12.5056 11.668V11.4317C12.5037 11.184 12.3365 11.043 12.0421 11.043C11.7686 11.043 11.5976 11.1669 11.5539 11.3669H10.7998C10.8454 10.8582 11.2861 10.458 12.0611 10.458ZM11.8939 12.9237C12.2567 12.9237 12.5113 12.6855 12.5094 12.3768V12.1634C12.3916 12.1691 12.0478 12.1882 11.911 12.2015C11.6337 12.2244 11.459 12.3559 11.459 12.5807C11.459 12.8075 11.6394 12.9237 11.8939 12.9237Z" fill="white"/>
<path d="M14.2624 14.5205C14.1086 14.5205 13.9623 14.5167 13.8578 14.5072L13.8597 13.886C13.9604 13.8936 14.082 13.8955 14.1808 13.8955C14.3403 13.8955 14.4676 13.8822 14.5644 13.6287L14.61 13.5049L13.5615 10.4961H14.3992L15.0108 12.6531H15.0412L15.6585 10.4961H16.5L15.3622 13.745C15.197 14.2175 14.8779 14.5205 14.2624 14.5205Z" fill="white"/>
</g>
<defs>
<clipPath id="clip0_11_2008">
<rect width="24" height="24" fill="white"/>
</clipPath>
</defs>
</svg>
