<svg width="24" height="24" viewBox="0 0 24 24" fill="none" xmlns="http://www.w3.org/2000/svg">
<g clip-path="url(#clip0_11_1951)">
<path d="M4.00024 3.90372C4.00024 2.85175 4.93298 1.99896 6.08357 1.99896L16.9169 1.99896C18.0675 1.99896 19.0002 2.85175 19.0002 3.90372L19.0003 20.0942C19.0003 21.1462 18.0675 21.999 16.9169 21.999H6.08362C4.93302 21.999 4.00028 21.1462 4.00028 20.0942L4.00024 3.90372Z" fill="#91AAFF"/>
<path d="M6.00024 1.99869L8.00024 1.99869L7.97683 21.9847L6.00027 21.9997L6.00024 1.99869Z" fill="#7A96F4"/>
<path d="M16.5002 7.61904C16.5002 7.82925 16.3166 7.99966 16.09 7.99966L14.4105 7.99966C14.1839 7.99966 14.0002 7.82925 14.0002 7.61904L14.0002 4.88029C14.0002 4.67008 14.1839 4.49967 14.4105 4.49967L16.09 4.49966C16.3166 4.49966 16.5002 4.67008 16.5002 4.88029L16.5002 7.61904Z" fill="white"/>
<path d="M22.0002 15.5C22.0002 17.9853 19.9855 20 17.5002 20C15.015 20 13.0002 17.9853 13.0002 15.5C13.0002 13.0147 15.015 11 17.5002 11C19.9855 11 22.0002 13.0147 22.0002 15.5Z" fill="#4F79FF"/>
<path d="M16.1841 16.3905C16.1547 16.4307 16.1177 16.4647 16.0752 16.4905C16.0326 16.5164 15.9854 16.5336 15.9362 16.5411C15.887 16.5487 15.8367 16.5465 15.7884 16.5346C15.74 16.5227 15.6945 16.5014 15.6544 16.4719C15.6143 16.4424 15.5804 16.4053 15.5547 16.3626C15.529 16.32 15.5119 16.2727 15.5045 16.2235C15.4971 16.1743 15.4994 16.1241 15.5114 16.0758C15.5234 16.0274 15.5449 15.982 15.5745 15.9419C15.667 15.8133 15.7167 15.6589 15.7167 15.5004C15.7167 15.342 15.667 15.1875 15.5745 15.0589C15.5152 14.978 15.4904 14.8769 15.5055 14.7778C15.5207 14.6787 15.5746 14.5896 15.6553 14.5302C15.7361 14.4708 15.8372 14.4458 15.9363 14.4608C16.0355 14.4759 16.1246 14.5296 16.1841 14.6103C16.3722 14.869 16.4734 15.1806 16.4734 15.5004C16.4734 15.8202 16.3722 16.1318 16.1841 16.3905ZM17.4056 17.2802C17.346 17.3608 17.2567 17.4144 17.1576 17.4292C17.0584 17.444 16.9574 17.4189 16.8768 17.3593C16.7961 17.2997 16.7424 17.2106 16.7275 17.1114C16.7126 17.0123 16.7376 16.9113 16.7971 16.8305C17.0785 16.4441 17.2301 15.9784 17.2301 15.5004C17.2301 15.0224 17.0785 14.5567 16.7971 14.1703C16.7376 14.0896 16.7126 13.9886 16.7275 13.8894C16.7424 13.7903 16.7961 13.7011 16.8768 13.6415C16.9574 13.5819 17.0584 13.5568 17.1576 13.5716C17.2567 13.5865 17.346 13.6401 17.4056 13.7206C17.7833 14.2372 17.9868 14.8605 17.9868 15.5004C17.9868 16.1403 17.7833 16.7636 17.4056 17.2802ZM18.633 18.1714C18.5736 18.2516 18.4848 18.305 18.3861 18.3201C18.2874 18.3351 18.1868 18.3106 18.1061 18.2517C18.0254 18.1929 17.9713 18.1046 17.9555 18.006C17.9396 17.9074 17.9634 17.8066 18.0216 17.7254C18.4908 17.0785 18.7435 16.2997 18.7435 15.5004C18.7435 14.7012 18.4908 13.9224 18.0216 13.2754C17.9628 13.1943 17.9385 13.0932 17.9541 12.9942C17.9697 12.8952 18.024 12.8065 18.1049 12.7475C18.1859 12.6884 18.2869 12.6639 18.3859 12.6793C18.4849 12.6946 18.5738 12.7486 18.6331 12.8294C19.1967 13.606 19.5002 14.5409 19.5002 15.5004C19.5002 16.4599 19.1967 17.3949 18.633 18.1714Z" fill="white"/>
</g>
<defs>
<clipPath id="clip0_11_1951">
<rect width="24" height="24" fill="white"/>
</clipPath>
</defs>
</svg>
