<svg width="24" height="24" viewBox="0 0 24 24" fill="none" xmlns="http://www.w3.org/2000/svg">
<g clip-path="url(#clip0_11_1918)">
<path d="M2 19.1093C2 15.5476 4.97481 12.6603 8.64442 12.6603H12.1373C15.8069 12.6603 18.7817 15.5476 18.7817 19.1093C18.7817 19.8216 18.1867 20.3991 17.4528 20.3991H3.32888C2.59496 20.3991 2 19.8216 2 19.1093Z" fill="#9EA9B2"/>
<path d="M14.8906 6.50008C14.8906 8.98536 12.8759 11.0001 10.3906 11.0001C7.90534 11.0001 5.89062 8.98536 5.89062 6.50008C5.89062 4.0148 7.90534 2.00008 10.3906 2.00008C12.8759 2.00008 14.8906 4.0148 14.8906 6.50008Z" fill="#BFC5CB"/>
<path fill-rule="evenodd" clip-rule="evenodd" d="M16.8606 21.9528C16.9248 21.9845 16.9967 22.0005 17.0685 22.0001C17.1403 21.9995 17.2116 21.9829 17.2764 21.9507L19.3965 20.9074C19.9835 20.6123 20.4431 20.2825 20.8018 19.8984C21.5815 19.0616 22.0073 17.9936 21.9997 16.8924L21.9752 13.2599C21.9728 12.8415 21.6814 12.4682 21.2504 12.3325L17.427 11.1138C17.1951 11.0398 16.941 11.0414 16.7133 11.1176L12.8498 12.3797C12.4211 12.5208 12.1349 12.8968 12.1372 13.3157L12.1618 16.9455C12.1694 18.0483 12.6097 19.1115 13.4023 19.9397C13.7644 20.3184 14.2282 20.6435 14.8216 20.9337L16.8606 21.9528Z" fill="#4F79FF"/>
<path d="M17.0689 15.1268C17.2956 14.6658 18.3534 14.188 19.0334 15.0332C19.4041 15.4939 19.4112 16.3394 19.0334 16.8772C18.5176 17.8062 17.2934 18.4907 17.0689 18.4907C16.8444 18.4907 15.6202 17.8062 15.1044 16.8772C14.7266 16.3394 14.7337 15.4939 15.1044 15.0332C15.7844 14.188 16.8422 14.6658 17.0689 15.1268Z" fill="white"/>
</g>
<defs>
<clipPath id="clip0_11_1918">
<rect width="24" height="24" fill="white"/>
</clipPath>
</defs>
</svg>
