<svg width="24" height="24" viewBox="0 0 24 24" fill="none" xmlns="http://www.w3.org/2000/svg">
<g clip-path="url(#clip0_11_1928)">
<path d="M2 3.90476C2 2.85279 2.83574 2 3.86667 2H14.1333C15.1643 2 16 2.85279 16 3.90476V20.0952C16 21.1472 15.1643 22 14.1333 22H3.86667C2.83574 22 2 21.1472 2 20.0952V3.90476Z" fill="#90A6C6"/>
<path d="M6 4.25C6 4.66421 6.33579 5 6.75 5H11.25C11.6642 5 12 4.66421 12 4.25V4.25C12 3.83579 11.6642 3.5 11.25 3.5H6.75C6.33579 3.5 6 3.83579 6 4.25V4.25Z" fill="#4F6E9D"/>
<path fill-rule="evenodd" clip-rule="evenodd" d="M16.747 22.4412C16.8252 22.4806 16.9126 22.5006 17 22.5C17.0874 22.4993 17.1741 22.4786 17.253 22.4384L19.8326 21.1381C20.5467 20.7704 21.106 20.3593 21.5424 19.8805C22.4911 18.8376 23.0091 17.5065 22.9999 16.1339L22.97 11.6064C22.9672 11.0849 22.6126 10.6196 22.0882 10.4505L17.4362 8.93153C17.1541 8.83927 16.8449 8.84127 16.5678 8.93621L11.867 10.5093C11.3454 10.6851 10.9972 11.1538 11 11.6759L11.0299 16.2001C11.0391 17.5746 11.5749 18.8998 12.5393 19.9321C12.9799 20.4041 13.5441 20.8092 14.2661 21.1709L16.747 22.4412Z" fill="#1B6CCC"/>
<path fill-rule="evenodd" clip-rule="evenodd" d="M19.7489 13.5452C20.0837 13.8967 20.0837 14.4665 19.7489 14.818L16.8918 17.818C16.5571 18.1695 16.0144 18.1695 15.6796 17.818L14.2511 16.318C13.9163 15.9665 13.9163 15.3967 14.2511 15.0452C14.5858 14.6937 15.1285 14.6937 15.4632 15.0452L16.2857 15.9088L18.5368 13.5452C18.8715 13.1937 19.4142 13.1937 19.7489 13.5452Z" fill="white"/>
</g>
<defs>
<clipPath id="clip0_11_1928">
<rect width="24" height="24" fill="white"/>
</clipPath>
</defs>
</svg>
