<svg width="24" height="24" viewBox="0 0 24 24" fill="none" xmlns="http://www.w3.org/2000/svg">
<g clip-path="url(#clip0_11_1935)">
<path fill-rule="evenodd" clip-rule="evenodd" d="M9.61282 19.589C8.77036 19.816 7.90452 19.3137 7.67892 18.4671L4.4111 6.20427C4.18551 5.3577 4.68558 4.48741 5.52805 4.26043L12.3924 2.41099C13.2349 2.18401 14.1007 2.68628 14.3263 3.53286L17.5941 15.7957C17.8197 16.6423 17.3197 17.5126 16.4772 17.7396L9.61282 19.589Z" fill="#429960"/>
<path fill-rule="evenodd" clip-rule="evenodd" d="M8.47872 18.1416C7.6065 18.1416 6.89941 17.4311 6.89941 16.5547L6.89941 3.85988C6.89941 2.98349 7.6065 2.27302 8.47872 2.27302H15.5856C16.4579 2.27302 17.1649 2.98349 17.1649 3.85988V16.5547C17.1649 17.4311 16.4579 18.1416 15.5856 18.1416H8.47872Z" fill="#56AC73"/>
<path fill-rule="evenodd" clip-rule="evenodd" d="M9.58065 17.1737C9.58065 16.1764 8.78033 15.3679 7.7931 15.3679C7.75814 15.3679 7.72342 15.3689 7.68896 15.3709L7.68896 5.13167C7.72337 5.13367 7.75804 5.13468 7.79294 5.13468C8.78017 5.13468 9.58049 4.32622 9.58049 3.32894C9.58049 3.23961 9.57407 3.15179 9.56166 3.06594H14.3669C14.3545 3.15179 14.3481 3.23961 14.3481 3.32894C14.3481 4.32622 15.1484 5.13468 16.1357 5.13468C16.2169 5.13468 16.2968 5.12921 16.3752 5.11861V15.3841C16.2966 15.3734 16.2164 15.3679 16.135 15.3679C15.1478 15.3679 14.3474 16.1764 14.3474 17.1737C14.3474 17.2324 14.3502 17.2904 14.3556 17.3477L9.57246 17.3477C9.57788 17.2904 9.58065 17.2324 9.58065 17.1737Z" fill="#8CE19E"/>
<g opacity="0.8">
<path d="M12.0323 7.82635C13.3406 7.82635 14.4013 8.89204 14.4013 10.2066C14.4013 11.5212 13.3406 12.5869 12.0323 12.5869C10.724 12.5869 9.66333 11.5212 9.66333 10.2066C9.66333 8.89204 10.724 7.82635 12.0323 7.82635Z" fill="#56AC73"/>
<path d="M12.0318 4.48346C12.468 4.48346 12.8215 4.83869 12.8215 5.27689C12.8215 5.71509 12.468 6.07032 12.0318 6.07032C11.5957 6.07032 11.2422 5.71509 11.2422 5.27689C11.2422 4.83869 11.5957 4.48346 12.0318 4.48346Z" fill="#56AC73"/>
<path d="M12.8215 15.1392C12.8215 14.701 12.468 14.3458 12.0318 14.3458C11.5957 14.3458 11.2422 14.701 11.2422 15.1392C11.2422 15.5774 11.5957 15.9326 12.0318 15.9326C12.468 15.9326 12.8215 15.5774 12.8215 15.1392Z" fill="#56AC73"/>
</g>
<path d="M6 12.8538C6 11.83 6.81711 11 7.82507 11H18.1749C19.1829 11 20 11.83 20 12.8538V20.1462C20 21.17 19.1829 22 18.1749 22H7.82507C6.81711 22 6 21.17 6 20.1462V12.8538Z" fill="#4C372F"/>
<path d="M4 12.8538C4 11.83 4.81711 11 5.82507 11H16.1749C17.1829 11 18 11.83 18 12.8538V20.1462C18 21.17 17.1829 22 16.1749 22H5.82507C4.81711 22 4 21.17 4 20.1462V12.8538Z" fill="#CF9C55"/>
<path fill-rule="evenodd" clip-rule="evenodd" d="M16.0489 14.709C14.9173 14.709 14 15.6044 14 16.709C14 17.8136 14.9173 18.709 16.0489 18.709H17.1845H18.1624H20.1644C20.6259 18.709 21 18.3438 21 17.8933V15.5247C21 15.0742 20.6259 14.709 20.1644 14.709H18.1624H17.1845H16.0489Z" fill="#896336"/>
<path d="M17 16.709C17 17.2613 16.5523 17.709 16 17.709C15.4477 17.709 15 17.2613 15 16.709C15 16.1567 15.4477 15.709 16 15.709C16.5523 15.709 17 16.1567 17 16.709Z" fill="#FFF4D5"/>
</g>
<defs>
<clipPath id="clip0_11_1935">
<rect width="24" height="24" fill="white"/>
</clipPath>
</defs>
</svg>
