<svg width="24" height="24" viewBox="0 0 24 24" fill="none" xmlns="http://www.w3.org/2000/svg">
<path d="M11.6309 16.5579C13.7212 16.5579 15.4157 14.8633 15.4157 12.773H21.093C21.093 14.0156 20.8483 15.246 20.3727 16.394C19.8972 17.542 19.2002 18.5851 18.3216 19.4638C17.443 20.3424 16.3999 21.0394 15.2519 21.5149C14.1039 21.9904 12.8734 22.2351 11.6309 22.2351V16.5579Z" fill="#ABCD40"/>
<path d="M2.88823 9.15199C2.41271 10.3 2.16797 11.5304 2.16797 12.773H7.84525C7.84525 10.6827 9.53979 8.98813 11.6301 8.98813V3.31085C10.3875 3.31085 9.15711 3.5556 8.00911 4.03111C6.86111 4.50663 5.81801 5.20361 4.93937 6.08225C4.06072 6.96089 3.36375 8.00399 2.88823 9.15199Z" fill="#2684FE"/>
<path d="M7.84525 12.773H2.16797C2.16797 14.0156 2.41271 15.246 2.88823 16.394C3.36375 17.542 4.06072 18.5851 4.93937 19.4638C5.81801 20.3424 6.8611 21.0394 8.0091 21.5149C9.1571 21.9904 10.3875 22.2351 11.6301 22.2351V16.5579C9.53979 16.5579 7.84525 14.8633 7.84525 12.773Z" fill="#F9DA49"/>
<path d="M17.0365 2.1724C15.7908 1.66985 14.4557 1.41119 13.1074 1.41119V7.41119C15.3756 7.41119 17.2143 9.20205 17.2143 11.4112H23.3746C23.3746 10.098 23.109 8.79761 22.593 7.58436C22.0771 6.3711 21.3208 5.26871 20.3674 4.34012C19.414 3.41154 18.2822 2.67494 17.0365 2.1724Z" fill="#51B3DC"/>
</svg>
