<svg width="24" height="24" viewBox="0 0 24 24" fill="none" xmlns="http://www.w3.org/2000/svg">
<g clip-path="url(#clip0_11_2020)">
<path d="M13.6327 3.83691C13.6327 3.28463 13.185 2.83691 12.6327 2.83691H8.72013C7.97675 2.83691 7.49326 3.61923 7.82571 4.28413L8.45836 5.54943C8.62775 5.88822 8.97401 6.10222 9.35278 6.10222H12.6327C13.185 6.10222 13.6327 5.6545 13.6327 5.10222V3.83691Z" fill="#ACA5F8"/>
<path d="M11.0001 3C11.0001 2.44772 11.4478 2 12.0001 2H15.6343C16.3448 2 16.8286 2.72011 16.5601 3.3779L15.4899 6H11.0001V3Z" fill="#8C80EC"/>
<path fill-rule="evenodd" clip-rule="evenodd" d="M11.3437 6.49005C7.61026 6.49005 4.44121 9.24008 3.89802 12.9512L2.92682 19.5866C2.3947 19.718 2 20.2006 2 20.7758C2 21.452 2.54565 22.0003 3.21874 22.0003H20.2812C20.9543 22.0003 21.4999 21.452 21.4999 20.7758C21.4999 20.2006 21.1052 19.718 20.5731 19.5866L19.7201 13.7589C19.109 9.58383 15.5438 6.49005 11.3437 6.49005Z" fill="#887EF9"/>
<path d="M7.5 6.67383C7.5 6.12154 7.86631 5.67383 8.31818 5.67383H15.6818C16.1337 5.67383 16.5 6.12154 16.5 6.67383V6.67383C16.5 7.22611 16.1337 7.67383 15.6818 7.67383H8.31818C7.86631 7.67383 7.5 7.22611 7.5 6.67383V6.67383Z" fill="#6B5ECA"/>
<path fill-rule="evenodd" clip-rule="evenodd" d="M12.4258 12.5577C12.3085 12.2132 11.9714 11.9924 11.6058 12.0002C11.2402 12.008 10.9132 12.2432 10.8123 12.593L10.2546 14.526L9.61103 12.5658C9.4694 12.1344 8.99461 11.9075 8.55971 12.0356C8.12096 12.1649 7.85992 12.6156 8.00328 13.0523L8.25769 13.8272L7.84286 13.8272C7.38769 13.8272 7 14.1793 7 14.6362C7 15.093 7.38769 15.4452 7.84286 15.4452L8.7889 15.4452L9.50285 17.6198C9.61686 17.967 9.95403 18.1915 10.3212 18.1854C10.6884 18.1794 11.0176 17.9438 11.119 17.5926L11.6911 15.6099L12.3778 17.6278C12.4941 17.9697 12.8272 18.1901 13.19 18.1855C13.5529 18.1809 13.8801 17.9521 13.9869 17.6071L14.6561 15.4452L15.5571 15.4452C16.0123 15.4452 16.4 15.093 16.4 14.6362C16.4 14.1793 16.0123 13.8272 15.5571 13.8272L15.157 13.8272L15.4008 13.0395C15.5367 12.6006 15.2679 12.1543 14.8273 12.0319C14.3904 11.9105 13.9192 12.1446 13.7849 12.5785L13.1409 14.6591L12.4258 12.5577Z" fill="white"/>
</g>
<defs>
<clipPath id="clip0_11_2020">
<rect width="24" height="24" fill="white"/>
</clipPath>
</defs>
</svg>
