<svg width="24" height="24" viewBox="0 0 24 24" fill="none" xmlns="http://www.w3.org/2000/svg">
<path d="M13.3351 3.79077C13.3351 3.25264 12.8989 2.81641 12.3607 2.81641H8.54848C7.82416 2.81641 7.35306 3.57866 7.67699 4.22652L8.29342 5.45939C8.45847 5.78948 8.79585 5.998 9.16491 5.998H12.3607C12.8989 5.998 13.3351 5.56176 13.3351 5.02364V3.79077Z" fill="#AAE3F4"/>
<path d="M10.7695 2.97436C10.7695 2.43624 11.2058 2 11.7439 2H15.2849C15.9771 2 16.4486 2.70165 16.187 3.34257L15.1442 5.89745H10.7695V2.97436Z" fill="#6AC7DC"/>
<path fill-rule="evenodd" clip-rule="evenodd" d="M11.1043 6.375C7.46657 6.375 4.37877 9.05452 3.8495 12.6705L2.9032 19.1358C2.38472 19.2638 2.00014 19.734 2.00014 20.2945C2.00014 20.9534 2.5318 21.4876 3.18764 21.4876H19.8126C20.4685 21.4876 21.0001 20.9534 21.0001 20.2945C21.0001 19.734 20.6155 19.2638 20.0971 19.1358L19.2659 13.4575C18.6705 9.38946 15.1967 6.375 11.1043 6.375Z" fill="#6AC7DC"/>
<path d="M7.35938 6.55249C7.35938 6.01436 7.71629 5.57812 8.15658 5.57812H15.3314C15.7717 5.57812 16.1286 6.01436 16.1286 6.55249V6.55249C16.1286 7.09061 15.7717 7.52685 15.3314 7.52685H8.15658C7.7163 7.52685 7.35938 7.09061 7.35938 6.55249V6.55249Z" fill="#3897AC"/>
<path d="M22 18C22 20.7614 19.7614 23 17 23C14.2386 23 12 20.7614 12 18C12 15.2386 14.2386 13 17 13C19.7614 13 22 15.2386 22 18Z" fill="#17859E"/>
<path d="M17.0764 15.3225C18.555 15.3225 19.753 16.5206 19.753 17.9992L19.753 18.0555L20.0072 17.8013C20.1887 17.6198 20.4822 17.6198 20.6637 17.8013C20.8452 17.9828 20.8452 18.2763 20.6637 18.4578L19.6208 19.5006C19.4393 19.6821 19.1458 19.6821 18.9643 19.5006L17.9214 18.4578C17.7399 18.2763 17.7399 17.9828 17.9214 17.8013C18.1029 17.6198 18.3964 17.6198 18.5779 17.8013L18.8247 18.0481L18.8247 17.9983C18.8247 17.0326 18.0421 16.25 17.0764 16.25C16.1107 16.25 15.3281 17.0326 15.3281 17.9983C15.3281 18.9641 16.1107 19.7467 17.0764 19.7467C17.3328 19.7467 17.541 19.9548 17.541 20.2112C17.541 20.4676 17.3328 20.6758 17.0764 20.6758C15.5979 20.6758 14.3998 19.4777 14.3998 17.9992C14.3998 16.5206 15.5979 15.3225 17.0764 15.3225Z" fill="white"/>
</svg>
