<svg width="24" height="24" viewBox="0 0 24 24" fill="none" xmlns="http://www.w3.org/2000/svg">
<g clip-path="url(#clip0_11_1865)">
<path fill-rule="evenodd" clip-rule="evenodd" d="M12.4091 8.09082C10.702 8.09082 9.31819 9.47467 9.31819 11.1817L9.31819 11.2083C9.31821 12.1808 9.31823 13.2438 9.03909 14.5111C8.75646 15.7942 8.19948 17.2422 7.13466 19.0524C6.85464 19.5284 6.24174 19.6873 5.76571 19.4073C5.28967 19.1273 5.13077 18.5144 5.41079 18.0384C6.39143 16.3713 6.85718 15.1193 7.08591 14.0808C7.31559 13.0381 7.31819 12.1657 7.31819 11.1817C7.31819 8.3701 9.59747 6.09082 12.4091 6.09082C15.2207 6.09082 17.5 8.3701 17.5 11.1817C17.5 11.8844 17.4315 12.9305 17.2222 14.2072C17.1329 14.7522 16.6186 15.1216 16.0736 15.0322C15.5286 14.9429 15.1592 14.4286 15.2486 13.8836C15.4419 12.7042 15.5 11.7665 15.5 11.1817C15.5 9.47467 14.1162 8.09082 12.4091 8.09082Z" fill="#2589F4"/>
<path fill-rule="evenodd" clip-rule="evenodd" d="M15.8656 15.9475C16.3967 16.0993 16.7042 16.6528 16.5524 17.1838C16.1751 18.5046 15.6562 19.9434 14.9483 21.4299C14.7109 21.9286 14.1141 22.1403 13.6155 21.9028C13.1169 21.6654 12.9051 21.0687 13.1426 20.5701C13.7984 19.1929 14.2795 17.859 14.6294 16.6343C14.7811 16.1033 15.3346 15.7958 15.8656 15.9475Z" fill="#2589F4"/>
<path fill-rule="evenodd" clip-rule="evenodd" d="M12.4092 4C8.44278 4 5.22737 7.21542 5.22737 11.1818C5.22737 13.7534 4.66095 15.5068 4.27743 16.178C4.00342 16.6575 3.39256 16.8241 2.91304 16.5501C2.43353 16.2761 2.26693 15.6652 2.54094 15.1857C2.70288 14.9023 3.22737 13.5193 3.22737 11.1818C3.22737 6.11085 7.33821 2 12.4092 2C17.4802 2 21.591 6.11085 21.591 11.1818C21.591 13.9529 20.7362 17.2463 20.3216 18.6283C20.1629 19.1573 19.6054 19.4575 19.0764 19.2988C18.5474 19.1401 18.2472 18.5826 18.4059 18.0536C18.8095 16.7083 19.591 13.6471 19.591 11.1818C19.591 7.21542 16.3756 4 12.4092 4Z" fill="#2589F4"/>
<path fill-rule="evenodd" clip-rule="evenodd" d="M12.3302 9.77584C12.8807 9.73227 13.3624 10.1433 13.406 10.6938L12.4091 10.7727C13.406 10.6938 13.406 10.6937 13.406 10.6938L13.4062 10.6974L13.4067 10.7033L13.4081 10.7225C13.4092 10.7384 13.4106 10.7606 13.4123 10.7887C13.4157 10.845 13.4199 10.9251 13.4237 11.0265C13.4314 11.2291 13.4376 11.5174 13.4328 11.8706C13.4232 12.575 13.3694 13.5479 13.1909 14.6189C12.7477 17.2784 11.6355 19.2586 10.3775 21.1456C10.0711 21.6052 9.45027 21.7293 8.99074 21.423C8.53121 21.1166 8.40704 20.4958 8.71339 20.0362C9.90989 18.2415 10.8432 16.5399 11.2181 14.2902C11.3759 13.3436 11.4244 12.4755 11.433 11.8434C11.4373 11.5284 11.4316 11.2745 11.4251 11.1021C11.4219 11.0159 11.4184 10.9503 11.4159 10.9076L11.4129 10.8613L11.4122 10.8518C11.4122 10.8517 11.4122 10.8519 11.4122 10.8518M12.3302 9.77584C11.7797 9.81941 11.3688 10.3013 11.4122 10.8518Z" fill="#2589F4"/>
</g>
<defs>
<clipPath id="clip0_11_1865">
<rect width="24" height="24" fill="white"/>
</clipPath>
</defs>
</svg>
