<svg width="24" height="24" viewBox="0 0 24 24" fill="none" xmlns="http://www.w3.org/2000/svg">
<g clip-path="url(#clip0_11_2007)">
<path d="M2.00074 5.00008C2.0008 3.34328 3.34394 2.00024 5.00071 2.0003L15.0002 2.0007C16.657 2.00076 18 3.34392 18 5.00072L17.9995 18.0003C17.9994 19.6571 16.6563 21.0001 14.9995 21.0001L4.99996 20.9997C3.34318 20.9996 2.00015 19.6564 2.00022 17.9997L2.00074 5.00008Z" fill="#64BFD4"/>
<path opacity="0.9" fill-rule="evenodd" clip-rule="evenodd" d="M4.99907 10.9993C4.99975 10.4471 5.4646 10 6.03733 10.0007L9.9632 10.0055C10.5359 10.0063 10.9997 10.4545 10.999 11.0067C10.9983 11.5589 10.5335 12.006 9.96074 12.0053L6.03486 12.0005C5.46213 11.9998 4.99839 11.5515 4.99907 10.9993Z" fill="white"/>
<path opacity="0.9" fill-rule="evenodd" clip-rule="evenodd" d="M5.00151 6.9999C5.00219 6.44772 5.46703 6.00065 6.03977 6.00136L12.9656 6.00631C13.5384 6.00701 14.0021 6.45522 14.0014 7.00741C14.0007 7.5596 13.5359 8.00666 12.9632 8.00595L6.03731 8.001C5.46457 8.0003 5.00083 7.55209 5.00151 6.9999Z" fill="white"/>
<ellipse cx="17.0001" cy="16.5005" rx="1.99992" ry="1.99992" fill="white"/>
<ellipse cx="17.0002" cy="17.0002" rx="4.9998" ry="4.9998" fill="#4399AD"/>
<path d="M18.708 16.2327L19.3336 15.8326C19.3941 15.795 19.4178 15.7138 19.3862 15.6442C18.9315 14.6702 18.0115 14.0006 16.9521 14.0005C15.9505 14.0005 15.0751 14.5947 14.5993 15.4817L14.2444 15.2933C14.1209 15.2266 13.9815 15.3396 14.0026 15.4875L14.2233 17.1746C14.2417 17.305 14.3731 17.3746 14.4757 17.3079L15.8137 16.4557C15.932 16.3804 15.9241 16.192 15.8032 16.1253L15.4878 15.9571C15.8006 15.4325 16.3422 15.0846 16.952 15.0847C17.6408 15.0847 18.2401 15.5282 18.5266 16.166C18.5608 16.2413 18.6423 16.2732 18.708 16.2327Z" fill="white"/>
<path d="M19.4012 18.5191L19.7561 18.7076C19.8796 18.7742 20.019 18.6612 19.9979 18.5133L19.7772 16.8262C19.7588 16.6958 19.6274 16.6262 19.5248 16.6929L18.1868 17.5451C18.0685 17.6204 18.0764 17.8089 18.1973 17.8755L18.5127 18.0437C18.1999 18.5683 17.6583 18.9162 17.0485 18.9162C16.3597 18.9161 15.7604 18.4726 15.4739 17.8349C15.4397 17.7595 15.3582 17.7276 15.2925 17.7682L14.6669 18.1682C14.6064 18.2059 14.5827 18.287 14.6143 18.3566C15.069 19.3306 15.989 20.0003 17.0484 20.0003C18.05 20.0003 18.9254 19.4061 19.4012 18.5191Z" fill="white"/>
</g>
<defs>
<clipPath id="clip0_11_2007">
<rect width="24" height="24" fill="white"/>
</clipPath>
</defs>
</svg>
