<svg width="24" height="24" viewBox="0 0 24 24" fill="none" xmlns="http://www.w3.org/2000/svg">
<g clip-path="url(#clip0_11_2030)">
<path d="M2 6C2 4.89543 2.89543 4 4 4H20C21.1046 4 22 4.89543 22 6V18C22 19.1046 21.1046 20 20 20H4C2.89543 20 2 19.1046 2 18V6Z" fill="#90D0FF"/>
<path opacity="0.4" d="M4 10C4 9.44772 4.44772 9 5 9H8C8.55228 9 9 9.44772 9 10C9 10.5523 8.55228 11 8 11H5C4.44772 11 4 10.5523 4 10Z" fill="white"/>
<path d="M2 6C2 4.89543 2.89543 4 4 4H20C21.1046 4 22 4.89543 22 6V7H2V6Z" fill="#339AFA"/>
<path d="M23 16C23 18.7614 20.7614 21 18 21C15.2386 21 13 18.7614 13 16C13 13.2386 15.2386 11 18 11C20.7614 11 23 13.2386 23 16Z" fill="#339AFA"/>
<path d="M19.7078 15.2321L20.3334 14.8321C20.3939 14.7944 20.4176 14.7132 20.386 14.6437C19.9312 13.6696 19.0111 13 17.9517 13C16.9501 13 16.0747 13.5943 15.5989 14.4813L15.244 14.2929C15.1204 14.2262 14.9811 14.3393 15.0021 14.4871L15.2229 16.1743C15.2413 16.3047 15.3728 16.3743 15.4753 16.3076L16.8134 15.4554C16.9317 15.38 16.9238 15.1916 16.8029 15.1249L16.4874 14.9567C16.8003 14.432 17.3418 14.0842 17.9517 14.0842C18.6405 14.0842 19.2398 14.5277 19.5264 15.1655C19.5606 15.2408 19.6421 15.2727 19.7078 15.2321Z" fill="white"/>
<path d="M20.4011 17.5187L20.756 17.7071C20.8796 17.7738 21.0189 17.6607 20.9979 17.5129L20.7771 15.8257C20.7587 15.6953 20.6272 15.6257 20.5247 15.6924L19.1866 16.5446C19.0683 16.62 19.0762 16.8084 19.1971 16.8751L19.5126 17.0433C19.1997 17.568 18.6582 17.9158 18.0483 17.9158C17.3595 17.9158 16.7602 17.4723 16.4736 16.8345C16.4394 16.7592 16.3579 16.7273 16.2922 16.7679L15.6666 17.1679C15.6061 17.2056 15.5824 17.2868 15.614 17.3563C16.0688 18.3304 16.9889 19 18.0483 19C19.0499 19 19.9253 18.4057 20.4011 17.5187Z" fill="white"/>
</g>
<defs>
<clipPath id="clip0_11_2030">
<rect width="24" height="24" fill="white"/>
</clipPath>
</defs>
</svg>
