<svg width="24" height="24" viewBox="0 0 24 24" fill="none" xmlns="http://www.w3.org/2000/svg">
<g clip-path="url(#clip0_11_1917)">
<path d="M20 8C20 11.3137 17.3137 14 14 14C10.6863 14 8 11.3137 8 8C8 4.68629 10.6863 2 14 2C17.3137 2 20 4.68629 20 8Z" fill="#FF7A00"/>
<path d="M16.691 5.52404C16.351 5.43257 15.9851 5.60909 15.8808 5.93523L15.253 7.89931L14.5573 5.9196C14.4663 5.66061 14.2044 5.49428 13.92 5.50016C13.6356 5.50604 13.3817 5.68317 13.3033 5.94614L12.7512 7.79914L12.1161 5.92565C12.0061 5.60137 11.6373 5.43028 11.2989 5.52684C10.9579 5.62414 10.7552 5.96317 10.8665 6.29163L11.1184 7.03447H10.6551C10.301 7.03447 10 7.29959 10 7.6431C10 7.98661 10.301 8.25173 10.6551 8.25173H11.4913C11.5045 8.25173 11.5176 8.25137 11.5307 8.25065L12.1373 10.0744C12.2258 10.3354 12.4877 10.5045 12.7733 10.4999C13.059 10.4954 13.3147 10.318 13.3933 10.0539L13.9863 8.21662L14.6302 10.0804C14.7205 10.3374 14.9792 10.5034 15.2615 10.4999C15.5438 10.4965 15.7979 10.3242 15.8808 10.0648L16.507 8.25173L16.5087 8.25173H17.3449C17.699 8.25173 18 7.98661 18 7.6431C18 7.29959 17.699 7.03447 17.3449 7.03447H16.8961L17.1366 6.28205C17.2422 5.9519 17.0335 5.61617 16.691 5.52404Z" fill="white"/>
<path fill-rule="evenodd" clip-rule="evenodd" d="M14.7054 17.6075C15.1918 17.365 15.5271 16.8466 15.5271 16.2508C15.5271 15.4194 14.8776 14.7483 14.0857 14.7483H10.297C10.2898 14.7438 10.2826 14.7393 10.2753 14.7347C9.77634 14.4212 9.10586 14 7.51099 14C6.18159 14 5.11109 14.723 4.60702 15.146H2.5V21.0968H5.11211V21.0938H5.11328L11.1516 21.9463C12.1657 22.0888 13.1969 21.9463 14.137 21.5365L21.5036 18.3117C22.552 17.8544 22.8368 16.4409 22.0506 15.5857C21.5891 15.0809 20.8769 14.9265 20.2616 15.1878L14.7054 17.6075Z" fill="#FFD084"/>
<path d="M2.338 21.3374L3.662 21.3374C3.84867 21.3374 4 21.1294 4 20.8729L4 15.1266C4 14.8701 3.84867 14.6621 3.662 14.6621L2.338 14.6621C2.15133 14.6621 2 14.8701 2 15.1266L2 20.8729C2 21.1294 2.15133 21.3374 2.338 21.3374Z" fill="#B6B1A5"/>
<path d="M14.7109 17.6284H10.8135C10.5103 17.6284 10.2622 17.4034 10.2622 17.1284C10.2622 16.8534 10.5103 16.6284 10.8135 16.6284H14.7109C15.0141 16.6284 15.2622 16.8534 15.2622 17.1284C15.2622 17.4034 15.0141 17.6284 14.7109 17.6284Z" fill="#FCB13B"/>
</g>
<defs>
<clipPath id="clip0_11_1917">
<rect width="24" height="24" fill="white"/>
</clipPath>
</defs>
</svg>
