<svg width="24" height="24" viewBox="0 0 24 24" fill="none" xmlns="http://www.w3.org/2000/svg">
<g clip-path="url(#clip0_11_1966)">
<path d="M22 12C22 17.5228 17.5228 22 12 22C6.47715 22 2 17.5228 2 12C2 6.47715 6.47715 2 12 2C17.5228 2 22 6.47715 22 12Z" fill="#FFCA54"/>
<path d="M12.0002 8.4614C11.8229 8.4614 11.671 8.54855 11.5667 8.67734C11.5004 8.7499 11.4373 8.8501 11.3871 8.98951C11.1841 9.55223 10.171 11.5001 8.15285 11.5001C6.80068 11.5001 5.75142 10.9445 5.33377 9.73755C5.09957 9.06072 5.0243 8.28225 5.00067 7.79802C4.98741 7.52633 5.17251 7.28944 5.43733 7.24428C6.42931 7.0751 8.92663 6.75886 11.4249 7.31353C11.6141 7.35553 11.8072 7.41629 12.0002 7.41634C12.1931 7.41629 12.3859 7.35553 12.5751 7.31353C15.0734 6.75886 17.5707 7.0751 18.5627 7.24428C18.8275 7.28944 19.0126 7.52633 18.9993 7.79802C18.9757 8.28225 18.9004 9.06072 18.6662 9.73755C18.2486 10.9445 17.1993 11.5001 15.8471 11.5001C13.829 11.5001 12.8159 9.55223 12.6129 8.98951C12.5627 8.85009 12.4996 8.74989 12.4333 8.67734C12.329 8.54854 12.1771 8.4614 12.0002 8.4614Z" fill="black"/>
<path d="M18.4868 14.0325C18.5961 13.4276 18.0085 12.9463 17.3512 13.0048C16.0949 13.1166 14.0475 13.2644 12 13.2644C9.95253 13.2644 7.90506 13.1166 6.64885 13.0048C5.9915 12.9463 5.40391 13.4276 5.51317 14.0325C6.12832 17.4383 9.4485 19 12 19C14.5515 19 17.8717 17.4383 18.4868 14.0325Z" fill="#F97361"/>
<path d="M8 15.1424C8 14.406 8.70888 13.8091 9.58333 13.8091H14.4167C15.2911 13.8091 16 14.406 16 15.1424V18.4407C16 20.301 14.2091 21.8091 12 21.8091Lnan nanLnan nanL12 21.8091C9.79086 21.8091 8 20.301 8 18.4407V15.1424Z" fill="#17AC89"/>
<path d="M14.0183 15.9521C13.7633 15.8835 13.4888 16.0159 13.4106 16.2605L12.9397 17.7336L12.418 16.2488C12.3497 16.0545 12.1533 15.9298 11.94 15.9342C11.7267 15.9386 11.5362 16.0715 11.4775 16.2687L11.0634 17.6584L10.5871 16.2533C10.5046 16.0101 10.228 15.8818 9.97415 15.9542C9.71841 16.0272 9.56638 16.2815 9.6499 16.5278L9.83878 17.0849H9.49129C9.22574 17.0849 9 17.2838 9 17.5414C9 17.799 9.22574 17.9979 9.49129 17.9979H10.1185C10.1284 17.9979 10.1382 17.9976 10.148 17.9971L10.603 19.3649C10.6693 19.5607 10.8657 19.6874 11.08 19.684C11.2942 19.6806 11.486 19.5476 11.545 19.3495L11.9897 17.9716L12.4726 19.3694C12.5404 19.5621 12.7344 19.6866 12.9461 19.684C13.1578 19.6815 13.3484 19.5522 13.4106 19.3577L13.8803 17.9979L13.8815 17.9979H14.5087C14.7743 17.9979 15 17.799 15 17.5414C15 17.2838 14.7743 17.0849 14.5087 17.0849H14.1721L14.3525 16.5206C14.4316 16.273 14.2751 16.0212 14.0183 15.9521Z" fill="#007E7D"/>
</g>
<defs>
<clipPath id="clip0_11_1966">
<rect width="24" height="24" fill="white"/>
</clipPath>
</defs>
</svg>
