<svg width="24" height="24" viewBox="0 0 24 24" fill="none" xmlns="http://www.w3.org/2000/svg">
<g clip-path="url(#clip0_11_1921)">
<path d="M21.5005 9C21.5005 12.3137 18.8142 15 15.5005 15C12.1868 15 9.50049 12.3137 9.50049 9C9.50049 5.68629 12.1868 3 15.5005 3C18.8142 3 21.5005 5.68629 21.5005 9Z" fill="#B348E5"/>
<path d="M1.5 13.5C1.5 17.6421 4.75453 21 8.76923 21H17.25C20.1495 21 22.5 18.5749 22.5 15.5833C22.5 12.5918 20.1495 10.1667 17.25 10.1667C16.6114 10.1667 15.9995 10.2843 15.4335 10.4997C14.3117 7.85099 11.75 6 8.76923 6C4.75453 6 1.5 9.35786 1.5 13.5Z" fill="#D378F2"/>
<path fill-rule="evenodd" clip-rule="evenodd" d="M12.0627 11C12.5182 11 12.8874 11.3516 12.8874 11.7854V15.4079L13.6212 14.7742C13.9586 14.4828 14.4802 14.507 14.7862 14.8284C15.0922 15.1497 15.0667 15.6464 14.7293 15.9378L12.5087 17.8556C12.2618 18.0688 11.8867 18.0733 11.6344 17.8659L9.28595 15.9361C8.9411 15.6527 8.90277 15.1568 9.20033 14.8284C9.4979 14.4999 10.0187 14.4634 10.3635 14.7468L11.238 15.4654V11.7854C11.238 11.3516 11.6072 11 12.0627 11Z" fill="white"/>
</g>
<defs>
<clipPath id="clip0_11_1921">
<rect width="24" height="24" fill="white"/>
</clipPath>
</defs>
</svg>
