<svg width="24" height="24" viewBox="0 0 24 24" fill="none" xmlns="http://www.w3.org/2000/svg">
<g clip-path="url(#clip0_11_2009)">
<path d="M11.9753 1.28918H14.9753C15.5276 1.28918 15.9753 1.7369 15.9753 2.28918V4.28919C15.9753 4.84147 15.5276 5.28918 14.9753 5.28918H12.4753V6.28918C12.4753 6.56533 12.2515 6.78918 11.9753 6.78918C11.6992 6.78918 11.4753 6.56533 11.4753 6.28918V1.78918C11.4753 1.51304 11.6992 1.28918 11.9753 1.28918Z" fill="#4D74FB"/>
<path d="M21.731 20.7108V14.7108C21.731 13.6062 20.8597 12.7108 19.7848 12.7108H4.21546C3.14062 12.7108 2.26929 13.6062 2.26929 14.7108V20.7108C2.26929 21.8154 3.14062 22.7108 4.21546 22.7108H19.7848C20.8597 22.7108 21.731 21.8154 21.731 20.7108Z" fill="#9FB7DA"/>
<path d="M5.29186 15.7604L6.70092 11.7604H3.46886C2.80612 11.7604 2.26886 12.2977 2.26886 12.9604V15.7604H5.29186Z" fill="#4452C1"/>
<path d="M18.7079 15.7604L17.2988 11.7604H20.5308C21.1936 11.7604 21.7309 12.2977 21.7309 12.9604V15.7604H18.7079Z" fill="#4452C1"/>
<path d="M18 22.4163V14.8105C18 11.4968 15.3137 8.81049 12 8.81049C8.68632 8.81049 6.00003 11.4968 6.00003 14.8105V22.4163C6.00003 22.5787 6.13171 22.7104 6.29415 22.7104H17.7059C17.8683 22.7104 18 22.5787 18 22.4163Z" fill="#C7D7F5"/>
<path d="M21.405 15.7604H18.3014C17.8629 15.7604 17.4448 15.5852 17.1515 15.2791L11.9054 9.58862L6.70539 15.275C6.41207 15.5837 5.99262 15.7603 5.55211 15.7604H2.64584V12.8565L4.85971 12.8561L10.7466 6.44608C11.0392 6.13811 11.4577 5.96164 11.8973 5.96076C12.3369 5.95993 12.7561 6.13482 13.0501 6.44166L18.9895 12.8561L21.405 12.8565V15.7604Z" fill="#4452C1"/>
<path d="M9.99979 19.7106C9.99979 18.6061 10.8952 17.7106 11.9998 17.7106C13.1044 17.7106 13.9998 18.6061 13.9998 19.7106V22.7106H9.99979V19.7106Z" fill="#9FB7DA"/>
<ellipse cx="11.9998" cy="14.5103" rx="1.5" ry="1.5" fill="white"/>
</g>
<defs>
<clipPath id="clip0_11_2009">
<rect width="24" height="24" fill="white"/>
</clipPath>
</defs>
</svg>
