<svg width="24" height="24" viewBox="0 0 24 24" fill="none" xmlns="http://www.w3.org/2000/svg">
<path d="M18.723 17.376C17.8381 19.9048 15.1632 21.5231 12.0006 21.5231C8.65058 21.5231 5.84759 19.7072 5.14003 16.9167C5.06388 16.9299 4.9769 16.9367 4.87765 16.9367C3.7996 16.9367 2.92566 16.3318 2.92566 14.9196C2.92566 13.6995 3.7996 12.9025 4.87765 12.9025C5.04619 12.9025 5.17938 12.9267 5.28416 12.9714C6.05427 10.0217 8.24343 7.68396 12.0006 7.68396C15.7476 7.68396 17.9351 10.009 18.7108 12.9474C18.8165 12.8947 18.9516 12.8663 19.1235 12.8663C20.2016 12.8663 21.0755 13.7695 21.0755 15.1523C21.0755 16.7527 20.2016 17.4383 19.1235 17.4383C18.9582 17.4383 18.8268 17.417 18.723 17.376Z" fill="#FCCFBE"/>
<path d="M10.5569 16.9503C10.5569 16.8341 10.6508 16.7386 10.7681 16.7386L13.23 16.7386C13.3459 16.7386 13.4412 16.8327 13.4412 16.9503C13.4412 17.8413 12.8892 18.3946 12.0004 18.3946C11.1117 18.3946 10.5597 17.8413 10.5597 16.9503L10.5569 16.9503Z" fill="#E57370"/>
<path d="M18.9824 13.9952L19.4104 13.3704C19.8006 12.8459 20.1973 10.9433 19.663 8.9628C18.6615 9.30707 18.4834 7.9313 18.2037 7.43034C16.1428 3.73903 6.76776 3.20077 6.17479 7.08098C6.1436 7.28503 5.99934 7.46724 5.85056 7.61032C5.33866 8.1026 5.00927 9.33683 4.67105 8.9628C4.0536 10.4527 4.48913 12.4703 4.67099 13.0705C4.76626 13.3849 4.87616 13.6474 4.96786 13.861C5.06 14.0757 5.40559 14.1492 5.49329 13.9327C5.53895 13.8199 5.56944 13.7057 5.58872 13.5969C5.64578 13.2747 5.76022 12.9445 6.0136 12.7374C6.94234 11.9786 7.35954 11.5606 7.607 10.6904C7.70355 10.3508 8.11785 10.1879 8.41612 10.3766C11.2044 12.1409 14.7137 11.4919 17.0512 11.3378C17.4929 11.3087 17.8762 11.6246 17.9825 12.0543C18.1348 12.6702 18.3486 13.4498 18.5079 13.9432C18.5876 14.1901 18.8358 14.2093 18.9824 13.9952Z" fill="#6D615D"/>
<path d="M18.5147 5.01529C18.2567 3.46228 16.8424 2.37466 15.272 2.48457C14.1399 2.5638 12.8912 2.63344 11.9999 2.63344C11.1086 2.63344 9.85995 2.5638 8.72781 2.48457C7.15736 2.37466 5.74309 3.46228 5.4851 5.01529L4.83072 8.95457C4.83072 8.95457 7.0238 9.86394 11.9999 9.86394C16.976 9.86394 19.1691 8.95457 19.1691 8.95457L18.5147 5.01529Z" fill="#C2763F"/>
<path d="M18.765 6.3988L19.1686 9.00401C19.1686 9.00401 16.9755 9.86763 11.9994 9.86763C7.02331 9.86763 4.83023 9.00401 4.83023 9.00401L5.25426 6.3988H18.765Z" fill="#A55319"/>
<path d="M20.9186 8.25078C21.4847 8.16435 22.0136 8.55316 22.1001 9.11935C22.1865 9.68554 21.7977 10.2144 21.2315 10.3008C14.254 11.3666 10.2574 11.339 4.04698 10.4838L2.77371 10.302L2.66977 10.2809C2.16007 10.1521 1.82062 9.6556 1.89906 9.12432C1.97752 8.59308 2.44594 8.21583 2.97108 8.23972L3.07668 8.24967L4.31513 8.42715C10.3503 9.25947 14.1506 9.28455 20.9186 8.25078Z" fill="#C2763F"/>
<path d="M9.94225 15.4831C10.4263 15.4831 10.6683 15.0523 10.6683 14.521C10.6683 13.9897 10.4263 13.559 9.94225 13.559C9.45821 13.559 9.21619 13.9897 9.21619 14.521C9.21619 15.0523 9.45821 15.4831 9.94225 15.4831Z" fill="url(#paint0_linear_11_1867)"/>
<path d="M14.0576 15.4831C14.5416 15.4831 14.7837 15.0523 14.7837 14.521C14.7837 13.9897 14.5416 13.559 14.0576 13.559C13.5735 13.559 13.3315 13.9897 13.3315 14.521C13.3315 15.0523 13.5735 15.4831 14.0576 15.4831Z" fill="url(#paint1_linear_11_1867)"/>
<path d="M14.9673 17.6318C14.9673 17.3392 14.856 17.0543 14.6865 16.8291C14.5164 16.6032 14.2688 16.4121 13.9688 16.3359C13.7725 16.286 13.5725 16.4049 13.5226 16.6013C13.4729 16.7975 13.5918 16.997 13.788 17.0469L13.8295 17.0596C13.926 17.0948 14.0228 17.1672 14.1004 17.2702C14.1894 17.3885 14.2342 17.5219 14.2342 17.6318C14.2342 17.8344 14.3982 17.9989 14.6008 17.9989C14.8033 17.9989 14.9673 17.8344 14.9673 17.6318Z" fill="#F5BBA5"/>
<path d="M9.0338 17.6318C9.03383 17.3392 9.14507 17.0543 9.31466 16.8291C9.48469 16.6032 9.7323 16.4121 10.0323 16.3359C10.2286 16.286 10.4286 16.4049 10.4785 16.6013C10.5282 16.7975 10.4093 16.997 10.2131 17.0469L10.1716 17.0596C10.0751 17.0948 9.97827 17.1672 9.90071 17.2702C9.81169 17.3885 9.76695 17.5219 9.76691 17.6318C9.76691 17.8344 9.60293 17.9989 9.40036 17.9989C9.19778 17.9989 9.0338 17.8344 9.0338 17.6318Z" fill="#F5BBA5"/>
<defs>
<linearGradient id="paint0_linear_11_1867" x1="13.8156" y1="14.2003" x2="14.5538" y2="15.3147" gradientUnits="userSpaceOnUse">
<stop stop-color="#3E3535"/>
<stop offset="1" stop-color="#2F2828"/>
</linearGradient>
<linearGradient id="paint1_linear_11_1867" x1="13.8156" y1="14.2003" x2="14.5538" y2="15.3147" gradientUnits="userSpaceOnUse">
<stop stop-color="#3E3535"/>
<stop offset="1" stop-color="#2F2828"/>
</linearGradient>
</defs>
</svg>
