<svg width="24" height="24" viewBox="0 0 24 24" fill="none" xmlns="http://www.w3.org/2000/svg">
<path d="M18.8537 16.6314C17.9515 19.2095 15.2243 20.8593 12.0001 20.8593C8.58459 20.8593 5.72688 19.008 5.00549 16.163C4.92786 16.1765 4.83918 16.1834 4.738 16.1834C3.63889 16.1834 2.74789 15.5667 2.74789 14.127C2.74789 12.8831 3.63889 12.0705 4.738 12.0705C4.90983 12.0705 5.04562 12.0952 5.15244 12.1408C5.93759 9.13348 8.16949 6.75006 12.0001 6.75006C15.8202 6.75006 18.0504 9.12053 18.8412 12.1162C18.949 12.0626 19.0868 12.0335 19.262 12.0335C20.3611 12.0335 21.2521 12.9544 21.2521 14.3641C21.2521 15.9959 20.3611 16.6948 19.262 16.6948C19.0934 16.6948 18.9595 16.6731 18.8537 16.6314Z" fill="#FCCFBE"/>
<path d="M10.5283 16.1924C10.5283 16.0739 10.624 15.9766 10.7436 15.9766L13.2536 15.9766C13.3718 15.9766 13.4689 16.0725 13.4689 16.1924C13.4689 17.1008 12.9061 17.665 12 17.665C11.0939 17.665 10.5311 17.1008 10.5311 16.1924L10.5283 16.1924Z" fill="#E57370"/>
<path d="M19.1636 13.0983L19.4463 12.6059C19.7524 11.9956 19.8636 10.446 19.8499 8.4759C19.8387 6.86898 18.9645 5.71545 18.3649 5.15147C17.0028 3.87017 14.0375 3.11835 12.0173 3.14126C9.33354 3.17169 6.72265 4.02817 5.94351 6.49139C5.89801 6.63522 5.76607 6.73381 5.61736 6.75918C4.2119 6.99894 3.83127 9.20343 3.92812 10.0528C4.0306 10.9516 4.2265 11.5977 4.41269 12.3012C4.58792 12.9633 4.72242 13.2428 4.9785 13.5527C5.00986 13.5906 5.05554 13.6177 5.10426 13.6106C5.43497 13.5627 5.5468 12.9075 5.73632 12.3351C6.04904 11.3906 6.47804 10.0104 7.24458 8.5263C7.32704 8.36665 7.52343 8.30665 7.68543 8.38439C10.7815 9.87023 14.4612 9.96 16.6445 9.38782C17.0526 9.28087 17.5092 9.51908 17.6208 9.92592C17.8728 10.8448 18.2955 12.2423 18.5699 13.0553C18.6789 13.3783 18.9939 13.394 19.1636 13.0983Z" fill="#8E8C8A"/>
<path d="M9.90099 14.6961C10.3945 14.6961 10.6412 14.257 10.6412 13.7153C10.6412 13.1736 10.3945 12.7344 9.90099 12.7344C9.4075 12.7344 9.16075 13.1736 9.16075 13.7153C9.16075 14.257 9.4075 14.6961 9.90099 14.6961Z" fill="url(#paint0_linear_11_1868)"/>
<path d="M14.0967 14.6961C14.5902 14.6961 14.8369 14.257 14.8369 13.7153C14.8369 13.1736 14.5902 12.7344 14.0967 12.7344C13.6032 12.7344 13.3564 13.1736 13.3564 13.7153C13.3564 14.257 13.6032 14.6961 14.0967 14.6961Z" fill="url(#paint1_linear_11_1868)"/>
<path d="M15.0253 16.8915C15.0252 16.5931 14.9118 16.3027 14.7389 16.073C14.5656 15.8428 14.3131 15.6479 14.0073 15.5702C13.8071 15.5194 13.6032 15.6406 13.5524 15.8408C13.5017 16.0409 13.6229 16.2443 13.823 16.2951L13.8652 16.3081C13.9636 16.344 14.0624 16.4178 14.1414 16.5228C14.2322 16.6434 14.2778 16.7794 14.2778 16.8915C14.2778 17.098 14.445 17.2658 14.6516 17.2658C14.8581 17.2658 15.0253 17.098 15.0253 16.8915Z" fill="#F5BBA5"/>
<path d="M8.97545 16.8915C8.97548 16.5931 9.08889 16.3027 9.26179 16.073C9.43515 15.8428 9.68759 15.6479 9.99344 15.5702C10.1936 15.5194 10.3975 15.6406 10.4483 15.8408C10.499 16.0409 10.3778 16.2443 10.1778 16.2951L10.1355 16.3081C10.0371 16.344 9.93836 16.4178 9.85928 16.5228C9.76853 16.6434 9.72291 16.7794 9.72288 16.8915C9.72288 17.098 9.5557 17.2658 9.34916 17.2658C9.14263 17.2658 8.97545 17.098 8.97545 16.8915Z" fill="#F5BBA5"/>
<defs>
<linearGradient id="paint0_linear_11_1868" x1="13.8499" y1="13.3883" x2="14.6026" y2="14.5244" gradientUnits="userSpaceOnUse">
<stop stop-color="#3E3535"/>
<stop offset="1" stop-color="#2F2828"/>
</linearGradient>
<linearGradient id="paint1_linear_11_1868" x1="13.8499" y1="13.3883" x2="14.6026" y2="14.5244" gradientUnits="userSpaceOnUse">
<stop stop-color="#3E3535"/>
<stop offset="1" stop-color="#2F2828"/>
</linearGradient>
</defs>
</svg>
