<svg width="24" height="24" viewBox="0 0 24 24" fill="none" xmlns="http://www.w3.org/2000/svg">
<g clip-path="url(#clip0_11_1942)">
<path d="M19.6154 17.4692H4.38464L5.6446 4.86918C5.75541 3.80312 6.64157 3 7.70777 3H16.2923C17.3585 3 18.2447 3.80312 18.3555 4.86918L19.6154 17.4692Z" fill="#FF1F00"/>
<path d="M15.0739 6.53031C14.8524 6.4195 14.5616 6.44724 14.354 6.59954L12.0001 8.37185L9.64627 6.5995C9.43862 6.44719 9.1617 6.4195 8.92631 6.53027C8.69088 6.65493 8.53857 6.89031 8.53857 7.15339V11.3072C8.53857 11.5703 8.69088 11.8057 8.92631 11.9303C9.16165 12.0411 9.43862 12.0134 9.64627 11.8611L11.3078 10.6149V17.538C11.3078 17.9257 11.6124 18.2303 12.0001 18.2303C12.3879 18.2303 12.6924 17.9257 12.6924 17.538V10.6149L14.354 11.8611C14.5616 12.0134 14.8385 12.0411 15.0739 11.9304C15.3093 11.8057 15.4617 11.5703 15.4617 11.3072V7.15339C15.4617 6.89031 15.3093 6.65493 15.0739 6.53031ZM9.92319 9.92262V8.538L10.8508 9.23031L9.92319 9.92262ZM14.077 9.92262L13.1494 9.23031L14.077 8.538V9.92262Z" fill="#FFDA2D"/>
<path d="M15.0738 6.53029C14.8523 6.41947 14.5615 6.44721 14.3538 6.59952L12 8.37182V18.2303C12.3877 18.2303 12.6923 17.9257 12.6923 17.538V10.6149L14.3538 11.8611C14.5615 12.0134 14.8384 12.0411 15.0738 11.9303C15.3092 11.8057 15.4615 11.5703 15.4615 11.3072V7.15336C15.4615 6.89029 15.3092 6.6549 15.0738 6.53029ZM14.0769 9.92259L13.1493 9.23029L14.0769 8.53798V9.92259Z" fill="#FDBF00"/>
<path d="M21 17.538V20.3534H3V17.538C3 17.1503 3.30457 16.8457 3.69231 16.8457H20.3077C20.6954 16.8457 21 17.1503 21 17.538Z" fill="#47568C"/>
</g>
<defs>
<clipPath id="clip0_11_1942">
<rect width="24" height="24" fill="white"/>
</clipPath>
</defs>
</svg>
