<svg width="24" height="24" viewBox="0 0 24 24" fill="none" xmlns="http://www.w3.org/2000/svg">
<g clip-path="url(#clip0_11_1970)">
<path d="M5.4022 16.5642C5.12287 16.287 5.03246 15.8803 5.1694 15.5171L8.59037 6.44304C8.8159 5.84484 9.40576 5.44658 10.0662 5.44658H13.379C14.0113 5.44658 14.5819 5.81206 14.8268 6.37386L18.8107 15.5158C18.9726 15.8872 18.8897 16.3157 18.5999 16.6059L13.1774 22.0361C12.5616 22.6528 11.538 22.655 10.9194 22.0409L5.4022 16.5642Z" fill="#406398"/>
<mask id="mask0_11_1970" style="mask-type:alpha" maskUnits="userSpaceOnUse" x="5" y="5" width="14" height="18">
<path d="M5.4022 16.5642C5.12287 16.287 5.03246 15.8803 5.1694 15.5171L8.59037 6.44304C8.8159 5.84484 9.40576 5.44658 10.0662 5.44658H13.379C14.0113 5.44658 14.5819 5.81206 14.8268 6.37386L18.8107 15.5158C18.9726 15.8872 18.8897 16.3157 18.5999 16.6059L13.1774 22.0361C12.5616 22.6528 11.538 22.655 10.9194 22.0409L5.4022 16.5642Z" fill="#1D45C4"/>
</mask>
<g mask="url(#mask0_11_1970)">
<path opacity="0.5" fill-rule="evenodd" clip-rule="evenodd" d="M17.8206 10.2989L4.60989 15.8341L3.56641 13.5213L16.7771 7.98608L17.8206 10.2989Z" fill="#9FB7DA"/>
<path opacity="0.5" fill-rule="evenodd" clip-rule="evenodd" d="M20.2073 14.7397L6.99661 20.2749L5.95312 17.9621L19.1639 12.4269L20.2073 14.7397Z" fill="#9FB7DA"/>
</g>
<path d="M7.87662 3.26843C7.71249 2.34414 8.45128 1.5 9.42434 1.5H14.0754C15.0485 1.5 15.7872 2.34414 15.6231 3.26843L15 6.7776H8.46587L7.87662 3.26843Z" fill="#9FB7DA"/>
<path d="M19.0133 11.3465L16.8318 8.25072C16.5047 7.78645 17.0906 7.23172 17.5665 7.55516L20.6198 9.63038C20.8686 9.79946 20.9157 10.1367 20.7222 10.3632L19.8504 11.3837C19.6284 11.6436 19.2095 11.625 19.0133 11.3465Z" fill="#9FB7DA"/>
</g>
<defs>
<clipPath id="clip0_11_1970">
<rect width="24" height="24" fill="white"/>
</clipPath>
</defs>
</svg>
