<svg width="24" height="24" viewBox="0 0 24 24" fill="none" xmlns="http://www.w3.org/2000/svg">
<g clip-path="url(#clip0_11_1890)">
<rect x="2.00015" y="3.99949" width="20" height="18" rx="3" fill="#BBD7FF"/>
<path d="M12.9447 9.63118L14.9287 7.61218L12.0002 5.99938L9.06416 7.61218L11.0159 9.65038L8.00015 21.9994H16.0002L12.9447 9.63118Z" fill="#3D71DD"/>
<path d="M9.16828 8.44332L6.50015 4.49992L8.00015 1.99992L12.0002 5.99992L9.82228 8.49132C9.63928 8.68872 9.32068 8.66532 9.16828 8.44332Z" fill="#78A3FE"/>
<path d="M14.832 8.44334L17.5002 4.49994L16.0002 1.99994L12.0002 5.99994L14.178 8.49134C14.361 8.68874 14.6796 8.66534 14.832 8.44334Z" fill="#78A3FE"/>
<path d="M8.00003 1.99992H16L12 5.99992L8.00003 1.99992Z" fill="#3D71DD"/>
</g>
<defs>
<clipPath id="clip0_11_1890">
<rect width="24" height="24" fill="white"/>
</clipPath>
</defs>
</svg>
