<svg width="24" height="24" viewBox="0 0 24 24" fill="none" xmlns="http://www.w3.org/2000/svg">
<g clip-path="url(#clip0_11_1878)">
<circle cx="12" cy="12" r="12" fill="#E5F4FF"/>
<mask id="mask0_11_1878" style="mask-type:alpha" maskUnits="userSpaceOnUse" x="0" y="0" width="24" height="24">
<circle cx="12" cy="12" r="12" fill="#E5F4FF"/>
</mask>
<g mask="url(#mask0_11_1878)">
<path d="M2.61123 21.8826C7.92712 21.875 10.5978 17.76 10.5978 17.76C10.5978 17.76 7.91563 13.6526 2.59974 13.6599C0.217552 13.6633 -1.56548 15.5063 -1.5625 17.777C-1.55909 20.0481 0.229042 21.886 2.61123 21.8826Z" fill="#D6EEFA"/>
<path d="M21.3892 21.8831C16.0733 21.8755 13.4026 17.7605 13.4026 17.7605C13.4026 17.7605 16.0848 13.6531 21.4007 13.6604C23.7829 13.6638 25.5659 15.5068 25.5625 17.7775C25.5591 20.0486 23.7718 21.8865 21.3892 21.8831Z" fill="#D6EEFA"/>
<path fill-rule="evenodd" clip-rule="evenodd" d="M20.4458 23.2219C20.6441 23.4117 20.8986 23.5057 21.1526 23.5057L21.1522 23.5053C21.4216 23.5053 21.6901 23.3997 21.8909 23.1899C22.2816 22.7823 22.2671 22.135 21.8594 21.7448L21.8531 21.7384C21.7586 21.6452 21.739 21.4771 21.8062 21.3299C21.9345 21.0479 22.04 20.7949 22.1264 20.5683C22.3265 20.1185 22.4684 19.6797 22.4684 19.6797C22.5731 19.3767 22.6654 19.0895 22.6288 18.7661C22.5833 18.3614 22.3926 18.0065 22.1109 17.7397C22.0714 17.692 22.0267 17.649 21.9794 17.6086C21.8803 17.5141 21.6713 17.352 21.4581 17.2014C21.5925 17.305 21.7163 17.4155 21.8276 17.5328C21.4776 17.1829 20.9915 16.8605 20.3709 16.5676C19.5211 16.1668 18.6789 15.9391 18.6436 15.9298C18.0985 15.7838 17.5389 16.1072 17.3925 16.6519C17.2461 17.1966 17.5691 17.7575 18.1138 17.9043C18.1198 17.9056 18.6985 18.063 19.3143 18.3328C19.4625 18.3977 19.5934 18.4606 19.7086 18.5207C19.9782 18.6772 20.2005 18.8755 20.2747 19.1265C20.277 19.1345 20.2799 19.1421 20.2829 19.1498C20.2874 19.1617 20.292 19.1737 20.2943 19.1869C20.3134 19.2993 20.3117 19.3623 20.2785 19.5044L19.9524 20.4675L19.9453 20.4831C19.5232 21.4108 19.713 22.5001 20.4151 23.1921L20.4458 23.2219ZM20.4488 19.0719L20.4517 19.0537L20.4507 19.0522C20.4499 19.0548 20.4491 19.0565 20.4485 19.0578C20.447 19.061 20.4464 19.0623 20.4488 19.0719Z" fill="#4D98D3"/>
<path d="M2.11333 23.1905C2.31419 23.4003 2.58271 23.5058 2.85208 23.5058L2.85123 23.5067C3.10528 23.5067 3.36018 23.4122 3.55805 23.2228C3.56742 23.2139 3.57678 23.205 3.58614 23.1956C4.29084 22.5011 4.48063 21.4113 4.05849 20.484C3.65721 19.6023 3.56997 19.1721 3.5521 19.0542L3.55386 19.0517C3.55469 19.0547 3.55551 19.0564 3.55617 19.0578C3.55777 19.0612 3.55837 19.0625 3.55551 19.0733C3.57934 19.2142 3.67679 19.641 4.05297 20.4695L3.72616 19.5044C3.69296 19.3623 3.69126 19.2993 3.71041 19.1869C3.71275 19.1737 3.7173 19.1617 3.72185 19.1498C3.72475 19.1421 3.72766 19.1345 3.72999 19.1265C3.80391 18.8764 4.02486 18.6786 4.29302 18.5225C4.40874 18.4621 4.54034 18.3987 4.68957 18.3334C5.29094 18.0703 5.85699 17.914 5.88868 17.9052L5.89003 17.9048C6.43473 17.7584 6.75814 17.1984 6.61218 16.6533C6.46622 16.1082 5.90578 15.7843 5.36023 15.9303C5.32491 15.9397 4.48276 16.1669 3.63295 16.5682C3.01906 16.8579 2.53669 17.1764 2.18749 17.5219C2.29606 17.4086 2.41635 17.3018 2.54654 17.2014C2.33334 17.352 2.1244 17.5141 2.02525 17.6086C1.97801 17.649 1.93333 17.692 1.89375 17.7397C1.61204 18.0065 1.4214 18.3614 1.37587 18.7661C1.33927 19.0895 1.43161 19.3767 1.5363 19.6797C1.5363 19.6797 1.67382 20.105 1.86898 20.5472C1.95695 20.7795 2.06508 21.0397 2.19759 21.3309C2.26483 21.4781 2.24568 21.6458 2.15121 21.739L2.14482 21.7454C1.73715 22.1356 1.72311 22.7828 2.11333 23.1905Z" fill="#4D98D3"/>
<path d="M6.55987 10.1696H6.23262C4.88877 10.1696 3.79937 11.259 3.79937 12.6028V13.165C3.79937 14.5088 4.88877 15.5982 6.23262 15.5982H6.55987C7.90372 15.5982 8.99312 14.5088 8.99312 13.165V12.6028C8.99312 11.259 7.90372 10.1696 6.55987 10.1696Z" fill="#1E2832"/>
<path d="M17.4453 15.597H17.7725C19.1164 15.597 20.2058 14.5076 20.2058 13.1638V12.6016C20.2058 11.2578 19.1164 10.1684 17.7725 10.1684H17.4453C16.1014 10.1684 15.012 11.2578 15.012 12.6016V13.1638C15.012 14.5076 16.1014 15.597 17.4453 15.597Z" fill="#1E2832"/>
<path d="M5.42196 11.0924C5.39685 11.0924 5.3709 11.089 5.34536 11.0818C5.19855 11.0396 5.11344 10.8864 5.15557 10.7396C5.35302 10.0524 5.73005 9.00935 5.98453 8.72211C7.2535 6.77397 9.5008 5.61139 12.0013 5.61139C14.5116 5.61139 16.7661 6.78206 18.0329 8.74382C18.0355 8.74807 18.0381 8.75233 18.0406 8.75658C18.2436 9.11191 18.6223 9.84214 18.8764 10.7409C18.9181 10.8877 18.8325 11.0409 18.6853 11.0822C18.5381 11.1239 18.3853 11.0383 18.344 10.8911C18.1074 10.0545 17.7555 9.37319 17.564 9.03744C16.3989 7.23824 14.3201 6.1646 12.0013 6.1646C9.67995 6.1646 7.59904 7.24122 6.43475 9.04425C6.42199 9.06425 6.40667 9.08255 6.3888 9.09829C6.29177 9.21149 5.96027 9.93832 5.68665 10.8924C5.65175 11.0137 5.54111 11.0928 5.42068 11.0928L5.42196 11.0924ZM6.38667 9.10085C6.38667 9.10085 6.38412 9.10297 6.38326 9.10382C6.38454 9.10297 6.38539 9.1017 6.38667 9.10085Z" fill="#5A646E"/>
<path d="M3.94362 21.7736C3.9483 21.766 5.28111 18.4301 5.52196 13.3793V13.3785C5.76197 6.71916 11.777 6.86513 12.0026 6.86513C12.2281 6.86513 18.2427 6.71916 18.4827 13.3785V13.3793C18.7236 18.4301 20.0568 21.766 20.0611 21.7736C16.7231 23.7537 12.0209 23.7332 12.0026 23.7332C11.9843 23.7332 7.28201 23.7537 3.94362 21.7736Z" fill="#62BFED"/>
<path d="M4.3435 20.5702C5.06616 20.9483 5.83134 21.2736 6.6343 21.5437C8.35307 22.122 10.1552 22.4152 11.9902 22.4152H11.9996C13.8396 22.4144 15.6452 22.1199 17.3674 21.5403C18.1697 21.2703 18.9343 20.9452 19.6564 20.5676C19.6976 20.7071 19.737 20.8353 19.7738 20.9517C19.8849 21.2177 19.9798 21.4905 20.0568 21.7701L20.0589 21.7756H20.0581L20.0576 21.776C20.0942 21.9086 20.1269 22.0426 20.1555 22.1779C19.4371 22.5371 18.6831 22.8499 17.8972 23.1144C16.0043 23.7514 14.0205 24.0753 12.0004 24.0761H11.9898L11.9902 24.0766C9.97482 24.0766 7.99477 23.7544 6.10493 23.1182C5.31813 22.8536 4.56334 22.5403 3.84409 22.1805C3.87281 22.0443 3.9056 21.9095 3.94231 21.776L3.94145 21.7756C3.94145 21.7756 3.94269 21.773 3.94348 21.771L3.94401 21.7696C4.02103 21.4901 4.11593 21.2169 4.22699 20.9509C4.26354 20.8354 4.30258 20.7083 4.3435 20.5702Z" fill="#FDD700"/>
<path d="M3.7012 23.7445C3.71914 24.433 3.84117 25.0983 4.05373 25.7283C6.41182 26.7049 9.13583 27.2643 11.9787 27.3363C12.1166 27.3397 12.2545 27.3414 12.3932 27.3414L12.394 27.3418C14.4839 27.3418 16.6763 26.9465 18.7627 26.192C19.1677 26.0456 19.5638 25.8872 19.9499 25.7175C20.164 25.0793 20.2853 24.4049 20.2996 23.7072C19.6388 24.0536 18.935 24.3629 18.1972 24.6299C16.1648 25.3648 14.0294 25.7269 12.0213 25.6758C10.1999 25.6295 8.42414 25.3673 6.74367 24.8962C5.64886 24.5894 4.63105 24.2038 3.7012 23.7445Z" fill="#FDD700"/>
<path d="M18.9877 27.5895C18.729 27.6974 18.4653 27.8 18.1972 27.897C16.1648 28.6324 14.0294 28.9945 12.0213 28.943C10.1999 28.8966 8.42414 28.6345 6.74367 28.1634C6.14211 27.9948 5.5638 27.8025 5.01055 27.5871C6.48682 29.6493 9.06566 31.0154 12 31.0154C14.9332 31.0154 17.5112 29.6503 18.9877 27.5895Z" fill="#FDD700"/>
<path d="M8.75437 4.58221C8.8631 4.9882 9.20222 5.27068 9.59339 5.3269L10.1033 7.37872C10.1467 7.5532 10.3029 7.6698 10.4748 7.6698C10.5055 7.6698 10.5365 7.66597 10.5676 7.65831C10.7731 7.60724 10.8982 7.39958 10.8472 7.19404L10.3373 5.14227C10.6679 4.90156 10.8338 4.47384 10.7217 4.05497C10.5761 3.51155 10.0174 3.18941 9.47439 3.33495C8.93097 3.48048 8.60883 4.03879 8.75437 4.58221Z" fill="#4D98D3"/>
<path d="M15.2503 4.58221C15.1416 4.9882 14.8025 5.27067 14.4113 5.3269L13.9013 7.37872C13.8579 7.5532 13.7022 7.6698 13.5298 7.6698C13.4992 7.6698 13.4681 7.66597 13.4371 7.65831C13.2315 7.60724 13.1064 7.39915 13.1575 7.19404L13.6674 5.14227C13.3368 4.90157 13.1708 4.47384 13.283 4.05497C13.4285 3.51155 13.9873 3.18941 14.5303 3.33495C15.0737 3.48048 15.3958 4.03879 15.2503 4.58221Z" fill="#4D98D3"/>
<path d="M21.1526 23.5056C20.8985 23.5056 20.6441 23.4115 20.4458 23.2218C20.4355 23.212 20.4253 23.2018 20.4151 23.192C19.713 22.5 19.5232 21.4106 19.9453 20.483C20.3815 19.5242 20.4466 19.0995 20.4551 19.0293C20.447 18.5029 20.8441 18.0493 21.3777 17.9974C21.9403 17.942 22.4399 18.3531 22.4948 18.9148C22.522 19.1923 22.4688 19.8744 21.8062 21.3298C21.739 21.477 21.7586 21.6451 21.853 21.7383L21.8594 21.7447C22.2671 22.1349 22.2816 22.7822 21.8909 23.1898C21.69 23.3996 21.4215 23.5052 21.1522 23.5052L21.1526 23.5056ZM20.4598 19.1131C20.4598 19.1131 20.4598 19.1144 20.4598 19.1148C20.4598 19.1144 20.4598 19.114 20.4598 19.1131ZM20.4598 19.1114C20.4598 19.1114 20.4598 19.1123 20.4598 19.1127C20.4598 19.1123 20.4598 19.1119 20.4598 19.1114ZM20.4598 19.1102C20.4598 19.1102 20.4598 19.1106 20.4598 19.111C20.4598 19.111 20.4598 19.1106 20.4598 19.1102Z" fill="#4D98D3"/>
<path d="M2.8521 23.506C2.58273 23.506 2.31421 23.4004 2.11335 23.1906C1.72313 22.783 1.73717 22.1357 2.14484 21.7455L2.15123 21.7391C2.2457 21.6459 2.26485 21.4783 2.19761 21.331C1.53547 19.8757 1.48185 19.1931 1.50908 18.9161C1.56398 18.3543 2.06442 17.9428 2.62613 17.9986C3.15934 18.0509 3.5568 18.5041 3.54871 19.031C3.5568 19.1012 3.62191 19.5254 4.05851 20.4846C4.48065 21.4119 4.29086 22.5017 3.58616 23.1962C3.5768 23.2055 3.56744 23.2145 3.55807 23.2234C3.3602 23.4128 3.1053 23.5072 2.85125 23.5072L2.8521 23.506ZM3.54488 19.1135C3.54488 19.1135 3.54488 19.1144 3.54488 19.1152C3.54488 19.1148 3.54488 19.1144 3.54488 19.1135ZM3.54488 19.1122V19.1135C3.54488 19.1135 3.54488 19.1127 3.54488 19.1122Z" fill="#4D98D3"/>
<path d="M9.31184 13.4897C8.97694 13.4897 8.70502 13.2182 8.70502 12.8828C8.70502 12.5479 8.97651 12.276 9.31184 12.276C9.64717 12.276 9.91909 12.5479 9.91909 12.8828C9.91909 13.2177 9.64675 13.4897 9.31184 13.4897Z" fill="#281E1E"/>
<path d="M14.6928 13.4897C15.0277 13.4897 15.2996 13.2182 15.2996 12.8828C15.2996 12.5479 15.0281 12.276 14.6928 12.276C14.3575 12.276 14.0856 12.5479 14.0856 12.8828C14.0856 13.2177 14.3575 13.4897 14.6928 13.4897Z" fill="#281E1E"/>
<path d="M9.78635 14.3199C9.84082 15.5706 10.9732 16.1404 12.0022 16.1404H12.003C13.032 16.1404 14.1643 15.5706 14.2188 14.3199C14.2226 14.2331 14.1907 14.1484 14.1303 14.0854C14.0699 14.0229 13.9869 13.9871 13.8997 13.9871H10.1055C10.0183 13.9871 9.93529 14.0225 9.87486 14.0854C9.81443 14.148 9.78252 14.2331 9.78635 14.3199Z" fill="#281E1E"/>
<path d="M17.0908 16.0973H15.2997C15.1469 16.0973 15.0231 15.9735 15.0231 15.8207C15.0231 15.6679 15.1469 15.5441 15.2997 15.5441H17.0908C17.5312 15.5441 17.9465 15.3509 18.23 15.0134L18.6772 14.4815C18.7755 14.3645 18.95 14.3496 19.067 14.4479C19.184 14.5462 19.1989 14.7207 19.1006 14.8377L18.6534 15.3696C18.2644 15.8322 17.695 16.0973 17.0908 16.0973Z" fill="#5A646E"/>
<path d="M15.6571 15.3H14.9418C14.6976 15.3 14.4996 15.4979 14.4996 15.7421V15.9004C14.4996 16.1446 14.6976 16.3426 14.9418 16.3426H15.6571C15.9013 16.3426 16.0992 16.1446 16.0992 15.9004V15.7421C16.0992 15.4979 15.9013 15.3 15.6571 15.3Z" fill="#1E2832"/>
</g>
</g>
<defs>
<clipPath id="clip0_11_1878">
<rect width="24" height="24" fill="white"/>
</clipPath>
</defs>
</svg>
