<svg width="24" height="24" viewBox="0 0 24 24" fill="none" xmlns="http://www.w3.org/2000/svg">
<g clip-path="url(#clip0_11_1915)">
<path d="M20.3407 13.9152L21.8191 12.4368C22.0603 12.1955 22.0603 11.8044 21.8191 11.5632L20.3407 10.0848C20.1846 9.92879 20.1237 9.70134 20.1808 9.48817L20.7219 7.46874C20.8102 7.13922 20.6147 6.80051 20.2852 6.71221L18.2657 6.17107C18.0526 6.11395 17.8861 5.94745 17.8289 5.7343L17.2878 3.71478C17.1995 3.38526 16.8608 3.1897 16.5313 3.278L14.5118 3.81914C14.2986 3.87626 14.0712 3.81532 13.9151 3.65927L12.4368 2.18092C12.1955 1.93969 11.8044 1.93969 11.5632 2.18093L10.0849 3.65926C9.92885 3.81532 9.70141 3.87626 9.48824 3.81914L7.46873 3.278C7.13921 3.1897 6.80051 3.38525 6.71221 3.71477L6.17107 5.73429C6.11395 5.94745 5.94745 6.11395 5.73429 6.17107L3.71477 6.71221C3.38525 6.8005 3.1897 7.13921 3.278 7.46873L3.81914 9.48824C3.87626 9.70141 3.81531 9.92885 3.65926 10.0849L2.18093 11.5632C1.93969 11.8044 1.93969 12.1955 2.18092 12.4368L3.65927 13.9151C3.81532 14.0712 3.87626 14.2986 3.81915 14.5118L3.278 16.5313C3.18971 16.8608 3.38526 17.1995 3.71478 17.2878L5.7343 17.8289C5.94746 17.8861 6.11395 18.0526 6.17107 18.2657L6.71221 20.2852C6.80051 20.6147 7.13921 20.8102 7.46874 20.7219L9.48817 20.1808C9.70134 20.1237 9.92879 20.1846 10.0848 20.3407L11.5632 21.8191C11.8044 22.0603 12.1955 22.0603 12.4368 21.8191L13.9152 20.3407C14.0712 20.1846 14.2987 20.1237 14.5118 20.1808L16.5313 20.7219C16.8608 20.8102 17.1995 20.6147 17.2878 20.2852L17.829 18.2657C17.8861 18.0525 18.0526 17.886 18.2657 17.8289L20.2852 17.2878C20.6147 17.1995 20.8103 16.8608 20.7219 16.5313L20.1808 14.5118C20.1237 14.2987 20.1846 14.0712 20.3407 13.9152Z" fill="#FFD600"/>
<path d="M12 18.5C15.5899 18.5 18.5 15.5899 18.5 12C18.5 8.41015 15.5899 5.5 12 5.5C8.41015 5.5 5.5 8.41015 5.5 12C5.5 15.5899 8.41015 18.5 12 18.5Z" fill="#FFB21E"/>
</g>
<defs>
<clipPath id="clip0_11_1915">
<rect width="24" height="24" fill="white"/>
</clipPath>
</defs>
</svg>
