<svg width="24" height="24" viewBox="0 0 24 24" fill="none" xmlns="http://www.w3.org/2000/svg">
<path d="M13.6329 3.83691C13.6329 3.28463 13.1852 2.83691 12.6329 2.83691H8.72038C7.977 2.83691 7.4935 3.61923 7.82595 4.28413L8.4586 5.54943C8.628 5.88822 8.97426 6.10222 9.35303 6.10222H12.6329C13.1852 6.10222 13.6329 5.6545 13.6329 5.10222V3.83691Z" fill="#ACA5F8"/>
<path d="M11 3C11 2.44772 11.4477 2 12 2H15.6342C16.3446 2 16.8285 2.72011 16.56 3.3779L15.4898 6H11V3Z" fill="#8C80EC"/>
<path fill-rule="evenodd" clip-rule="evenodd" d="M11.3436 6.49036C7.61014 6.49036 4.44109 9.24038 3.8979 12.9515L2.9267 19.5869C2.39458 19.7183 1.99988 20.2009 1.99988 20.7761C1.99988 21.4523 2.54553 22.0006 3.21862 22.0006H20.2811C20.9541 22.0006 21.4998 21.4523 21.4998 20.7761C21.4998 20.2009 21.1051 19.7183 20.573 19.5869L19.72 13.7592C19.1089 9.58413 15.5437 6.49036 11.3436 6.49036Z" fill="#887EF9"/>
<path d="M7.5 6.67383C7.5 6.12154 7.86631 5.67383 8.31818 5.67383H15.6818C16.1337 5.67383 16.5 6.12154 16.5 6.67383V6.67383C16.5 7.22611 16.1337 7.67383 15.6818 7.67383H8.31818C7.86631 7.67383 7.5 7.22611 7.5 6.67383V6.67383Z" fill="#6B5ECA"/>
<path d="M7.02268 13.0059C6.73394 13.0059 6.49988 13.2331 6.49988 13.5134C6.49988 13.7937 6.73394 14.0209 7.02268 14.0209H7.65805V16.6473C7.65805 16.9558 7.91567 17.2059 8.23346 17.2059C8.55125 17.2059 8.80887 16.9558 8.80887 16.6473V14.0209H9.44238C9.73111 14.0209 9.96518 13.7937 9.96518 13.5134C9.96518 13.2331 9.73111 13.0059 9.44238 13.0059H7.02268Z" fill="white"/>
<path fill-rule="evenodd" clip-rule="evenodd" d="M11.5157 13.0059C11.1044 13.0059 10.7406 13.2643 10.6161 13.6448L9.69418 16.4628C9.57384 16.8306 9.85666 17.2059 10.2542 17.2059C10.5145 17.2059 10.7438 17.0396 10.8177 16.7973L10.9497 16.3644H12.0816L12.2136 16.7973C12.2875 17.0396 12.5168 17.2059 12.7771 17.2059C13.1747 17.2059 13.4575 16.8306 13.3371 16.4628L12.4152 13.6448C12.2908 13.2643 11.9269 13.0059 11.5157 13.0059ZM11.2453 15.3975L11.515 14.5125L11.7858 15.3975H11.2453Z" fill="white"/>
<path d="M14.4388 13.0059C14.0017 13.0059 13.7271 13.4636 13.9428 13.8327L14.6866 15.1051L13.9279 16.3725C13.7065 16.7423 13.9813 17.2059 14.4219 17.2059C14.6297 17.2059 14.8211 17.0963 14.9218 16.9198L15.4227 16.0413L15.9247 16.9195C16.0258 17.0962 16.2176 17.2059 16.4259 17.2059C16.8683 17.2059 17.1439 16.7398 16.9208 16.3689L16.1605 15.1049L16.9063 13.829C17.1211 13.4616 16.8477 13.0059 16.4125 13.0059C16.2056 13.0059 16.015 13.1152 15.9152 13.2912L15.4232 14.1585L14.9399 13.2951C14.8401 13.1168 14.6478 13.0059 14.4388 13.0059Z" fill="white"/>
</svg>
