<svg width="24" height="24" viewBox="0 0 24 24" fill="none" xmlns="http://www.w3.org/2000/svg">
<g clip-path="url(#clip0_11_1940)">
<path d="M2 5C2 3.34315 3.34315 2 5 2H15C16.6569 2 18 3.34315 18 5V20.1216C18 20.5093 17.578 20.7495 17.2447 20.5516L16.7658 20.2672C16.2937 19.9869 15.7063 19.9869 15.2342 20.2672L14.2553 20.8484C14.0979 20.9419 13.9021 20.9419 13.7447 20.8484L12.7658 20.2672C12.2937 19.9869 11.7063 19.9869 11.2342 20.2672L10.7658 20.5453C10.2937 20.8256 9.70626 20.8256 9.23419 20.5453L8.76581 20.2672C8.29374 19.9869 7.70626 19.9869 7.23419 20.2672L6.25527 20.8484C6.09791 20.9419 5.90209 20.9419 5.74473 20.8484L4.76581 20.2672C4.29374 19.9869 3.70626 19.9869 3.23419 20.2672L2.75527 20.5516C2.42197 20.7495 2 20.5093 2 20.1216V5Z" fill="#9FB7DA"/>
<path d="M5.2728 7.7998C4.98407 7.7998 4.75 8.02703 4.75 8.30732C4.75 8.58761 4.98407 8.81484 5.2728 8.81484H5.90817V11.4412C5.90817 11.7497 6.16579 11.9998 6.48358 11.9998C6.80137 11.9998 7.05899 11.7497 7.05899 11.4412V8.81484H7.6925C7.98124 8.81484 8.2153 8.58761 8.2153 8.30732C8.2153 8.02703 7.98124 7.7998 7.6925 7.7998H5.2728Z" fill="#6E89B0"/>
<path fill-rule="evenodd" clip-rule="evenodd" d="M9.76578 7.7998C9.35457 7.7998 8.99067 8.05826 8.86621 8.43872L7.9443 11.2567C7.82397 11.6245 8.10679 11.9998 8.50435 11.9998C8.76465 11.9998 8.99393 11.8336 9.06781 11.5913L9.1998 11.1583H10.3318L10.4638 11.5913C10.5376 11.8336 10.7669 11.9998 11.0272 11.9998C11.4248 11.9998 11.7076 11.6245 11.5873 11.2567L10.6654 8.43872C10.5409 8.05826 10.177 7.7998 9.76578 7.7998ZM9.49543 10.1914L9.76509 9.30649L10.0359 10.1914H9.49543Z" fill="#6E89B0"/>
<path d="M12.6889 7.7998C12.2518 7.7998 11.9772 8.25757 12.193 8.62662L12.9367 9.89904L12.178 11.1664C11.9566 11.5362 12.2314 11.9998 12.672 11.9998C12.8798 11.9998 13.0712 11.8903 13.1719 11.7138L13.6728 10.8352L14.1749 11.7134C14.2759 11.8902 14.4678 11.9998 14.676 11.9998C15.1185 11.9998 15.394 11.5338 15.1709 11.1629L14.4106 9.89889L15.1565 8.62297C15.3712 8.25555 15.0978 7.7998 14.6627 7.7998C14.4557 7.7998 14.2651 7.90913 14.1653 8.08512L13.6734 8.95244L13.19 8.08905C13.0902 7.91079 12.8979 7.7998 12.6889 7.7998Z" fill="#6E89B0"/>
<path d="M22 17C22 19.7614 19.7614 22 17 22C14.2386 22 12 19.7614 12 17C12 14.2386 14.2386 12 17 12C19.7614 12 22 14.2386 22 17Z" fill="#1D45C4"/>
<path d="M14.9338 15.0268C15.1957 14.9362 15.4789 15.0829 15.5663 15.3545L16.0456 16.8437L16.5249 15.3545C16.593 15.1429 16.784 15.0001 16.9991 15.0001C17.2143 15.0001 17.4053 15.1429 17.4734 15.3545L17.9527 16.8437L18.432 15.3545C18.5194 15.0829 18.8026 14.9362 19.0645 15.0268C19.3265 15.1175 19.468 15.4112 19.3805 15.6828L19.2293 16.1525H19.5C19.7761 16.1525 20 16.3847 20 16.671C20 16.9574 19.7761 17.1895 19.5 17.1895H18.8956L18.427 18.6456C18.3589 18.8573 18.1678 19 17.9527 19C17.7375 19 17.5465 18.8573 17.4784 18.6456L16.9991 17.1565L16.5199 18.6456C16.4518 18.8573 16.2607 19 16.0456 19C15.8304 19 15.6394 18.8573 15.5713 18.6456L15.1027 17.1895H14.5C14.2239 17.1895 14 16.9574 14 16.671C14 16.3847 14.2239 16.1525 14.5 16.1525H14.7689L14.6178 15.6828C14.5303 15.4112 14.6718 15.1175 14.9338 15.0268Z" fill="white"/>
</g>
<defs>
<clipPath id="clip0_11_1940">
<rect width="24" height="24" fill="white"/>
</clipPath>
</defs>
</svg>
