<svg width="24" height="24" viewBox="0 0 24 24" fill="none" xmlns="http://www.w3.org/2000/svg">
<path d="M13.335 3.78997C13.335 3.25184 12.8987 2.81561 12.3606 2.81561H8.54835C7.82403 2.81561 7.35293 3.57786 7.67685 4.22572L8.29328 5.45859C8.45833 5.78869 8.79572 5.9972 9.16478 5.9972H12.3606C12.8987 5.9972 13.335 5.56096 13.335 5.02284V3.78997Z" fill="#ACA5F8"/>
<path d="M10.7695 2.97419C10.7695 2.43606 11.2058 1.99983 11.7439 1.99983H15.2849C15.9771 1.99983 16.4486 2.70148 16.187 3.3424L15.1442 5.89728H10.7695V2.97419Z" fill="#A48DEE"/>
<path fill-rule="evenodd" clip-rule="evenodd" d="M11.1042 6.37568C7.46643 6.37568 4.37863 9.05521 3.84936 12.6712L2.90306 19.1365C2.38458 19.2645 2 19.7347 2 20.2951C2 20.9541 2.53166 21.4883 3.1875 21.4883H19.8125C20.4683 21.4883 21 20.9541 21 20.2951C21 19.7347 20.6154 19.2645 20.0969 19.1365L19.2658 13.4582C18.6704 9.39014 15.1966 6.37568 11.1042 6.37568Z" fill="#B097FF"/>
<path d="M7.35938 6.55446C7.35938 6.01634 7.71629 5.5801 8.15658 5.5801H15.3314C15.7717 5.5801 16.1286 6.01634 16.1286 6.55446V6.55446C16.1286 7.09259 15.7717 7.52883 15.3314 7.52883H8.15658C7.7163 7.52883 7.35938 7.09259 7.35938 6.55446V6.55446Z" fill="#6B5ECA"/>
<path d="M22 18.0007C22 20.7621 19.7614 23.0007 17 23.0007C14.2386 23.0007 12 20.7621 12 18.0007C12 15.2392 14.2386 13.0007 17 13.0007C19.7614 13.0007 22 15.2392 22 18.0007Z" fill="#6B5ECA"/>
<path d="M18.6669 18.8342C19.1271 18.8343 19.4999 19.208 19.4999 19.6682C19.4997 20.1282 19.1269 20.501 18.6669 20.5012C18.2068 20.5012 17.8332 20.1282 17.8329 19.6682C17.8329 19.2079 18.2067 18.8342 18.6669 18.8342ZM18.0507 15.7609C18.3465 15.4652 18.8262 15.4652 19.122 15.7609C19.4178 16.0567 19.4177 16.5364 19.122 16.8322L15.9482 20.0061C15.6523 20.3016 15.1726 20.3018 14.8769 20.0061C14.5812 19.7103 14.5814 19.2306 14.8769 18.9348L18.0507 15.7609ZM15.3329 15.5002C15.7931 15.5002 16.1667 15.8731 16.1669 16.3332C16.1669 16.7935 15.7932 17.1672 15.3329 17.1672C14.8729 17.167 14.4999 16.7933 14.4999 16.3332C14.5002 15.8732 14.873 15.5004 15.3329 15.5002Z" fill="white"/>
</svg>
