<svg width="24" height="24" viewBox="0 0 24 24" fill="none" xmlns="http://www.w3.org/2000/svg">
<g clip-path="url(#clip0_11_2025)">
<path d="M2 5C2 3.34315 3.34315 2 5 2H16C17.6569 2 19 3.34315 19 5V20.2842C19 20.5971 18.6569 20.7889 18.3904 20.6249L16.1409 19.2407L13.524 20.8686C13.3946 20.949 13.2308 20.949 13.1014 20.8686L10.4845 19.2407L7.86764 20.8686C7.73828 20.949 7.57445 20.949 7.44509 20.8686L4.82818 19.2407L2.61128 20.6198C2.34483 20.7855 2 20.5939 2 20.2801V5Z" fill="#64BFD4"/>
<path fill-rule="evenodd" clip-rule="evenodd" d="M4.40918 7C4.40918 6.44772 4.85689 6 5.40918 6H12.4092C12.9615 6 13.4092 6.44772 13.4092 7C13.4092 7.55228 12.9615 8 12.4092 8H5.40918C4.85689 8 4.40918 7.55228 4.40918 7ZM4.40918 11C4.40918 10.4477 4.85689 10 5.40918 10H9.40918C9.96146 10 10.4092 10.4477 10.4092 11C10.4092 11.5523 9.96146 12 9.40918 12H5.40918C4.85689 12 4.40918 11.5523 4.40918 11Z" fill="#3F94A7"/>
<path d="M22 17C22 19.7614 19.7614 22 17 22C14.2386 22 12 19.7614 12 17C12 14.2386 14.2386 12 17 12C19.7614 12 22 14.2386 22 17Z" fill="#FECB48"/>
<path d="M19.0425 15.9593C19.3192 15.6827 19.3192 15.2341 19.0425 14.9575C18.7659 14.6808 18.3173 14.6808 18.0407 14.9575L14.9575 18.0407C14.6808 18.3173 14.6808 18.7659 14.9575 19.0425C15.2341 19.3192 15.6827 19.3192 15.9593 19.0425L19.0425 15.9593Z" fill="white"/>
<path d="M15.6325 16.4882C16.0955 16.4882 16.4709 16.1128 16.4709 15.6498C16.4709 15.1868 16.0955 14.8115 15.6325 14.8115C15.1695 14.8115 14.7942 15.1868 14.7942 15.6498C14.7942 16.1128 15.1695 16.4882 15.6325 16.4882Z" fill="white"/>
<path d="M18.3188 19.2482C18.7818 19.2482 19.1571 18.8729 19.1571 18.4099C19.1571 17.9469 18.7818 17.5715 18.3188 17.5715C17.8558 17.5715 17.4804 17.9469 17.4804 18.4099C17.4804 18.8729 17.8558 19.2482 18.3188 19.2482Z" fill="white"/>
</g>
<defs>
<clipPath id="clip0_11_2025">
<rect width="24" height="24" fill="white"/>
</clipPath>
</defs>
</svg>
