<svg width="24" height="24" viewBox="0 0 24 24" fill="none" xmlns="http://www.w3.org/2000/svg">
<g clip-path="url(#clip0_11_1977)">
<path d="M13.1245 3.42825C12.4671 2.85709 11.5329 2.85709 10.8755 3.42825L3 10.2707V20.045C3 21.1247 3.80589 21.9999 4.8 21.9999H19.2C20.1941 21.9999 21 21.1247 21 20.045V10.2707L13.1245 3.42825Z" fill="#BAD6F4"/>
<path fill-rule="evenodd" clip-rule="evenodd" d="M12.5679 4.11591C12.2359 3.83732 11.7641 3.83732 11.4321 4.11591L3.47702 10.791C3.08497 11.1199 2.51289 11.0533 2.19924 10.642C1.8856 10.2308 1.94916 9.63079 2.34122 9.30182L10.2963 2.62677C11.2923 1.791 12.7077 1.79099 13.7037 2.62677L21.6588 9.30182C22.0508 9.63079 22.1144 10.2308 21.8008 10.642C21.4871 11.0533 20.915 11.1199 20.523 10.791L12.5679 4.11591Z" fill="#0068FF"/>
<path fill-rule="evenodd" clip-rule="evenodd" d="M8.20859 11C7.98768 11 7.80859 11.1791 7.80859 11.4V13.6C7.80859 13.8209 7.98768 14 8.20859 14H10.4086C10.6295 14 10.8086 13.8209 10.8086 13.6V11.4C10.8086 11.1791 10.6295 11 10.4086 11H8.20859ZM8.20859 15.5615C7.98768 15.5615 7.80859 15.7406 7.80859 15.9615V18.1615C7.80859 18.3824 7.98768 18.5615 8.20859 18.5615H10.4086C10.6295 18.5615 10.8086 18.3824 10.8086 18.1615V15.9615C10.8086 15.7406 10.6295 15.5615 10.4086 15.5615H8.20859ZM13.1914 11.4C13.1914 11.1791 13.3705 11 13.5914 11H15.7914C16.0123 11 16.1914 11.1791 16.1914 11.4V13.6C16.1914 13.8209 16.0123 14 15.7914 14H13.5914C13.3705 14 13.1914 13.8209 13.1914 13.6V11.4ZM13.5914 15.5615C13.3705 15.5615 13.1914 15.7406 13.1914 15.9615V18.1615C13.1914 18.3824 13.3705 18.5615 13.5914 18.5615H15.7914C16.0123 18.5615 16.1914 18.3824 16.1914 18.1615V15.9615C16.1914 15.7406 16.0123 15.5615 15.7914 15.5615H13.5914Z" fill="#5497FD"/>
</g>
<defs>
<clipPath id="clip0_11_1977">
<rect width="24" height="24" fill="white"/>
</clipPath>
</defs>
</svg>
