<svg width="24" height="24" viewBox="0 0 24 24" fill="none" xmlns="http://www.w3.org/2000/svg">
<g clip-path="url(#clip0_11_2012)">
<path fill-rule="evenodd" clip-rule="evenodd" d="M20.5645 3.45758C20.8574 3.75047 20.8574 4.22534 20.5645 4.51824L18.1777 6.90509C17.8848 7.19798 17.4099 7.19798 17.117 6.90509V6.90509C16.8241 6.61219 16.8241 6.13732 17.117 5.84443L19.5038 3.45758C19.7967 3.16468 20.2716 3.16468 20.5645 3.45758V3.45758Z" fill="#FFD873"/>
<path d="M21.8532 2.35292C21.8439 2.30502 21.8115 2.27073 21.7637 2.25821C21.4343 2.17057 20.0714 1.83961 19.1138 2.09491C18.0179 2.38722 17.7137 3.51672 18.277 4.11549C18.4236 4.27117 18.5801 4.35772 18.7328 4.40998C18.9156 4.47258 19.0919 4.48238 19.2346 4.46605C19.3708 4.45026 19.4823 4.56947 19.4576 4.70283C19.4334 4.83184 19.4252 4.99024 19.463 5.15899C19.5009 5.3261 19.5844 5.50355 19.7442 5.67393C20.3081 6.27271 21.4656 6.04898 21.8351 4.9848C22.158 4.05561 21.9186 2.68497 21.8532 2.35292Z" fill="#77B2FF"/>
<path d="M12 7.21836C12.9087 5.33789 17.149 3.38888 19.8749 6.83641C21.3608 8.71568 21.3892 12.1644 19.8748 14.3583C17.8073 18.1477 12.9 20.9399 12 20.9399C11.1 20.9399 6.19272 18.1477 4.12515 14.3583C2.61075 12.1644 2.63922 8.71568 4.12513 6.83641C6.85105 3.38888 11.0913 5.33789 12 7.21836Z" fill="#EF4452"/>
<path fill-rule="evenodd" clip-rule="evenodd" d="M11.4698 12.5836C11.7627 12.8764 11.7627 13.3513 11.4698 13.6442L6.17477 18.9392C5.88188 19.2321 5.407 19.2321 5.11411 18.9392V18.9392C4.82122 18.6463 4.82122 18.1715 5.11411 17.8786L10.4091 12.5836C10.702 12.2907 11.1769 12.2907 11.4698 12.5836V12.5836Z" fill="#FFD873"/>
<path d="M2.10484 19.1271C2.02242 19.2095 2.07688 19.3506 2.1933 19.3563L4.49309 19.4683L4.69473 21.8814C4.70426 21.9953 4.84274 22.046 4.9236 21.9652L7.95694 18.9318C8.73799 18.1508 8.73799 16.8845 7.95694 16.1034C7.17589 15.3224 5.90956 15.3224 5.12851 16.1034L2.10484 19.1271Z" fill="#77B2FF"/>
</g>
<defs>
<clipPath id="clip0_11_2012">
<rect width="24" height="24" fill="white"/>
</clipPath>
</defs>
</svg>
