<svg width="24" height="24" viewBox="0 0 24 24" fill="none" xmlns="http://www.w3.org/2000/svg">
<g clip-path="url(#clip0_11_1983)">
<path d="M2 6C2 4.34315 3.34315 3 5 3H19C20.6569 3 22 4.34315 22 6V16C22 17.6569 20.6569 19 19 19H5C3.34315 19 2 17.6569 2 16V6Z" fill="#57CAE4"/>
<path opacity="0.8" fill-rule="evenodd" clip-rule="evenodd" d="M9.19287 15.9429C9.19287 15.5287 8.89812 15.1929 8.53453 15.1929L4.85121 15.1929C4.48762 15.1929 4.19287 15.5287 4.19287 15.9429C4.19287 16.3571 4.48762 16.6929 4.85121 16.6929H8.53453C8.89812 16.6929 9.19287 16.3571 9.19287 15.9429Z" fill="white"/>
<path d="M22 4C22 3.44772 21.5523 3 21 3L3 3C2.44772 3 2 3.44772 2 4L2 6L22 6V4Z" fill="#2DABC8"/>
<ellipse cx="18" cy="16" rx="5" ry="5" fill="#01A3C7"/>
<path d="M18.6903 13.3513L16.2426 15.0606C16.1308 15.1387 16.1282 15.3032 16.2374 15.3848L17.3615 16.2249C17.441 16.2844 17.4649 16.3932 17.4175 16.4805L16.542 18.0932C16.4035 18.3485 16.6972 18.6199 16.9407 18.4616L19.9859 16.4822C20.1559 16.3717 20.1306 16.1154 19.9422 16.0404L18.4286 15.437C18.2857 15.3801 18.2277 15.2088 18.3065 15.0767L19.1054 13.7376C19.2654 13.4693 18.9464 13.1724 18.6903 13.3513Z" fill="white"/>
</g>
<defs>
<clipPath id="clip0_11_1983">
<rect width="24" height="24" fill="white"/>
</clipPath>
</defs>
</svg>
