<svg width="24" height="24" viewBox="0 0 24 24" fill="none" xmlns="http://www.w3.org/2000/svg">
<g clip-path="url(#clip0_11_1913)">
<path d="M3.95203 20.2279C4.19266 20.2279 15.1897 20.229 16.0429 20.229V17.3814C16.0429 15.811 15.1336 14.3788 13.701 13.6936L11.0836 12.4408C10.882 12.3442 10.7536 12.1422 10.7536 11.9212C10.7536 11.7001 10.882 11.4981 11.0836 11.4016L13.701 10.1487C15.1336 9.46295 16.0429 8.03075 16.0429 6.46087V3.6123H3.95203V6.45982C3.95203 8.03022 4.8614 9.46242 6.29393 10.1477L8.91132 11.4005C9.11298 11.497 9.24137 11.6991 9.24137 11.9201C9.24137 12.1411 9.11298 12.3432 8.91132 12.4397L6.29393 13.6925C4.8614 14.3783 3.95203 15.8105 3.95203 17.3804L3.95203 20.2279Z" fill="#D9D9D9"/>
<path d="M6.08366 15.5044C6.75054 14.7359 7.71803 14.2944 8.73557 14.2944H11.2589C12.2764 14.2944 13.2439 14.7359 13.9108 15.5044C14.4649 16.143 14.7699 16.9601 14.7699 17.8055V20.4487H5.22449V17.8055C5.22449 16.9601 5.52956 16.143 6.08366 15.5044Z" fill="#FECB48"/>
<path d="M3.90657 1.99805H16.0873C16.5894 1.99805 16.9969 2.39418 16.9969 2.88227C16.9969 3.37036 16.5894 3.76649 16.0873 3.76649H3.90657C3.40446 3.76649 2.99695 3.37036 2.99695 2.88227C2.99695 2.39418 3.40446 1.99805 3.90657 1.99805Z" fill="#ADB8C2"/>
<path d="M3.90657 20.23H16.0873C16.5894 20.23 16.9969 20.6261 16.9969 21.1142C16.9969 21.6023 16.5894 21.9984 16.0873 21.9984H3.90657C3.40446 21.9984 2.99695 21.6023 2.99695 21.1142C2.99695 20.6261 3.40446 20.23 3.90657 20.23Z" fill="#ADB8C2"/>
<ellipse cx="16.9999" cy="16.998" rx="5" ry="5" fill="#FF8207"/>
<path fill-rule="evenodd" clip-rule="evenodd" d="M16.9016 14.4644C17.2519 14.4644 17.5358 14.7534 17.5358 15.11V16.5644L19.0411 18.0972C19.2888 18.3493 19.2888 18.7582 19.0411 19.0103C18.7935 19.2625 18.392 19.2625 18.1443 19.0103L16.4532 17.2885C16.3343 17.1674 16.2675 17.0031 16.2675 16.8319V15.11C16.2675 14.7534 16.5514 14.4644 16.9016 14.4644Z" fill="white"/>
</g>
<defs>
<clipPath id="clip0_11_1913">
<rect width="24" height="24" fill="white"/>
</clipPath>
</defs>
</svg>
