<svg width="24" height="24" viewBox="0 0 24 24" fill="none" xmlns="http://www.w3.org/2000/svg">
<g clip-path="url(#clip0_11_1882)">
<path fill-rule="evenodd" clip-rule="evenodd" d="M21.7395 2.58953C20.5017 1.34646 18.4948 1.34646 17.257 2.58954L6.79779 13.0931L3.29947 12.6766C2.97802 12.6383 2.65685 12.7501 2.42796 12.9799L0.595962 14.8197C0.31556 15.1013 0.432565 15.5812 0.810792 15.7009L6.79779 17.5947L8.68364 23.6071C8.80278 23.987 9.28065 24.1045 9.56105 23.8229L11.3931 21.9831C11.6219 21.7532 11.7333 21.4307 11.6952 21.1079L11.2803 17.5947L21.7395 7.09112C22.9774 5.84804 22.9774 3.83261 21.7395 2.58953Z" fill="#77B2FF"/>
<path fill-rule="evenodd" clip-rule="evenodd" d="M15.7613 4.09061L5.46794 2.30841C5.12963 2.24983 4.78407 2.35998 4.54133 2.60376L3.55993 3.58932C3.31055 3.83976 3.37089 4.26059 3.68051 4.43019L11.2787 8.59224L15.7613 4.09061ZM20.2439 8.59219L22.0185 18.9293C22.0769 19.269 21.9672 19.616 21.7244 19.8598L20.743 20.8454C20.4936 21.0958 20.0746 21.0352 19.9057 20.7243L15.7613 13.0938L20.2439 8.59219Z" fill="#AED1FF"/>
<path d="M15.9995 16C15.9995 15.4477 16.4472 15 16.9995 15H22.9995C23.5518 15 23.9995 15.4477 23.9995 16V22C23.9995 22.5523 23.5518 23 22.9995 23H16.9995C16.4472 23 15.9995 22.5523 15.9995 22V16Z" fill="#B982F3"/>
<path d="M18.9995 23H17.4995V23.625C17.4995 23.8321 17.6674 24 17.8745 24H18.6245C18.8316 24 18.9995 23.8321 18.9995 23.625V23Z" fill="#4D5762"/>
<path d="M22.4995 23H20.9995V23.625C20.9995 23.8321 21.1674 24 21.3745 24H22.1245C22.3316 24 22.4995 23.8321 22.4995 23.625V23Z" fill="#4D5762"/>
<path d="M18.9995 12C18.4472 12 17.9995 12.4477 17.9995 13V15H18.7495V13H21.2495V15H21.9995V13C21.9995 12.4477 21.5518 12 20.9995 12H18.9995Z" fill="#4D5762"/>
</g>
<defs>
<clipPath id="clip0_11_1882">
<rect width="24" height="24" fill="white"/>
</clipPath>
</defs>
</svg>
