<svg width="24" height="24" viewBox="0 0 24 24" fill="none" xmlns="http://www.w3.org/2000/svg">
<g clip-path="url(#clip0_11_2023)">
<path d="M2.00012 4.38379C2.00012 3.55536 2.6717 2.88379 3.50012 2.88379H20.5001C21.3285 2.88379 22.0001 3.55536 22.0001 4.38379V17.3838C22.0001 18.2122 21.3285 18.8838 20.5001 18.8838H3.50012C2.67169 18.8838 2.00012 18.2122 2.00012 17.3838V4.38379Z" fill="#6997F1"/>
<path d="M6.00061 20.3505C6.00061 18.4359 7.55269 16.8838 9.46728 16.8838H14.5339C16.4485 16.8838 18.0006 18.4359 18.0006 20.3505C18.0006 20.645 17.7618 20.8838 17.4673 20.8838H6.53394C6.23939 20.8838 6.00061 20.645 6.00061 20.3505Z" fill="#AFCAFF"/>
<path d="M10.7253 7.89337C10.7253 7.18903 11.2963 6.61797 12.0007 6.61797C12.705 6.61797 13.2761 7.18903 13.2761 7.89337V8.8596H13.9761V7.89337C13.9761 6.80244 13.0916 5.91797 12.0007 5.91797C10.9097 5.91797 10.0253 6.80244 10.0253 7.89337H10.7253Z" fill="white"/>
<path d="M9.43333 8.86035H14.5667C15.0821 8.86035 15.5 9.27822 15.5 9.79368V13.2937C15.5 13.8092 15.0821 14.227 14.5667 14.227H9.43333C8.91787 14.227 8.5 13.8092 8.5 13.2937V9.79368C8.5 9.27822 8.91787 8.86035 9.43333 8.86035Z" fill="white"/>
<path fill-rule="evenodd" clip-rule="evenodd" d="M12.0006 10.3359C12.4356 10.3359 12.7881 10.6979 12.7881 11.1444V11.9425C12.7881 12.389 12.4356 12.7509 12.0006 12.7509C11.5657 12.7509 11.2131 12.389 11.2131 11.9425V11.1444C11.2131 10.6979 11.5657 10.3359 12.0006 10.3359Z" fill="#6897F1"/>
</g>
<defs>
<clipPath id="clip0_11_2023">
<rect width="24" height="24" fill="white"/>
</clipPath>
</defs>
</svg>
