<svg width="24" height="24" viewBox="0 0 24 24" fill="none" xmlns="http://www.w3.org/2000/svg">
<g clip-path="url(#clip0_11_1899)">
<path d="M2.5 3.85714C2.5 2.83147 3.33574 2 4.36667 2H14.6333C15.6643 2 16.5 2.83147 16.5 3.85714V19.6429C16.5 20.6685 15.6643 21.5 14.6333 21.5H4.36667C3.33574 21.5 2.5 20.6685 2.5 19.6429V3.85714Z" fill="#87AEF8"/>
<path d="M9.68311 13.3555C12.5718 13.3555 13.6831 15.3554 13.6831 16.2441C13.6831 17.1329 11.35 17.3555 9.68311 17.3555C8.01621 17.3555 5.68311 17.1329 5.68311 16.2441C5.68315 15.2441 6.79443 13.3555 9.68311 13.3555ZM9.68311 8.35547C10.7877 8.35547 11.6831 9.2509 11.6831 10.3555C11.6831 11.46 10.7877 12.3555 9.68311 12.3555C8.57854 12.3555 7.68311 11.46 7.68311 10.3555C7.68311 9.2509 8.57854 8.35547 9.68311 8.35547Z" fill="#5785DC"/>
<path d="M6.68311 4.25C6.68311 4.66421 7.01889 5 7.43311 5H11.9331C12.3473 5 12.6831 4.66421 12.6831 4.25V4.25C12.6831 3.83579 12.3473 3.5 11.9331 3.5H7.43311C7.01889 3.5 6.68311 3.83579 6.68311 4.25V4.25Z" fill="#F7FBFF"/>
<circle cx="17" cy="17" r="5" fill="#4D74E8"/>
<path fill-rule="evenodd" clip-rule="evenodd" d="M19.5199 15.0414C19.8267 15.3636 19.8267 15.886 19.5199 16.2082L16.9008 18.9582C16.594 19.2804 16.0965 19.2804 15.7897 18.9582L14.4801 17.5832C14.1733 17.261 14.1733 16.7386 14.4801 16.4164C14.787 16.0943 15.2845 16.0943 15.5913 16.4164L16.3452 17.2081L18.4087 15.0414C18.7155 14.7193 19.213 14.7193 19.5199 15.0414Z" fill="white"/>
</g>
<defs>
<clipPath id="clip0_11_1899">
<rect width="24" height="24" fill="white"/>
</clipPath>
</defs>
</svg>
