<svg width="24" height="24" viewBox="0 0 24 24" fill="none" xmlns="http://www.w3.org/2000/svg">
<g clip-path="url(#clip0_11_1938)">
<path d="M12.1313 19.5H20.8813C21.5717 19.5 22.1313 20.0596 22.1313 20.75C22.1313 21.4404 21.5717 22 20.8813 22H12.1313V19.5Z" fill="#5A5B62"/>
<path d="M21.8925 12C21.8925 17.5228 17.41 22 11.8806 22C6.35114 22 1.86865 17.5228 1.86865 12C1.86865 6.47715 6.35114 2 11.8806 2C17.41 2 21.8925 6.47715 21.8925 12Z" fill="#9FA6AF"/>
<path d="M20.3908 12.0059C20.3908 16.7003 16.5807 20.5059 11.8807 20.5059C7.18072 20.5059 3.37061 16.7003 3.37061 12.0059C3.37061 7.31144 7.18072 3.50586 11.8807 3.50586C16.5807 3.50586 20.3908 7.31144 20.3908 12.0059Z" fill="#B1B7BF"/>
<path d="M14.1309 7.51172C14.1309 8.75436 13.1235 9.76172 11.8809 9.76172C10.6382 9.76172 9.63086 8.75436 9.63086 7.51172C9.63086 6.26908 10.6382 5.26172 11.8809 5.26172C13.1235 5.26172 14.1309 6.26908 14.1309 7.51172Z" fill="white"/>
<path d="M14.1309 16.5117C14.1309 17.7544 13.1235 18.7617 11.8809 18.7617C10.6382 18.7617 9.63086 17.7544 9.63086 16.5117C9.63086 15.2691 10.6382 14.2617 11.8809 14.2617C13.1235 14.2617 14.1309 15.2691 14.1309 16.5117Z" fill="white"/>
<path d="M9.63086 12C9.63086 13.2426 8.6235 14.25 7.38086 14.25C6.13822 14.25 5.13086 13.2426 5.13086 12C5.13086 10.7574 6.13822 9.75 7.38086 9.75C8.6235 9.75 9.63086 10.7574 9.63086 12Z" fill="white"/>
<path d="M18.6309 12C18.6309 13.2426 17.6235 14.25 16.3809 14.25C15.1382 14.25 14.1309 13.2426 14.1309 12C14.1309 10.7574 15.1382 9.75 16.3809 9.75C17.6235 9.75 18.6309 10.7574 18.6309 12Z" fill="white"/>
<path d="M11.8809 12.7609C12.2951 12.7609 12.6309 12.4255 12.6309 12.0118C12.6309 11.5981 12.2951 11.2627 11.8809 11.2627C11.4666 11.2627 11.1309 11.5981 11.1309 12.0118C11.1309 12.4255 11.4666 12.7609 11.8809 12.7609Z" fill="white"/>
</g>
<defs>
<clipPath id="clip0_11_1938">
<rect width="24" height="24" fill="white"/>
</clipPath>
</defs>
</svg>
