<svg width="24" height="24" viewBox="0 0 24 24" fill="none" xmlns="http://www.w3.org/2000/svg">
<g clip-path="url(#clip0_11_2016)">
<path d="M1.99997 5.63518H20.1818C20.8512 5.63518 21.3939 6.17787 21.3939 6.8473V18.9685C21.3939 19.9727 20.5799 20.7867 19.5757 20.7867H3.81815C2.814 20.7867 1.99997 19.9727 1.99997 18.9685V5.63518Z" fill="#4497FF"/>
<path d="M1.99997 5.02912C1.99997 4.02497 2.814 3.21094 3.81815 3.21094H18.9697C19.6391 3.21094 20.1818 3.75362 20.1818 4.42306V5.63518H1.99997V5.02912Z" fill="#4497FF"/>
<path d="M19.0188 3.21875C19.6654 3.24452 20.1818 3.77691 20.1818 4.42989V5.64202C20.1818 5.64202 20.1818 5.64202 20.1818 5.64202L4.19911 5.64277C3.9692 5.64028 3.74696 5.60577 3.53665 5.54351C2.99198 5.33119 2.60605 4.80154 2.60605 4.18174C2.60605 3.96442 2.6535 3.75818 2.7386 3.57281C3.02547 3.3608 3.37691 3.23114 3.75799 3.21875H19.0188Z" fill="#2876E6"/>
<path d="M18.0607 5.63389L4.72742 5.63398V5.42188C4.72742 4.86959 5.17513 4.42188 5.72742 4.42188H17.0608C17.613 4.42188 18.0607 4.86959 18.0607 5.42188V5.63389Z" fill="#D7E9F9"/>
<path d="M18.9697 13.0618C18.9697 11.8066 19.9873 10.7891 21.2425 10.7891H21.394C21.7287 10.7891 22 11.0604 22 11.3951V14.7285C22 15.0632 21.7287 15.3345 21.394 15.3345H21.2425C19.9873 15.3345 18.9697 14.317 18.9697 13.0618Z" fill="#80BBFB"/>
<path opacity="0.8" d="M12.4502 14.8551C12.7192 14.7013 12.9002 14.4139 12.9002 14.0847C12.9002 13.5935 12.4973 13.1953 12.0002 13.1953C11.5032 13.1953 11.1002 13.5935 11.1002 14.0847C11.1002 14.4139 11.2812 14.7014 11.5502 14.8552V15.3162C11.5502 15.5209 11.7517 15.6868 12.0002 15.6868C12.2488 15.6868 12.4502 15.5209 12.4502 15.3162V14.8551Z" fill="#4497FF"/>
</g>
<defs>
<clipPath id="clip0_11_2016">
<rect width="24" height="24" fill="white"/>
</clipPath>
</defs>
</svg>
