<svg width="24" height="24" viewBox="0 0 24 24" fill="none" xmlns="http://www.w3.org/2000/svg">
<g clip-path="url(#clip0_11_1914)">
<path d="M5.23057 8.77323C2.34145 8.77323 0 11.1214 0 14.0187C0 16.538 1.77196 18.6414 4.13326 19.1468C3.78006 19.6861 3.57369 20.3289 3.57369 21.0214C3.57369 22.2992 4.27235 23.4131 5.30758 23.9998H8.65174C9.54358 23.4627 10.1283 22.4775 10.481 21.286C10.7231 20.4343 10.856 19.306 10.8441 17.8773C10.8322 16.339 10.7012 15.2545 10.5246 13.8396C10.1734 10.9622 8.1177 8.77124 5.22858 8.77124L5.23057 8.77323Z" fill="#FFDEEB"/>
<path d="M18.6916 23.9998H15.3474C14.4556 23.4627 13.8708 22.4775 13.5182 21.286C13.2761 20.4323 13.1451 19.306 13.155 17.8773C13.165 16.341 13.2979 15.2565 13.4745 13.8396C13.8257 10.9622 15.8814 8.77124 18.7706 8.77124L18.7686 8.77323C21.6577 8.77323 23.9991 11.1214 23.9991 14.0187C23.9991 16.538 22.2272 18.6414 19.8659 19.1468C20.2191 19.6841 20.4254 20.3289 20.4254 21.0214C20.4254 22.2992 19.7268 23.4131 18.6916 23.9998Z" fill="#FFDEEB"/>
<path d="M17.3984 10.7846C17.5254 13.3616 18.0175 15.6699 18.3628 17.0191L18.3588 17.0171C18.7438 17.7952 18.9581 18.6528 18.9581 19.5583C18.9581 21.2944 18.1734 22.8653 16.906 23.9998H7.08924C5.82137 22.865 5.03636 21.2938 5.03636 19.5583C5.03636 18.6528 5.25265 17.7932 5.63562 17.0171C5.98088 15.6679 6.47298 13.3596 6.59998 10.7826C6.79733 5.50152 11.6589 5.53476 11.9872 5.53701C11.9923 5.53704 11.9963 5.53707 11.9992 5.53707C12.0021 5.53707 12.0061 5.53704 12.0112 5.53701C12.3395 5.53477 17.2011 5.50153 17.3984 10.7846Z" fill="#FFA6CA"/>
<path fill-rule="evenodd" clip-rule="evenodd" d="M5.15411 14.5236C5.58668 14.241 5.96568 13.7435 6.05894 13.6003V13.5983C6.13633 13.4789 6.24149 13.3873 6.35857 13.3217C6.21371 14.3763 6.02918 15.3255 5.85456 16.1036C5.72955 16.1733 5.59859 16.2349 5.46366 16.2847C5.28904 16.3504 5.1045 16.3822 4.91996 16.3822C4.6759 16.3822 4.42984 16.3265 4.20562 16.2131C3.80678 16.0121 3.50715 15.6519 3.38214 15.2241C3.38115 15.2191 3.37966 15.2146 3.37817 15.2101C3.37669 15.2056 3.3752 15.2012 3.37421 15.1962C3.27301 14.834 3.21745 14.4579 3.18173 14.0838C3.16921 13.9548 3.1624 13.825 3.1556 13.6952C3.13867 13.3725 3.12176 13.05 3.01704 12.7406C2.99935 12.6883 2.98011 12.6376 2.96109 12.5874C2.89689 12.4181 2.83522 12.2555 2.8444 12.062C2.8702 11.5247 3.27499 11.1248 3.76114 11.0651C3.88814 11.0491 4.02108 11.0511 4.15403 11.069C4.17106 10.6553 4.2278 10.3538 4.23646 10.3078C4.23688 10.3056 4.23737 10.3029 4.23737 10.3029C4.28102 10.082 4.49533 9.94073 4.71558 9.98451C4.93584 10.0283 5.07672 10.2432 5.03307 10.4641C5.03108 10.4701 4.93584 10.9656 4.96759 11.5387C4.97056 11.5446 4.97403 11.5501 4.97751 11.5556C4.98098 11.5611 4.98445 11.5665 4.98743 11.5725C5.04696 11.6322 5.09855 11.7018 5.13823 11.7854C5.23149 11.9844 5.22554 12.2073 5.15609 12.4123C5.11442 12.5376 5.05291 12.661 4.97949 12.7704C4.97651 12.7749 4.97354 12.7794 4.97058 12.7838C4.91068 12.8737 4.8578 12.9531 4.84456 13.065C4.83305 13.1616 4.84032 13.2625 4.84746 13.3615C4.85016 13.399 4.85285 13.4363 4.85448 13.4729C4.86043 13.6062 4.87036 13.7376 4.88226 13.8709C4.90012 14.0619 4.92195 14.253 4.95766 14.442C4.97354 14.5315 5.0787 14.5733 5.15411 14.5236ZM4.35841 11.6839C4.37428 11.662 4.45961 11.5566 4.70963 11.6899H4.71161C4.79098 11.7317 4.88821 11.7018 4.92988 11.6242C4.97155 11.5446 4.94179 11.4471 4.8644 11.4053C4.42984 11.1705 4.16395 11.3795 4.08855 11.5148C3.95362 11.7297 4.00719 11.9327 4.11236 12.076C4.04291 12.1536 3.97346 12.269 3.93774 12.4381C3.9179 12.5257 3.97346 12.6112 4.06077 12.6292C4.07267 12.6331 4.0826 12.6331 4.0945 12.6331C4.16792 12.6331 4.23539 12.5814 4.25126 12.5058C4.29491 12.2988 4.41595 12.2351 4.41595 12.2351C4.46953 12.2113 4.50525 12.1595 4.5112 12.1018C4.51517 12.0421 4.48739 11.9864 4.43977 11.9526C4.38619 11.9168 4.27309 11.8192 4.35841 11.6839Z" fill="#F55496"/>
<path d="M18.0867 15.8494C18.0847 15.8434 18.0827 15.8295 18.0827 15.8295L18.303 13.8018C18.8586 14.0943 19.5134 14.6535 19.7416 15.5469L19.7535 15.6007C19.7932 15.8156 19.8051 16.0106 19.7892 16.1957C19.7476 16.6832 19.5075 17.0812 19.1146 17.32C18.9578 17.4155 18.7792 17.4792 18.5788 17.517C18.4459 17.5429 18.305 17.5588 18.1502 17.5588H18.0847C18.0212 17.5568 17.9577 17.5508 17.8962 17.5449C17.3347 17.4992 16.8057 17.3208 16.2758 17.1421C16.0661 17.0713 15.8562 17.0006 15.6441 16.9379C15.6345 16.9351 15.625 16.9322 15.6155 16.9294C15.2338 16.8155 14.8851 16.7114 14.6063 16.4046C14.3106 16.0783 14.1578 15.533 14.3404 15.1012C14.3741 15.0216 14.4198 14.946 14.4773 14.8763C14.7472 14.552 15.1976 14.4604 15.5508 14.6594C15.6441 14.7112 15.7095 14.7768 15.7651 14.8485C15.7711 14.735 15.8504 14.6355 15.9675 14.6176C16.1044 14.5977 16.2294 14.6893 16.2493 14.8226C16.2533 14.8506 16.2569 14.8789 16.2605 14.9073C16.2866 15.115 16.3131 15.325 16.533 15.4196C16.8703 15.5649 17.2355 15.6743 17.5926 15.7599C17.5971 15.7608 17.6088 15.7634 17.6257 15.7673C17.7199 15.7888 17.9781 15.8477 18.0808 15.8494H18.0867Z" fill="#F55496"/>
<path d="M4.92784 11.6249C4.96951 11.5473 4.93975 11.4478 4.86236 11.406C4.4278 11.1732 4.16191 11.3801 4.0865 11.5154C3.95157 11.7304 4.00713 11.9353 4.11032 12.0766C4.04285 12.1542 3.97142 12.2696 3.9357 12.4388C3.91784 12.5263 3.9734 12.6119 4.05872 12.6298C4.07063 12.6318 4.08055 12.6338 4.09246 12.6338C4.16588 12.6338 4.23334 12.582 4.24922 12.5064C4.29287 12.2995 4.41193 12.2358 4.41391 12.2358C4.46749 12.2119 4.5032 12.1602 4.50916 12.1025C4.51511 12.0448 4.48733 11.9871 4.43772 11.9532C4.38613 11.9174 4.27303 11.8199 4.35637 11.6846C4.37026 11.6627 4.45756 11.5552 4.70758 11.6906C4.78696 11.7323 4.8822 11.7025 4.92586 11.6249H4.92784Z" fill="#A13359"/>
<path d="M18.8728 18.5977C17.0453 19.7638 14.7019 20.4165 11.9973 20.4165H11.9993C9.29471 20.4165 6.95127 19.7658 5.12375 18.5977C5.12772 18.5768 5.13119 18.5559 5.13466 18.535C5.13813 18.5141 5.14161 18.4932 5.14558 18.4723C5.14954 18.4524 5.15351 18.433 5.15748 18.4136C5.16145 18.3942 5.16542 18.3748 5.16939 18.3549C5.18725 18.2773 5.2051 18.1997 5.22495 18.1241C5.23042 18.109 5.23401 18.0929 5.23766 18.0766C5.2393 18.0692 5.24096 18.0618 5.24281 18.0544C5.24479 18.0544 5.24479 18.0504 5.24479 18.0504C5.24876 18.0325 5.25471 18.0146 5.26066 17.9967C5.27315 17.9508 5.28757 17.9059 5.30189 17.8612C5.30807 17.842 5.31422 17.8228 5.32019 17.8037C5.33607 17.7539 5.35194 17.7062 5.3698 17.6564C5.37377 17.6465 5.37774 17.636 5.38171 17.6256C5.38568 17.6151 5.38964 17.6047 5.39361 17.5947C7.10605 18.7827 9.36416 19.4514 11.9993 19.4514C13.7653 19.4514 15.3607 19.1489 16.7378 18.5937L17.2557 18.6494C17.5394 18.6812 17.7954 18.4743 17.8271 18.1877L17.839 18.0703C18.1049 17.9231 18.3609 17.7639 18.605 17.5947C18.6129 17.6146 18.6208 17.6345 18.6288 17.6564C18.6466 17.7061 18.6625 17.7559 18.6783 17.8056C18.685 17.8268 18.6918 17.8481 18.6987 17.8694C18.7123 17.9118 18.726 17.9543 18.7379 17.9967L18.7558 18.0504V18.0544C18.759 18.0664 18.7617 18.079 18.7644 18.0919C18.7667 18.1025 18.769 18.1133 18.7716 18.1241C18.7915 18.2017 18.8093 18.2793 18.8272 18.3569C18.8351 18.3947 18.8431 18.4325 18.851 18.4723C18.855 18.4932 18.8585 18.5141 18.8619 18.535C18.8654 18.5559 18.8689 18.5768 18.8728 18.5977Z" fill="white"/>
<path d="M18.9605 19.5613C18.9605 19.9911 18.9108 20.411 18.8196 20.817H18.8235C17.004 21.9612 14.6804 22.602 12.0036 22.602C9.32676 22.602 7.00317 21.9632 5.18358 20.817C5.09032 20.411 5.04269 19.9911 5.04269 19.5613V19.5195C6.79283 20.8687 9.18191 21.6348 12.0016 21.6348C14.8212 21.6348 17.2103 20.8687 18.9605 19.5195V19.5613Z" fill="white"/>
<path d="M13.2801 6.19218C13.2543 6.19218 13.2285 6.1882 13.2027 6.18223L13.2047 6.18024C13.032 6.13845 12.9269 5.96333 12.9705 5.79021L13.0122 5.62106L13.3991 4.06293C13.1213 3.85995 12.9824 3.50375 13.0757 3.15153C13.1967 2.69583 13.665 2.4252 14.1214 2.54659C14.5758 2.66797 14.8477 3.1376 14.7246 3.59529C14.6334 3.93756 14.3476 4.17437 14.0202 4.22213L13.6392 5.75837L13.5916 5.94741C13.5559 6.09467 13.4249 6.19218 13.2801 6.19218Z" fill="#F55496"/>
<path d="M10.7975 6.18203C10.7717 6.188 10.7459 6.19198 10.7201 6.19198L10.7221 6.19397C10.5772 6.19397 10.4463 6.09646 10.4105 5.9492L10.3629 5.76016L9.98193 4.22392C9.65254 4.17616 9.36879 3.93736 9.27751 3.59708C9.15448 3.13939 9.42435 2.67175 9.88073 2.54838C10.3351 2.425 10.8034 2.69563 10.9264 3.15332C11.0197 3.50554 10.8788 3.86174 10.603 4.06472L10.9899 5.62285L11.0316 5.792C11.0753 5.96512 10.9701 6.13825 10.7975 6.18203Z" fill="#F55496"/>
<path d="M9.13234 10.6438C9.2375 10.6976 9.36648 10.6578 9.42204 10.5523C9.49546 10.411 9.69984 10.3712 9.8566 10.407C9.94788 10.4269 10.0253 10.4827 10.059 10.5503C10.0967 10.6259 10.1721 10.6697 10.2515 10.6697C10.2832 10.6697 10.317 10.6617 10.3467 10.6478C10.4519 10.5941 10.4955 10.4667 10.442 10.3593C10.3507 10.1762 10.1681 10.0369 9.95185 9.98914C9.6423 9.9175 9.2256 10.0031 9.04304 10.3553C8.98947 10.4608 9.02915 10.5901 9.13432 10.6458L9.13234 10.6438Z" fill="#281E1E"/>
<path d="M13.6509 10.6438C13.756 10.6976 13.885 10.6578 13.9406 10.5523C14.014 10.411 14.2184 10.3712 14.3751 10.407C14.4664 10.4269 14.5438 10.4827 14.5775 10.5503C14.6152 10.6259 14.6906 10.6697 14.77 10.6697C14.8018 10.6697 14.8355 10.6617 14.8653 10.6478C14.9704 10.5941 15.0141 10.4667 14.9605 10.3593C14.8692 10.1762 14.6867 10.0369 14.4704 9.98914C14.1608 9.9175 13.7441 10.0031 13.5616 10.3553C13.508 10.4608 13.5477 10.5901 13.6529 10.6458L13.6509 10.6438Z" fill="#281E1E"/>
<path d="M10.5018 11.3359H13.498C13.6389 11.3359 13.754 11.4514 13.754 11.5926C13.754 12.6772 13.0813 13.3518 11.9999 13.3518C10.9185 13.3518 10.2458 12.6772 10.2458 11.5926C10.2458 11.4514 10.3609 11.3359 10.5018 11.3359Z" fill="#281E1E"/>
<path d="M17.5228 12.7986C17.5089 12.9199 17.3998 13.0095 17.2787 12.9956L15.7349 12.8284L15.2528 12.7767C15.229 12.7747 15.2091 12.7647 15.1893 12.7568C15.1039 12.719 15.0464 12.6314 15.0563 12.5319L15.0662 12.4304L14.3737 12.3548C14.088 12.323 13.832 12.5299 13.8023 12.8165L13.2744 17.6918C13.2427 17.9784 13.4491 18.2351 13.7348 18.2649L16.737 18.5913L17.2549 18.647C17.5406 18.6789 17.7966 18.4719 17.8264 18.1853L17.8383 18.0679L17.8938 17.5446C17.1101 17.4809 16.3898 17.1585 15.6417 16.9377C15.2468 16.8222 14.8896 16.7188 14.6039 16.4043C14.3063 16.078 14.1535 15.5327 14.338 15.1009C14.3717 15.0213 14.4174 14.9457 14.4749 14.8761C14.7448 14.5497 15.1952 14.4582 15.5484 14.6592C15.6417 14.7129 15.7091 14.7786 15.7627 14.8482C15.7687 14.7348 15.848 14.6353 15.9651 14.6174C16.102 14.5955 16.227 14.689 16.2469 14.8223C16.2826 15.0552 16.2806 15.3119 16.5306 15.4193C16.868 15.5646 17.2331 15.674 17.5902 15.7596C17.62 15.7676 17.9573 15.8472 18.0784 15.8491V15.8292L18.3006 13.8015L18.3542 13.31C18.3859 13.0234 18.1796 12.7667 17.8938 12.7369L17.5585 12.701H17.5347L17.5248 12.7986H17.5228Z" fill="#3962B0"/>
<path d="M16.3731 11.7971L15.1885 12.7523V12.7543C15.1012 12.7165 15.0456 12.6289 15.0555 12.5294L15.0655 12.4279L15.0774 12.3265C15.0913 12.2051 15.2004 12.1155 15.3214 12.1294L15.5 12.1493C15.6211 12.1633 15.7302 12.0737 15.7441 11.9523C15.758 11.831 15.8671 11.7414 15.9882 11.7553L16.3731 11.7971Z" fill="#F3E2ED"/>
<path d="M17.2789 12.994L15.7351 12.8269L15.7331 12.8249L16.8899 11.8916C16.9455 11.9374 16.9812 12.007 16.9733 12.0846C16.9594 12.206 17.0487 12.3155 17.1697 12.3294L17.3483 12.3493C17.4694 12.3632 17.5586 12.4727 17.5448 12.5941L17.5329 12.6955L17.5229 12.797C17.509 12.9184 17.3999 13.008 17.2789 12.994Z" fill="#F3E2ED"/>
<path d="M15.1892 12.7521C15.209 12.76 15.2308 12.77 15.2527 12.772L15.7348 12.8237L16.8917 11.8904C16.8599 11.8646 16.8222 11.8447 16.7786 11.8387L16.3738 11.7949L15.1892 12.7501V12.7521ZM16.3698 11.9342C16.4373 11.9422 16.4849 12.0019 16.4789 12.0695C16.471 12.1372 16.4115 12.185 16.344 12.179C16.2766 12.171 16.2289 12.1113 16.2349 12.0437C16.2408 11.976 16.3023 11.9282 16.3698 11.9342Z" fill="#F9F9FA"/>
<path d="M16.3421 12.1802C16.4096 12.1881 16.4691 12.1384 16.477 12.0707C16.485 12.0031 16.4354 11.9434 16.3679 11.9354C16.3004 11.9274 16.2409 11.9772 16.233 12.0449C16.225 12.1125 16.2746 12.1722 16.3421 12.1802Z" fill="#281E1E"/>
</g>
<defs>
<clipPath id="clip0_11_1914">
<rect width="24" height="24" fill="white"/>
</clipPath>
</defs>
</svg>
