<svg width="24" height="24" viewBox="0 0 24 24" fill="none" xmlns="http://www.w3.org/2000/svg">
<g clip-path="url(#clip0_11_1911)">
<path d="M14.3677 13.8437C14.3677 13.8437 16.5284 17.0738 20.739 17.0212C22.6261 16.9979 24.0221 15.5224 23.9997 13.7236C23.9773 11.9248 22.5446 10.4847 20.6576 10.5081C16.4469 10.5607 14.3677 13.8437 14.3677 13.8437Z" fill="#D6EEFA"/>
<path d="M12.1461 13.8735C12.1461 13.8735 10.0757 17.1624 5.86535 17.227C3.97863 17.2559 2.54208 15.8196 2.51449 14.0209C2.48723 12.2224 3.87898 10.7431 5.76603 10.7138C9.97636 10.6496 12.1461 13.8735 12.1461 13.8735Z" fill="#D6EEFA"/>
<path d="M5.94263 15.9302C5.85045 15.9302 5.75957 15.9241 5.66966 15.9117C5.10296 15.8332 4.59241 15.4103 4.06272 14.5803C3.966 14.4288 3.88193 14.284 3.81182 14.1564L3.56061 14.1921C3.08122 14.2606 2.63753 13.9276 2.56905 13.4486C2.50056 12.9695 2.83357 12.5255 3.31264 12.457L3.92477 12.3694C3.96048 12.3518 3.99748 12.3366 4.0361 12.3239C4.34315 12.222 4.80339 12.2691 5.09031 12.7371C5.14678 12.8296 5.18508 12.9299 5.20455 13.0334C5.26817 13.1668 5.37755 13.3781 5.51744 13.6014C5.74788 13.9692 5.90433 14.1217 5.97086 14.1762C6.13996 14.1639 6.45545 14.0351 6.88193 13.6959C7.29673 13.3658 7.60442 13.0052 7.60735 13.0016C7.92023 12.6329 8.47297 12.5868 8.84201 12.8987C9.21105 13.211 9.25843 13.7624 8.94685 14.1321C8.93062 14.1513 8.54276 14.6095 8.00007 15.0461C7.26979 15.6336 6.57911 15.9302 5.9423 15.9302H5.94263Z" fill="#4D98D3"/>
<path d="M18.5265 14.5462C18.2191 14.5462 17.9209 14.3842 17.7605 14.0967C17.5246 13.6741 17.6761 13.1402 18.0987 12.9042C19.5311 12.1048 19.6852 11.7166 19.7002 11.6643C19.6599 11.4894 19.1834 11.0568 18.8972 10.7971C18.6044 10.5316 18.2727 10.2304 17.9647 9.88408C17.7544 9.64779 17.6878 9.31673 17.7901 9.01748L18.0815 8.16613C18.2383 7.70816 18.7365 7.46376 19.1945 7.62085C19.6524 7.77762 19.8965 8.27584 19.7397 8.7338L19.6216 9.07882C19.7706 9.22293 19.9241 9.3625 20.075 9.49947C20.8043 10.1616 21.5586 10.8461 21.4424 11.8597C21.3409 12.7478 20.5963 13.518 18.9527 14.4352C18.8173 14.5105 18.6709 14.5465 18.5262 14.5465L18.5265 14.5462Z" fill="#4D98D3"/>
<path d="M13.1483 5.22731C13.3314 5.22484 18.0891 5.04659 18.3524 10.3152V10.3162C18.5274 13.1561 19.1294 15.3036 19.4648 16.3123C19.5514 16.5134 19.6264 16.7202 19.6884 16.9314C19.6923 16.9411 19.6952 16.949 19.6952 16.949L19.6933 16.95C19.7919 17.2896 19.8578 17.6409 19.8876 18.0017L19.9052 18.365C19.9412 20.9452 18.1248 23.1628 15.5644 23.9998H11.0556C8.57343 23.1852 6.78962 21.0627 6.75479 18.5476C6.74475 17.813 6.8849 17.1081 7.14932 16.4558C7.45799 15.4269 7.99172 13.277 8.08682 10.4588V10.4578C8.2039 5.18067 12.9695 5.22991 13.1483 5.22731Z" fill="#62BFED"/>
<path d="M18.9108 21.5605C18.1368 22.6755 16.9608 23.5429 15.5632 24H11.0612C9.73359 23.5649 8.60465 22.7576 7.83661 21.7139C9.513 22.3387 11.4443 22.6934 13.4059 22.7158C15.2455 22.7369 17.1891 22.3096 18.9108 21.5605ZM19.904 18.4697C19.9011 19.025 19.8127 19.5631 19.6491 20.0732C17.7047 20.9641 15.492 21.4676 13.3552 21.4434C12.0486 21.4284 10.7708 21.283 9.56219 21.0176C8.6878 20.8258 7.84862 20.5707 7.06024 20.2568C6.88465 19.7596 6.78218 19.2325 6.76044 18.6865C8.65041 19.583 10.9875 20.0997 13.3698 20.127C15.5872 20.1522 17.955 19.5259 19.904 18.4697ZM19.4587 16.2998C19.5495 16.509 19.6279 16.7241 19.6921 16.9443L19.6931 16.9492C19.7223 17.0508 19.7475 17.1543 19.7712 17.2578C17.892 18.2376 15.6818 18.8276 13.3356 18.8613C12.2075 18.8775 11.0781 18.7594 9.98602 18.5195C8.89282 18.2797 7.83905 17.9132 6.85712 17.4404C6.87787 17.335 6.90052 17.2304 6.92743 17.127C6.9277 17.1267 6.9279 17.1244 6.92841 17.123L6.92938 17.1221C6.98745 16.8999 7.05893 16.6825 7.14423 16.4707C7.17211 16.3789 7.20229 16.2746 7.23309 16.165C9.05576 17.0841 11.1852 17.5757 13.3171 17.5449C15.5371 17.5128 17.622 16.9416 19.363 15.999C19.3964 16.1071 19.4288 16.2096 19.4587 16.2998Z" fill="#FDD700"/>
<path d="M15.3294 2.52487C15.7611 2.63393 16.0227 3.07275 15.9133 3.50475C15.8315 3.82737 15.5664 4.05489 15.2571 4.1039L14.8757 5.73454C14.838 5.8965 14.6771 5.99777 14.5151 5.96207L14.5112 5.96109C14.3476 5.92279 14.2463 5.75954 14.2846 5.59628L14.6663 3.96369C14.4025 3.77641 14.2655 3.44146 14.3496 3.1091C14.4586 2.67709 14.8978 2.41549 15.3294 2.52487Z" fill="#4D98D3"/>
<path d="M12.1013 3.10298C12.1947 3.43306 12.0672 3.77159 11.8085 3.96601L12.2356 5.58756C12.2781 5.74984 12.1814 5.9157 12.0191 5.95854C11.9711 5.9712 11.9224 5.97152 11.877 5.96146C11.7692 5.93777 11.678 5.85598 11.6482 5.74205L11.2217 4.12245C10.9111 4.0822 10.6394 3.86247 10.5488 3.54212C10.4275 3.11336 10.6767 2.66773 11.1055 2.54634C11.5339 2.42495 11.9799 2.67422 12.1013 3.10298Z" fill="#4D98D3"/>
<path d="M11.1407 10.1311C11.3981 10.1139 11.5925 9.89128 11.5753 9.6339C11.5581 9.37652 11.3354 9.1821 11.0781 9.1993C10.8207 9.2165 10.6263 9.43916 10.6435 9.69654C10.6607 9.95393 10.8833 10.1483 11.1407 10.1311Z" fill="white"/>
<path d="M15.2242 10.1311C14.9668 10.1139 14.7724 9.89128 14.7896 9.6339C14.8068 9.37652 15.0294 9.1821 15.2868 9.1993C15.5442 9.2165 15.7386 9.43916 15.7214 9.69654C15.7042 9.95393 15.4816 10.1483 15.2242 10.1311Z" fill="white"/>
<path d="M11.008 8.38585C11.0135 8.38552 11.0193 8.38455 11.0252 8.38357C11.2696 8.33359 11.574 8.27095 11.8557 7.98533C11.9054 7.93502 11.9047 7.8542 11.8544 7.80454C11.8041 7.75488 11.7236 7.75521 11.6733 7.80584C11.4466 8.03582 11.2062 8.08523 10.9743 8.13292C10.9048 8.1472 10.86 8.2148 10.8742 8.28393C10.8872 8.34722 10.9453 8.39007 11.008 8.38585Z" fill="#281E1E"/>
<path fill-rule="evenodd" clip-rule="evenodd" d="M10.5288 9.70457C10.5503 10.0249 10.8287 10.2664 11.1488 10.245C11.4691 10.2236 11.7109 9.9467 11.6892 9.62635C11.6678 9.306 11.3909 9.0629 11.0705 9.08432C10.7502 9.10574 10.5074 9.38422 10.5288 9.70457ZM10.7577 9.68932C10.7447 9.49555 10.8927 9.32645 11.0861 9.31347C11.2799 9.30049 11.4474 9.44849 11.4607 9.64226C11.4737 9.83603 11.3273 10.0035 11.1335 10.0165C10.9397 10.0295 10.7706 9.88309 10.7577 9.68932Z" fill="#281E1E"/>
<path d="M15.3399 8.38357C15.3458 8.38455 15.3516 8.38552 15.3571 8.38585C15.4198 8.39007 15.4779 8.34722 15.4909 8.28393C15.5051 8.2148 15.4607 8.14729 15.3912 8.13301C15.1593 8.08532 14.9185 8.03582 14.6918 7.80584C14.6415 7.75521 14.561 7.75488 14.5107 7.80454C14.4603 7.8542 14.4597 7.93502 14.5094 7.98533C14.7911 8.27095 15.0955 8.33359 15.3399 8.38357Z" fill="#281E1E"/>
<path fill-rule="evenodd" clip-rule="evenodd" d="M15.2941 9.08432C14.9738 9.0629 14.6972 9.306 14.6755 9.62635C14.6541 9.9467 14.8959 10.2232 15.2159 10.245C15.5363 10.2664 15.8144 10.0249 15.8358 9.70457C15.8573 9.38422 15.6145 9.10607 15.2941 9.08432ZM15.2315 10.0162C15.0377 10.0032 14.8913 9.83538 14.9043 9.64193C14.9173 9.44816 15.0851 9.30016 15.2789 9.31314C15.4726 9.32613 15.6203 9.49555 15.6073 9.689C15.5944 9.88276 15.4253 10.0291 15.2315 10.0162Z" fill="#281E1E"/>
<path d="M13.1809 12.6341C13.818 12.6341 14.2143 12.2505 14.2143 11.6328C14.2143 10.9197 13.7265 10.2939 13.1809 10.2939C12.6353 10.2939 12.1553 10.9106 12.1488 11.6172V11.6328C12.1488 12.217 12.5026 12.5916 13.0793 12.6302C13.1128 12.6328 13.1462 12.6341 13.1809 12.6341Z" fill="#281E1E"/>
<path d="M7.08965 12.4685C7.11464 12.4711 7.10652 12.4789 7.07147 12.486L6.66803 12.5678C6.63298 12.575 6.58462 12.5785 6.55962 12.5759L6.55411 12.5753L6.60084 12.7811L7.88614 12.8528C7.91211 12.8541 7.90594 12.8619 7.87283 12.8697L6.69822 13.1478C6.68458 13.1511 6.66803 13.1533 6.6518 13.1556C6.64077 13.1848 6.62356 13.2118 6.59922 13.2329L6.58267 13.2471V13.3676L9.11399 12.634L6.50153 12.3429L6.51646 12.4088L7.08997 12.4688L7.08965 12.4685Z" fill="#D0D1D3"/>
<path d="M6.66835 12.5678L7.07179 12.486C7.10684 12.4789 7.11496 12.4711 7.08996 12.4685L6.51645 12.4084L6.55442 12.5756L6.55994 12.5763C6.58493 12.5788 6.63329 12.5753 6.66835 12.5681V12.5678Z" fill="#ECEDEF"/>
<path d="M7.87284 12.8697C7.90594 12.8619 7.91211 12.8544 7.88614 12.8528L6.60085 12.7811L6.61285 12.8343L6.66446 12.822C6.68686 12.8168 6.71931 12.8132 6.73684 12.8142L6.86472 12.8213C6.88225 12.8223 6.87803 12.8275 6.85563 12.8327L6.70503 12.8684C6.68264 12.8736 6.65018 12.8771 6.63265 12.8762L6.62194 12.8755L6.62843 12.9044C6.64986 12.9002 6.6755 12.8973 6.69075 12.8982L6.81863 12.9054C6.83616 12.9064 6.83194 12.9115 6.80954 12.9167L6.65894 12.9524C6.65343 12.9537 6.64661 12.9544 6.64012 12.9557L6.64629 12.9826L6.74301 12.9881C6.76053 12.9891 6.75631 12.9943 6.73392 12.9995L6.65407 13.0183L6.65602 13.0264L6.74658 13.005C6.77839 12.9976 6.82415 12.9927 6.84882 12.994L7.14158 13.0102C7.16625 13.0115 7.16073 13.0187 7.12892 13.0264L7.01208 13.054C6.98027 13.0615 6.9345 13.0664 6.90984 13.0651L6.66089 13.0511C6.66219 13.0573 6.66186 13.0638 6.66251 13.0699L6.84557 13.08C6.87024 13.0813 6.86472 13.0884 6.83291 13.0962L6.71607 13.1238C6.69887 13.128 6.67809 13.131 6.65829 13.1329C6.65635 13.1404 6.6544 13.1478 6.6518 13.1553C6.66803 13.1533 6.68458 13.1508 6.69822 13.1475L7.87284 12.8693V12.8697ZM7.61935 12.8635L7.74723 12.8706C7.76475 12.8716 7.76053 12.8768 7.73814 12.882L7.58754 12.9177C7.56514 12.9229 7.53269 12.9265 7.51516 12.9255L7.38728 12.9184C7.36975 12.9174 7.37397 12.9122 7.39637 12.907L7.54697 12.8713C7.56936 12.8661 7.60182 12.8625 7.61935 12.8635ZM7.39864 12.8512L7.52652 12.8583C7.54405 12.8593 7.53983 12.8645 7.51743 12.8697L7.36683 12.9054C7.34444 12.9106 7.31198 12.9141 7.29445 12.9132L7.16657 12.906C7.14904 12.9051 7.15326 12.8999 7.17566 12.8947L7.32626 12.859C7.34865 12.8538 7.38111 12.8502 7.39864 12.8512ZM7.17826 12.8388L7.30614 12.846C7.32366 12.847 7.31944 12.8521 7.29705 12.8573L7.14645 12.893C7.12405 12.8982 7.0916 12.9018 7.07407 12.9008L6.94619 12.8937C6.92866 12.8927 6.93288 12.8875 6.95528 12.8823L7.10588 12.8466C7.12827 12.8414 7.16073 12.8379 7.17826 12.8388ZM6.7258 12.8814C6.70828 12.8804 6.7125 12.8752 6.73489 12.87L6.88549 12.8343C6.90789 12.8291 6.94035 12.8255 6.95787 12.8265L7.08575 12.8336C7.10328 12.8346 7.09906 12.8398 7.07666 12.845L6.92606 12.8807C6.90367 12.8859 6.87121 12.8895 6.85369 12.8885L6.7258 12.8814ZM6.8076 12.9726L6.67972 12.9654C6.66219 12.9644 6.66641 12.9593 6.6888 12.9541L6.8394 12.9184C6.8618 12.9132 6.89426 12.9096 6.91178 12.9106L7.03966 12.9177C7.05719 12.9187 7.0533 12.9239 7.03058 12.9291L6.87998 12.9648C6.85758 12.97 6.82512 12.9735 6.8076 12.9726ZM6.91373 12.9784C6.88906 12.9771 6.89458 12.97 6.92639 12.9622L7.04323 12.9346C7.07504 12.9271 7.12081 12.9223 7.14547 12.9236L7.43824 12.9398C7.4629 12.9411 7.45739 12.9482 7.42558 12.956L7.30873 12.9836C7.27692 12.9911 7.23116 12.9959 7.20649 12.9946L6.91373 12.9784Z" fill="#ECEDEF"/>
<path d="M6.85563 12.8331L6.70503 12.8688C6.68264 12.874 6.6505 12.8776 6.63298 12.8766L6.62227 12.876L6.61285 12.8347L6.66446 12.8224C6.68718 12.8172 6.71931 12.8136 6.73684 12.8146L6.86472 12.8218C6.88192 12.8227 6.87803 12.8279 6.85563 12.8331Z" fill="#3E3E47"/>
<path d="M6.92575 12.8805L7.07635 12.8448C7.09874 12.8396 7.10264 12.8344 7.08543 12.8335L6.95755 12.8263C6.94003 12.8254 6.90757 12.8289 6.88517 12.8341L6.73457 12.8698C6.71218 12.875 6.70828 12.8802 6.72549 12.8812L6.85337 12.8883C6.87089 12.8893 6.90303 12.8857 6.92575 12.8805Z" fill="#3E3E47"/>
<path d="M6.94655 12.8939L7.07444 12.901C7.09196 12.902 7.12442 12.8984 7.14681 12.8932L7.29741 12.8575C7.31981 12.8523 7.3237 12.8471 7.3065 12.8462L7.17862 12.839C7.1611 12.8381 7.12864 12.8416 7.10624 12.8468L6.95564 12.8825C6.93325 12.8877 6.92935 12.8929 6.94655 12.8939Z" fill="#3E3E47"/>
<path d="M7.29514 12.9127L7.16726 12.9056C7.15006 12.9046 7.15395 12.8994 7.17635 12.8942L7.32695 12.8585C7.34967 12.8533 7.3818 12.8498 7.39933 12.8507L7.52721 12.8579C7.54473 12.8589 7.54051 12.8641 7.51812 12.8692L7.36752 12.9049C7.34512 12.9101 7.31266 12.9137 7.29514 12.9127Z" fill="#3E3E47"/>
<path d="M7.38759 12.9183L7.51548 12.9254C7.533 12.9264 7.56513 12.9228 7.58785 12.9176L7.73845 12.8819C7.76085 12.8767 7.76474 12.8716 7.74754 12.8706L7.61966 12.8634C7.60214 12.8625 7.57 12.866 7.54728 12.8712L7.39668 12.9069C7.37429 12.9121 7.37039 12.9173 7.38759 12.9183Z" fill="#3E3E47"/>
<path d="M7.42525 12.9555L7.30841 12.9831C7.2766 12.9906 7.23084 12.9954 7.20617 12.9941L6.91341 12.9779C6.88874 12.9763 6.89426 12.9691 6.92606 12.9617L7.04291 12.9341C7.07472 12.9266 7.12048 12.9218 7.14515 12.9231L7.43791 12.9393C7.46258 12.9409 7.45706 12.9481 7.42525 12.9555Z" fill="#3E3E47"/>
<path d="M7.01236 13.0534L7.12921 13.0258C7.16102 13.0184 7.16653 13.0112 7.14187 13.0096L6.84911 12.9934C6.82444 12.9921 6.77867 12.9969 6.74687 13.0044L6.65631 13.0258L6.66021 13.0437C6.66053 13.0448 6.66053 13.046 6.66053 13.0471C6.66053 13.0482 6.66053 13.0494 6.66085 13.0505L6.9098 13.0645C6.93447 13.0658 6.98056 13.0609 7.01236 13.0534Z" fill="#3E3E47"/>
<path d="M6.83321 13.0966C6.86502 13.0891 6.87053 13.082 6.84587 13.0804L6.66281 13.0703C6.66476 13.0917 6.66346 13.1128 6.65826 13.1333C6.67806 13.1313 6.69884 13.1284 6.71604 13.1242L6.83321 13.0966Z" fill="#3E3E47"/>
<path d="M6.91143 12.9103L7.03931 12.9175C7.05683 12.9184 7.05261 12.9236 7.03022 12.9288L6.87962 12.9645C6.85722 12.9697 6.82477 12.9733 6.80724 12.9723L6.67936 12.9652C6.66183 12.9642 6.66605 12.959 6.68845 12.9538L6.83905 12.9181C6.86144 12.9129 6.8939 12.9093 6.91143 12.9103Z" fill="#3E3E47"/>
<path d="M6.80983 12.9171C6.83223 12.9119 6.83612 12.9067 6.81892 12.9058L6.69104 12.8986C6.67579 12.8977 6.65014 12.9006 6.62872 12.9048L6.64041 12.9557L6.64207 12.9555C6.64805 12.9546 6.65419 12.9537 6.65923 12.9525L6.80983 12.9171Z" fill="#3E3E47"/>
<path d="M6.64655 12.9824L6.74327 12.9879C6.76047 12.9889 6.7569 12.9941 6.7345 12.9993L6.65466 13.0181L6.64655 12.9824Z" fill="#3E3E47"/>
<path d="M0.914047 12.7736V12.8255C0.914047 12.9232 0.9874 13.005 1.08445 13.0157L6.58299 13.6288V13.4055L0.914372 12.7736H0.914047Z" fill="#BCC1CB"/>
<path d="M6.5827 13.3669V13.2465L6.47948 13.3367L0.947513 12.72C0.935504 12.7187 0.925117 12.7142 0.913757 12.7109V12.7729L6.58237 13.4049V13.3666L6.5827 13.3669Z" fill="#A7B0B9"/>
<path d="M6.58266 13.3676V13.6292L8.97409 12.936C9.05686 12.9119 9.11366 12.8363 9.11366 12.75V12.6338L6.58234 13.3673L6.58266 13.3676Z" fill="#9EA7B2"/>
<path d="M5.69918 9.89367L6.47945 13.3374L6.58266 13.2471L6.59922 13.2328C6.62356 13.2117 6.64076 13.1848 6.6518 13.1556C6.65472 13.1481 6.65667 13.141 6.65829 13.1332C6.66348 13.1128 6.66446 13.0917 6.66283 13.0702C6.66218 13.0641 6.66251 13.0576 6.66121 13.0514C6.66089 13.0491 6.66121 13.0469 6.66056 13.0446L6.65667 13.0267L6.65472 13.0186L6.6466 12.9829L6.64044 12.956L6.62875 12.905L6.62226 12.8761L6.61285 12.8349L6.60084 12.7817L6.5541 12.5759L6.51613 12.4088L6.5012 12.3429L5.90529 9.71353C5.88711 9.63304 5.81992 9.57299 5.73813 9.56391L0.2912 8.95631C0.237322 8.95014 0.183118 8.96735 0.142223 9.00305L6.10352e-05 9.12736L5.53203 9.74404C5.61382 9.75313 5.68101 9.81317 5.69918 9.89367Z" fill="#9FA5A9"/>
<path d="M6.47978 13.337L5.69951 9.89326C5.68133 9.81277 5.61415 9.75272 5.53236 9.74364L6.10352e-05 9.12695L0.780327 12.5706C0.795907 12.6394 0.848162 12.6911 0.91405 12.7109C0.925085 12.7141 0.935796 12.7186 0.947805 12.7199L6.47978 13.3366V13.337ZM3.04096 11.1464C3.30386 11.1464 3.46679 11.3395 3.52749 11.5869C3.52749 11.5869 3.36812 11.3253 3.04096 11.3197C3.04096 11.3197 2.73391 11.3175 2.59889 11.5473C2.64953 11.3243 2.79169 11.1464 3.04096 11.1461V11.1464Z" fill="#C6CAD4"/>
<path d="M3.041 11.3208C3.36817 11.3263 3.52753 11.5879 3.52753 11.5879C3.46684 11.3406 3.30358 11.1471 3.041 11.1475C2.79173 11.1475 2.64957 11.326 2.59894 11.5486C2.73396 11.3188 3.041 11.3211 3.041 11.3211V11.3208Z" fill="white"/>
<path d="M18.594 4.60002C18.6498 4.6221 18.7157 4.60684 18.7553 4.55816C18.8319 4.46403 18.8939 4.37185 18.9396 4.28422C19.073 4.02911 18.99 3.79899 18.8488 3.68409C18.7073 3.56887 18.4648 3.53446 18.2425 3.71687C18.1655 3.77984 18.0883 3.85936 18.0117 3.95348C17.9627 4.01385 17.9718 4.10246 18.0322 4.15179C18.0935 4.2008 18.1815 4.19172 18.2305 4.13135C18.2951 4.05215 18.3593 3.98594 18.4213 3.93498C18.5278 3.848 18.6203 3.8613 18.6709 3.90285C18.7219 3.94439 18.7537 4.03203 18.6901 4.15374C18.6531 4.22482 18.6014 4.3011 18.5365 4.38062C18.4875 4.44099 18.4966 4.52959 18.557 4.57893C18.5683 4.58834 18.581 4.59483 18.594 4.60002Z" fill="#B0E9FF"/>
<path d="M19.7024 5.32883C19.6628 5.37751 19.5969 5.39277 19.5411 5.37069C19.5284 5.36583 19.5151 5.35869 19.5038 5.34927C19.4434 5.29994 19.4343 5.21133 19.4833 5.15096C19.5482 5.07144 19.5998 4.99517 19.6368 4.92441C19.7008 4.8027 19.6686 4.71474 19.6177 4.67319C19.5674 4.63165 19.4745 4.61834 19.3681 4.70565C19.3061 4.75596 19.2418 4.82217 19.1772 4.90169C19.1282 4.96206 19.0393 4.97147 18.9789 4.92214C18.9186 4.8728 18.9095 4.7842 18.9585 4.72383C19.0354 4.6297 19.113 4.55018 19.1896 4.48754C19.4119 4.30513 19.6544 4.33921 19.7955 4.45443C19.9371 4.56933 20.0198 4.79978 19.8868 5.05489C19.8413 5.14252 19.779 5.2347 19.7024 5.32883Z" fill="#B0E9FF"/>
<path d="M18.3721 5.8403C18.4279 5.86237 18.4938 5.84712 18.5334 5.79843C18.61 5.70431 18.6723 5.61213 18.7181 5.52417C18.8511 5.26906 18.7684 5.03894 18.6268 4.92404C18.4853 4.80914 18.2432 4.77474 18.0209 4.95714C17.9443 5.01979 17.8664 5.09931 17.7898 5.19343C17.7408 5.2538 17.7499 5.34241 17.8102 5.39174C17.8716 5.44075 17.9595 5.43167 18.0085 5.3713C18.0731 5.29178 18.1374 5.22589 18.1994 5.17526C18.3058 5.08795 18.3987 5.10125 18.449 5.1428C18.4999 5.18434 18.5321 5.27198 18.4681 5.39402C18.4311 5.46477 18.3795 5.54137 18.3146 5.62089C18.2656 5.68126 18.2747 5.76987 18.3351 5.8192C18.3464 5.82862 18.3594 5.83543 18.3721 5.8403Z" fill="#B0E9FF"/>
<path d="M19.3192 6.61081C19.375 6.63288 19.4409 6.61762 19.4805 6.56894C19.5571 6.47481 19.6191 6.38263 19.6648 6.295C19.7979 6.03989 19.7151 5.80944 19.5736 5.69455C19.4331 5.57965 19.1903 5.54524 18.9676 5.72765C18.8911 5.79029 18.8132 5.86981 18.7366 5.96394C18.6875 6.02431 18.6966 6.11292 18.757 6.16225C18.8174 6.21159 18.9063 6.20217 18.9553 6.1418C19.0199 6.06228 19.0842 5.9964 19.1462 5.94544C19.2523 5.85845 19.3451 5.87144 19.3961 5.91298C19.447 5.95453 19.4788 6.04216 19.4152 6.1642C19.3782 6.23496 19.3266 6.31155 19.2617 6.39075C19.2127 6.45112 19.2218 6.53973 19.2822 6.58906C19.2935 6.59847 19.3062 6.60561 19.3192 6.61081Z" fill="#B0E9FF"/>
<path d="M17.5862 5.0276C17.5466 5.07628 17.4807 5.09154 17.4249 5.06947V5.07077C17.4119 5.06557 17.3996 5.05843 17.3882 5.04902C17.3279 4.99968 17.3188 4.91108 17.3678 4.85071C17.4327 4.77119 17.4843 4.69491 17.5213 4.62383C17.5849 4.50179 17.5531 4.41416 17.5022 4.37262C17.4509 4.3314 17.3587 4.31776 17.2522 4.40475C17.1902 4.45571 17.126 4.52192 17.0614 4.60111C17.0124 4.66148 16.9244 4.67057 16.8631 4.62156C16.8027 4.57223 16.7936 4.48362 16.8426 4.42325C16.9192 4.32912 16.9965 4.2496 17.0734 4.18664C17.2961 4.00423 17.5382 4.03863 17.6797 4.15353C17.8209 4.26843 17.904 4.49855 17.7706 4.75366C17.7248 4.84129 17.6628 4.93347 17.5862 5.0276Z" fill="#B0E9FF"/>
<path d="M16.6996 8.34123C16.8586 8.33571 16.9833 8.20231 16.9777 8.04295C16.9683 7.77161 16.6694 7.47949 16.6694 7.47949C16.6694 7.47949 16.3919 7.7914 16.4013 8.06307C16.4068 8.22211 16.5402 8.34674 16.6996 8.34123Z" fill="white"/>
<path d="M17.3611 9.78689C17.5798 9.77911 17.7512 9.5954 17.7434 9.37664C17.7304 9.00338 17.3195 8.60254 17.3195 8.60254C17.3195 8.60254 16.9378 9.0313 16.9508 9.40455C16.9586 9.62331 17.1423 9.79468 17.3611 9.78689Z" fill="white"/>
</g>
<defs>
<clipPath id="clip0_11_1911">
<rect width="24" height="24" fill="white"/>
</clipPath>
</defs>
</svg>
