<svg width="24" height="24" viewBox="0 0 24 24" fill="none" xmlns="http://www.w3.org/2000/svg">
<g clip-path="url(#clip0_11_1937)">
<path d="M13.1375 14.1149C13.1375 14.1149 15.3498 17.4222 19.6611 17.3684C21.5933 17.3445 23.0227 15.8337 22.9997 13.9919C22.9768 12.1501 21.5099 10.6756 19.5777 10.6995C15.2664 10.7533 13.1375 14.1149 13.1375 14.1149Z" fill="#D6EEFA"/>
<path d="M10.8627 14.1444C10.8627 14.1444 8.74274 17.5119 4.43173 17.5781C2.49989 17.6076 1.02866 16.1371 1.00041 14.2953C0.972164 12.4539 2.39753 10.9391 4.33004 10.9092C8.64104 10.8434 10.8627 14.1444 10.8627 14.1444Z" fill="#D6EEFA"/>
<path d="M4.56233 17.2231C4.26057 17.2231 3.96579 17.0709 3.7963 16.7944C3.39518 16.14 3.30379 15.5375 3.52479 15.0031C3.80095 14.3355 4.44667 13.7841 5.44433 13.3644C6.09703 13.0899 6.68958 12.9626 6.7145 12.9573C7.19937 12.8543 7.67594 13.164 7.77863 13.6489C7.88132 14.1331 7.57258 14.6093 7.08871 14.7126C7.08406 14.7136 6.61547 14.816 6.1173 15.0287C5.59388 15.2524 5.31539 15.477 5.21403 15.6325C5.22832 15.6738 5.25956 15.7465 5.32669 15.8562C5.58557 16.2789 5.45297 16.8313 5.03058 17.0905C4.88435 17.1802 4.72251 17.2227 4.56233 17.2227V17.2231Z" fill="#4D98D3"/>
<path d="M11.8883 5.2937C12.0707 5.29137 16.9478 5.10479 17.2174 10.5027V10.5037C17.3965 13.4118 18.0127 15.6107 18.356 16.6433C18.4447 16.8493 18.5211 17.0608 18.5845 17.2771C18.5885 17.2871 18.5924 17.2947 18.5924 17.2947L18.5904 17.2957C18.6914 17.6434 18.7591 18.0033 18.7896 18.3728L18.8072 18.7449C18.8381 20.9648 17.5293 22.9223 15.5553 23.9998H8.55818C6.65373 22.9562 5.37217 21.0843 5.34236 18.9314C5.33211 18.1792 5.47591 17.4576 5.74666 16.7898C6.06269 15.7364 6.60823 13.5356 6.70564 10.6501V10.6492C6.82522 5.24828 11.7003 5.2963 11.8883 5.2937Z" fill="#62BFED"/>
<path d="M17.7887 22.0156C17.2272 22.8244 16.4583 23.5044 15.5494 24H8.56409C7.71907 23.5373 6.99513 22.913 6.44983 22.1719C8.16619 22.8116 10.1435 23.1753 12.152 23.1982C14.0355 23.2198 16.0258 22.7826 17.7887 22.0156ZM18.8053 18.8496C18.8023 19.418 18.7129 19.9689 18.5455 20.4912C16.5545 21.4035 14.2883 21.9195 12.1002 21.8945C10.7623 21.8792 9.45403 21.7299 8.21643 21.458C7.32122 21.2616 6.46304 21 5.65588 20.6787C5.47619 20.1698 5.37056 19.631 5.34827 19.0723C7.28341 19.9901 9.67658 20.519 12.1158 20.5469C14.3861 20.5727 16.8098 19.9309 18.8053 18.8496ZM18.3502 16.6279C18.4433 16.8423 18.5227 17.0634 18.5885 17.2891L18.5905 17.293C18.6204 17.397 18.6463 17.5034 18.6705 17.6094C16.7463 18.6127 14.4831 19.2164 12.0807 19.251C10.9256 19.2676 9.76921 19.1469 8.651 18.9014C7.53149 18.6558 6.45244 18.2801 5.4469 17.7959C5.46817 17.6879 5.49158 17.5806 5.51917 17.4746C5.51946 17.4741 5.51973 17.4728 5.52014 17.4717L5.52112 17.4697C5.58058 17.2423 5.65351 17.0196 5.74084 16.8027C5.76938 16.7088 5.80014 16.6024 5.83167 16.4902C7.69802 17.4314 9.87908 17.9349 12.0621 17.9033C14.3351 17.8703 16.4691 17.2853 18.2516 16.3203C18.2858 16.431 18.3197 16.5356 18.3502 16.6279Z" fill="#FDD700"/>
<path d="M14.1221 2.52547C14.5641 2.63713 14.832 3.08644 14.72 3.52877C14.6362 3.85911 14.3647 4.09208 14.048 4.14226L13.6575 5.81189C13.619 5.97773 13.4541 6.08141 13.2883 6.04486L13.2843 6.04386C13.1168 6.00464 13.0131 5.83748 13.0524 5.67032L13.4432 3.99869C13.173 3.80694 13.0327 3.46397 13.1188 3.12366C13.2305 2.68133 13.6801 2.41347 14.1221 2.52547Z" fill="#4D98D3"/>
<path d="M10.8168 3.11604C10.9125 3.45403 10.7819 3.80065 10.517 3.99971L10.9543 5.66004C10.9979 5.82621 10.8988 5.99603 10.7327 6.0399C10.6835 6.05286 10.6336 6.05319 10.5871 6.04289C10.4768 6.01863 10.3834 5.93488 10.3528 5.81823L9.91614 4.1599C9.5981 4.11869 9.31994 3.8937 9.22722 3.56569C9.10293 3.12668 9.35816 2.67039 9.79717 2.5461C10.2358 2.4218 10.6925 2.67703 10.8168 3.11604Z" fill="#4D98D3"/>
<path d="M17.2929 17.8846C17.6495 17.9617 17.9622 18.0002 18.2391 18.0002C18.3777 18.0002 18.5083 17.9912 18.6296 17.972C19.261 17.8716 19.576 17.531 19.7289 17.2631C20.032 16.732 19.9625 16.0534 19.5229 15.2455C19.1706 14.5985 18.6954 14.0568 18.5076 13.854C18.1709 13.4905 17.603 13.4685 17.2394 13.8055C16.8759 14.1422 16.8539 14.7101 17.1909 15.0737C17.5585 15.4702 17.8389 15.8886 17.9912 16.187C17.9038 16.1754 17.7987 16.1578 17.6738 16.1305C17.1892 16.0255 16.7113 16.3329 16.6063 16.8171C16.501 17.3016 16.8087 17.7795 17.2929 17.8846Z" fill="#4D98D3"/>
<path d="M4.37453 19.0828C4.54934 19.3317 4.8275 19.4647 5.10998 19.4647C5.28811 19.4647 5.46757 19.4115 5.62443 19.3015C6.42202 18.7419 6.42236 17.934 6.29308 17.5292C6.20933 17.259 5.99764 16.9114 5.57524 16.2487L5.5657 16.2337C5.47618 16.0934 5.3918 15.9611 5.32633 15.8542C5.06744 15.4318 4.51478 15.2992 4.09238 15.5581C3.66999 15.817 3.53739 16.3693 3.79628 16.7921C3.86823 16.9096 3.95446 17.0449 4.04595 17.1886L4.06181 17.2135C4.18145 17.4012 4.37619 17.7073 4.49517 17.9124C4.1738 18.2131 4.11432 18.7123 4.37453 19.0828Z" fill="#4D98D3"/>
<path d="M11.9048 13.7185L12.3837 13.2812C12.4193 13.2489 12.4665 13.233 12.514 13.2373C12.8866 13.2709 14.5515 13.44 15.4119 13.8421C15.4119 13.8421 16.2358 12.9329 17.4591 12.3649C17.492 12.3496 17.5292 12.3466 17.5641 12.3556L18.3228 12.5507C18.3228 12.5507 16.0593 14.9242 14.8559 14.5736C13.6526 14.223 11.9048 13.7188 11.9048 13.7188V13.7185Z" fill="white"/>
<path d="M18.4654 12.4904C18.4518 12.4897 18.4378 12.4917 18.4239 12.4974C17.0623 13.0391 16.0042 13.9104 15.8699 14.0238C15.8649 14.0277 15.8599 14.0314 15.8539 14.0341C15.848 14.0367 15.8423 14.0394 15.8363 14.0414L15.2385 14.2185C15.2295 14.2215 15.2199 14.2225 15.2105 14.2222C15.2009 14.2222 15.1916 14.2205 15.1826 14.2175C14.0171 13.8147 12.3139 13.731 11.844 13.7154C11.8224 13.7147 11.8032 13.721 11.7872 13.7323L11.8327 13.6838C11.858 13.6569 11.8932 13.6422 11.9301 13.6432C12.2541 13.6535 13.8726 13.7253 15.2099 14.1497L15.7954 13.9802C15.7954 13.9802 17.0108 12.9679 18.3145 12.4638C18.3248 12.4595 18.3368 12.4588 18.3484 12.4618L18.4654 12.4907V12.4904Z" fill="#FFD2E6"/>
<path d="M15.8553 14.0365L16.4046 17.6925C16.3986 17.6955 16.3917 17.6975 16.3847 17.6988L15.8038 17.8184C15.7978 17.8198 15.7911 17.8201 15.7852 17.8201L15.2099 14.2273V14.2223C15.2195 14.2226 15.2292 14.2216 15.2381 14.2186L15.836 14.0415C15.842 14.0398 15.848 14.0372 15.8536 14.0342L15.855 14.0358L15.8553 14.0365Z" fill="#FF94CA"/>
<path d="M18.6605 16.0346C18.6854 16.0163 18.6994 15.9867 18.6984 15.9558L18.5515 12.58C18.5491 12.5308 18.5099 12.4949 18.4651 12.4916C18.4514 12.4902 18.4375 12.4926 18.4235 12.4979C17.062 13.0396 16.0042 13.9106 15.8696 14.0243C15.8642 14.0283 15.8593 14.0316 15.8536 14.0346L15.8549 14.0363L16.4043 17.6922C16.4103 17.6899 16.4159 17.6866 16.4209 17.6826L18.6605 16.0346Z" fill="#FFA6CA"/>
<path d="M15.7851 17.8208L15.2099 14.228L15.2102 14.2227C15.2006 14.2227 15.1913 14.221 15.1823 14.218C14.0168 13.8156 12.3136 13.7318 11.8437 13.7159C11.8221 13.7152 11.8028 13.7215 11.7869 13.7328C11.7566 13.7541 11.7407 13.793 11.7506 13.8322L12.6469 17.2751C12.6572 17.3153 12.6931 17.3436 12.7343 17.3449C13.3927 17.3619 15.5472 17.7766 15.7672 17.8192C15.7732 17.8205 15.7792 17.8208 15.7851 17.8208Z" fill="#FFA6CA"/>
<path d="M16.1052 13.5392C16.1115 13.5466 16.1208 13.5502 16.1298 13.5502C16.1377 13.5502 16.146 13.5472 16.1523 13.5416C16.1623 13.5323 17.1746 12.6297 17.8309 12.51C17.8489 12.5067 17.8608 12.4894 17.8575 12.4715C17.8542 12.4535 17.8369 12.4416 17.819 12.4449C17.5345 12.4967 17.16 12.6892 16.7053 13.0165C16.377 13.2529 16.1237 13.4783 16.1085 13.4918C16.1081 13.4921 16.1086 13.4917 16.1085 13.4918C16.0949 13.5041 16.0929 13.5256 16.1052 13.5392Z" fill="#EAEAEA"/>
<path d="M13.8124 13.679C13.8273 13.679 13.841 13.6684 13.8446 13.6531C13.8486 13.6352 13.8376 13.6175 13.8197 13.6132C13.1128 13.4474 12.285 13.4095 12.2767 13.4092C12.2591 13.4092 12.2428 13.4228 12.2421 13.4411C12.2415 13.4594 12.2558 13.475 12.2741 13.4756C12.2824 13.476 13.1039 13.5135 13.8047 13.678C13.8074 13.679 13.8097 13.679 13.8124 13.679Z" fill="#EAEAEA"/>
<path d="M18.4159 16.6414C18.6349 17.1512 18.2431 17.5311 17.6651 17.7793C17.0872 18.0279 16.5419 18.0509 16.3228 17.5411C16.1038 17.0313 16.3946 16.4168 16.9726 16.1685C17.5505 15.9199 18.1965 16.132 18.4155 16.6414H18.4159Z" fill="#4D98D3"/>
<path d="M9.23657 9.78219C9.23657 10.0534 9.45657 10.2734 9.72775 10.2734C9.99893 10.2734 10.2189 10.0534 10.2189 9.78219C10.2189 9.51102 9.99893 9.29102 9.72775 9.29102C9.45657 9.29102 9.23657 9.51102 9.23657 9.78219Z" fill="#281E1E"/>
<path d="M13.5908 9.78219C13.5908 10.0534 13.8108 10.2734 14.082 10.2734C14.3531 10.2734 14.5731 10.0534 14.5731 9.78219C14.5731 9.51102 14.3531 9.29102 14.082 9.29102C13.8108 9.29102 13.5908 9.51102 13.5908 9.78219Z" fill="#281E1E"/>
<path d="M10.981 10.5957H12.8281C12.9454 10.5957 13.0408 10.6688 13.0408 10.7595C13.0408 11.8067 12.6267 12.4076 11.9045 12.4076C11.1824 12.4076 10.7683 11.8071 10.7683 10.7595C10.7683 10.6691 10.8637 10.5957 10.981 10.5957Z" fill="#281E1E"/>
</g>
<defs>
<clipPath id="clip0_11_1937">
<rect width="24" height="24" fill="white"/>
</clipPath>
</defs>
</svg>
