<svg width="24" height="24" viewBox="0 0 24 24" fill="none" xmlns="http://www.w3.org/2000/svg">
<g clip-path="url(#clip0_11_1909)">
<path d="M10.8911 13.7685C10.8911 13.7685 8.81887 16.9615 4.69429 16.9675C2.846 16.9701 1.45859 15.5438 1.45606 13.7815C1.45353 12.0199 2.83682 10.5898 4.68543 10.5869C8.81001 10.5815 10.8911 13.7685 10.8911 13.7685Z" fill="#FBF6CE"/>
<path d="M13.0679 13.7685C13.0679 13.7685 15.1401 16.9615 19.2647 16.9675C21.113 16.9701 22.5004 15.5438 22.5029 13.7815C22.5055 12.0199 21.1222 10.5898 19.2736 10.5869C15.149 10.5815 13.0679 13.7685 13.0679 13.7685Z" fill="#FBF6CE"/>
<path d="M3.1276 10.5042C3.76025 10.5042 4.27301 9.9225 4.27301 9.20507C4.27301 8.48765 3.76025 8.27539 3.1276 8.27539C2.49494 8.27539 1.98218 8.48765 1.98218 9.20507C1.98218 9.9225 2.49494 10.5042 3.1276 10.5042Z" fill="#C18B14"/>
<path d="M20.8712 10.5042C20.2386 10.5042 19.7258 9.9225 19.7258 9.20507C19.7258 8.48765 20.2386 8.27539 20.8712 8.27539C21.5039 8.27539 22.0167 8.48765 22.0167 9.20507C22.0167 9.9225 21.5039 10.5042 20.8712 10.5042Z" fill="#C18B14"/>
<path d="M22.6694 9.59175H19.2882V8.64941H22.6694V9.59175Z" fill="#CCC3C4"/>
<path d="M1.3313 8.65034H4.71251V9.59268H1.3313V8.65034Z" fill="#CCC3C4"/>
<path d="M5.88438 11.1838C6.81311 11.1424 7.00987 11.9054 7.00987 11.9054C7.00987 11.9054 7.18986 14.1083 6.66318 14.3854C6.13649 14.6628 4.93097 14.6903 3.90544 14.5657C2.87991 14.4411 2.31179 13.984 1.96541 13.4434C1.61904 12.9028 1.88222 11.6833 1.96541 11.3369C1.98618 11.2505 1.9914 11.1208 1.99788 10.9596C2.01736 10.475 2.0483 9.70551 2.54745 8.96734C3.21269 7.98357 3.9472 9.71577 3.9472 9.71577C3.9472 9.71577 3.89152 10.977 3.9472 11.3233C4.00287 11.6697 4.19678 11.9607 4.19678 11.9607L4.69563 12.0161C4.69563 12.0161 4.95565 11.2253 5.88438 11.1838Z" fill="#C18B14"/>
<path d="M18.1164 11.1838C17.1876 11.1424 16.9909 11.9054 16.9909 11.9054C16.9909 11.9054 16.8109 14.1083 17.3376 14.3854C17.8643 14.6628 19.0698 14.6903 20.0953 14.5657C21.1208 14.4411 21.689 13.984 22.0353 13.4434C22.3817 12.9028 22.1185 11.6833 22.0353 11.3369C22.0146 11.2505 22.0094 11.1208 22.0029 10.9596C21.9834 10.475 21.9525 9.70551 21.4533 8.96734C20.7881 7.98357 20.0536 9.71577 20.0536 9.71577C20.0536 9.71577 20.1092 10.977 20.0536 11.3233C19.9979 11.6697 19.804 11.9607 19.804 11.9607L19.3051 12.0161C19.3051 12.0161 19.0451 11.2253 18.1164 11.1838Z" fill="#C18B14"/>
<path d="M4.01392 8.17476C3.66817 7.88849 2.95739 7.90019 2.54806 7.99034C2.08559 8.0922 1.75123 8.42181 1.91066 8.9039C2.09319 9.45503 3.12148 9.46196 3.60818 9.31048L3.55143 9.44013L3.54795 9.43855C3.57515 9.45152 3.60837 9.4743 3.62924 9.49359C3.61438 9.51478 3.58401 9.55021 3.52422 9.59861C3.37492 9.71945 3.35151 9.93835 3.47234 10.088C3.54099 10.1731 3.64158 10.2173 3.74312 10.2173C3.81999 10.2173 3.89717 10.1917 3.9617 10.1398C4.31093 9.85768 4.35553 9.58343 4.33117 9.40281C4.30256 9.18984 4.1714 9.03738 4.04994 8.93919C4.19752 8.6862 4.24097 8.36273 4.01392 8.17476Z" fill="#C18B14"/>
<path d="M21.4516 7.99034C21.0423 7.90019 20.3315 7.88849 19.9858 8.17476C19.7587 8.36278 19.8022 8.68637 19.9499 8.93938C19.8285 9.03758 19.6975 9.18997 19.6689 9.40281C19.6445 9.58311 19.6888 9.85737 20.0383 10.1398C20.1029 10.1917 20.1801 10.217 20.2569 10.217C20.3585 10.217 20.4591 10.1731 20.5277 10.088C20.6485 9.93835 20.6254 9.71945 20.4758 9.59861C20.416 9.55021 20.3857 9.51478 20.3708 9.49359C20.3914 9.4743 20.4249 9.4512 20.4521 9.43855L20.4486 9.44013L20.3919 9.3106C20.8788 9.46196 21.9066 9.45488 22.089 8.9039C22.2485 8.42181 21.9141 8.0922 21.4516 7.99034Z" fill="#C18B14"/>
<path d="M18.1046 10.6934H18.9771C19.1767 10.6934 19.3386 10.5315 19.3386 10.3318V7.90941C19.3386 7.70973 19.1767 7.54785 18.9771 7.54785H18.1046C17.9049 7.54785 17.7431 7.70973 17.7431 7.90941V10.3318C17.7431 10.5315 17.9049 10.6934 18.1046 10.6934Z" fill="#EA4A29"/>
<path d="M0.361561 7.54789H1.23399C1.43367 7.54789 1.59555 7.70977 1.59555 7.90945V10.3319C1.59555 10.5316 1.43367 10.6934 1.23399 10.6934H0.361561C0.161876 10.6934 0 10.5316 0 10.3319V7.90945C0 7.70977 0.161876 7.54789 0.361561 7.54789Z" fill="#EA4A29"/>
<path d="M5.02269 7.54789H5.89512C6.09481 7.54789 6.25668 7.70977 6.25668 7.90945V10.3319C6.25668 10.5316 6.09481 10.6934 5.89512 10.6934H5.02269C4.82301 10.6934 4.66113 10.5316 4.66113 10.3319V7.90945C4.66113 7.70977 4.82301 7.54789 5.02269 7.54789Z" fill="#EA4A29"/>
<path d="M23.6384 10.6934H22.766C22.5663 10.6934 22.4044 10.5315 22.4044 10.3318V7.90941C22.4044 7.70973 22.5663 7.54785 22.766 7.54785H23.6384C23.8381 7.54785 24 7.70973 24 7.90941V10.3318C24 10.5315 23.8381 10.6934 23.6384 10.6934Z" fill="#EA4A29"/>
<path d="M1.00024 7.49902H1.22167V10.6446H1.00024V7.49902Z" fill="#C93729"/>
<path d="M5.66138 7.49902H5.88281V10.6446H5.66138V7.49902Z" fill="#C93729"/>
<path d="M18.9651 7.49902H18.7437V10.6446H18.9651V7.49902Z" fill="#C93729"/>
<path d="M23.4047 7.49902H23.6261V10.6446H23.4047V7.49902Z" fill="#C93729"/>
<path d="M3.27851 9.37278C3.23106 9.37278 3.18551 9.34589 3.164 9.30034C3.07195 9.10517 3.11307 8.88343 3.2687 8.73538C3.40852 8.60253 3.66759 8.51933 3.97569 8.68446C4.03738 8.71735 4.06047 8.79422 4.02757 8.8559C3.99467 8.91759 3.9178 8.94068 3.85612 8.90778C3.69574 8.82174 3.54106 8.82617 3.443 8.91917C3.36771 8.99066 3.3481 9.09789 3.3927 9.19248C3.42244 9.25574 3.39555 9.33103 3.33228 9.36076C3.31489 9.36899 3.29654 9.37278 3.27851 9.37278Z" fill="#784620"/>
<path d="M20.7211 9.37278C20.703 9.37278 20.6847 9.36899 20.6673 9.36076C20.604 9.33103 20.5771 9.25542 20.6069 9.19248C20.6515 9.09789 20.6319 8.99066 20.5566 8.91917C20.4585 8.82585 20.3041 8.82174 20.1435 8.90778C20.0818 8.94068 20.0052 8.91759 19.972 8.8559C19.9391 8.79422 19.9622 8.71767 20.0239 8.68446C20.3317 8.51933 20.5907 8.60253 20.7309 8.73538C20.8865 8.88343 20.9276 9.10517 20.8356 9.30034C20.8141 9.34621 20.7685 9.37278 20.7211 9.37278Z" fill="#784620"/>
<path d="M4.31949 13.3123C4.30367 13.3123 4.28785 13.3095 4.27235 13.3032C4.20751 13.2772 4.17619 13.2035 4.20213 13.1387C4.39046 12.67 4.16539 12.1931 4.15974 12.1811C4.12906 12.1185 4.155 12.0426 4.21795 12.0119C4.28058 11.9812 4.3565 12.0072 4.38718 12.0701C4.39888 12.0938 4.66839 12.6575 4.43716 13.2329C4.41723 13.2823 4.36947 13.3123 4.31949 13.3123Z" fill="#784620"/>
<path d="M19.68 13.3123C19.6297 13.3123 19.5822 13.2822 19.5626 13.2329C19.3314 12.6572 19.6009 12.0935 19.6126 12.0701C19.6433 12.0074 19.7192 11.9812 19.7818 12.0119C19.8445 12.0425 19.8704 12.1183 19.84 12.1809C19.8355 12.1906 19.6098 12.6716 19.7977 13.1386C19.8236 13.2035 19.7923 13.2772 19.7274 13.3031C19.7119 13.3094 19.6958 13.3123 19.68 13.3123Z" fill="#784620"/>
<path d="M12.0002 4.95996C17.232 4.95996 17.167 10.0318 17.1663 10.0781C17.2178 11.271 17.3395 12.1784 17.5325 12.9502C17.8862 14.3653 18.5858 15.6908 19.009 17.2324L18.9915 17.2461C19.1372 17.7044 19.2151 18.1844 19.2151 18.6787C19.2151 21.0661 17.4081 23.1154 14.8284 24H9.1311C6.55153 23.1153 4.74438 21.066 4.74438 18.6787C4.74443 18.0655 4.86511 17.4747 5.08618 16.9199C5.51318 15.5104 6.13971 14.2681 6.46899 12.9502C6.66195 12.1784 6.78333 11.2707 6.83521 10.0781C6.8345 10.0321 6.76866 4.96019 12.0002 4.95996Z" fill="#FDD700"/>
<path d="M6.2666 22.2285C7.95597 22.8298 9.93928 23.1757 11.999 23.1758C14.0589 23.1758 15.993 22.8391 17.668 22.252C16.9228 23.0099 15.9504 23.6151 14.8291 24H9.13379C7.99965 23.6112 7.01459 22.9974 6.2666 22.2285ZM4.74609 18.7734C6.72777 19.7679 9.2715 20.3661 11.999 20.3662C14.7267 20.3662 17.2345 19.7761 19.21 18.7939C19.1941 19.4348 19.0499 20.0505 18.7939 20.624C16.7698 21.4389 14.4556 21.8769 12 21.877C9.54459 21.877 7.19102 21.4315 5.15527 20.6035C4.90221 20.0297 4.75906 19.414 4.74609 18.7734ZM5.2832 16.2461C7.17563 17.0877 9.51044 17.5859 11.999 17.5859C14.4879 17.5859 16.7941 17.0946 18.6797 16.2627C18.7906 16.5779 18.8959 16.8992 18.9873 17.2314H18.9863C19.0373 17.3896 19.0762 17.5519 19.1104 17.7148C17.0158 18.614 14.5623 19.0966 12 19.0967C9.42133 19.0967 6.95317 18.6073 4.84961 17.6973C4.88311 17.5402 4.92173 17.3847 4.9707 17.2324L4.96973 17.2314C5.06241 16.8933 5.17027 16.5665 5.2832 16.2461Z" fill="#B26C1F"/>
<path d="M10.4735 3.23736C10.4735 2.82993 10.1432 2.5 9.73614 2.5C9.32902 2.5 8.99878 2.83024 8.99878 3.23736C8.99878 3.64447 9.32902 3.97471 9.73614 3.97471C9.82123 3.97471 9.90189 3.95732 9.97781 3.93074C10.2056 4.2825 10.4428 4.79305 10.4453 5.40388C10.446 5.54274 10.5586 5.65472 10.6971 5.65472H10.6984C10.8376 5.65377 10.9499 5.54053 10.9492 5.40166C10.9458 4.64311 10.6472 4.02311 10.3697 3.60872C10.434 3.49928 10.4735 3.37338 10.4735 3.23736Z" fill="#B26C1F"/>
<path d="M14.2214 2.5C13.8143 2.5 13.484 2.83024 13.484 3.23736C13.484 3.37338 13.5235 3.49959 13.5878 3.60904C13.3103 4.02343 13.0117 4.64311 13.0079 5.40198C13.0073 5.54116 13.1196 5.65441 13.2585 5.65504H13.2597C13.3983 5.65504 13.5109 5.54274 13.5115 5.40451C13.5144 4.79621 13.7526 4.2844 13.9806 3.93138C14.0562 3.95763 14.1363 3.97471 14.2207 3.97471C14.6278 3.97471 14.9581 3.64447 14.9581 3.23736C14.9581 2.83024 14.6285 2.5 14.2214 2.5Z" fill="#B26C1F"/>
<path d="M13.3252 7.71941C13.3502 7.81336 13.435 7.87504 13.5277 7.87504C13.5457 7.87504 13.564 7.87251 13.5824 7.86776L14.3296 7.66753C14.4415 7.63748 14.508 7.52234 14.4779 7.41036C14.4475 7.29838 14.3324 7.23227 14.2207 7.262L13.4736 7.46223C13.3616 7.49229 13.2952 7.60743 13.3252 7.71941Z" fill="#B26C1F"/>
<path d="M10.4298 7.87515C10.4118 7.87515 10.3934 7.87262 10.3754 7.86787L9.62824 7.66764C9.51626 7.63759 9.44983 7.52244 9.47988 7.41047C9.50993 7.29849 9.62507 7.23206 9.73705 7.26211L10.4842 7.46234C10.5962 7.49239 10.6626 7.60754 10.6326 7.71952C10.6073 7.81347 10.5222 7.87515 10.4298 7.87515Z" fill="#B26C1F"/>
<path fill-rule="evenodd" clip-rule="evenodd" d="M11.9716 11.88L11.9982 11.8806C12.1061 11.8806 12.2136 11.8702 12.3186 11.8499C13.0383 11.7108 13.607 11.1161 13.8788 10.2183C13.9983 9.82325 13.9715 9.4601 13.801 9.16845C13.6953 8.98783 13.4875 8.75438 13.0984 8.66834C12.9728 8.6405 10.9875 8.6405 10.8626 8.66834C10.4735 8.75438 10.2654 8.98783 10.1594 9.16877C9.9889 9.46042 9.96202 9.82325 10.0816 10.2187C10.3536 11.1161 10.9227 11.7111 11.643 11.8506C11.7474 11.8705 11.8546 11.8806 11.9621 11.8806L11.9716 11.88ZM11.9982 11.452H11.9621C11.8818 11.452 11.8015 11.4444 11.7243 11.4296C11.1653 11.3211 10.7161 10.8342 10.4915 10.094C10.4074 9.81629 10.4207 9.57082 10.5292 9.38513C10.6206 9.22919 10.7639 9.12891 10.9414 9.08905C11.097 9.07197 12.8643 9.07197 13.0057 9.08684C13.1971 9.12923 13.3401 9.2295 13.4312 9.38513C13.54 9.57113 13.553 9.81629 13.4688 10.0943C13.2445 10.8349 12.7957 11.3214 12.2377 11.4296C12.1595 11.4447 12.0789 11.4523 11.9982 11.452Z" fill="#B26C1F"/>
<path d="M9.65625 8.33335C9.65625 8.55573 9.83656 8.73603 10.0589 8.73603C10.2813 8.73603 10.4616 8.55573 10.4616 8.33335C10.4616 8.11097 10.2813 7.93066 10.0589 7.93066C9.83656 7.93066 9.65625 8.11097 9.65625 8.33335Z" fill="#281E1E"/>
<path d="M13.4971 8.33335C13.4971 8.55573 13.6774 8.73603 13.8998 8.73603C14.1221 8.73603 14.3024 8.55573 14.3024 8.33335C14.3024 8.11097 14.1221 7.93066 13.8998 7.93066C13.6774 7.93066 13.4971 8.11097 13.4971 8.33335Z" fill="#281E1E"/>
<path d="M11.049 9.43629C11.1474 9.41447 12.8145 9.41447 12.9128 9.43629C13.1947 9.49861 13.1871 9.77476 13.1188 9.99999C12.9799 10.458 12.6788 10.9781 12.1692 11.0768C12.1128 11.0878 12.0556 11.0929 11.9983 11.0929C11.9955 11.0929 11.9926 11.0923 11.9896 11.0916C11.9867 11.091 11.9838 11.0904 11.9809 11.0904C11.9783 11.0905 11.9756 11.0911 11.9729 11.0916C11.9698 11.0922 11.9666 11.0929 11.9635 11.0929C11.9063 11.0929 11.849 11.0875 11.7927 11.0768C11.2831 10.9781 10.982 10.458 10.8431 9.99999C10.7748 9.77476 10.7672 9.49861 11.049 9.43629Z" fill="#281E1E"/>
</g>
<defs>
<clipPath id="clip0_11_1909">
<rect width="24" height="24" fill="white"/>
</clipPath>
</defs>
</svg>
