<svg width="24" height="24" viewBox="0 0 24 24" fill="none" xmlns="http://www.w3.org/2000/svg">
<g clip-path="url(#clip0_11_1973)">
<circle cx="11.9999" cy="10.0739" r="9.07391" fill="#FFDA48"/>
<path d="M8.50024 14C7.39567 14 6.50024 14.8954 6.50024 16V16.4939C6.50024 16.5187 6.50069 16.5433 6.50159 16.5679H6.50024V22.7753C6.50024 23.042 6.75629 23.234 7.0123 23.1593L12.0001 21.7038L16.9882 23.1593C17.2442 23.234 17.5002 23.042 17.5002 22.7753V16.5679H17.4986C17.4995 16.5433 17.4999 16.5187 17.4999 16.4939V16C17.4999 14.8954 16.6045 14 15.4999 14H8.50024Z" fill="#EB6632"/>
<circle cx="12" cy="10" r="9" fill="#FFDA48"/>
<path d="M11.3639 6.5687C11.6143 6.02593 12.3857 6.02593 12.6361 6.5687L13.2862 7.97816C13.3882 8.19937 13.5979 8.35169 13.8398 8.38037L15.3812 8.56312C15.9747 8.6335 16.2131 9.36716 15.7743 9.77299L14.6347 10.8268C14.4558 10.9922 14.3758 11.2387 14.4232 11.4776L14.7257 13C14.8422 13.5863 14.2181 14.0397 13.6966 13.7478L12.3421 12.9896C12.1296 12.8706 11.8704 12.8706 11.6579 12.9896L10.3034 13.7478C9.78187 14.0397 9.15778 13.5863 9.27427 13L9.57677 11.4776C9.62425 11.2387 9.54417 10.9922 9.36532 10.8268L8.22574 9.77299C7.78689 9.36716 8.02527 8.6335 8.61884 8.56312L10.1602 8.38037C10.4021 8.35169 10.6118 8.19937 10.7138 7.97816L11.3639 6.5687Z" fill="white"/>
<g opacity="0.7" style="mix-blend-mode:multiply">
<path fill-rule="evenodd" clip-rule="evenodd" d="M12 16.274C15.4242 16.274 18.2 13.4982 18.2 10.074C18.2 6.64986 15.4242 3.87402 12 3.87402C8.57588 3.87402 5.80005 6.64986 5.80005 10.074C5.80005 13.4982 8.57588 16.274 12 16.274ZM12 17.774C16.2526 17.774 19.7 14.3266 19.7 10.074C19.7 5.82143 16.2526 2.37402 12 2.37402C7.74746 2.37402 4.30005 5.82143 4.30005 10.074C4.30005 14.3266 7.74746 17.774 12 17.774Z" fill="#FFE373"/>
</g>
</g>
<defs>
<clipPath id="clip0_11_1973">
<rect width="24" height="24" fill="white"/>
</clipPath>
</defs>
</svg>
