<svg width="24" height="24" viewBox="0 0 24 24" fill="none" xmlns="http://www.w3.org/2000/svg">
<g clip-path="url(#clip0_11_1880)">
<path d="M3.99609 4H20.9961L22.67 15.7172C22.8421 16.922 21.9072 18 20.6901 18H7.73068C6.73538 18 5.89154 17.2681 5.75079 16.2828L3.99609 4Z" fill="#105CBE"/>
<path d="M2.99514 4H20.9951L19.2404 16.2828C19.0997 17.2681 18.2558 18 17.2605 18H3.30116C2.08406 18 1.14913 16.922 1.32126 15.7172L2.99514 4Z" fill="#77B2FF"/>
<path d="M20.5723 7H2.57227L3.00084 4H21.0008L20.5723 7Z" fill="#4998FF"/>
<path d="M3.99609 14.75C3.99609 14.3358 4.44381 14 4.99609 14H7.99609C8.54838 14 8.99609 14.3358 8.99609 14.75C8.99609 15.1642 8.54838 15.5 7.99609 15.5H4.99609C4.44381 15.5 3.99609 15.1642 3.99609 14.75Z" fill="white"/>
<path d="M17.9961 21C20.7575 21 22.9961 18.7614 22.9961 16C22.9961 13.2386 20.7575 11 17.9961 11C15.2347 11 12.9961 13.2386 12.9961 16C12.9961 18.7614 15.2347 21 17.9961 21Z" fill="#2B6ADE"/>
<path fill-rule="evenodd" clip-rule="evenodd" d="M20.0587 14C19.7407 14 19.4309 14.083 19.1393 14.2458C18.9942 14.3258 18.863 14.4215 18.7345 14.5434L17.6585 15.648L16.5976 16.737C16.5426 16.7892 16.4776 16.836 16.4016 16.8777C16.2521 16.961 16.0979 17.0036 15.9428 17.0036C15.4059 17.0036 14.9693 16.5544 14.9693 16.002C14.9693 15.4496 15.4059 15.0003 15.9428 15.0003C16.0958 15.0003 16.2495 15.0423 16.3986 15.1242C16.4936 15.1773 16.8569 15.5287 16.9119 15.5842L16.9175 15.5899C17.1065 15.7843 17.413 15.7843 17.602 15.5899C17.7912 15.3954 17.7912 15.0799 17.602 14.8852L17.5937 14.8766C17.4701 14.7512 17.0343 14.3452 16.8567 14.2467C16.5649 14.0857 16.2572 14.0039 15.9428 14.0039C14.8724 14.0039 14.0012 14.9003 14.001 16.002C14.001 17.1039 14.8724 18 15.943 18C16.261 18 16.5709 17.917 16.8625 17.7542C17.0075 17.6742 17.1388 17.5785 17.2673 17.4566L18.3432 16.3522L19.4041 15.2632C19.4591 15.211 19.5241 15.1642 19.6001 15.1225C19.7497 15.0392 19.9039 14.9966 20.0589 14.9966C20.5958 14.9966 21.0325 15.4459 21.0325 15.9983C21.0325 16.5506 20.5958 16.9999 20.0589 16.9999C19.906 16.9999 19.6541 16.857 19.505 16.7751C19.4101 16.722 19.1464 16.4732 19.0914 16.4177L19.0859 16.412C18.8969 16.2176 18.5904 16.2176 18.4014 16.412C18.2121 16.6065 18.2121 16.922 18.4014 17.1167L18.4097 17.1253C18.5333 17.2507 18.9674 17.655 19.145 17.7535C19.4368 17.9146 19.7446 17.9963 20.0589 17.9963C21.1298 17.9963 22.001 17.1 22.001 15.9983C22.001 14.8963 21.1293 14 20.0587 14Z" fill="white"/>
</g>
<defs>
<clipPath id="clip0_11_1880">
<rect width="24" height="24" fill="white"/>
</clipPath>
</defs>
</svg>
