<svg width="24" height="24" viewBox="0 0 24 24" fill="none" xmlns="http://www.w3.org/2000/svg">
<g clip-path="url(#clip0_11_1945)">
<path d="M3.19703 12C3.19703 7.29185 7.09871 3.46047 11.9301 3.46047C15.2124 3.46047 18.069 5.23042 19.561 7.84387L19.1636 7.90626C18.8023 7.96297 18.6449 8.39144 18.8849 8.66504L20.4498 10.4488C20.6756 10.7062 21.0954 10.6403 21.2299 10.3263L22.162 8.15062C22.305 7.8169 22.0217 7.4576 21.6604 7.51431L21.0202 7.61482C19.3668 4.33133 15.9156 2.07568 11.9301 2.07568C6.34352 2.07568 1.7998 6.51083 1.7998 12C1.7998 17.4891 6.34352 21.9243 11.9301 21.9243C16.7457 21.9243 20.7833 18.6309 21.8089 14.2066C21.8953 13.8339 21.6605 13.4623 21.2845 13.3767C20.9084 13.2911 20.5336 13.5238 20.4472 13.8965C19.5667 17.6947 16.0917 20.5395 11.9301 20.5395C7.09871 20.5395 3.19703 16.7081 3.19703 12Z" fill="#FECB48"/>
<path d="M19.1998 11.9998C19.1998 15.9763 15.9763 19.1998 11.9998 19.1998C8.02335 19.1998 4.7998 15.9763 4.7998 11.9998C4.7998 8.02335 8.02335 4.7998 11.9998 4.7998C15.9763 4.7998 19.1998 8.02335 19.1998 11.9998Z" fill="#FECB48"/>
<path d="M8.90064 9.34002C9.29355 9.20404 9.71837 9.4241 9.8495 9.83155L10.5684 12.0653L11.2873 9.83155C11.3895 9.5141 11.676 9.30002 11.9987 9.30002C12.3214 9.30002 12.608 9.5141 12.7102 9.83155L13.429 12.0653L14.1479 9.83155C14.2791 9.4241 14.7039 9.20404 15.0968 9.34002C15.4897 9.476 15.7019 9.91654 15.5708 10.324L15.344 11.0286H15.75C16.1642 11.0286 16.5 11.3768 16.5 11.8064C16.5 12.2359 16.1642 12.5841 15.75 12.5841H14.8434L14.1405 14.7683C14.0383 15.0857 13.7518 15.2998 13.429 15.2998C13.1063 15.2998 12.8198 15.0857 12.7176 14.7683L11.9987 12.5345L11.2798 14.7683C11.1777 15.0857 10.8911 15.2998 10.5684 15.2998C10.2457 15.2998 9.95913 15.0857 9.85697 14.7683L9.15403 12.5841H8.25C7.83579 12.5841 7.5 12.2359 7.5 11.8064C7.5 11.3768 7.83579 11.0286 8.25 11.0286H8.65342L8.42664 10.324C8.29551 9.91654 8.50773 9.476 8.90064 9.34002Z" fill="white"/>
</g>
<defs>
<clipPath id="clip0_11_1945">
<rect width="24" height="24" fill="white"/>
</clipPath>
</defs>
</svg>
