<svg width="24" height="24" viewBox="0 0 24 24" fill="none" xmlns="http://www.w3.org/2000/svg">
<path d="M11.9998 2.48572C12.7099 2.48572 13.2859 3.06126 13.286 3.77126V5.53611H16.1043C19.683 5.53626 22.5841 8.43733 22.5842 12.016V16.6244C22.5841 18.5504 21.0714 20.1233 19.1694 20.2197C19.1081 20.2228 19.0463 20.2244 18.9842 20.2244H18.9121C17.7442 20.2244 16.6538 19.636 16.0252 18.6517C15.6899 18.1265 15.3253 17.5495 15.0239 17.0562C14.2318 15.7603 11.9998 15.7601 11.9998 15.7601C11.9727 15.7602 9.76294 15.7682 8.97581 17.0562C8.67435 17.5495 8.31032 18.1266 7.97503 18.6517C7.34647 19.6361 6.25602 20.2244 5.08812 20.2244H5.01605C4.95397 20.2244 4.8922 20.2228 4.83089 20.2197C2.92881 20.1233 1.41618 18.5504 1.41605 16.6244V12.016C1.41611 8.43728 4.31722 5.53617 7.89593 5.53611H10.7143V3.77126C10.7144 3.06133 11.2899 2.48583 11.9998 2.48572Z" fill="#435268"/>
<path d="M8.43992 11.44C8.43992 10.8215 7.9387 10.3198 7.3202 10.3197C6.70164 10.3197 6.19988 10.8214 6.19988 11.44C6.19995 12.0585 6.70168 12.5597 7.3202 12.5597V13.9601L7.19012 13.9566C5.90169 13.8912 4.86888 12.858 4.80359 11.5695L4.80008 11.44C4.80008 10.0483 5.92844 8.91989 7.3202 8.91989L7.44969 8.92341C8.78121 8.99087 9.84031 10.0917 9.84031 11.44L9.8368 11.5695C9.76934 12.901 8.66843 13.9601 7.3202 13.9601V12.5597C7.93866 12.5597 8.43986 12.0585 8.43992 11.44Z" fill="#FF5353"/>
<path d="M16.9682 8.99194C17.3657 8.99205 17.6877 9.31448 17.6877 9.71206V10.7919H18.7682C19.1657 10.7921 19.4877 11.1145 19.4877 11.5121C19.4876 11.9095 19.1656 12.232 18.7682 12.2322H17.6877V13.3121C17.6876 13.7096 17.3657 14.0321 16.9682 14.0322C16.5706 14.0322 16.2481 13.7096 16.2481 13.3121V12.2322H15.1682C14.7706 12.2322 14.4481 11.9096 14.4481 11.5121C14.4481 11.1144 14.7705 10.7919 15.1682 10.7919H16.2481V9.71206C16.2481 9.31442 16.5705 8.99194 16.9682 8.99194Z" fill="#5497FD"/>
</svg>
