<svg width="24" height="24" viewBox="0 0 24 24" fill="none" xmlns="http://www.w3.org/2000/svg">
<g clip-path="url(#clip0_11_1969)">
<path d="M13.9998 2H4.6C3.71634 2 3 2.71635 3 3.6V20.4C3 21.2837 3.71634 22 4.6 22H17.4C18.2837 22 19 21.2837 19 20.4V7.00024L13.9998 2Z" fill="#7E94B6"/>
<path d="M5 8C5 7.44772 5.44772 7 6 7H12C12.5523 7 13 7.44772 13 8V8C13 8.55228 12.5523 9 12 9H6C5.44772 9 5 8.55228 5 8V8Z" fill="white"/>
<path d="M5 12C5 11.4477 5.44772 11 6 11H9C9.55228 11 10 11.4477 10 12V12C10 12.5523 9.55228 13 9 13H6C5.44772 13 5 12.5523 5 12V12Z" fill="white"/>
<path d="M14 6.2V2L19 7H14.8C14.3582 7 14 6.64183 14 6.2Z" fill="#2F4E7F"/>
<path d="M22 18C22 20.7614 19.7614 23 17 23C14.2386 23 12 20.7614 12 18C12 15.2386 14.2386 13 17 13C19.7614 13 22 15.2386 22 18Z" fill="#2C4978"/>
<path fill-rule="evenodd" clip-rule="evenodd" d="M19.2904 16.2196C19.562 16.5211 19.5708 17.0201 19.31 17.3342L17.4318 19.5961C17.0083 20.1061 16.3115 20.1372 15.8552 19.6662L14.7277 18.5023C14.4468 18.2124 14.4224 17.7141 14.6732 17.3894C14.924 17.0646 15.355 17.0364 15.6359 17.3264L16.5999 18.3214L18.3263 16.2424C18.5871 15.9283 19.0187 15.9181 19.2904 16.2196Z" fill="white"/>
</g>
<defs>
<clipPath id="clip0_11_1969">
<rect width="24" height="24" fill="white"/>
</clipPath>
</defs>
</svg>
