<svg width="24" height="24" viewBox="0 0 24 24" fill="none" xmlns="http://www.w3.org/2000/svg">
<g clip-path="url(#clip0_11_1948)">
<path d="M15 3.00018H5C3.34315 3.00018 2 4.34332 2 6.00018V7.04179V19.0002C2 20.657 3.34315 22.0002 5 22.0002H15C16.6569 22.0002 18 20.657 18 19.0002V6.00018C18 4.34332 16.6569 3.00018 15 3.00018Z" fill="#9FB7DA"/>
<path d="M4 9.00018C4 8.44789 4.44772 8.00018 5 8.00018H10C10.5523 8.00018 11 8.44789 11 9.00018C11 9.55246 10.5523 10.0002 10 10.0002H5C4.44772 10.0002 4 9.55246 4 9.00018Z" fill="white"/>
<path d="M4 13.0002C4 12.4479 4.44772 12.0002 5 12.0002H6.5C7.05228 12.0002 7.5 12.4479 7.5 13.0002C7.5 13.5525 7.05228 14.0002 6.5 14.0002H5C4.44772 14.0002 4 13.5525 4 13.0002Z" fill="white"/>
<path d="M12.96 2.00018H7.04C6.46562 2.00018 6 2.50386 6 3.12518V3.87518C6 4.4965 6.46562 5.00018 7.04 5.00018H12.96C13.5344 5.00018 14 4.4965 14 3.87518V3.12518C14 2.50386 13.5344 2.00018 12.96 2.00018Z" fill="#748FAD"/>
<path d="M20.7162 11.0131L17.9872 8.28583L18.8969 7.37674C19.3993 6.87466 20.2138 6.87466 20.7162 7.37674L21.6258 8.28583C22.1282 8.78791 22.1282 9.60194 21.6258 10.104L20.7162 11.0131Z" fill="#1D45C5"/>
<path d="M12.9838 18.7446L10.2549 16.0173L17.9869 8.29006L20.7158 11.0173L12.9838 18.7446Z" fill="#4F79FF"/>
<path d="M9.68123 19.7176L12.9816 18.7475L10.2526 16.0203L9.28194 19.3186C9.21011 19.5626 9.43702 19.7894 9.68123 19.7176Z" fill="#5F5741"/>
<path d="M11.1634 19.2833L12.9839 18.7445L10.2549 16.0172L9.71526 17.8354L11.1634 19.2833Z" fill="#FFEBB5"/>
</g>
<defs>
<clipPath id="clip0_11_1948">
<rect width="24" height="24" fill="white"/>
</clipPath>
</defs>
</svg>
